%TF.GenerationSoftware,KiCad,Pcbnew,8.0.1-8.0.1-1~ubuntu22.04.1*%
%TF.CreationDate,2024-04-18T21:36:37+09:00*%
%TF.ProjectId,diy_oled_3d_controller,6469795f-6f6c-4656-945f-33645f636f6e,rev?*%
%TF.SameCoordinates,Original*%
%TF.FileFunction,Legend,Top*%
%TF.FilePolarity,Positive*%
%FSLAX46Y46*%
G04 Gerber Fmt 4.6, Leading zero omitted, Abs format (unit mm)*
G04 Created by KiCad (PCBNEW 8.0.1-8.0.1-1~ubuntu22.04.1) date 2024-04-18 21:36:37*
%MOMM*%
%LPD*%
G01*
G04 APERTURE LIST*
G04 Aperture macros list*
%AMRoundRect*
0 Rectangle with rounded corners*
0 $1 Rounding radius*
0 $2 $3 $4 $5 $6 $7 $8 $9 X,Y pos of 4 corners*
0 Add a 4 corners polygon primitive as box body*
4,1,4,$2,$3,$4,$5,$6,$7,$8,$9,$2,$3,0*
0 Add four circle primitives for the rounded corners*
1,1,$1+$1,$2,$3*
1,1,$1+$1,$4,$5*
1,1,$1+$1,$6,$7*
1,1,$1+$1,$8,$9*
0 Add four rect primitives between the rounded corners*
20,1,$1+$1,$2,$3,$4,$5,0*
20,1,$1+$1,$4,$5,$6,$7,0*
20,1,$1+$1,$6,$7,$8,$9,0*
20,1,$1+$1,$8,$9,$2,$3,0*%
G04 Aperture macros list end*
%ADD10C,0.150000*%
%ADD11C,0.200000*%
%ADD12C,0.127000*%
%ADD13C,0.120000*%
%ADD14C,1.600000*%
%ADD15RoundRect,0.056280X-0.835720X-0.345720X0.835720X-0.345720X0.835720X0.345720X-0.835720X0.345720X0*%
%ADD16RoundRect,0.237500X0.237500X-0.250000X0.237500X0.250000X-0.237500X0.250000X-0.237500X-0.250000X0*%
%ADD17RoundRect,0.237500X-0.237500X0.300000X-0.237500X-0.300000X0.237500X-0.300000X0.237500X0.300000X0*%
%ADD18RoundRect,0.237500X0.250000X0.237500X-0.250000X0.237500X-0.250000X-0.237500X0.250000X-0.237500X0*%
%ADD19R,1.700000X1.000000*%
%ADD20RoundRect,0.250000X-0.325000X-0.450000X0.325000X-0.450000X0.325000X0.450000X-0.325000X0.450000X0*%
%ADD21RoundRect,0.250001X1.074999X-0.462499X1.074999X0.462499X-1.074999X0.462499X-1.074999X-0.462499X0*%
%ADD22RoundRect,0.150000X-0.150000X0.587500X-0.150000X-0.587500X0.150000X-0.587500X0.150000X0.587500X0*%
%ADD23RoundRect,0.237500X0.237500X-0.300000X0.237500X0.300000X-0.237500X0.300000X-0.237500X-0.300000X0*%
%ADD24RoundRect,0.249999X-1.425001X0.450001X-1.425001X-0.450001X1.425001X-0.450001X1.425001X0.450001X0*%
%ADD25R,1.700000X1.700000*%
%ADD26O,1.700000X1.700000*%
%ADD27C,2.082800*%
%ADD28RoundRect,0.237500X-0.237500X0.250000X-0.237500X-0.250000X0.237500X-0.250000X0.237500X0.250000X0*%
%ADD29R,1.220000X1.220000*%
%ADD30C,1.220000*%
G04 APERTURE END LIST*
D10*
X102500000Y-109500000D02*
X112000000Y-109500000D01*
X102500000Y-108500000D02*
X112000000Y-108500000D01*
X112000000Y-84000000D02*
X102500000Y-84000000D01*
X102500000Y-85000000D02*
X112000000Y-85000000D01*
D11*
X125803740Y-64292231D02*
X125803740Y-63835088D01*
X126603740Y-64063660D02*
X125803740Y-64063660D01*
X126603740Y-63568421D02*
X125803740Y-63568421D01*
X126603740Y-63225564D02*
X126184692Y-63225564D01*
X126184692Y-63225564D02*
X126108502Y-63263659D01*
X126108502Y-63263659D02*
X126070406Y-63339850D01*
X126070406Y-63339850D02*
X126070406Y-63454136D01*
X126070406Y-63454136D02*
X126108502Y-63530326D01*
X126108502Y-63530326D02*
X126146597Y-63568421D01*
X126603740Y-62844611D02*
X126070406Y-62844611D01*
X125803740Y-62844611D02*
X125841835Y-62882707D01*
X125841835Y-62882707D02*
X125879930Y-62844611D01*
X125879930Y-62844611D02*
X125841835Y-62806516D01*
X125841835Y-62806516D02*
X125803740Y-62844611D01*
X125803740Y-62844611D02*
X125879930Y-62844611D01*
X126565645Y-62501755D02*
X126603740Y-62425564D01*
X126603740Y-62425564D02*
X126603740Y-62273183D01*
X126603740Y-62273183D02*
X126565645Y-62196993D01*
X126565645Y-62196993D02*
X126489454Y-62158897D01*
X126489454Y-62158897D02*
X126451359Y-62158897D01*
X126451359Y-62158897D02*
X126375168Y-62196993D01*
X126375168Y-62196993D02*
X126337073Y-62273183D01*
X126337073Y-62273183D02*
X126337073Y-62387469D01*
X126337073Y-62387469D02*
X126298978Y-62463659D01*
X126298978Y-62463659D02*
X126222787Y-62501755D01*
X126222787Y-62501755D02*
X126184692Y-62501755D01*
X126184692Y-62501755D02*
X126108502Y-62463659D01*
X126108502Y-62463659D02*
X126070406Y-62387469D01*
X126070406Y-62387469D02*
X126070406Y-62273183D01*
X126070406Y-62273183D02*
X126108502Y-62196993D01*
X126603740Y-61206516D02*
X125803740Y-61206516D01*
X125803740Y-61206516D02*
X125803740Y-60901754D01*
X125803740Y-60901754D02*
X125841835Y-60825564D01*
X125841835Y-60825564D02*
X125879930Y-60787469D01*
X125879930Y-60787469D02*
X125956121Y-60749373D01*
X125956121Y-60749373D02*
X126070406Y-60749373D01*
X126070406Y-60749373D02*
X126146597Y-60787469D01*
X126146597Y-60787469D02*
X126184692Y-60825564D01*
X126184692Y-60825564D02*
X126222787Y-60901754D01*
X126222787Y-60901754D02*
X126222787Y-61206516D01*
X126527549Y-59949373D02*
X126565645Y-59987469D01*
X126565645Y-59987469D02*
X126603740Y-60101754D01*
X126603740Y-60101754D02*
X126603740Y-60177945D01*
X126603740Y-60177945D02*
X126565645Y-60292231D01*
X126565645Y-60292231D02*
X126489454Y-60368421D01*
X126489454Y-60368421D02*
X126413264Y-60406516D01*
X126413264Y-60406516D02*
X126260883Y-60444612D01*
X126260883Y-60444612D02*
X126146597Y-60444612D01*
X126146597Y-60444612D02*
X125994216Y-60406516D01*
X125994216Y-60406516D02*
X125918025Y-60368421D01*
X125918025Y-60368421D02*
X125841835Y-60292231D01*
X125841835Y-60292231D02*
X125803740Y-60177945D01*
X125803740Y-60177945D02*
X125803740Y-60101754D01*
X125803740Y-60101754D02*
X125841835Y-59987469D01*
X125841835Y-59987469D02*
X125879930Y-59949373D01*
X126184692Y-59339850D02*
X126222787Y-59225564D01*
X126222787Y-59225564D02*
X126260883Y-59187469D01*
X126260883Y-59187469D02*
X126337073Y-59149373D01*
X126337073Y-59149373D02*
X126451359Y-59149373D01*
X126451359Y-59149373D02*
X126527549Y-59187469D01*
X126527549Y-59187469D02*
X126565645Y-59225564D01*
X126565645Y-59225564D02*
X126603740Y-59301754D01*
X126603740Y-59301754D02*
X126603740Y-59606516D01*
X126603740Y-59606516D02*
X125803740Y-59606516D01*
X125803740Y-59606516D02*
X125803740Y-59339850D01*
X125803740Y-59339850D02*
X125841835Y-59263659D01*
X125841835Y-59263659D02*
X125879930Y-59225564D01*
X125879930Y-59225564D02*
X125956121Y-59187469D01*
X125956121Y-59187469D02*
X126032311Y-59187469D01*
X126032311Y-59187469D02*
X126108502Y-59225564D01*
X126108502Y-59225564D02*
X126146597Y-59263659D01*
X126146597Y-59263659D02*
X126184692Y-59339850D01*
X126184692Y-59339850D02*
X126184692Y-59606516D01*
X126603740Y-57854135D02*
X126184692Y-57854135D01*
X126184692Y-57854135D02*
X126108502Y-57892230D01*
X126108502Y-57892230D02*
X126070406Y-57968421D01*
X126070406Y-57968421D02*
X126070406Y-58120802D01*
X126070406Y-58120802D02*
X126108502Y-58196992D01*
X126565645Y-57854135D02*
X126603740Y-57930326D01*
X126603740Y-57930326D02*
X126603740Y-58120802D01*
X126603740Y-58120802D02*
X126565645Y-58196992D01*
X126565645Y-58196992D02*
X126489454Y-58235088D01*
X126489454Y-58235088D02*
X126413264Y-58235088D01*
X126413264Y-58235088D02*
X126337073Y-58196992D01*
X126337073Y-58196992D02*
X126298978Y-58120802D01*
X126298978Y-58120802D02*
X126298978Y-57930326D01*
X126298978Y-57930326D02*
X126260883Y-57854135D01*
X126070406Y-57473182D02*
X126603740Y-57473182D01*
X126146597Y-57473182D02*
X126108502Y-57435087D01*
X126108502Y-57435087D02*
X126070406Y-57358897D01*
X126070406Y-57358897D02*
X126070406Y-57244611D01*
X126070406Y-57244611D02*
X126108502Y-57168420D01*
X126108502Y-57168420D02*
X126184692Y-57130325D01*
X126184692Y-57130325D02*
X126603740Y-57130325D01*
X126603740Y-56406515D02*
X125803740Y-56406515D01*
X126565645Y-56406515D02*
X126603740Y-56482706D01*
X126603740Y-56482706D02*
X126603740Y-56635087D01*
X126603740Y-56635087D02*
X126565645Y-56711277D01*
X126565645Y-56711277D02*
X126527549Y-56749372D01*
X126527549Y-56749372D02*
X126451359Y-56787468D01*
X126451359Y-56787468D02*
X126222787Y-56787468D01*
X126222787Y-56787468D02*
X126146597Y-56749372D01*
X126146597Y-56749372D02*
X126108502Y-56711277D01*
X126108502Y-56711277D02*
X126070406Y-56635087D01*
X126070406Y-56635087D02*
X126070406Y-56482706D01*
X126070406Y-56482706D02*
X126108502Y-56406515D01*
X126603740Y-55416038D02*
X126070406Y-55416038D01*
X125803740Y-55416038D02*
X125841835Y-55454134D01*
X125841835Y-55454134D02*
X125879930Y-55416038D01*
X125879930Y-55416038D02*
X125841835Y-55377943D01*
X125841835Y-55377943D02*
X125803740Y-55416038D01*
X125803740Y-55416038D02*
X125879930Y-55416038D01*
X126070406Y-55149372D02*
X126070406Y-54844610D01*
X125803740Y-55035086D02*
X126489454Y-55035086D01*
X126489454Y-55035086D02*
X126565645Y-54996991D01*
X126565645Y-54996991D02*
X126603740Y-54920801D01*
X126603740Y-54920801D02*
X126603740Y-54844610D01*
X126565645Y-54616039D02*
X126603740Y-54539848D01*
X126603740Y-54539848D02*
X126603740Y-54387467D01*
X126603740Y-54387467D02*
X126565645Y-54311277D01*
X126565645Y-54311277D02*
X126489454Y-54273181D01*
X126489454Y-54273181D02*
X126451359Y-54273181D01*
X126451359Y-54273181D02*
X126375168Y-54311277D01*
X126375168Y-54311277D02*
X126337073Y-54387467D01*
X126337073Y-54387467D02*
X126337073Y-54501753D01*
X126337073Y-54501753D02*
X126298978Y-54577943D01*
X126298978Y-54577943D02*
X126222787Y-54616039D01*
X126222787Y-54616039D02*
X126184692Y-54616039D01*
X126184692Y-54616039D02*
X126108502Y-54577943D01*
X126108502Y-54577943D02*
X126070406Y-54501753D01*
X126070406Y-54501753D02*
X126070406Y-54387467D01*
X126070406Y-54387467D02*
X126108502Y-54311277D01*
X126603740Y-52977943D02*
X125803740Y-52977943D01*
X126565645Y-52977943D02*
X126603740Y-53054134D01*
X126603740Y-53054134D02*
X126603740Y-53206515D01*
X126603740Y-53206515D02*
X126565645Y-53282705D01*
X126565645Y-53282705D02*
X126527549Y-53320800D01*
X126527549Y-53320800D02*
X126451359Y-53358896D01*
X126451359Y-53358896D02*
X126222787Y-53358896D01*
X126222787Y-53358896D02*
X126146597Y-53320800D01*
X126146597Y-53320800D02*
X126108502Y-53282705D01*
X126108502Y-53282705D02*
X126070406Y-53206515D01*
X126070406Y-53206515D02*
X126070406Y-53054134D01*
X126070406Y-53054134D02*
X126108502Y-52977943D01*
X126565645Y-52292228D02*
X126603740Y-52368419D01*
X126603740Y-52368419D02*
X126603740Y-52520800D01*
X126603740Y-52520800D02*
X126565645Y-52596990D01*
X126565645Y-52596990D02*
X126489454Y-52635086D01*
X126489454Y-52635086D02*
X126184692Y-52635086D01*
X126184692Y-52635086D02*
X126108502Y-52596990D01*
X126108502Y-52596990D02*
X126070406Y-52520800D01*
X126070406Y-52520800D02*
X126070406Y-52368419D01*
X126070406Y-52368419D02*
X126108502Y-52292228D01*
X126108502Y-52292228D02*
X126184692Y-52254133D01*
X126184692Y-52254133D02*
X126260883Y-52254133D01*
X126260883Y-52254133D02*
X126337073Y-52635086D01*
X126565645Y-51949372D02*
X126603740Y-51873181D01*
X126603740Y-51873181D02*
X126603740Y-51720800D01*
X126603740Y-51720800D02*
X126565645Y-51644610D01*
X126565645Y-51644610D02*
X126489454Y-51606514D01*
X126489454Y-51606514D02*
X126451359Y-51606514D01*
X126451359Y-51606514D02*
X126375168Y-51644610D01*
X126375168Y-51644610D02*
X126337073Y-51720800D01*
X126337073Y-51720800D02*
X126337073Y-51835086D01*
X126337073Y-51835086D02*
X126298978Y-51911276D01*
X126298978Y-51911276D02*
X126222787Y-51949372D01*
X126222787Y-51949372D02*
X126184692Y-51949372D01*
X126184692Y-51949372D02*
X126108502Y-51911276D01*
X126108502Y-51911276D02*
X126070406Y-51835086D01*
X126070406Y-51835086D02*
X126070406Y-51720800D01*
X126070406Y-51720800D02*
X126108502Y-51644610D01*
X126603740Y-51263657D02*
X126070406Y-51263657D01*
X125803740Y-51263657D02*
X125841835Y-51301753D01*
X125841835Y-51301753D02*
X125879930Y-51263657D01*
X125879930Y-51263657D02*
X125841835Y-51225562D01*
X125841835Y-51225562D02*
X125803740Y-51263657D01*
X125803740Y-51263657D02*
X125879930Y-51263657D01*
X126070406Y-50539848D02*
X126718025Y-50539848D01*
X126718025Y-50539848D02*
X126794216Y-50577943D01*
X126794216Y-50577943D02*
X126832311Y-50616039D01*
X126832311Y-50616039D02*
X126870406Y-50692229D01*
X126870406Y-50692229D02*
X126870406Y-50806515D01*
X126870406Y-50806515D02*
X126832311Y-50882705D01*
X126565645Y-50539848D02*
X126603740Y-50616039D01*
X126603740Y-50616039D02*
X126603740Y-50768420D01*
X126603740Y-50768420D02*
X126565645Y-50844610D01*
X126565645Y-50844610D02*
X126527549Y-50882705D01*
X126527549Y-50882705D02*
X126451359Y-50920801D01*
X126451359Y-50920801D02*
X126222787Y-50920801D01*
X126222787Y-50920801D02*
X126146597Y-50882705D01*
X126146597Y-50882705D02*
X126108502Y-50844610D01*
X126108502Y-50844610D02*
X126070406Y-50768420D01*
X126070406Y-50768420D02*
X126070406Y-50616039D01*
X126070406Y-50616039D02*
X126108502Y-50539848D01*
X126070406Y-50158895D02*
X126603740Y-50158895D01*
X126146597Y-50158895D02*
X126108502Y-50120800D01*
X126108502Y-50120800D02*
X126070406Y-50044610D01*
X126070406Y-50044610D02*
X126070406Y-49930324D01*
X126070406Y-49930324D02*
X126108502Y-49854133D01*
X126108502Y-49854133D02*
X126184692Y-49816038D01*
X126184692Y-49816038D02*
X126603740Y-49816038D01*
X126603740Y-48825561D02*
X125803740Y-48825561D01*
X126108502Y-48825561D02*
X126070406Y-48749371D01*
X126070406Y-48749371D02*
X126070406Y-48596990D01*
X126070406Y-48596990D02*
X126108502Y-48520799D01*
X126108502Y-48520799D02*
X126146597Y-48482704D01*
X126146597Y-48482704D02*
X126222787Y-48444609D01*
X126222787Y-48444609D02*
X126451359Y-48444609D01*
X126451359Y-48444609D02*
X126527549Y-48482704D01*
X126527549Y-48482704D02*
X126565645Y-48520799D01*
X126565645Y-48520799D02*
X126603740Y-48596990D01*
X126603740Y-48596990D02*
X126603740Y-48749371D01*
X126603740Y-48749371D02*
X126565645Y-48825561D01*
X126070406Y-48177942D02*
X126603740Y-47987466D01*
X126070406Y-47796989D02*
X126603740Y-47987466D01*
X126603740Y-47987466D02*
X126794216Y-48063656D01*
X126794216Y-48063656D02*
X126832311Y-48101751D01*
X126832311Y-48101751D02*
X126870406Y-48177942D01*
X125803740Y-46730322D02*
X125803740Y-46577941D01*
X125803740Y-46577941D02*
X125841835Y-46501751D01*
X125841835Y-46501751D02*
X125918025Y-46425560D01*
X125918025Y-46425560D02*
X126070406Y-46387465D01*
X126070406Y-46387465D02*
X126337073Y-46387465D01*
X126337073Y-46387465D02*
X126489454Y-46425560D01*
X126489454Y-46425560D02*
X126565645Y-46501751D01*
X126565645Y-46501751D02*
X126603740Y-46577941D01*
X126603740Y-46577941D02*
X126603740Y-46730322D01*
X126603740Y-46730322D02*
X126565645Y-46806513D01*
X126565645Y-46806513D02*
X126489454Y-46882703D01*
X126489454Y-46882703D02*
X126337073Y-46920799D01*
X126337073Y-46920799D02*
X126070406Y-46920799D01*
X126070406Y-46920799D02*
X125918025Y-46882703D01*
X125918025Y-46882703D02*
X125841835Y-46806513D01*
X125841835Y-46806513D02*
X125803740Y-46730322D01*
X126070406Y-46044608D02*
X126870406Y-46044608D01*
X126108502Y-46044608D02*
X126070406Y-45968418D01*
X126070406Y-45968418D02*
X126070406Y-45816037D01*
X126070406Y-45816037D02*
X126108502Y-45739846D01*
X126108502Y-45739846D02*
X126146597Y-45701751D01*
X126146597Y-45701751D02*
X126222787Y-45663656D01*
X126222787Y-45663656D02*
X126451359Y-45663656D01*
X126451359Y-45663656D02*
X126527549Y-45701751D01*
X126527549Y-45701751D02*
X126565645Y-45739846D01*
X126565645Y-45739846D02*
X126603740Y-45816037D01*
X126603740Y-45816037D02*
X126603740Y-45968418D01*
X126603740Y-45968418D02*
X126565645Y-46044608D01*
X126565645Y-45016036D02*
X126603740Y-45092227D01*
X126603740Y-45092227D02*
X126603740Y-45244608D01*
X126603740Y-45244608D02*
X126565645Y-45320798D01*
X126565645Y-45320798D02*
X126489454Y-45358894D01*
X126489454Y-45358894D02*
X126184692Y-45358894D01*
X126184692Y-45358894D02*
X126108502Y-45320798D01*
X126108502Y-45320798D02*
X126070406Y-45244608D01*
X126070406Y-45244608D02*
X126070406Y-45092227D01*
X126070406Y-45092227D02*
X126108502Y-45016036D01*
X126108502Y-45016036D02*
X126184692Y-44977941D01*
X126184692Y-44977941D02*
X126260883Y-44977941D01*
X126260883Y-44977941D02*
X126337073Y-45358894D01*
X126070406Y-44635084D02*
X126603740Y-44635084D01*
X126146597Y-44635084D02*
X126108502Y-44596989D01*
X126108502Y-44596989D02*
X126070406Y-44520799D01*
X126070406Y-44520799D02*
X126070406Y-44406513D01*
X126070406Y-44406513D02*
X126108502Y-44330322D01*
X126108502Y-44330322D02*
X126184692Y-44292227D01*
X126184692Y-44292227D02*
X126603740Y-44292227D01*
X125803740Y-43987465D02*
X125803740Y-43492227D01*
X125803740Y-43492227D02*
X126108502Y-43758893D01*
X126108502Y-43758893D02*
X126108502Y-43644608D01*
X126108502Y-43644608D02*
X126146597Y-43568417D01*
X126146597Y-43568417D02*
X126184692Y-43530322D01*
X126184692Y-43530322D02*
X126260883Y-43492227D01*
X126260883Y-43492227D02*
X126451359Y-43492227D01*
X126451359Y-43492227D02*
X126527549Y-43530322D01*
X126527549Y-43530322D02*
X126565645Y-43568417D01*
X126565645Y-43568417D02*
X126603740Y-43644608D01*
X126603740Y-43644608D02*
X126603740Y-43873179D01*
X126603740Y-43873179D02*
X126565645Y-43949370D01*
X126565645Y-43949370D02*
X126527549Y-43987465D01*
X126603740Y-43149369D02*
X125803740Y-43149369D01*
X125803740Y-43149369D02*
X125803740Y-42958893D01*
X125803740Y-42958893D02*
X125841835Y-42844607D01*
X125841835Y-42844607D02*
X125918025Y-42768417D01*
X125918025Y-42768417D02*
X125994216Y-42730322D01*
X125994216Y-42730322D02*
X126146597Y-42692226D01*
X126146597Y-42692226D02*
X126260883Y-42692226D01*
X126260883Y-42692226D02*
X126413264Y-42730322D01*
X126413264Y-42730322D02*
X126489454Y-42768417D01*
X126489454Y-42768417D02*
X126565645Y-42844607D01*
X126565645Y-42844607D02*
X126603740Y-42958893D01*
X126603740Y-42958893D02*
X126603740Y-43149369D01*
X125803740Y-42196988D02*
X125803740Y-42044607D01*
X125803740Y-42044607D02*
X125841835Y-41968417D01*
X125841835Y-41968417D02*
X125918025Y-41892226D01*
X125918025Y-41892226D02*
X126070406Y-41854131D01*
X126070406Y-41854131D02*
X126337073Y-41854131D01*
X126337073Y-41854131D02*
X126489454Y-41892226D01*
X126489454Y-41892226D02*
X126565645Y-41968417D01*
X126565645Y-41968417D02*
X126603740Y-42044607D01*
X126603740Y-42044607D02*
X126603740Y-42196988D01*
X126603740Y-42196988D02*
X126565645Y-42273179D01*
X126565645Y-42273179D02*
X126489454Y-42349369D01*
X126489454Y-42349369D02*
X126337073Y-42387465D01*
X126337073Y-42387465D02*
X126070406Y-42387465D01*
X126070406Y-42387465D02*
X125918025Y-42349369D01*
X125918025Y-42349369D02*
X125841835Y-42273179D01*
X125841835Y-42273179D02*
X125803740Y-42196988D01*
X126603740Y-41130322D02*
X126603740Y-41511274D01*
X126603740Y-41511274D02*
X125803740Y-41511274D01*
X126184692Y-40863655D02*
X126184692Y-40596989D01*
X126603740Y-40482703D02*
X126603740Y-40863655D01*
X126603740Y-40863655D02*
X125803740Y-40863655D01*
X125803740Y-40863655D02*
X125803740Y-40482703D01*
X126603740Y-40139845D02*
X125803740Y-40139845D01*
X125803740Y-40139845D02*
X125803740Y-39949369D01*
X125803740Y-39949369D02*
X125841835Y-39835083D01*
X125841835Y-39835083D02*
X125918025Y-39758893D01*
X125918025Y-39758893D02*
X125994216Y-39720798D01*
X125994216Y-39720798D02*
X126146597Y-39682702D01*
X126146597Y-39682702D02*
X126260883Y-39682702D01*
X126260883Y-39682702D02*
X126413264Y-39720798D01*
X126413264Y-39720798D02*
X126489454Y-39758893D01*
X126489454Y-39758893D02*
X126565645Y-39835083D01*
X126565645Y-39835083D02*
X126603740Y-39949369D01*
X126603740Y-39949369D02*
X126603740Y-40139845D01*
X127891695Y-64177945D02*
X127358361Y-64177945D01*
X127091695Y-64177945D02*
X127129790Y-64216041D01*
X127129790Y-64216041D02*
X127167885Y-64177945D01*
X127167885Y-64177945D02*
X127129790Y-64139850D01*
X127129790Y-64139850D02*
X127091695Y-64177945D01*
X127091695Y-64177945D02*
X127167885Y-64177945D01*
X127853600Y-63835089D02*
X127891695Y-63758898D01*
X127891695Y-63758898D02*
X127891695Y-63606517D01*
X127891695Y-63606517D02*
X127853600Y-63530327D01*
X127853600Y-63530327D02*
X127777409Y-63492231D01*
X127777409Y-63492231D02*
X127739314Y-63492231D01*
X127739314Y-63492231D02*
X127663123Y-63530327D01*
X127663123Y-63530327D02*
X127625028Y-63606517D01*
X127625028Y-63606517D02*
X127625028Y-63720803D01*
X127625028Y-63720803D02*
X127586933Y-63796993D01*
X127586933Y-63796993D02*
X127510742Y-63835089D01*
X127510742Y-63835089D02*
X127472647Y-63835089D01*
X127472647Y-63835089D02*
X127396457Y-63796993D01*
X127396457Y-63796993D02*
X127358361Y-63720803D01*
X127358361Y-63720803D02*
X127358361Y-63606517D01*
X127358361Y-63606517D02*
X127396457Y-63530327D01*
X127891695Y-62425565D02*
X127853600Y-62501755D01*
X127853600Y-62501755D02*
X127777409Y-62539850D01*
X127777409Y-62539850D02*
X127091695Y-62539850D01*
X127891695Y-62120802D02*
X127358361Y-62120802D01*
X127091695Y-62120802D02*
X127129790Y-62158898D01*
X127129790Y-62158898D02*
X127167885Y-62120802D01*
X127167885Y-62120802D02*
X127129790Y-62082707D01*
X127129790Y-62082707D02*
X127091695Y-62120802D01*
X127091695Y-62120802D02*
X127167885Y-62120802D01*
X127853600Y-61396993D02*
X127891695Y-61473184D01*
X127891695Y-61473184D02*
X127891695Y-61625565D01*
X127891695Y-61625565D02*
X127853600Y-61701755D01*
X127853600Y-61701755D02*
X127815504Y-61739850D01*
X127815504Y-61739850D02*
X127739314Y-61777946D01*
X127739314Y-61777946D02*
X127510742Y-61777946D01*
X127510742Y-61777946D02*
X127434552Y-61739850D01*
X127434552Y-61739850D02*
X127396457Y-61701755D01*
X127396457Y-61701755D02*
X127358361Y-61625565D01*
X127358361Y-61625565D02*
X127358361Y-61473184D01*
X127358361Y-61473184D02*
X127396457Y-61396993D01*
X127853600Y-60749374D02*
X127891695Y-60825565D01*
X127891695Y-60825565D02*
X127891695Y-60977946D01*
X127891695Y-60977946D02*
X127853600Y-61054136D01*
X127853600Y-61054136D02*
X127777409Y-61092232D01*
X127777409Y-61092232D02*
X127472647Y-61092232D01*
X127472647Y-61092232D02*
X127396457Y-61054136D01*
X127396457Y-61054136D02*
X127358361Y-60977946D01*
X127358361Y-60977946D02*
X127358361Y-60825565D01*
X127358361Y-60825565D02*
X127396457Y-60749374D01*
X127396457Y-60749374D02*
X127472647Y-60711279D01*
X127472647Y-60711279D02*
X127548838Y-60711279D01*
X127548838Y-60711279D02*
X127625028Y-61092232D01*
X127358361Y-60368422D02*
X127891695Y-60368422D01*
X127434552Y-60368422D02*
X127396457Y-60330327D01*
X127396457Y-60330327D02*
X127358361Y-60254137D01*
X127358361Y-60254137D02*
X127358361Y-60139851D01*
X127358361Y-60139851D02*
X127396457Y-60063660D01*
X127396457Y-60063660D02*
X127472647Y-60025565D01*
X127472647Y-60025565D02*
X127891695Y-60025565D01*
X127853600Y-59682708D02*
X127891695Y-59606517D01*
X127891695Y-59606517D02*
X127891695Y-59454136D01*
X127891695Y-59454136D02*
X127853600Y-59377946D01*
X127853600Y-59377946D02*
X127777409Y-59339850D01*
X127777409Y-59339850D02*
X127739314Y-59339850D01*
X127739314Y-59339850D02*
X127663123Y-59377946D01*
X127663123Y-59377946D02*
X127625028Y-59454136D01*
X127625028Y-59454136D02*
X127625028Y-59568422D01*
X127625028Y-59568422D02*
X127586933Y-59644612D01*
X127586933Y-59644612D02*
X127510742Y-59682708D01*
X127510742Y-59682708D02*
X127472647Y-59682708D01*
X127472647Y-59682708D02*
X127396457Y-59644612D01*
X127396457Y-59644612D02*
X127358361Y-59568422D01*
X127358361Y-59568422D02*
X127358361Y-59454136D01*
X127358361Y-59454136D02*
X127396457Y-59377946D01*
X127853600Y-58692231D02*
X127891695Y-58768422D01*
X127891695Y-58768422D02*
X127891695Y-58920803D01*
X127891695Y-58920803D02*
X127853600Y-58996993D01*
X127853600Y-58996993D02*
X127777409Y-59035089D01*
X127777409Y-59035089D02*
X127472647Y-59035089D01*
X127472647Y-59035089D02*
X127396457Y-58996993D01*
X127396457Y-58996993D02*
X127358361Y-58920803D01*
X127358361Y-58920803D02*
X127358361Y-58768422D01*
X127358361Y-58768422D02*
X127396457Y-58692231D01*
X127396457Y-58692231D02*
X127472647Y-58654136D01*
X127472647Y-58654136D02*
X127548838Y-58654136D01*
X127548838Y-58654136D02*
X127625028Y-59035089D01*
X127891695Y-57968422D02*
X127091695Y-57968422D01*
X127853600Y-57968422D02*
X127891695Y-58044613D01*
X127891695Y-58044613D02*
X127891695Y-58196994D01*
X127891695Y-58196994D02*
X127853600Y-58273184D01*
X127853600Y-58273184D02*
X127815504Y-58311279D01*
X127815504Y-58311279D02*
X127739314Y-58349375D01*
X127739314Y-58349375D02*
X127510742Y-58349375D01*
X127510742Y-58349375D02*
X127434552Y-58311279D01*
X127434552Y-58311279D02*
X127396457Y-58273184D01*
X127396457Y-58273184D02*
X127358361Y-58196994D01*
X127358361Y-58196994D02*
X127358361Y-58044613D01*
X127358361Y-58044613D02*
X127396457Y-57968422D01*
X127358361Y-56635088D02*
X127891695Y-56635088D01*
X127358361Y-56977945D02*
X127777409Y-56977945D01*
X127777409Y-56977945D02*
X127853600Y-56939850D01*
X127853600Y-56939850D02*
X127891695Y-56863660D01*
X127891695Y-56863660D02*
X127891695Y-56749374D01*
X127891695Y-56749374D02*
X127853600Y-56673183D01*
X127853600Y-56673183D02*
X127815504Y-56635088D01*
X127358361Y-56254135D02*
X127891695Y-56254135D01*
X127434552Y-56254135D02*
X127396457Y-56216040D01*
X127396457Y-56216040D02*
X127358361Y-56139850D01*
X127358361Y-56139850D02*
X127358361Y-56025564D01*
X127358361Y-56025564D02*
X127396457Y-55949373D01*
X127396457Y-55949373D02*
X127472647Y-55911278D01*
X127472647Y-55911278D02*
X127891695Y-55911278D01*
X127891695Y-55187468D02*
X127091695Y-55187468D01*
X127853600Y-55187468D02*
X127891695Y-55263659D01*
X127891695Y-55263659D02*
X127891695Y-55416040D01*
X127891695Y-55416040D02*
X127853600Y-55492230D01*
X127853600Y-55492230D02*
X127815504Y-55530325D01*
X127815504Y-55530325D02*
X127739314Y-55568421D01*
X127739314Y-55568421D02*
X127510742Y-55568421D01*
X127510742Y-55568421D02*
X127434552Y-55530325D01*
X127434552Y-55530325D02*
X127396457Y-55492230D01*
X127396457Y-55492230D02*
X127358361Y-55416040D01*
X127358361Y-55416040D02*
X127358361Y-55263659D01*
X127358361Y-55263659D02*
X127396457Y-55187468D01*
X127853600Y-54501753D02*
X127891695Y-54577944D01*
X127891695Y-54577944D02*
X127891695Y-54730325D01*
X127891695Y-54730325D02*
X127853600Y-54806515D01*
X127853600Y-54806515D02*
X127777409Y-54844611D01*
X127777409Y-54844611D02*
X127472647Y-54844611D01*
X127472647Y-54844611D02*
X127396457Y-54806515D01*
X127396457Y-54806515D02*
X127358361Y-54730325D01*
X127358361Y-54730325D02*
X127358361Y-54577944D01*
X127358361Y-54577944D02*
X127396457Y-54501753D01*
X127396457Y-54501753D02*
X127472647Y-54463658D01*
X127472647Y-54463658D02*
X127548838Y-54463658D01*
X127548838Y-54463658D02*
X127625028Y-54844611D01*
X127891695Y-54120801D02*
X127358361Y-54120801D01*
X127510742Y-54120801D02*
X127434552Y-54082706D01*
X127434552Y-54082706D02*
X127396457Y-54044611D01*
X127396457Y-54044611D02*
X127358361Y-53968420D01*
X127358361Y-53968420D02*
X127358361Y-53892230D01*
X127815504Y-52558896D02*
X127853600Y-52596992D01*
X127853600Y-52596992D02*
X127891695Y-52711277D01*
X127891695Y-52711277D02*
X127891695Y-52787468D01*
X127891695Y-52787468D02*
X127853600Y-52901754D01*
X127853600Y-52901754D02*
X127777409Y-52977944D01*
X127777409Y-52977944D02*
X127701219Y-53016039D01*
X127701219Y-53016039D02*
X127548838Y-53054135D01*
X127548838Y-53054135D02*
X127434552Y-53054135D01*
X127434552Y-53054135D02*
X127282171Y-53016039D01*
X127282171Y-53016039D02*
X127205980Y-52977944D01*
X127205980Y-52977944D02*
X127129790Y-52901754D01*
X127129790Y-52901754D02*
X127091695Y-52787468D01*
X127091695Y-52787468D02*
X127091695Y-52711277D01*
X127091695Y-52711277D02*
X127129790Y-52596992D01*
X127129790Y-52596992D02*
X127167885Y-52558896D01*
X127815504Y-51758896D02*
X127853600Y-51796992D01*
X127853600Y-51796992D02*
X127891695Y-51911277D01*
X127891695Y-51911277D02*
X127891695Y-51987468D01*
X127891695Y-51987468D02*
X127853600Y-52101754D01*
X127853600Y-52101754D02*
X127777409Y-52177944D01*
X127777409Y-52177944D02*
X127701219Y-52216039D01*
X127701219Y-52216039D02*
X127548838Y-52254135D01*
X127548838Y-52254135D02*
X127434552Y-52254135D01*
X127434552Y-52254135D02*
X127282171Y-52216039D01*
X127282171Y-52216039D02*
X127205980Y-52177944D01*
X127205980Y-52177944D02*
X127129790Y-52101754D01*
X127129790Y-52101754D02*
X127091695Y-51987468D01*
X127091695Y-51987468D02*
X127091695Y-51911277D01*
X127091695Y-51911277D02*
X127129790Y-51796992D01*
X127129790Y-51796992D02*
X127167885Y-51758896D01*
X127472647Y-50539849D02*
X127510742Y-50425563D01*
X127510742Y-50425563D02*
X127548838Y-50387468D01*
X127548838Y-50387468D02*
X127625028Y-50349372D01*
X127625028Y-50349372D02*
X127739314Y-50349372D01*
X127739314Y-50349372D02*
X127815504Y-50387468D01*
X127815504Y-50387468D02*
X127853600Y-50425563D01*
X127853600Y-50425563D02*
X127891695Y-50501753D01*
X127891695Y-50501753D02*
X127891695Y-50806515D01*
X127891695Y-50806515D02*
X127091695Y-50806515D01*
X127091695Y-50806515D02*
X127091695Y-50539849D01*
X127091695Y-50539849D02*
X127129790Y-50463658D01*
X127129790Y-50463658D02*
X127167885Y-50425563D01*
X127167885Y-50425563D02*
X127244076Y-50387468D01*
X127244076Y-50387468D02*
X127320266Y-50387468D01*
X127320266Y-50387468D02*
X127396457Y-50425563D01*
X127396457Y-50425563D02*
X127434552Y-50463658D01*
X127434552Y-50463658D02*
X127472647Y-50539849D01*
X127472647Y-50539849D02*
X127472647Y-50806515D01*
X127510742Y-49854134D02*
X127891695Y-49854134D01*
X127091695Y-50120801D02*
X127510742Y-49854134D01*
X127510742Y-49854134D02*
X127091695Y-49587468D01*
X127586933Y-49320801D02*
X127586933Y-48711278D01*
X127891695Y-48330325D02*
X127091695Y-48330325D01*
X127091695Y-48330325D02*
X127891695Y-47873182D01*
X127891695Y-47873182D02*
X127091695Y-47873182D01*
X127815504Y-47035087D02*
X127853600Y-47073183D01*
X127853600Y-47073183D02*
X127891695Y-47187468D01*
X127891695Y-47187468D02*
X127891695Y-47263659D01*
X127891695Y-47263659D02*
X127853600Y-47377945D01*
X127853600Y-47377945D02*
X127777409Y-47454135D01*
X127777409Y-47454135D02*
X127701219Y-47492230D01*
X127701219Y-47492230D02*
X127548838Y-47530326D01*
X127548838Y-47530326D02*
X127434552Y-47530326D01*
X127434552Y-47530326D02*
X127282171Y-47492230D01*
X127282171Y-47492230D02*
X127205980Y-47454135D01*
X127205980Y-47454135D02*
X127129790Y-47377945D01*
X127129790Y-47377945D02*
X127091695Y-47263659D01*
X127091695Y-47263659D02*
X127091695Y-47187468D01*
X127091695Y-47187468D02*
X127129790Y-47073183D01*
X127129790Y-47073183D02*
X127167885Y-47035087D01*
X127586933Y-46692230D02*
X127586933Y-46082707D01*
X127853600Y-45739850D02*
X127891695Y-45625564D01*
X127891695Y-45625564D02*
X127891695Y-45435088D01*
X127891695Y-45435088D02*
X127853600Y-45358897D01*
X127853600Y-45358897D02*
X127815504Y-45320802D01*
X127815504Y-45320802D02*
X127739314Y-45282707D01*
X127739314Y-45282707D02*
X127663123Y-45282707D01*
X127663123Y-45282707D02*
X127586933Y-45320802D01*
X127586933Y-45320802D02*
X127548838Y-45358897D01*
X127548838Y-45358897D02*
X127510742Y-45435088D01*
X127510742Y-45435088D02*
X127472647Y-45587469D01*
X127472647Y-45587469D02*
X127434552Y-45663659D01*
X127434552Y-45663659D02*
X127396457Y-45701754D01*
X127396457Y-45701754D02*
X127320266Y-45739850D01*
X127320266Y-45739850D02*
X127244076Y-45739850D01*
X127244076Y-45739850D02*
X127167885Y-45701754D01*
X127167885Y-45701754D02*
X127129790Y-45663659D01*
X127129790Y-45663659D02*
X127091695Y-45587469D01*
X127091695Y-45587469D02*
X127091695Y-45396992D01*
X127091695Y-45396992D02*
X127129790Y-45282707D01*
X127663123Y-44977945D02*
X127663123Y-44596992D01*
X127891695Y-45054135D02*
X127091695Y-44787468D01*
X127091695Y-44787468D02*
X127891695Y-44520802D01*
X127358361Y-43301754D02*
X127891695Y-43301754D01*
X127053600Y-43492230D02*
X127625028Y-43682707D01*
X127625028Y-43682707D02*
X127625028Y-43187468D01*
X127815504Y-42882706D02*
X127853600Y-42844611D01*
X127853600Y-42844611D02*
X127891695Y-42882706D01*
X127891695Y-42882706D02*
X127853600Y-42920802D01*
X127853600Y-42920802D02*
X127815504Y-42882706D01*
X127815504Y-42882706D02*
X127891695Y-42882706D01*
X127091695Y-42349373D02*
X127091695Y-42273183D01*
X127091695Y-42273183D02*
X127129790Y-42196992D01*
X127129790Y-42196992D02*
X127167885Y-42158897D01*
X127167885Y-42158897D02*
X127244076Y-42120802D01*
X127244076Y-42120802D02*
X127396457Y-42082707D01*
X127396457Y-42082707D02*
X127586933Y-42082707D01*
X127586933Y-42082707D02*
X127739314Y-42120802D01*
X127739314Y-42120802D02*
X127815504Y-42158897D01*
X127815504Y-42158897D02*
X127853600Y-42196992D01*
X127853600Y-42196992D02*
X127891695Y-42273183D01*
X127891695Y-42273183D02*
X127891695Y-42349373D01*
X127891695Y-42349373D02*
X127853600Y-42425564D01*
X127853600Y-42425564D02*
X127815504Y-42463659D01*
X127815504Y-42463659D02*
X127739314Y-42501754D01*
X127739314Y-42501754D02*
X127586933Y-42539850D01*
X127586933Y-42539850D02*
X127396457Y-42539850D01*
X127396457Y-42539850D02*
X127244076Y-42501754D01*
X127244076Y-42501754D02*
X127167885Y-42463659D01*
X127167885Y-42463659D02*
X127129790Y-42425564D01*
X127129790Y-42425564D02*
X127091695Y-42349373D01*
X127815504Y-41739849D02*
X127853600Y-41701754D01*
X127853600Y-41701754D02*
X127891695Y-41739849D01*
X127891695Y-41739849D02*
X127853600Y-41777945D01*
X127853600Y-41777945D02*
X127815504Y-41739849D01*
X127815504Y-41739849D02*
X127891695Y-41739849D01*
D10*
X103338095Y-98117819D02*
X103338095Y-98927342D01*
X103338095Y-98927342D02*
X103385714Y-99022580D01*
X103385714Y-99022580D02*
X103433333Y-99070200D01*
X103433333Y-99070200D02*
X103528571Y-99117819D01*
X103528571Y-99117819D02*
X103719047Y-99117819D01*
X103719047Y-99117819D02*
X103814285Y-99070200D01*
X103814285Y-99070200D02*
X103861904Y-99022580D01*
X103861904Y-99022580D02*
X103909523Y-98927342D01*
X103909523Y-98927342D02*
X103909523Y-98117819D01*
X104814285Y-98451152D02*
X104814285Y-99117819D01*
X104576190Y-98070200D02*
X104338095Y-98784485D01*
X104338095Y-98784485D02*
X104957142Y-98784485D01*
X97954819Y-104166666D02*
X97478628Y-104499999D01*
X97954819Y-104738094D02*
X96954819Y-104738094D01*
X96954819Y-104738094D02*
X96954819Y-104357142D01*
X96954819Y-104357142D02*
X97002438Y-104261904D01*
X97002438Y-104261904D02*
X97050057Y-104214285D01*
X97050057Y-104214285D02*
X97145295Y-104166666D01*
X97145295Y-104166666D02*
X97288152Y-104166666D01*
X97288152Y-104166666D02*
X97383390Y-104214285D01*
X97383390Y-104214285D02*
X97431009Y-104261904D01*
X97431009Y-104261904D02*
X97478628Y-104357142D01*
X97478628Y-104357142D02*
X97478628Y-104738094D01*
X96954819Y-103833332D02*
X96954819Y-103214285D01*
X96954819Y-103214285D02*
X97335771Y-103547618D01*
X97335771Y-103547618D02*
X97335771Y-103404761D01*
X97335771Y-103404761D02*
X97383390Y-103309523D01*
X97383390Y-103309523D02*
X97431009Y-103261904D01*
X97431009Y-103261904D02*
X97526247Y-103214285D01*
X97526247Y-103214285D02*
X97764342Y-103214285D01*
X97764342Y-103214285D02*
X97859580Y-103261904D01*
X97859580Y-103261904D02*
X97907200Y-103309523D01*
X97907200Y-103309523D02*
X97954819Y-103404761D01*
X97954819Y-103404761D02*
X97954819Y-103690475D01*
X97954819Y-103690475D02*
X97907200Y-103785713D01*
X97907200Y-103785713D02*
X97859580Y-103833332D01*
X99859580Y-104166666D02*
X99907200Y-104214285D01*
X99907200Y-104214285D02*
X99954819Y-104357142D01*
X99954819Y-104357142D02*
X99954819Y-104452380D01*
X99954819Y-104452380D02*
X99907200Y-104595237D01*
X99907200Y-104595237D02*
X99811961Y-104690475D01*
X99811961Y-104690475D02*
X99716723Y-104738094D01*
X99716723Y-104738094D02*
X99526247Y-104785713D01*
X99526247Y-104785713D02*
X99383390Y-104785713D01*
X99383390Y-104785713D02*
X99192914Y-104738094D01*
X99192914Y-104738094D02*
X99097676Y-104690475D01*
X99097676Y-104690475D02*
X99002438Y-104595237D01*
X99002438Y-104595237D02*
X98954819Y-104452380D01*
X98954819Y-104452380D02*
X98954819Y-104357142D01*
X98954819Y-104357142D02*
X99002438Y-104214285D01*
X99002438Y-104214285D02*
X99050057Y-104166666D01*
X99288152Y-103309523D02*
X99954819Y-103309523D01*
X98907200Y-103547618D02*
X99621485Y-103785713D01*
X99621485Y-103785713D02*
X99621485Y-103166666D01*
X92587992Y-64680256D02*
X92730869Y-64727881D01*
X92730869Y-64727881D02*
X92968996Y-64727881D01*
X92968996Y-64727881D02*
X93064247Y-64680256D01*
X93064247Y-64680256D02*
X93111872Y-64632630D01*
X93111872Y-64632630D02*
X93159497Y-64537379D01*
X93159497Y-64537379D02*
X93159497Y-64442128D01*
X93159497Y-64442128D02*
X93111872Y-64346878D01*
X93111872Y-64346878D02*
X93064247Y-64299252D01*
X93064247Y-64299252D02*
X92968996Y-64251627D01*
X92968996Y-64251627D02*
X92778494Y-64204001D01*
X92778494Y-64204001D02*
X92683243Y-64156376D01*
X92683243Y-64156376D02*
X92635618Y-64108750D01*
X92635618Y-64108750D02*
X92587992Y-64013500D01*
X92587992Y-64013500D02*
X92587992Y-63918249D01*
X92587992Y-63918249D02*
X92635618Y-63822998D01*
X92635618Y-63822998D02*
X92683243Y-63775372D01*
X92683243Y-63775372D02*
X92778494Y-63727747D01*
X92778494Y-63727747D02*
X93016621Y-63727747D01*
X93016621Y-63727747D02*
X93159497Y-63775372D01*
X94016756Y-64061125D02*
X94016756Y-64727881D01*
X93778628Y-63680122D02*
X93540501Y-64394503D01*
X93540501Y-64394503D02*
X94159632Y-64394503D01*
X96641666Y-68281009D02*
X96308333Y-68281009D01*
X96308333Y-68804819D02*
X96308333Y-67804819D01*
X96308333Y-67804819D02*
X96784523Y-67804819D01*
X97689285Y-68804819D02*
X97117857Y-68804819D01*
X97403571Y-68804819D02*
X97403571Y-67804819D01*
X97403571Y-67804819D02*
X97308333Y-67947676D01*
X97308333Y-67947676D02*
X97213095Y-68042914D01*
X97213095Y-68042914D02*
X97117857Y-68090533D01*
X101954819Y-120714285D02*
X100954819Y-120714285D01*
X100954819Y-120714285D02*
X100954819Y-120476190D01*
X100954819Y-120476190D02*
X101002438Y-120333333D01*
X101002438Y-120333333D02*
X101097676Y-120238095D01*
X101097676Y-120238095D02*
X101192914Y-120190476D01*
X101192914Y-120190476D02*
X101383390Y-120142857D01*
X101383390Y-120142857D02*
X101526247Y-120142857D01*
X101526247Y-120142857D02*
X101716723Y-120190476D01*
X101716723Y-120190476D02*
X101811961Y-120238095D01*
X101811961Y-120238095D02*
X101907200Y-120333333D01*
X101907200Y-120333333D02*
X101954819Y-120476190D01*
X101954819Y-120476190D02*
X101954819Y-120714285D01*
X101954819Y-119190476D02*
X101954819Y-119761904D01*
X101954819Y-119476190D02*
X100954819Y-119476190D01*
X100954819Y-119476190D02*
X101097676Y-119571428D01*
X101097676Y-119571428D02*
X101192914Y-119666666D01*
X101192914Y-119666666D02*
X101240533Y-119761904D01*
X101050057Y-118809523D02*
X101002438Y-118761904D01*
X101002438Y-118761904D02*
X100954819Y-118666666D01*
X100954819Y-118666666D02*
X100954819Y-118428571D01*
X100954819Y-118428571D02*
X101002438Y-118333333D01*
X101002438Y-118333333D02*
X101050057Y-118285714D01*
X101050057Y-118285714D02*
X101145295Y-118238095D01*
X101145295Y-118238095D02*
X101240533Y-118238095D01*
X101240533Y-118238095D02*
X101383390Y-118285714D01*
X101383390Y-118285714D02*
X101954819Y-118857142D01*
X101954819Y-118857142D02*
X101954819Y-118238095D01*
X94454819Y-92238094D02*
X93454819Y-92238094D01*
X93454819Y-92238094D02*
X93454819Y-91999999D01*
X93454819Y-91999999D02*
X93502438Y-91857142D01*
X93502438Y-91857142D02*
X93597676Y-91761904D01*
X93597676Y-91761904D02*
X93692914Y-91714285D01*
X93692914Y-91714285D02*
X93883390Y-91666666D01*
X93883390Y-91666666D02*
X94026247Y-91666666D01*
X94026247Y-91666666D02*
X94216723Y-91714285D01*
X94216723Y-91714285D02*
X94311961Y-91761904D01*
X94311961Y-91761904D02*
X94407200Y-91857142D01*
X94407200Y-91857142D02*
X94454819Y-91999999D01*
X94454819Y-91999999D02*
X94454819Y-92238094D01*
X94454819Y-90714285D02*
X94454819Y-91285713D01*
X94454819Y-90999999D02*
X93454819Y-90999999D01*
X93454819Y-90999999D02*
X93597676Y-91095237D01*
X93597676Y-91095237D02*
X93692914Y-91190475D01*
X93692914Y-91190475D02*
X93740533Y-91285713D01*
X109859580Y-105636666D02*
X109907200Y-105684285D01*
X109907200Y-105684285D02*
X109954819Y-105827142D01*
X109954819Y-105827142D02*
X109954819Y-105922380D01*
X109954819Y-105922380D02*
X109907200Y-106065237D01*
X109907200Y-106065237D02*
X109811961Y-106160475D01*
X109811961Y-106160475D02*
X109716723Y-106208094D01*
X109716723Y-106208094D02*
X109526247Y-106255713D01*
X109526247Y-106255713D02*
X109383390Y-106255713D01*
X109383390Y-106255713D02*
X109192914Y-106208094D01*
X109192914Y-106208094D02*
X109097676Y-106160475D01*
X109097676Y-106160475D02*
X109002438Y-106065237D01*
X109002438Y-106065237D02*
X108954819Y-105922380D01*
X108954819Y-105922380D02*
X108954819Y-105827142D01*
X108954819Y-105827142D02*
X109002438Y-105684285D01*
X109002438Y-105684285D02*
X109050057Y-105636666D01*
X108954819Y-105303332D02*
X108954819Y-104684285D01*
X108954819Y-104684285D02*
X109335771Y-105017618D01*
X109335771Y-105017618D02*
X109335771Y-104874761D01*
X109335771Y-104874761D02*
X109383390Y-104779523D01*
X109383390Y-104779523D02*
X109431009Y-104731904D01*
X109431009Y-104731904D02*
X109526247Y-104684285D01*
X109526247Y-104684285D02*
X109764342Y-104684285D01*
X109764342Y-104684285D02*
X109859580Y-104731904D01*
X109859580Y-104731904D02*
X109907200Y-104779523D01*
X109907200Y-104779523D02*
X109954819Y-104874761D01*
X109954819Y-104874761D02*
X109954819Y-105160475D01*
X109954819Y-105160475D02*
X109907200Y-105255713D01*
X109907200Y-105255713D02*
X109859580Y-105303332D01*
X107954819Y-92238094D02*
X106954819Y-92238094D01*
X106954819Y-92238094D02*
X106954819Y-91999999D01*
X106954819Y-91999999D02*
X107002438Y-91857142D01*
X107002438Y-91857142D02*
X107097676Y-91761904D01*
X107097676Y-91761904D02*
X107192914Y-91714285D01*
X107192914Y-91714285D02*
X107383390Y-91666666D01*
X107383390Y-91666666D02*
X107526247Y-91666666D01*
X107526247Y-91666666D02*
X107716723Y-91714285D01*
X107716723Y-91714285D02*
X107811961Y-91761904D01*
X107811961Y-91761904D02*
X107907200Y-91857142D01*
X107907200Y-91857142D02*
X107954819Y-91999999D01*
X107954819Y-91999999D02*
X107954819Y-92238094D01*
X107288152Y-90809523D02*
X107954819Y-90809523D01*
X106907200Y-91047618D02*
X107621485Y-91285713D01*
X107621485Y-91285713D02*
X107621485Y-90666666D01*
X95083333Y-83259580D02*
X95035714Y-83307200D01*
X95035714Y-83307200D02*
X94892857Y-83354819D01*
X94892857Y-83354819D02*
X94797619Y-83354819D01*
X94797619Y-83354819D02*
X94654762Y-83307200D01*
X94654762Y-83307200D02*
X94559524Y-83211961D01*
X94559524Y-83211961D02*
X94511905Y-83116723D01*
X94511905Y-83116723D02*
X94464286Y-82926247D01*
X94464286Y-82926247D02*
X94464286Y-82783390D01*
X94464286Y-82783390D02*
X94511905Y-82592914D01*
X94511905Y-82592914D02*
X94559524Y-82497676D01*
X94559524Y-82497676D02*
X94654762Y-82402438D01*
X94654762Y-82402438D02*
X94797619Y-82354819D01*
X94797619Y-82354819D02*
X94892857Y-82354819D01*
X94892857Y-82354819D02*
X95035714Y-82402438D01*
X95035714Y-82402438D02*
X95083333Y-82450057D01*
X96035714Y-83354819D02*
X95464286Y-83354819D01*
X95750000Y-83354819D02*
X95750000Y-82354819D01*
X95750000Y-82354819D02*
X95654762Y-82497676D01*
X95654762Y-82497676D02*
X95559524Y-82592914D01*
X95559524Y-82592914D02*
X95464286Y-82640533D01*
X98124819Y-112833333D02*
X98839104Y-112833333D01*
X98839104Y-112833333D02*
X98981961Y-112880952D01*
X98981961Y-112880952D02*
X99077200Y-112976190D01*
X99077200Y-112976190D02*
X99124819Y-113119047D01*
X99124819Y-113119047D02*
X99124819Y-113214285D01*
X98124819Y-112452380D02*
X98124819Y-111833333D01*
X98124819Y-111833333D02*
X98505771Y-112166666D01*
X98505771Y-112166666D02*
X98505771Y-112023809D01*
X98505771Y-112023809D02*
X98553390Y-111928571D01*
X98553390Y-111928571D02*
X98601009Y-111880952D01*
X98601009Y-111880952D02*
X98696247Y-111833333D01*
X98696247Y-111833333D02*
X98934342Y-111833333D01*
X98934342Y-111833333D02*
X99029580Y-111880952D01*
X99029580Y-111880952D02*
X99077200Y-111928571D01*
X99077200Y-111928571D02*
X99124819Y-112023809D01*
X99124819Y-112023809D02*
X99124819Y-112309523D01*
X99124819Y-112309523D02*
X99077200Y-112404761D01*
X99077200Y-112404761D02*
X99029580Y-112452380D01*
D12*
X115373257Y-35836094D02*
X115460343Y-35865122D01*
X115460343Y-35865122D02*
X115489372Y-35894151D01*
X115489372Y-35894151D02*
X115518400Y-35952208D01*
X115518400Y-35952208D02*
X115518400Y-36039294D01*
X115518400Y-36039294D02*
X115489372Y-36097351D01*
X115489372Y-36097351D02*
X115460343Y-36126380D01*
X115460343Y-36126380D02*
X115402286Y-36155408D01*
X115402286Y-36155408D02*
X115170057Y-36155408D01*
X115170057Y-36155408D02*
X115170057Y-35545808D01*
X115170057Y-35545808D02*
X115373257Y-35545808D01*
X115373257Y-35545808D02*
X115431315Y-35574837D01*
X115431315Y-35574837D02*
X115460343Y-35603865D01*
X115460343Y-35603865D02*
X115489372Y-35661922D01*
X115489372Y-35661922D02*
X115489372Y-35719980D01*
X115489372Y-35719980D02*
X115460343Y-35778037D01*
X115460343Y-35778037D02*
X115431315Y-35807065D01*
X115431315Y-35807065D02*
X115373257Y-35836094D01*
X115373257Y-35836094D02*
X115170057Y-35836094D01*
X116098972Y-36155408D02*
X115750629Y-36155408D01*
X115924800Y-36155408D02*
X115924800Y-35545808D01*
X115924800Y-35545808D02*
X115866743Y-35632894D01*
X115866743Y-35632894D02*
X115808686Y-35690951D01*
X115808686Y-35690951D02*
X115750629Y-35719980D01*
X110554514Y-66606380D02*
X110641600Y-66635408D01*
X110641600Y-66635408D02*
X110786742Y-66635408D01*
X110786742Y-66635408D02*
X110844800Y-66606380D01*
X110844800Y-66606380D02*
X110873828Y-66577351D01*
X110873828Y-66577351D02*
X110902857Y-66519294D01*
X110902857Y-66519294D02*
X110902857Y-66461237D01*
X110902857Y-66461237D02*
X110873828Y-66403180D01*
X110873828Y-66403180D02*
X110844800Y-66374151D01*
X110844800Y-66374151D02*
X110786742Y-66345122D01*
X110786742Y-66345122D02*
X110670628Y-66316094D01*
X110670628Y-66316094D02*
X110612571Y-66287065D01*
X110612571Y-66287065D02*
X110583542Y-66258037D01*
X110583542Y-66258037D02*
X110554514Y-66199980D01*
X110554514Y-66199980D02*
X110554514Y-66141922D01*
X110554514Y-66141922D02*
X110583542Y-66083865D01*
X110583542Y-66083865D02*
X110612571Y-66054837D01*
X110612571Y-66054837D02*
X110670628Y-66025808D01*
X110670628Y-66025808D02*
X110815771Y-66025808D01*
X110815771Y-66025808D02*
X110902857Y-66054837D01*
X111164113Y-66635408D02*
X111164113Y-66025808D01*
X111164113Y-66025808D02*
X111396342Y-66025808D01*
X111396342Y-66025808D02*
X111454399Y-66054837D01*
X111454399Y-66054837D02*
X111483428Y-66083865D01*
X111483428Y-66083865D02*
X111512456Y-66141922D01*
X111512456Y-66141922D02*
X111512456Y-66229008D01*
X111512456Y-66229008D02*
X111483428Y-66287065D01*
X111483428Y-66287065D02*
X111454399Y-66316094D01*
X111454399Y-66316094D02*
X111396342Y-66345122D01*
X111396342Y-66345122D02*
X111164113Y-66345122D01*
X111744685Y-66461237D02*
X112034971Y-66461237D01*
X111686628Y-66635408D02*
X111889828Y-66025808D01*
X111889828Y-66025808D02*
X112093028Y-66635408D01*
X112644570Y-66635408D02*
X112441370Y-66345122D01*
X112296227Y-66635408D02*
X112296227Y-66025808D01*
X112296227Y-66025808D02*
X112528456Y-66025808D01*
X112528456Y-66025808D02*
X112586513Y-66054837D01*
X112586513Y-66054837D02*
X112615542Y-66083865D01*
X112615542Y-66083865D02*
X112644570Y-66141922D01*
X112644570Y-66141922D02*
X112644570Y-66229008D01*
X112644570Y-66229008D02*
X112615542Y-66287065D01*
X112615542Y-66287065D02*
X112586513Y-66316094D01*
X112586513Y-66316094D02*
X112528456Y-66345122D01*
X112528456Y-66345122D02*
X112296227Y-66345122D01*
X112905827Y-66635408D02*
X112905827Y-66025808D01*
X113254170Y-66635408D02*
X112992913Y-66287065D01*
X113254170Y-66025808D02*
X112905827Y-66374151D01*
X113718627Y-66316094D02*
X113515427Y-66316094D01*
X113515427Y-66635408D02*
X113515427Y-66025808D01*
X113515427Y-66025808D02*
X113805713Y-66025808D01*
X114037941Y-66025808D02*
X114037941Y-66519294D01*
X114037941Y-66519294D02*
X114066970Y-66577351D01*
X114066970Y-66577351D02*
X114095999Y-66606380D01*
X114095999Y-66606380D02*
X114154056Y-66635408D01*
X114154056Y-66635408D02*
X114270170Y-66635408D01*
X114270170Y-66635408D02*
X114328227Y-66606380D01*
X114328227Y-66606380D02*
X114357256Y-66577351D01*
X114357256Y-66577351D02*
X114386284Y-66519294D01*
X114386284Y-66519294D02*
X114386284Y-66025808D01*
X114676570Y-66635408D02*
X114676570Y-66025808D01*
X114676570Y-66025808D02*
X115024913Y-66635408D01*
X115024913Y-66635408D02*
X115024913Y-66025808D01*
X115170057Y-66693465D02*
X115634514Y-66693465D01*
X115779656Y-66635408D02*
X115779656Y-66025808D01*
X115779656Y-66025808D02*
X116011885Y-66025808D01*
X116011885Y-66025808D02*
X116069942Y-66054837D01*
X116069942Y-66054837D02*
X116098971Y-66083865D01*
X116098971Y-66083865D02*
X116127999Y-66141922D01*
X116127999Y-66141922D02*
X116127999Y-66229008D01*
X116127999Y-66229008D02*
X116098971Y-66287065D01*
X116098971Y-66287065D02*
X116069942Y-66316094D01*
X116069942Y-66316094D02*
X116011885Y-66345122D01*
X116011885Y-66345122D02*
X115779656Y-66345122D01*
X116737599Y-66635408D02*
X116534399Y-66345122D01*
X116389256Y-66635408D02*
X116389256Y-66025808D01*
X116389256Y-66025808D02*
X116621485Y-66025808D01*
X116621485Y-66025808D02*
X116679542Y-66054837D01*
X116679542Y-66054837D02*
X116708571Y-66083865D01*
X116708571Y-66083865D02*
X116737599Y-66141922D01*
X116737599Y-66141922D02*
X116737599Y-66229008D01*
X116737599Y-66229008D02*
X116708571Y-66287065D01*
X116708571Y-66287065D02*
X116679542Y-66316094D01*
X116679542Y-66316094D02*
X116621485Y-66345122D01*
X116621485Y-66345122D02*
X116389256Y-66345122D01*
X117114971Y-66025808D02*
X117231085Y-66025808D01*
X117231085Y-66025808D02*
X117289142Y-66054837D01*
X117289142Y-66054837D02*
X117347199Y-66112894D01*
X117347199Y-66112894D02*
X117376228Y-66229008D01*
X117376228Y-66229008D02*
X117376228Y-66432208D01*
X117376228Y-66432208D02*
X117347199Y-66548322D01*
X117347199Y-66548322D02*
X117289142Y-66606380D01*
X117289142Y-66606380D02*
X117231085Y-66635408D01*
X117231085Y-66635408D02*
X117114971Y-66635408D01*
X117114971Y-66635408D02*
X117056914Y-66606380D01*
X117056914Y-66606380D02*
X116998856Y-66548322D01*
X116998856Y-66548322D02*
X116969828Y-66432208D01*
X116969828Y-66432208D02*
X116969828Y-66229008D01*
X116969828Y-66229008D02*
X116998856Y-66112894D01*
X116998856Y-66112894D02*
X117056914Y-66054837D01*
X117056914Y-66054837D02*
X117114971Y-66025808D01*
X117492343Y-66693465D02*
X117956800Y-66693465D01*
X118101942Y-66635408D02*
X118101942Y-66025808D01*
X118101942Y-66025808D02*
X118305142Y-66461237D01*
X118305142Y-66461237D02*
X118508342Y-66025808D01*
X118508342Y-66025808D02*
X118508342Y-66635408D01*
X118798628Y-66635408D02*
X118798628Y-66025808D01*
X119437257Y-66577351D02*
X119408229Y-66606380D01*
X119408229Y-66606380D02*
X119321143Y-66635408D01*
X119321143Y-66635408D02*
X119263086Y-66635408D01*
X119263086Y-66635408D02*
X119176000Y-66606380D01*
X119176000Y-66606380D02*
X119117943Y-66548322D01*
X119117943Y-66548322D02*
X119088914Y-66490265D01*
X119088914Y-66490265D02*
X119059886Y-66374151D01*
X119059886Y-66374151D02*
X119059886Y-66287065D01*
X119059886Y-66287065D02*
X119088914Y-66170951D01*
X119088914Y-66170951D02*
X119117943Y-66112894D01*
X119117943Y-66112894D02*
X119176000Y-66054837D01*
X119176000Y-66054837D02*
X119263086Y-66025808D01*
X119263086Y-66025808D02*
X119321143Y-66025808D01*
X119321143Y-66025808D02*
X119408229Y-66054837D01*
X119408229Y-66054837D02*
X119437257Y-66083865D01*
X120046857Y-66635408D02*
X119843657Y-66345122D01*
X119698514Y-66635408D02*
X119698514Y-66025808D01*
X119698514Y-66025808D02*
X119930743Y-66025808D01*
X119930743Y-66025808D02*
X119988800Y-66054837D01*
X119988800Y-66054837D02*
X120017829Y-66083865D01*
X120017829Y-66083865D02*
X120046857Y-66141922D01*
X120046857Y-66141922D02*
X120046857Y-66229008D01*
X120046857Y-66229008D02*
X120017829Y-66287065D01*
X120017829Y-66287065D02*
X119988800Y-66316094D01*
X119988800Y-66316094D02*
X119930743Y-66345122D01*
X119930743Y-66345122D02*
X119698514Y-66345122D01*
X120424229Y-66025808D02*
X120540343Y-66025808D01*
X120540343Y-66025808D02*
X120598400Y-66054837D01*
X120598400Y-66054837D02*
X120656457Y-66112894D01*
X120656457Y-66112894D02*
X120685486Y-66229008D01*
X120685486Y-66229008D02*
X120685486Y-66432208D01*
X120685486Y-66432208D02*
X120656457Y-66548322D01*
X120656457Y-66548322D02*
X120598400Y-66606380D01*
X120598400Y-66606380D02*
X120540343Y-66635408D01*
X120540343Y-66635408D02*
X120424229Y-66635408D01*
X120424229Y-66635408D02*
X120366172Y-66606380D01*
X120366172Y-66606380D02*
X120308114Y-66548322D01*
X120308114Y-66548322D02*
X120279086Y-66432208D01*
X120279086Y-66432208D02*
X120279086Y-66229008D01*
X120279086Y-66229008D02*
X120308114Y-66112894D01*
X120308114Y-66112894D02*
X120366172Y-66054837D01*
X120366172Y-66054837D02*
X120424229Y-66025808D01*
D10*
X98954819Y-92238094D02*
X97954819Y-92238094D01*
X97954819Y-92238094D02*
X97954819Y-91999999D01*
X97954819Y-91999999D02*
X98002438Y-91857142D01*
X98002438Y-91857142D02*
X98097676Y-91761904D01*
X98097676Y-91761904D02*
X98192914Y-91714285D01*
X98192914Y-91714285D02*
X98383390Y-91666666D01*
X98383390Y-91666666D02*
X98526247Y-91666666D01*
X98526247Y-91666666D02*
X98716723Y-91714285D01*
X98716723Y-91714285D02*
X98811961Y-91761904D01*
X98811961Y-91761904D02*
X98907200Y-91857142D01*
X98907200Y-91857142D02*
X98954819Y-91999999D01*
X98954819Y-91999999D02*
X98954819Y-92238094D01*
X98050057Y-91285713D02*
X98002438Y-91238094D01*
X98002438Y-91238094D02*
X97954819Y-91142856D01*
X97954819Y-91142856D02*
X97954819Y-90904761D01*
X97954819Y-90904761D02*
X98002438Y-90809523D01*
X98002438Y-90809523D02*
X98050057Y-90761904D01*
X98050057Y-90761904D02*
X98145295Y-90714285D01*
X98145295Y-90714285D02*
X98240533Y-90714285D01*
X98240533Y-90714285D02*
X98383390Y-90761904D01*
X98383390Y-90761904D02*
X98954819Y-91333332D01*
X98954819Y-91333332D02*
X98954819Y-90714285D01*
X92587992Y-50680256D02*
X92730869Y-50727881D01*
X92730869Y-50727881D02*
X92968996Y-50727881D01*
X92968996Y-50727881D02*
X93064247Y-50680256D01*
X93064247Y-50680256D02*
X93111872Y-50632630D01*
X93111872Y-50632630D02*
X93159497Y-50537379D01*
X93159497Y-50537379D02*
X93159497Y-50442128D01*
X93159497Y-50442128D02*
X93111872Y-50346878D01*
X93111872Y-50346878D02*
X93064247Y-50299252D01*
X93064247Y-50299252D02*
X92968996Y-50251627D01*
X92968996Y-50251627D02*
X92778494Y-50204001D01*
X92778494Y-50204001D02*
X92683243Y-50156376D01*
X92683243Y-50156376D02*
X92635618Y-50108750D01*
X92635618Y-50108750D02*
X92587992Y-50013500D01*
X92587992Y-50013500D02*
X92587992Y-49918249D01*
X92587992Y-49918249D02*
X92635618Y-49822998D01*
X92635618Y-49822998D02*
X92683243Y-49775372D01*
X92683243Y-49775372D02*
X92778494Y-49727747D01*
X92778494Y-49727747D02*
X93016621Y-49727747D01*
X93016621Y-49727747D02*
X93159497Y-49775372D01*
X93540501Y-49822998D02*
X93588127Y-49775372D01*
X93588127Y-49775372D02*
X93683378Y-49727747D01*
X93683378Y-49727747D02*
X93921505Y-49727747D01*
X93921505Y-49727747D02*
X94016756Y-49775372D01*
X94016756Y-49775372D02*
X94064381Y-49822998D01*
X94064381Y-49822998D02*
X94112006Y-49918249D01*
X94112006Y-49918249D02*
X94112006Y-50013500D01*
X94112006Y-50013500D02*
X94064381Y-50156376D01*
X94064381Y-50156376D02*
X93492876Y-50727881D01*
X93492876Y-50727881D02*
X94112006Y-50727881D01*
X98124819Y-81833333D02*
X98839104Y-81833333D01*
X98839104Y-81833333D02*
X98981961Y-81880952D01*
X98981961Y-81880952D02*
X99077200Y-81976190D01*
X99077200Y-81976190D02*
X99124819Y-82119047D01*
X99124819Y-82119047D02*
X99124819Y-82214285D01*
X99124819Y-80833333D02*
X99124819Y-81404761D01*
X99124819Y-81119047D02*
X98124819Y-81119047D01*
X98124819Y-81119047D02*
X98267676Y-81214285D01*
X98267676Y-81214285D02*
X98362914Y-81309523D01*
X98362914Y-81309523D02*
X98410533Y-81404761D01*
X92587992Y-43680256D02*
X92730869Y-43727881D01*
X92730869Y-43727881D02*
X92968996Y-43727881D01*
X92968996Y-43727881D02*
X93064247Y-43680256D01*
X93064247Y-43680256D02*
X93111872Y-43632630D01*
X93111872Y-43632630D02*
X93159497Y-43537379D01*
X93159497Y-43537379D02*
X93159497Y-43442128D01*
X93159497Y-43442128D02*
X93111872Y-43346878D01*
X93111872Y-43346878D02*
X93064247Y-43299252D01*
X93064247Y-43299252D02*
X92968996Y-43251627D01*
X92968996Y-43251627D02*
X92778494Y-43204001D01*
X92778494Y-43204001D02*
X92683243Y-43156376D01*
X92683243Y-43156376D02*
X92635618Y-43108750D01*
X92635618Y-43108750D02*
X92587992Y-43013500D01*
X92587992Y-43013500D02*
X92587992Y-42918249D01*
X92587992Y-42918249D02*
X92635618Y-42822998D01*
X92635618Y-42822998D02*
X92683243Y-42775372D01*
X92683243Y-42775372D02*
X92778494Y-42727747D01*
X92778494Y-42727747D02*
X93016621Y-42727747D01*
X93016621Y-42727747D02*
X93159497Y-42775372D01*
X94112006Y-43727881D02*
X93540501Y-43727881D01*
X93826254Y-43727881D02*
X93826254Y-42727747D01*
X93826254Y-42727747D02*
X93731003Y-42870623D01*
X93731003Y-42870623D02*
X93635752Y-42965874D01*
X93635752Y-42965874D02*
X93540501Y-43013500D01*
X98124819Y-88333333D02*
X98839104Y-88333333D01*
X98839104Y-88333333D02*
X98981961Y-88380952D01*
X98981961Y-88380952D02*
X99077200Y-88476190D01*
X99077200Y-88476190D02*
X99124819Y-88619047D01*
X99124819Y-88619047D02*
X99124819Y-88714285D01*
X98220057Y-87904761D02*
X98172438Y-87857142D01*
X98172438Y-87857142D02*
X98124819Y-87761904D01*
X98124819Y-87761904D02*
X98124819Y-87523809D01*
X98124819Y-87523809D02*
X98172438Y-87428571D01*
X98172438Y-87428571D02*
X98220057Y-87380952D01*
X98220057Y-87380952D02*
X98315295Y-87333333D01*
X98315295Y-87333333D02*
X98410533Y-87333333D01*
X98410533Y-87333333D02*
X98553390Y-87380952D01*
X98553390Y-87380952D02*
X99124819Y-87952380D01*
X99124819Y-87952380D02*
X99124819Y-87333333D01*
X111954819Y-120714285D02*
X110954819Y-120714285D01*
X110954819Y-120714285D02*
X110954819Y-120476190D01*
X110954819Y-120476190D02*
X111002438Y-120333333D01*
X111002438Y-120333333D02*
X111097676Y-120238095D01*
X111097676Y-120238095D02*
X111192914Y-120190476D01*
X111192914Y-120190476D02*
X111383390Y-120142857D01*
X111383390Y-120142857D02*
X111526247Y-120142857D01*
X111526247Y-120142857D02*
X111716723Y-120190476D01*
X111716723Y-120190476D02*
X111811961Y-120238095D01*
X111811961Y-120238095D02*
X111907200Y-120333333D01*
X111907200Y-120333333D02*
X111954819Y-120476190D01*
X111954819Y-120476190D02*
X111954819Y-120714285D01*
X111954819Y-119190476D02*
X111954819Y-119761904D01*
X111954819Y-119476190D02*
X110954819Y-119476190D01*
X110954819Y-119476190D02*
X111097676Y-119571428D01*
X111097676Y-119571428D02*
X111192914Y-119666666D01*
X111192914Y-119666666D02*
X111240533Y-119761904D01*
X111288152Y-118333333D02*
X111954819Y-118333333D01*
X110907200Y-118571428D02*
X111621485Y-118809523D01*
X111621485Y-118809523D02*
X111621485Y-118190476D01*
X96954819Y-120714285D02*
X95954819Y-120714285D01*
X95954819Y-120714285D02*
X95954819Y-120476190D01*
X95954819Y-120476190D02*
X96002438Y-120333333D01*
X96002438Y-120333333D02*
X96097676Y-120238095D01*
X96097676Y-120238095D02*
X96192914Y-120190476D01*
X96192914Y-120190476D02*
X96383390Y-120142857D01*
X96383390Y-120142857D02*
X96526247Y-120142857D01*
X96526247Y-120142857D02*
X96716723Y-120190476D01*
X96716723Y-120190476D02*
X96811961Y-120238095D01*
X96811961Y-120238095D02*
X96907200Y-120333333D01*
X96907200Y-120333333D02*
X96954819Y-120476190D01*
X96954819Y-120476190D02*
X96954819Y-120714285D01*
X96954819Y-119190476D02*
X96954819Y-119761904D01*
X96954819Y-119476190D02*
X95954819Y-119476190D01*
X95954819Y-119476190D02*
X96097676Y-119571428D01*
X96097676Y-119571428D02*
X96192914Y-119666666D01*
X96192914Y-119666666D02*
X96240533Y-119761904D01*
X96954819Y-118238095D02*
X96954819Y-118809523D01*
X96954819Y-118523809D02*
X95954819Y-118523809D01*
X95954819Y-118523809D02*
X96097676Y-118619047D01*
X96097676Y-118619047D02*
X96192914Y-118714285D01*
X96192914Y-118714285D02*
X96240533Y-118809523D01*
X124333333Y-83359580D02*
X124285714Y-83407200D01*
X124285714Y-83407200D02*
X124142857Y-83454819D01*
X124142857Y-83454819D02*
X124047619Y-83454819D01*
X124047619Y-83454819D02*
X123904762Y-83407200D01*
X123904762Y-83407200D02*
X123809524Y-83311961D01*
X123809524Y-83311961D02*
X123761905Y-83216723D01*
X123761905Y-83216723D02*
X123714286Y-83026247D01*
X123714286Y-83026247D02*
X123714286Y-82883390D01*
X123714286Y-82883390D02*
X123761905Y-82692914D01*
X123761905Y-82692914D02*
X123809524Y-82597676D01*
X123809524Y-82597676D02*
X123904762Y-82502438D01*
X123904762Y-82502438D02*
X124047619Y-82454819D01*
X124047619Y-82454819D02*
X124142857Y-82454819D01*
X124142857Y-82454819D02*
X124285714Y-82502438D01*
X124285714Y-82502438D02*
X124333333Y-82550057D01*
X124714286Y-82550057D02*
X124761905Y-82502438D01*
X124761905Y-82502438D02*
X124857143Y-82454819D01*
X124857143Y-82454819D02*
X125095238Y-82454819D01*
X125095238Y-82454819D02*
X125190476Y-82502438D01*
X125190476Y-82502438D02*
X125238095Y-82550057D01*
X125238095Y-82550057D02*
X125285714Y-82645295D01*
X125285714Y-82645295D02*
X125285714Y-82740533D01*
X125285714Y-82740533D02*
X125238095Y-82883390D01*
X125238095Y-82883390D02*
X124666667Y-83454819D01*
X124666667Y-83454819D02*
X125285714Y-83454819D01*
X106954819Y-120714285D02*
X105954819Y-120714285D01*
X105954819Y-120714285D02*
X105954819Y-120476190D01*
X105954819Y-120476190D02*
X106002438Y-120333333D01*
X106002438Y-120333333D02*
X106097676Y-120238095D01*
X106097676Y-120238095D02*
X106192914Y-120190476D01*
X106192914Y-120190476D02*
X106383390Y-120142857D01*
X106383390Y-120142857D02*
X106526247Y-120142857D01*
X106526247Y-120142857D02*
X106716723Y-120190476D01*
X106716723Y-120190476D02*
X106811961Y-120238095D01*
X106811961Y-120238095D02*
X106907200Y-120333333D01*
X106907200Y-120333333D02*
X106954819Y-120476190D01*
X106954819Y-120476190D02*
X106954819Y-120714285D01*
X106954819Y-119190476D02*
X106954819Y-119761904D01*
X106954819Y-119476190D02*
X105954819Y-119476190D01*
X105954819Y-119476190D02*
X106097676Y-119571428D01*
X106097676Y-119571428D02*
X106192914Y-119666666D01*
X106192914Y-119666666D02*
X106240533Y-119761904D01*
X105954819Y-118857142D02*
X105954819Y-118238095D01*
X105954819Y-118238095D02*
X106335771Y-118571428D01*
X106335771Y-118571428D02*
X106335771Y-118428571D01*
X106335771Y-118428571D02*
X106383390Y-118333333D01*
X106383390Y-118333333D02*
X106431009Y-118285714D01*
X106431009Y-118285714D02*
X106526247Y-118238095D01*
X106526247Y-118238095D02*
X106764342Y-118238095D01*
X106764342Y-118238095D02*
X106859580Y-118285714D01*
X106859580Y-118285714D02*
X106907200Y-118333333D01*
X106907200Y-118333333D02*
X106954819Y-118428571D01*
X106954819Y-118428571D02*
X106954819Y-118714285D01*
X106954819Y-118714285D02*
X106907200Y-118809523D01*
X106907200Y-118809523D02*
X106859580Y-118857142D01*
X103454819Y-92238094D02*
X102454819Y-92238094D01*
X102454819Y-92238094D02*
X102454819Y-91999999D01*
X102454819Y-91999999D02*
X102502438Y-91857142D01*
X102502438Y-91857142D02*
X102597676Y-91761904D01*
X102597676Y-91761904D02*
X102692914Y-91714285D01*
X102692914Y-91714285D02*
X102883390Y-91666666D01*
X102883390Y-91666666D02*
X103026247Y-91666666D01*
X103026247Y-91666666D02*
X103216723Y-91714285D01*
X103216723Y-91714285D02*
X103311961Y-91761904D01*
X103311961Y-91761904D02*
X103407200Y-91857142D01*
X103407200Y-91857142D02*
X103454819Y-91999999D01*
X103454819Y-91999999D02*
X103454819Y-92238094D01*
X102454819Y-91333332D02*
X102454819Y-90714285D01*
X102454819Y-90714285D02*
X102835771Y-91047618D01*
X102835771Y-91047618D02*
X102835771Y-90904761D01*
X102835771Y-90904761D02*
X102883390Y-90809523D01*
X102883390Y-90809523D02*
X102931009Y-90761904D01*
X102931009Y-90761904D02*
X103026247Y-90714285D01*
X103026247Y-90714285D02*
X103264342Y-90714285D01*
X103264342Y-90714285D02*
X103359580Y-90761904D01*
X103359580Y-90761904D02*
X103407200Y-90809523D01*
X103407200Y-90809523D02*
X103454819Y-90904761D01*
X103454819Y-90904761D02*
X103454819Y-91190475D01*
X103454819Y-91190475D02*
X103407200Y-91285713D01*
X103407200Y-91285713D02*
X103359580Y-91333332D01*
X111954819Y-105636666D02*
X111478628Y-105969999D01*
X111954819Y-106208094D02*
X110954819Y-106208094D01*
X110954819Y-106208094D02*
X110954819Y-105827142D01*
X110954819Y-105827142D02*
X111002438Y-105731904D01*
X111002438Y-105731904D02*
X111050057Y-105684285D01*
X111050057Y-105684285D02*
X111145295Y-105636666D01*
X111145295Y-105636666D02*
X111288152Y-105636666D01*
X111288152Y-105636666D02*
X111383390Y-105684285D01*
X111383390Y-105684285D02*
X111431009Y-105731904D01*
X111431009Y-105731904D02*
X111478628Y-105827142D01*
X111478628Y-105827142D02*
X111478628Y-106208094D01*
X111050057Y-105255713D02*
X111002438Y-105208094D01*
X111002438Y-105208094D02*
X110954819Y-105112856D01*
X110954819Y-105112856D02*
X110954819Y-104874761D01*
X110954819Y-104874761D02*
X111002438Y-104779523D01*
X111002438Y-104779523D02*
X111050057Y-104731904D01*
X111050057Y-104731904D02*
X111145295Y-104684285D01*
X111145295Y-104684285D02*
X111240533Y-104684285D01*
X111240533Y-104684285D02*
X111383390Y-104731904D01*
X111383390Y-104731904D02*
X111954819Y-105303332D01*
X111954819Y-105303332D02*
X111954819Y-104684285D01*
X92587992Y-57680256D02*
X92730869Y-57727881D01*
X92730869Y-57727881D02*
X92968996Y-57727881D01*
X92968996Y-57727881D02*
X93064247Y-57680256D01*
X93064247Y-57680256D02*
X93111872Y-57632630D01*
X93111872Y-57632630D02*
X93159497Y-57537379D01*
X93159497Y-57537379D02*
X93159497Y-57442128D01*
X93159497Y-57442128D02*
X93111872Y-57346878D01*
X93111872Y-57346878D02*
X93064247Y-57299252D01*
X93064247Y-57299252D02*
X92968996Y-57251627D01*
X92968996Y-57251627D02*
X92778494Y-57204001D01*
X92778494Y-57204001D02*
X92683243Y-57156376D01*
X92683243Y-57156376D02*
X92635618Y-57108750D01*
X92635618Y-57108750D02*
X92587992Y-57013500D01*
X92587992Y-57013500D02*
X92587992Y-56918249D01*
X92587992Y-56918249D02*
X92635618Y-56822998D01*
X92635618Y-56822998D02*
X92683243Y-56775372D01*
X92683243Y-56775372D02*
X92778494Y-56727747D01*
X92778494Y-56727747D02*
X93016621Y-56727747D01*
X93016621Y-56727747D02*
X93159497Y-56775372D01*
X93492876Y-56727747D02*
X94112006Y-56727747D01*
X94112006Y-56727747D02*
X93778628Y-57108750D01*
X93778628Y-57108750D02*
X93921505Y-57108750D01*
X93921505Y-57108750D02*
X94016756Y-57156376D01*
X94016756Y-57156376D02*
X94064381Y-57204001D01*
X94064381Y-57204001D02*
X94112006Y-57299252D01*
X94112006Y-57299252D02*
X94112006Y-57537379D01*
X94112006Y-57537379D02*
X94064381Y-57632630D01*
X94064381Y-57632630D02*
X94016756Y-57680256D01*
X94016756Y-57680256D02*
X93921505Y-57727881D01*
X93921505Y-57727881D02*
X93635752Y-57727881D01*
X93635752Y-57727881D02*
X93540501Y-57680256D01*
X93540501Y-57680256D02*
X93492876Y-57632630D01*
D11*
%TO.C,U4*%
X100350000Y-99495000D02*
G75*
G02*
X100150000Y-99495000I-100000J0D01*
G01*
X100150000Y-99495000D02*
G75*
G02*
X100350000Y-99495000I100000J0D01*
G01*
D12*
X102505000Y-99475000D02*
X106495000Y-99475000D01*
X102505000Y-104525000D02*
X106495000Y-104525000D01*
D13*
%TO.C,R3*%
X96977500Y-101167224D02*
X96977500Y-100657776D01*
X98022500Y-101167224D02*
X98022500Y-100657776D01*
%TO.C,C4*%
X100010000Y-100716233D02*
X100010000Y-101008767D01*
X98990000Y-100716233D02*
X98990000Y-101008767D01*
%TO.C,R1*%
X112167224Y-91977500D02*
X111657776Y-91977500D01*
X112167224Y-93022500D02*
X111657776Y-93022500D01*
D12*
%TO.C,S4*%
X98250000Y-61700000D02*
X98250000Y-61800000D01*
X98250000Y-61700000D02*
X100450000Y-61700000D01*
X98250000Y-66800000D02*
X98250000Y-66900000D01*
X98250000Y-66900000D02*
X100450000Y-66900000D01*
X100450000Y-61800000D02*
X100450000Y-61700000D01*
X100450000Y-66800000D02*
X100450000Y-66900000D01*
X95163500Y-67050000D02*
G75*
G02*
X95036500Y-67050000I-63500J0D01*
G01*
X95036500Y-67050000D02*
G75*
G02*
X95163500Y-67050000I63500J0D01*
G01*
X100350000Y-64300000D02*
G75*
G02*
X98350000Y-64300000I-1000000J0D01*
G01*
X98350000Y-64300000D02*
G75*
G02*
X100350000Y-64300000I1000000J0D01*
G01*
D13*
%TO.C,F1*%
X96713748Y-69290000D02*
X97236252Y-69290000D01*
X96713748Y-70710000D02*
X97236252Y-70710000D01*
%TO.C,D12*%
X97415000Y-117887500D02*
X97415000Y-121947500D01*
X97415000Y-121947500D02*
X100585000Y-121947500D01*
X100585000Y-121947500D02*
X100585000Y-117887500D01*
%TO.C,D1*%
X92415000Y-93912500D02*
X92415000Y-97972500D01*
X92415000Y-97972500D02*
X95585000Y-97972500D01*
X95585000Y-97972500D02*
X95585000Y-93912500D01*
%TO.C,Q1*%
X110352500Y-95437500D02*
X110352500Y-94787500D01*
X110352500Y-95437500D02*
X110352500Y-96087500D01*
X113472500Y-95437500D02*
X113472500Y-93762500D01*
X113472500Y-95437500D02*
X113472500Y-96087500D01*
%TO.C,C3*%
X110010000Y-102508767D02*
X110010000Y-102216233D01*
X108990000Y-102508767D02*
X108990000Y-102216233D01*
%TO.C,D4*%
X105915000Y-93912500D02*
X105915000Y-97972500D01*
X105915000Y-97972500D02*
X109085000Y-97972500D01*
X109085000Y-97972500D02*
X109085000Y-93912500D01*
%TO.C,R11*%
X109950000Y-70617936D02*
X109950000Y-74972064D01*
X113370000Y-70617936D02*
X113370000Y-74972064D01*
%TO.C,C1*%
X98520000Y-78500000D02*
G75*
G02*
X91980000Y-78500000I-3270000J0D01*
G01*
X91980000Y-78500000D02*
G75*
G02*
X98520000Y-78500000I3270000J0D01*
G01*
%TO.C,J3*%
X99670000Y-113830000D02*
X99670000Y-112500000D01*
X101000000Y-113830000D02*
X99670000Y-113830000D01*
X102270000Y-111170000D02*
X115030000Y-111170000D01*
X102270000Y-113830000D02*
X102270000Y-111170000D01*
X102270000Y-113830000D02*
X115030000Y-113830000D01*
X115030000Y-113830000D02*
X115030000Y-111170000D01*
%TO.C,D2*%
X96915000Y-93912500D02*
X96915000Y-97972500D01*
X96915000Y-97972500D02*
X100085000Y-97972500D01*
X100085000Y-97972500D02*
X100085000Y-93912500D01*
D12*
%TO.C,S2*%
X98250000Y-47646000D02*
X98250000Y-47746000D01*
X98250000Y-47646000D02*
X100450000Y-47646000D01*
X98250000Y-52746000D02*
X98250000Y-52846000D01*
X98250000Y-52846000D02*
X100450000Y-52846000D01*
X100450000Y-47746000D02*
X100450000Y-47646000D01*
X100450000Y-52746000D02*
X100450000Y-52846000D01*
X95163500Y-52996000D02*
G75*
G02*
X95036500Y-52996000I-63500J0D01*
G01*
X95036500Y-52996000D02*
G75*
G02*
X95163500Y-52996000I63500J0D01*
G01*
X100350000Y-50246000D02*
G75*
G02*
X98350000Y-50246000I-1000000J0D01*
G01*
X98350000Y-50246000D02*
G75*
G02*
X100350000Y-50246000I1000000J0D01*
G01*
D13*
%TO.C,Q2*%
X112490000Y-120437500D02*
X112490000Y-119787500D01*
X112490000Y-120437500D02*
X112490000Y-121087500D01*
X115610000Y-120437500D02*
X115610000Y-119787500D01*
X115610000Y-120437500D02*
X115610000Y-121087500D01*
X115890000Y-119515000D02*
X115560000Y-119275000D01*
X115890000Y-119035000D01*
X115890000Y-119515000D01*
G36*
X115890000Y-119515000D02*
G01*
X115560000Y-119275000D01*
X115890000Y-119035000D01*
X115890000Y-119515000D01*
G37*
%TO.C,J1*%
X99670000Y-82830000D02*
X99670000Y-81500000D01*
X101000000Y-82830000D02*
X99670000Y-82830000D01*
X102270000Y-80170000D02*
X115030000Y-80170000D01*
X102270000Y-82830000D02*
X102270000Y-80170000D01*
X102270000Y-82830000D02*
X115030000Y-82830000D01*
X115030000Y-82830000D02*
X115030000Y-80170000D01*
%TO.C,R13*%
X99790000Y-70617936D02*
X99790000Y-74972064D01*
X103210000Y-70617936D02*
X103210000Y-74972064D01*
D12*
%TO.C,S1*%
X98250000Y-40500000D02*
X98250000Y-40600000D01*
X98250000Y-40500000D02*
X100450000Y-40500000D01*
X98250000Y-45600000D02*
X98250000Y-45700000D01*
X98250000Y-45700000D02*
X100450000Y-45700000D01*
X100450000Y-40600000D02*
X100450000Y-40500000D01*
X100450000Y-45600000D02*
X100450000Y-45700000D01*
X95163500Y-45850000D02*
G75*
G02*
X95036500Y-45850000I-63500J0D01*
G01*
X95036500Y-45850000D02*
G75*
G02*
X95163500Y-45850000I63500J0D01*
G01*
X100350000Y-43100000D02*
G75*
G02*
X98350000Y-43100000I-1000000J0D01*
G01*
X98350000Y-43100000D02*
G75*
G02*
X100350000Y-43100000I1000000J0D01*
G01*
D13*
%TO.C,J2*%
X99670000Y-89330000D02*
X99670000Y-88000000D01*
X101000000Y-89330000D02*
X99670000Y-89330000D01*
X102270000Y-86670000D02*
X115030000Y-86670000D01*
X102270000Y-89330000D02*
X102270000Y-86670000D01*
X102270000Y-89330000D02*
X115030000Y-89330000D01*
X115030000Y-89330000D02*
X115030000Y-86670000D01*
%TO.C,D14*%
X107415000Y-117887500D02*
X107415000Y-121947500D01*
X107415000Y-121947500D02*
X110585000Y-121947500D01*
X110585000Y-121947500D02*
X110585000Y-117887500D01*
%TO.C,D11*%
X92545000Y-117887500D02*
X92545000Y-121947500D01*
X92545000Y-121947500D02*
X95715000Y-121947500D01*
X95715000Y-121947500D02*
X95715000Y-117887500D01*
%TO.C,R10*%
X115030000Y-70617936D02*
X115030000Y-74972064D01*
X118450000Y-70617936D02*
X118450000Y-74972064D01*
%TO.C,C2*%
X128020000Y-78500000D02*
G75*
G02*
X121480000Y-78500000I-3270000J0D01*
G01*
X121480000Y-78500000D02*
G75*
G02*
X128020000Y-78500000I3270000J0D01*
G01*
%TO.C,R12*%
X104870000Y-70617936D02*
X104870000Y-74972064D01*
X108290000Y-70617936D02*
X108290000Y-74972064D01*
%TO.C,D13*%
X102415000Y-117887500D02*
X102415000Y-121947500D01*
X102415000Y-121947500D02*
X105585000Y-121947500D01*
X105585000Y-121947500D02*
X105585000Y-117887500D01*
%TO.C,D3*%
X101415000Y-93912500D02*
X101415000Y-97972500D01*
X101415000Y-97972500D02*
X104585000Y-97972500D01*
X104585000Y-97972500D02*
X104585000Y-93912500D01*
%TO.C,R4*%
X114342224Y-116977500D02*
X113832776Y-116977500D01*
X114342224Y-118022500D02*
X113832776Y-118022500D01*
%TO.C,R2*%
X112022500Y-102157776D02*
X112022500Y-102667224D01*
X110977500Y-102157776D02*
X110977500Y-102667224D01*
D12*
%TO.C,S3*%
X98250000Y-54673000D02*
X98250000Y-54773000D01*
X98250000Y-54673000D02*
X100450000Y-54673000D01*
X98250000Y-59773000D02*
X98250000Y-59873000D01*
X98250000Y-59873000D02*
X100450000Y-59873000D01*
X100450000Y-54773000D02*
X100450000Y-54673000D01*
X100450000Y-59773000D02*
X100450000Y-59873000D01*
X95163500Y-60023000D02*
G75*
G02*
X95036500Y-60023000I-63500J0D01*
G01*
X95036500Y-60023000D02*
G75*
G02*
X95163500Y-60023000I63500J0D01*
G01*
X100350000Y-57273000D02*
G75*
G02*
X98350000Y-57273000I-1000000J0D01*
G01*
X98350000Y-57273000D02*
G75*
G02*
X100350000Y-57273000I1000000J0D01*
G01*
%TD*%
%LPC*%
D14*
%TO.C,H6*%
X104500000Y-131000000D03*
%TD*%
%TO.C,H5*%
X95000000Y-113000000D03*
%TD*%
%TO.C,H4*%
X104500000Y-106500000D03*
%TD*%
%TO.C,H3*%
X95000000Y-88500000D03*
%TD*%
%TO.C,H2*%
X122500000Y-71500000D03*
%TD*%
%TO.C,H1*%
X95000000Y-37500000D03*
%TD*%
D15*
%TO.C,U4*%
X101830000Y-100095000D03*
X101830000Y-101365000D03*
X101830000Y-102635000D03*
X101830000Y-103905000D03*
X107170000Y-103905000D03*
X107170000Y-102635000D03*
X107170000Y-101365000D03*
X107170000Y-100095000D03*
%TD*%
D16*
%TO.C,R3*%
X97500000Y-101825000D03*
X97500000Y-100000000D03*
%TD*%
D17*
%TO.C,C4*%
X99500000Y-100000000D03*
X99500000Y-101725000D03*
%TD*%
D18*
%TO.C,R1*%
X112825000Y-92500000D03*
X111000000Y-92500000D03*
%TD*%
D19*
%TO.C,S4*%
X96200000Y-66200000D03*
X102500000Y-66200000D03*
X96200000Y-62400000D03*
X102500000Y-62400000D03*
%TD*%
D20*
%TO.C,F1*%
X95950000Y-70000000D03*
X98000000Y-70000000D03*
%TD*%
D21*
%TO.C,D12*%
X99000000Y-120975000D03*
X99000000Y-118000000D03*
%TD*%
%TO.C,D1*%
X94000000Y-97000000D03*
X94000000Y-94025000D03*
%TD*%
D22*
%TO.C,Q1*%
X112862500Y-94500000D03*
X110962500Y-94500000D03*
X111912500Y-96375000D03*
%TD*%
D23*
%TO.C,C3*%
X109500000Y-103225000D03*
X109500000Y-101500000D03*
%TD*%
D21*
%TO.C,D4*%
X107500000Y-97000000D03*
X107500000Y-94025000D03*
%TD*%
D24*
%TO.C,R11*%
X111660000Y-69745000D03*
X111660000Y-75845000D03*
%TD*%
D14*
%TO.C,C1*%
X96500000Y-78500000D03*
X94000000Y-78500000D03*
%TD*%
D25*
%TO.C,J3*%
X101000000Y-112500000D03*
D26*
X103540000Y-112500000D03*
X106080000Y-112500000D03*
X108620000Y-112500000D03*
X111160000Y-112500000D03*
X113700000Y-112500000D03*
%TD*%
D27*
%TO.C,B1*%
X108000000Y-38420000D03*
X108000000Y-40960000D03*
X108000000Y-43500000D03*
X108000000Y-46040000D03*
X108000000Y-48580000D03*
X108000000Y-51120000D03*
X108000000Y-53660000D03*
X108000000Y-56200000D03*
X108000000Y-58740000D03*
X108000000Y-61280000D03*
X108000000Y-63820000D03*
X108000000Y-66360000D03*
X123240000Y-66360000D03*
X123240000Y-63820000D03*
X123240000Y-61280000D03*
X123240000Y-58740000D03*
X123240000Y-56200000D03*
X123240000Y-53660000D03*
X123240000Y-51120000D03*
X123240000Y-48580000D03*
X123240000Y-46040000D03*
X123240000Y-43500000D03*
X123240000Y-40960000D03*
X123240000Y-38420000D03*
%TD*%
D21*
%TO.C,D2*%
X98500000Y-97000000D03*
X98500000Y-94025000D03*
%TD*%
D19*
%TO.C,S2*%
X96200000Y-52146000D03*
X102500000Y-52146000D03*
X96200000Y-48346000D03*
X102500000Y-48346000D03*
%TD*%
D22*
%TO.C,Q2*%
X115000000Y-119500000D03*
X113100000Y-119500000D03*
X114050000Y-121375000D03*
%TD*%
D25*
%TO.C,J1*%
X101000000Y-81500000D03*
D26*
X103540000Y-81500000D03*
X106080000Y-81500000D03*
X108620000Y-81500000D03*
X111160000Y-81500000D03*
X113700000Y-81500000D03*
%TD*%
D24*
%TO.C,R13*%
X101500000Y-69745000D03*
X101500000Y-75845000D03*
%TD*%
D19*
%TO.C,S1*%
X96200000Y-45000000D03*
X102500000Y-45000000D03*
X96200000Y-41200000D03*
X102500000Y-41200000D03*
%TD*%
D25*
%TO.C,J2*%
X101000000Y-88000000D03*
D26*
X103540000Y-88000000D03*
X106080000Y-88000000D03*
X108620000Y-88000000D03*
X111160000Y-88000000D03*
X113700000Y-88000000D03*
%TD*%
D21*
%TO.C,D14*%
X109000000Y-120975000D03*
X109000000Y-118000000D03*
%TD*%
%TO.C,D11*%
X94130000Y-120975000D03*
X94130000Y-118000000D03*
%TD*%
D24*
%TO.C,R10*%
X116740000Y-69745000D03*
X116740000Y-75845000D03*
%TD*%
D14*
%TO.C,C2*%
X123500000Y-78500000D03*
X126000000Y-78500000D03*
%TD*%
D24*
%TO.C,R12*%
X106580000Y-69745000D03*
X106580000Y-75845000D03*
%TD*%
D21*
%TO.C,D13*%
X104000000Y-120975000D03*
X104000000Y-118000000D03*
%TD*%
%TO.C,D3*%
X103000000Y-97000000D03*
X103000000Y-94025000D03*
%TD*%
D18*
%TO.C,R4*%
X115000000Y-117500000D03*
X113175000Y-117500000D03*
%TD*%
D28*
%TO.C,R2*%
X111500000Y-101500000D03*
X111500000Y-103325000D03*
%TD*%
D19*
%TO.C,S3*%
X96200000Y-59173000D03*
X102500000Y-59173000D03*
X96200000Y-55373000D03*
X102500000Y-55373000D03*
%TD*%
D29*
%TO.C,U2*%
X115815000Y-123690000D03*
D30*
X115815000Y-126230000D03*
X115815000Y-128770000D03*
X115815000Y-131310000D03*
X108185000Y-131310000D03*
X108185000Y-128770000D03*
X108185000Y-126230000D03*
X108185000Y-123690000D03*
%TD*%
D29*
%TO.C,U1*%
X100815000Y-123690000D03*
D30*
X100815000Y-126230000D03*
X100815000Y-128770000D03*
X100815000Y-131310000D03*
X93185000Y-131310000D03*
X93185000Y-128770000D03*
X93185000Y-126230000D03*
X93185000Y-123690000D03*
%TD*%
%LPD*%
M02*
