%TF.GenerationSoftware,KiCad,Pcbnew,8.0.1-8.0.1-1~ubuntu22.04.1*%
%TF.CreationDate,2024-04-18T21:36:37+09:00*%
%TF.ProjectId,diy_oled_3d_controller,6469795f-6f6c-4656-945f-33645f636f6e,rev?*%
%TF.SameCoordinates,Original*%
%TF.FileFunction,Profile,NP*%
%FSLAX46Y46*%
G04 Gerber Fmt 4.6, Leading zero omitted, Abs format (unit mm)*
G04 Created by KiCad (PCBNEW 8.0.1-8.0.1-1~ubuntu22.04.1) date 2024-04-18 21:36:37*
%MOMM*%
%LPD*%
G01*
G04 APERTURE LIST*
%TA.AperFunction,Profile*%
%ADD10C,0.100000*%
%TD*%
G04 APERTURE END LIST*
D10*
X102000000Y-108500000D02*
G75*
G02*
X102000000Y-109500000I0J-500000D01*
G01*
X112500000Y-109500000D02*
G75*
G02*
X112500000Y-108500000I0J500000D01*
G01*
X91500000Y-109500000D02*
X102000000Y-109500000D01*
X117500000Y-109500000D02*
X112500000Y-109500000D01*
X117500000Y-108500000D02*
X112500000Y-108500000D01*
X91500000Y-108500000D02*
X102000000Y-108500000D01*
X102000000Y-84000000D02*
G75*
G02*
X102000000Y-85000000I0J-500000D01*
G01*
X112500000Y-85000000D02*
G75*
G02*
X112500000Y-84000000I0J500000D01*
G01*
X117500000Y-85000000D02*
X112500000Y-85000000D01*
X91500000Y-85000000D02*
X102000000Y-85000000D01*
X91500000Y-108500000D02*
X91500000Y-85000000D01*
X117500000Y-109500000D02*
X117500000Y-133000000D01*
X102000000Y-84000000D02*
X91500000Y-84000000D01*
X91500000Y-84000000D02*
X91500000Y-34000000D01*
X117500000Y-85000000D02*
X117500000Y-108500000D01*
X91500000Y-133000000D02*
X91500000Y-109500000D01*
X129000000Y-84000000D02*
X112500000Y-84000000D01*
X129000000Y-34000000D02*
X129000000Y-84000000D01*
X117500000Y-133000000D02*
X91500000Y-133000000D01*
X91500000Y-34000000D02*
X129000000Y-34000000D01*
M02*
