M48
; DRILL file {KiCad 7.0.10-7.0.10~ubuntu20.04.1} date Tue 13 Feb 2024 11:26:12 AM JST
; FORMAT={-:-/ absolute / inch / decimal}
; #@! TF.CreationDate,2024-02-13T11:26:12+09:00
; #@! TF.GenerationSoftware,Kicad,Pcbnew,7.0.10-7.0.10~ubuntu20.04.1
; #@! TF.FileFunction,Plated,1,2,PTH
FMAT,2
INCH
; #@! TA.AperFunction,Plated,PTH,ViaDrill
T1C0.0157
; #@! TA.AperFunction,Plated,PTH,ComponentDrill
T2C0.0315
; #@! TA.AperFunction,Plated,PTH,ComponentDrill
T3C0.0343
; #@! TA.AperFunction,Plated,PTH,ComponentDrill
T4C0.0354
; #@! TA.AperFunction,Plated,PTH,ComponentDrill
T5C0.0400
%
G90
G05
T1
X4.75Y-2.925
X4.75Y-3.0
X4.875Y-3.0
X4.875Y-3.05
T2
X3.7008Y-2.9
X3.7992Y-2.9
T3
X3.6996Y-3.85
X3.6996Y-3.95
X3.6996Y-4.05
X3.6996Y-4.15
X4.0Y-3.85
X4.0Y-3.95
X4.0Y-4.05
X4.0Y-4.15
X4.5996Y-3.85
X4.5996Y-3.95
X4.5996Y-4.05
X4.5996Y-4.15
X4.9Y-3.85
X4.9Y-3.95
X4.9Y-4.05
X4.9Y-4.15
T4
X3.825Y-3.225
X3.825Y-3.325
X3.825Y-3.55
X3.825Y-3.65
X4.15Y-3.225
X4.15Y-3.325
X4.15Y-3.5502
X4.15Y-3.6502
X4.475Y-3.225
X4.475Y-3.325
X4.475Y-3.5502
X4.475Y-3.6502
X4.8Y-3.2252
X4.8Y-3.3252
X4.8Y-3.5502
X4.8Y-3.6502
T5
X3.8Y-2.05
X3.8Y-2.65
X3.9Y-2.05
X3.9Y-2.65
X4.0Y-2.05
X4.0Y-2.65
X4.1Y-2.05
X4.1Y-2.65
X4.2Y-2.05
X4.2Y-2.65
X4.3Y-2.05
X4.3Y-2.65
X4.4Y-2.05
X4.4Y-2.65
X4.5Y-2.05
X4.5Y-2.65
X4.6Y-2.05
X4.6Y-2.65
X4.7Y-2.05
X4.7Y-2.65
X4.8Y-2.05
X4.8Y-2.65
X4.9Y-2.05
X4.9Y-2.65
M30
