%TF.GenerationSoftware,KiCad,Pcbnew,7.0.10-7.0.10~ubuntu20.04.1*%
%TF.CreationDate,2024-02-13T11:26:12+09:00*%
%TF.ProjectId,diy_oled_3d_controller,6469795f-6f6c-4656-945f-33645f636f6e,rev?*%
%TF.SameCoordinates,Original*%
%TF.FileFunction,Soldermask,Top*%
%TF.FilePolarity,Negative*%
%FSLAX46Y46*%
G04 Gerber Fmt 4.6, Leading zero omitted, Abs format (unit mm)*
G04 Created by KiCad (PCBNEW 7.0.10-7.0.10~ubuntu20.04.1) date 2024-02-13 11:26:12*
%MOMM*%
%LPD*%
G01*
G04 APERTURE LIST*
G04 Aperture macros list*
%AMRoundRect*
0 Rectangle with rounded corners*
0 $1 Rounding radius*
0 $2 $3 $4 $5 $6 $7 $8 $9 X,Y pos of 4 corners*
0 Add a 4 corners polygon primitive as box body*
4,1,4,$2,$3,$4,$5,$6,$7,$8,$9,$2,$3,0*
0 Add four circle primitives for the rounded corners*
1,1,$1+$1,$2,$3*
1,1,$1+$1,$4,$5*
1,1,$1+$1,$6,$7*
1,1,$1+$1,$8,$9*
0 Add four rect primitives between the rounded corners*
20,1,$1+$1,$2,$3,$4,$5,0*
20,1,$1+$1,$4,$5,$6,$7,0*
20,1,$1+$1,$6,$7,$8,$9,0*
20,1,$1+$1,$8,$9,$2,$3,0*%
G04 Aperture macros list end*
%ADD10RoundRect,0.237500X-0.237500X0.250000X-0.237500X-0.250000X0.237500X-0.250000X0.237500X0.250000X0*%
%ADD11RoundRect,0.250000X-0.450000X0.325000X-0.450000X-0.325000X0.450000X-0.325000X0.450000X0.325000X0*%
%ADD12R,1.800000X1.800000*%
%ADD13C,1.800000*%
%ADD14RoundRect,0.150000X-0.587500X-0.150000X0.587500X-0.150000X0.587500X0.150000X-0.587500X0.150000X0*%
%ADD15RoundRect,0.249999X-1.425001X0.450001X-1.425001X-0.450001X1.425001X-0.450001X1.425001X0.450001X0*%
%ADD16C,1.600000*%
%ADD17C,2.082800*%
%ADD18R,1.700000X1.000000*%
%ADD19R,1.220000X1.220000*%
%ADD20C,1.220000*%
G04 APERTURE END LIST*
D10*
%TO.C,R1*%
X120782500Y-70207500D03*
X120782500Y-72032500D03*
%TD*%
D11*
%TO.C,F1*%
X93421200Y-60969000D03*
X93421200Y-58919000D03*
%TD*%
D12*
%TO.C,D6*%
X105410000Y-92715000D03*
D13*
X105410000Y-90175000D03*
%TD*%
D12*
%TO.C,D8*%
X121920000Y-92715000D03*
D13*
X121920000Y-90175000D03*
%TD*%
D12*
%TO.C,D1*%
X97155000Y-84455000D03*
D13*
X97155000Y-81915000D03*
%TD*%
D14*
%TO.C,Q1*%
X122887500Y-70170000D03*
X122887500Y-72070000D03*
X124762500Y-71120000D03*
%TD*%
D12*
%TO.C,D5*%
X97155000Y-92710000D03*
D13*
X97155000Y-90170000D03*
%TD*%
D12*
%TO.C,D4*%
X121920000Y-84460000D03*
D13*
X121920000Y-81920000D03*
%TD*%
D15*
%TO.C,R11*%
X111760000Y-71245000D03*
X111760000Y-77345000D03*
%TD*%
D16*
%TO.C,C1*%
X96500000Y-73660000D03*
X94000000Y-73660000D03*
%TD*%
D12*
%TO.C,D7*%
X113665000Y-92715000D03*
D13*
X113665000Y-90175000D03*
%TD*%
D17*
%TO.C,B1*%
X96520000Y-52070000D03*
X99060000Y-52070000D03*
X101600000Y-52070000D03*
X104140000Y-52070000D03*
X106680000Y-52070000D03*
X109220000Y-52070000D03*
X111760000Y-52070000D03*
X114300000Y-52070000D03*
X116840000Y-52070000D03*
X119380000Y-52070000D03*
X121920000Y-52070000D03*
X124460000Y-52070000D03*
X124460000Y-67310000D03*
X121920000Y-67310000D03*
X119380000Y-67310000D03*
X116840000Y-67310000D03*
X114300000Y-67310000D03*
X111760000Y-67310000D03*
X109220000Y-67310000D03*
X106680000Y-67310000D03*
X104140000Y-67310000D03*
X101600000Y-67310000D03*
X99060000Y-67310000D03*
X96520000Y-67310000D03*
%TD*%
D12*
%TO.C,D2*%
X105410000Y-84455000D03*
D13*
X105410000Y-81915000D03*
%TD*%
D15*
%TO.C,R13*%
X101600000Y-71245000D03*
X101600000Y-77345000D03*
%TD*%
D18*
%TO.C,S1*%
X106705000Y-104135000D03*
X113005000Y-104135000D03*
X106705000Y-100335000D03*
X113005000Y-100335000D03*
%TD*%
D15*
%TO.C,R10*%
X116840000Y-71245000D03*
X116840000Y-77345000D03*
%TD*%
%TO.C,R12*%
X106680000Y-71245000D03*
X106680000Y-77345000D03*
%TD*%
D12*
%TO.C,D3*%
X113665000Y-84455000D03*
D13*
X113665000Y-81915000D03*
%TD*%
D19*
%TO.C,U2*%
X124460000Y-97790000D03*
D20*
X124460000Y-100330000D03*
X124460000Y-102870000D03*
X124460000Y-105410000D03*
X116830000Y-105410000D03*
X116830000Y-102870000D03*
X116830000Y-100330000D03*
X116830000Y-97790000D03*
%TD*%
D19*
%TO.C,U1*%
X101600000Y-97790000D03*
D20*
X101600000Y-100330000D03*
X101600000Y-102870000D03*
X101600000Y-105410000D03*
X93970000Y-105410000D03*
X93970000Y-102870000D03*
X93970000Y-100330000D03*
X93970000Y-97790000D03*
%TD*%
M02*
