%TF.GenerationSoftware,KiCad,Pcbnew,7.0.10-7.0.10~ubuntu20.04.1*%
%TF.CreationDate,2024-02-13T11:26:12+09:00*%
%TF.ProjectId,diy_oled_3d_controller,6469795f-6f6c-4656-945f-33645f636f6e,rev?*%
%TF.SameCoordinates,Original*%
%TF.FileFunction,Soldermask,Bot*%
%TF.FilePolarity,Negative*%
%FSLAX46Y46*%
G04 Gerber Fmt 4.6, Leading zero omitted, Abs format (unit mm)*
G04 Created by KiCad (PCBNEW 7.0.10-7.0.10~ubuntu20.04.1) date 2024-02-13 11:26:12*
%MOMM*%
%LPD*%
G01*
G04 APERTURE LIST*
%ADD10R,1.800000X1.800000*%
%ADD11C,1.800000*%
%ADD12C,1.600000*%
%ADD13C,2.082800*%
%ADD14R,1.220000X1.220000*%
%ADD15C,1.220000*%
G04 APERTURE END LIST*
D10*
%TO.C,D6*%
X105410000Y-92715000D03*
D11*
X105410000Y-90175000D03*
%TD*%
D10*
%TO.C,D8*%
X121920000Y-92715000D03*
D11*
X121920000Y-90175000D03*
%TD*%
D10*
%TO.C,D1*%
X97155000Y-84455000D03*
D11*
X97155000Y-81915000D03*
%TD*%
D10*
%TO.C,D5*%
X97155000Y-92710000D03*
D11*
X97155000Y-90170000D03*
%TD*%
D10*
%TO.C,D4*%
X121920000Y-84460000D03*
D11*
X121920000Y-81920000D03*
%TD*%
D12*
%TO.C,C1*%
X96500000Y-73660000D03*
X94000000Y-73660000D03*
%TD*%
D10*
%TO.C,D7*%
X113665000Y-92715000D03*
D11*
X113665000Y-90175000D03*
%TD*%
D13*
%TO.C,B1*%
X96520000Y-52070000D03*
X99060000Y-52070000D03*
X101600000Y-52070000D03*
X104140000Y-52070000D03*
X106680000Y-52070000D03*
X109220000Y-52070000D03*
X111760000Y-52070000D03*
X114300000Y-52070000D03*
X116840000Y-52070000D03*
X119380000Y-52070000D03*
X121920000Y-52070000D03*
X124460000Y-52070000D03*
X124460000Y-67310000D03*
X121920000Y-67310000D03*
X119380000Y-67310000D03*
X116840000Y-67310000D03*
X114300000Y-67310000D03*
X111760000Y-67310000D03*
X109220000Y-67310000D03*
X106680000Y-67310000D03*
X104140000Y-67310000D03*
X101600000Y-67310000D03*
X99060000Y-67310000D03*
X96520000Y-67310000D03*
%TD*%
D10*
%TO.C,D2*%
X105410000Y-84455000D03*
D11*
X105410000Y-81915000D03*
%TD*%
D10*
%TO.C,D3*%
X113665000Y-84455000D03*
D11*
X113665000Y-81915000D03*
%TD*%
D14*
%TO.C,U2*%
X124460000Y-97790000D03*
D15*
X124460000Y-100330000D03*
X124460000Y-102870000D03*
X124460000Y-105410000D03*
X116830000Y-105410000D03*
X116830000Y-102870000D03*
X116830000Y-100330000D03*
X116830000Y-97790000D03*
%TD*%
D14*
%TO.C,U1*%
X101600000Y-97790000D03*
D15*
X101600000Y-100330000D03*
X101600000Y-102870000D03*
X101600000Y-105410000D03*
X93970000Y-105410000D03*
X93970000Y-102870000D03*
X93970000Y-100330000D03*
X93970000Y-97790000D03*
%TD*%
M02*
