%TF.GenerationSoftware,KiCad,Pcbnew,8.0.1-8.0.1-1~ubuntu22.04.1*%
%TF.CreationDate,2024-04-18T21:36:37+09:00*%
%TF.ProjectId,diy_oled_3d_controller,6469795f-6f6c-4656-945f-33645f636f6e,rev?*%
%TF.SameCoordinates,Original*%
%TF.FileFunction,Soldermask,Top*%
%TF.FilePolarity,Negative*%
%FSLAX46Y46*%
G04 Gerber Fmt 4.6, Leading zero omitted, Abs format (unit mm)*
G04 Created by KiCad (PCBNEW 8.0.1-8.0.1-1~ubuntu22.04.1) date 2024-04-18 21:36:37*
%MOMM*%
%LPD*%
G01*
G04 APERTURE LIST*
G04 Aperture macros list*
%AMRoundRect*
0 Rectangle with rounded corners*
0 $1 Rounding radius*
0 $2 $3 $4 $5 $6 $7 $8 $9 X,Y pos of 4 corners*
0 Add a 4 corners polygon primitive as box body*
4,1,4,$2,$3,$4,$5,$6,$7,$8,$9,$2,$3,0*
0 Add four circle primitives for the rounded corners*
1,1,$1+$1,$2,$3*
1,1,$1+$1,$4,$5*
1,1,$1+$1,$6,$7*
1,1,$1+$1,$8,$9*
0 Add four rect primitives between the rounded corners*
20,1,$1+$1,$2,$3,$4,$5,0*
20,1,$1+$1,$4,$5,$6,$7,0*
20,1,$1+$1,$6,$7,$8,$9,0*
20,1,$1+$1,$8,$9,$2,$3,0*%
G04 Aperture macros list end*
%ADD10C,1.600000*%
%ADD11RoundRect,0.056280X-0.835720X-0.345720X0.835720X-0.345720X0.835720X0.345720X-0.835720X0.345720X0*%
%ADD12RoundRect,0.237500X0.237500X-0.250000X0.237500X0.250000X-0.237500X0.250000X-0.237500X-0.250000X0*%
%ADD13RoundRect,0.237500X-0.237500X0.300000X-0.237500X-0.300000X0.237500X-0.300000X0.237500X0.300000X0*%
%ADD14RoundRect,0.237500X0.250000X0.237500X-0.250000X0.237500X-0.250000X-0.237500X0.250000X-0.237500X0*%
%ADD15R,1.700000X1.000000*%
%ADD16RoundRect,0.250000X-0.325000X-0.450000X0.325000X-0.450000X0.325000X0.450000X-0.325000X0.450000X0*%
%ADD17RoundRect,0.250001X1.074999X-0.462499X1.074999X0.462499X-1.074999X0.462499X-1.074999X-0.462499X0*%
%ADD18RoundRect,0.150000X-0.150000X0.587500X-0.150000X-0.587500X0.150000X-0.587500X0.150000X0.587500X0*%
%ADD19RoundRect,0.237500X0.237500X-0.300000X0.237500X0.300000X-0.237500X0.300000X-0.237500X-0.300000X0*%
%ADD20RoundRect,0.249999X-1.425001X0.450001X-1.425001X-0.450001X1.425001X-0.450001X1.425001X0.450001X0*%
%ADD21R,1.700000X1.700000*%
%ADD22O,1.700000X1.700000*%
%ADD23C,2.082800*%
%ADD24RoundRect,0.237500X-0.237500X0.250000X-0.237500X-0.250000X0.237500X-0.250000X0.237500X0.250000X0*%
%ADD25R,1.220000X1.220000*%
%ADD26C,1.220000*%
G04 APERTURE END LIST*
D10*
%TO.C,H6*%
X104500000Y-131000000D03*
%TD*%
%TO.C,H5*%
X95000000Y-113000000D03*
%TD*%
%TO.C,H4*%
X104500000Y-106500000D03*
%TD*%
%TO.C,H3*%
X95000000Y-88500000D03*
%TD*%
%TO.C,H2*%
X122500000Y-71500000D03*
%TD*%
%TO.C,H1*%
X95000000Y-37500000D03*
%TD*%
D11*
%TO.C,U4*%
X101830000Y-100095000D03*
X101830000Y-101365000D03*
X101830000Y-102635000D03*
X101830000Y-103905000D03*
X107170000Y-103905000D03*
X107170000Y-102635000D03*
X107170000Y-101365000D03*
X107170000Y-100095000D03*
%TD*%
D12*
%TO.C,R3*%
X97500000Y-101825000D03*
X97500000Y-100000000D03*
%TD*%
D13*
%TO.C,C4*%
X99500000Y-100000000D03*
X99500000Y-101725000D03*
%TD*%
D14*
%TO.C,R1*%
X112825000Y-92500000D03*
X111000000Y-92500000D03*
%TD*%
D15*
%TO.C,S4*%
X96200000Y-66200000D03*
X102500000Y-66200000D03*
X96200000Y-62400000D03*
X102500000Y-62400000D03*
%TD*%
D16*
%TO.C,F1*%
X95950000Y-70000000D03*
X98000000Y-70000000D03*
%TD*%
D17*
%TO.C,D12*%
X99000000Y-120975000D03*
X99000000Y-118000000D03*
%TD*%
%TO.C,D1*%
X94000000Y-97000000D03*
X94000000Y-94025000D03*
%TD*%
D18*
%TO.C,Q1*%
X112862500Y-94500000D03*
X110962500Y-94500000D03*
X111912500Y-96375000D03*
%TD*%
D19*
%TO.C,C3*%
X109500000Y-103225000D03*
X109500000Y-101500000D03*
%TD*%
D17*
%TO.C,D4*%
X107500000Y-97000000D03*
X107500000Y-94025000D03*
%TD*%
D20*
%TO.C,R11*%
X111660000Y-69745000D03*
X111660000Y-75845000D03*
%TD*%
D10*
%TO.C,C1*%
X96500000Y-78500000D03*
X94000000Y-78500000D03*
%TD*%
D21*
%TO.C,J3*%
X101000000Y-112500000D03*
D22*
X103540000Y-112500000D03*
X106080000Y-112500000D03*
X108620000Y-112500000D03*
X111160000Y-112500000D03*
X113700000Y-112500000D03*
%TD*%
D23*
%TO.C,B1*%
X108000000Y-38420000D03*
X108000000Y-40960000D03*
X108000000Y-43500000D03*
X108000000Y-46040000D03*
X108000000Y-48580000D03*
X108000000Y-51120000D03*
X108000000Y-53660000D03*
X108000000Y-56200000D03*
X108000000Y-58740000D03*
X108000000Y-61280000D03*
X108000000Y-63820000D03*
X108000000Y-66360000D03*
X123240000Y-66360000D03*
X123240000Y-63820000D03*
X123240000Y-61280000D03*
X123240000Y-58740000D03*
X123240000Y-56200000D03*
X123240000Y-53660000D03*
X123240000Y-51120000D03*
X123240000Y-48580000D03*
X123240000Y-46040000D03*
X123240000Y-43500000D03*
X123240000Y-40960000D03*
X123240000Y-38420000D03*
%TD*%
D17*
%TO.C,D2*%
X98500000Y-97000000D03*
X98500000Y-94025000D03*
%TD*%
D15*
%TO.C,S2*%
X96200000Y-52146000D03*
X102500000Y-52146000D03*
X96200000Y-48346000D03*
X102500000Y-48346000D03*
%TD*%
D18*
%TO.C,Q2*%
X115000000Y-119500000D03*
X113100000Y-119500000D03*
X114050000Y-121375000D03*
%TD*%
D21*
%TO.C,J1*%
X101000000Y-81500000D03*
D22*
X103540000Y-81500000D03*
X106080000Y-81500000D03*
X108620000Y-81500000D03*
X111160000Y-81500000D03*
X113700000Y-81500000D03*
%TD*%
D20*
%TO.C,R13*%
X101500000Y-69745000D03*
X101500000Y-75845000D03*
%TD*%
D15*
%TO.C,S1*%
X96200000Y-45000000D03*
X102500000Y-45000000D03*
X96200000Y-41200000D03*
X102500000Y-41200000D03*
%TD*%
D21*
%TO.C,J2*%
X101000000Y-88000000D03*
D22*
X103540000Y-88000000D03*
X106080000Y-88000000D03*
X108620000Y-88000000D03*
X111160000Y-88000000D03*
X113700000Y-88000000D03*
%TD*%
D17*
%TO.C,D14*%
X109000000Y-120975000D03*
X109000000Y-118000000D03*
%TD*%
%TO.C,D11*%
X94130000Y-120975000D03*
X94130000Y-118000000D03*
%TD*%
D20*
%TO.C,R10*%
X116740000Y-69745000D03*
X116740000Y-75845000D03*
%TD*%
D10*
%TO.C,C2*%
X123500000Y-78500000D03*
X126000000Y-78500000D03*
%TD*%
D20*
%TO.C,R12*%
X106580000Y-69745000D03*
X106580000Y-75845000D03*
%TD*%
D17*
%TO.C,D13*%
X104000000Y-120975000D03*
X104000000Y-118000000D03*
%TD*%
%TO.C,D3*%
X103000000Y-97000000D03*
X103000000Y-94025000D03*
%TD*%
D14*
%TO.C,R4*%
X115000000Y-117500000D03*
X113175000Y-117500000D03*
%TD*%
D24*
%TO.C,R2*%
X111500000Y-101500000D03*
X111500000Y-103325000D03*
%TD*%
D15*
%TO.C,S3*%
X96200000Y-59173000D03*
X102500000Y-59173000D03*
X96200000Y-55373000D03*
X102500000Y-55373000D03*
%TD*%
D25*
%TO.C,U2*%
X115815000Y-123690000D03*
D26*
X115815000Y-126230000D03*
X115815000Y-128770000D03*
X115815000Y-131310000D03*
X108185000Y-131310000D03*
X108185000Y-128770000D03*
X108185000Y-126230000D03*
X108185000Y-123690000D03*
%TD*%
D25*
%TO.C,U1*%
X100815000Y-123690000D03*
D26*
X100815000Y-126230000D03*
X100815000Y-128770000D03*
X100815000Y-131310000D03*
X93185000Y-131310000D03*
X93185000Y-128770000D03*
X93185000Y-126230000D03*
X93185000Y-123690000D03*
%TD*%
M02*
