%TF.GenerationSoftware,KiCad,Pcbnew,7.0.10-7.0.10~ubuntu20.04.1*%
%TF.CreationDate,2024-02-13T11:26:12+09:00*%
%TF.ProjectId,diy_oled_3d_controller,6469795f-6f6c-4656-945f-33645f636f6e,rev?*%
%TF.SameCoordinates,Original*%
%TF.FileFunction,Legend,Bot*%
%TF.FilePolarity,Positive*%
%FSLAX46Y46*%
G04 Gerber Fmt 4.6, Leading zero omitted, Abs format (unit mm)*
G04 Created by KiCad (PCBNEW 7.0.10-7.0.10~ubuntu20.04.1) date 2024-02-13 11:26:12*
%MOMM*%
%LPD*%
G01*
G04 APERTURE LIST*
%ADD10C,0.200000*%
%ADD11C,0.150000*%
%ADD12C,0.127000*%
%ADD13R,1.800000X1.800000*%
%ADD14C,1.800000*%
%ADD15C,1.600000*%
%ADD16C,2.082800*%
%ADD17R,1.220000X1.220000*%
%ADD18C,1.220000*%
G04 APERTURE END LIST*
D10*
X122220231Y-59271695D02*
X121763088Y-59271695D01*
X121991660Y-60071695D02*
X121991660Y-59271695D01*
X121496421Y-60071695D02*
X121496421Y-59271695D01*
X121153564Y-60071695D02*
X121153564Y-59652647D01*
X121153564Y-59652647D02*
X121191659Y-59576457D01*
X121191659Y-59576457D02*
X121267850Y-59538361D01*
X121267850Y-59538361D02*
X121382136Y-59538361D01*
X121382136Y-59538361D02*
X121458326Y-59576457D01*
X121458326Y-59576457D02*
X121496421Y-59614552D01*
X120772611Y-60071695D02*
X120772611Y-59538361D01*
X120772611Y-59271695D02*
X120810707Y-59309790D01*
X120810707Y-59309790D02*
X120772611Y-59347885D01*
X120772611Y-59347885D02*
X120734516Y-59309790D01*
X120734516Y-59309790D02*
X120772611Y-59271695D01*
X120772611Y-59271695D02*
X120772611Y-59347885D01*
X120429755Y-60033600D02*
X120353564Y-60071695D01*
X120353564Y-60071695D02*
X120201183Y-60071695D01*
X120201183Y-60071695D02*
X120124993Y-60033600D01*
X120124993Y-60033600D02*
X120086897Y-59957409D01*
X120086897Y-59957409D02*
X120086897Y-59919314D01*
X120086897Y-59919314D02*
X120124993Y-59843123D01*
X120124993Y-59843123D02*
X120201183Y-59805028D01*
X120201183Y-59805028D02*
X120315469Y-59805028D01*
X120315469Y-59805028D02*
X120391659Y-59766933D01*
X120391659Y-59766933D02*
X120429755Y-59690742D01*
X120429755Y-59690742D02*
X120429755Y-59652647D01*
X120429755Y-59652647D02*
X120391659Y-59576457D01*
X120391659Y-59576457D02*
X120315469Y-59538361D01*
X120315469Y-59538361D02*
X120201183Y-59538361D01*
X120201183Y-59538361D02*
X120124993Y-59576457D01*
X119134516Y-60071695D02*
X119134516Y-59271695D01*
X119134516Y-59271695D02*
X118829754Y-59271695D01*
X118829754Y-59271695D02*
X118753564Y-59309790D01*
X118753564Y-59309790D02*
X118715469Y-59347885D01*
X118715469Y-59347885D02*
X118677373Y-59424076D01*
X118677373Y-59424076D02*
X118677373Y-59538361D01*
X118677373Y-59538361D02*
X118715469Y-59614552D01*
X118715469Y-59614552D02*
X118753564Y-59652647D01*
X118753564Y-59652647D02*
X118829754Y-59690742D01*
X118829754Y-59690742D02*
X119134516Y-59690742D01*
X117877373Y-59995504D02*
X117915469Y-60033600D01*
X117915469Y-60033600D02*
X118029754Y-60071695D01*
X118029754Y-60071695D02*
X118105945Y-60071695D01*
X118105945Y-60071695D02*
X118220231Y-60033600D01*
X118220231Y-60033600D02*
X118296421Y-59957409D01*
X118296421Y-59957409D02*
X118334516Y-59881219D01*
X118334516Y-59881219D02*
X118372612Y-59728838D01*
X118372612Y-59728838D02*
X118372612Y-59614552D01*
X118372612Y-59614552D02*
X118334516Y-59462171D01*
X118334516Y-59462171D02*
X118296421Y-59385980D01*
X118296421Y-59385980D02*
X118220231Y-59309790D01*
X118220231Y-59309790D02*
X118105945Y-59271695D01*
X118105945Y-59271695D02*
X118029754Y-59271695D01*
X118029754Y-59271695D02*
X117915469Y-59309790D01*
X117915469Y-59309790D02*
X117877373Y-59347885D01*
X117267850Y-59652647D02*
X117153564Y-59690742D01*
X117153564Y-59690742D02*
X117115469Y-59728838D01*
X117115469Y-59728838D02*
X117077373Y-59805028D01*
X117077373Y-59805028D02*
X117077373Y-59919314D01*
X117077373Y-59919314D02*
X117115469Y-59995504D01*
X117115469Y-59995504D02*
X117153564Y-60033600D01*
X117153564Y-60033600D02*
X117229754Y-60071695D01*
X117229754Y-60071695D02*
X117534516Y-60071695D01*
X117534516Y-60071695D02*
X117534516Y-59271695D01*
X117534516Y-59271695D02*
X117267850Y-59271695D01*
X117267850Y-59271695D02*
X117191659Y-59309790D01*
X117191659Y-59309790D02*
X117153564Y-59347885D01*
X117153564Y-59347885D02*
X117115469Y-59424076D01*
X117115469Y-59424076D02*
X117115469Y-59500266D01*
X117115469Y-59500266D02*
X117153564Y-59576457D01*
X117153564Y-59576457D02*
X117191659Y-59614552D01*
X117191659Y-59614552D02*
X117267850Y-59652647D01*
X117267850Y-59652647D02*
X117534516Y-59652647D01*
X115782135Y-60071695D02*
X115782135Y-59652647D01*
X115782135Y-59652647D02*
X115820230Y-59576457D01*
X115820230Y-59576457D02*
X115896421Y-59538361D01*
X115896421Y-59538361D02*
X116048802Y-59538361D01*
X116048802Y-59538361D02*
X116124992Y-59576457D01*
X115782135Y-60033600D02*
X115858326Y-60071695D01*
X115858326Y-60071695D02*
X116048802Y-60071695D01*
X116048802Y-60071695D02*
X116124992Y-60033600D01*
X116124992Y-60033600D02*
X116163088Y-59957409D01*
X116163088Y-59957409D02*
X116163088Y-59881219D01*
X116163088Y-59881219D02*
X116124992Y-59805028D01*
X116124992Y-59805028D02*
X116048802Y-59766933D01*
X116048802Y-59766933D02*
X115858326Y-59766933D01*
X115858326Y-59766933D02*
X115782135Y-59728838D01*
X115401182Y-59538361D02*
X115401182Y-60071695D01*
X115401182Y-59614552D02*
X115363087Y-59576457D01*
X115363087Y-59576457D02*
X115286897Y-59538361D01*
X115286897Y-59538361D02*
X115172611Y-59538361D01*
X115172611Y-59538361D02*
X115096420Y-59576457D01*
X115096420Y-59576457D02*
X115058325Y-59652647D01*
X115058325Y-59652647D02*
X115058325Y-60071695D01*
X114334515Y-60071695D02*
X114334515Y-59271695D01*
X114334515Y-60033600D02*
X114410706Y-60071695D01*
X114410706Y-60071695D02*
X114563087Y-60071695D01*
X114563087Y-60071695D02*
X114639277Y-60033600D01*
X114639277Y-60033600D02*
X114677372Y-59995504D01*
X114677372Y-59995504D02*
X114715468Y-59919314D01*
X114715468Y-59919314D02*
X114715468Y-59690742D01*
X114715468Y-59690742D02*
X114677372Y-59614552D01*
X114677372Y-59614552D02*
X114639277Y-59576457D01*
X114639277Y-59576457D02*
X114563087Y-59538361D01*
X114563087Y-59538361D02*
X114410706Y-59538361D01*
X114410706Y-59538361D02*
X114334515Y-59576457D01*
X113344038Y-60071695D02*
X113344038Y-59538361D01*
X113344038Y-59271695D02*
X113382134Y-59309790D01*
X113382134Y-59309790D02*
X113344038Y-59347885D01*
X113344038Y-59347885D02*
X113305943Y-59309790D01*
X113305943Y-59309790D02*
X113344038Y-59271695D01*
X113344038Y-59271695D02*
X113344038Y-59347885D01*
X113077372Y-59538361D02*
X112772610Y-59538361D01*
X112963086Y-59271695D02*
X112963086Y-59957409D01*
X112963086Y-59957409D02*
X112924991Y-60033600D01*
X112924991Y-60033600D02*
X112848801Y-60071695D01*
X112848801Y-60071695D02*
X112772610Y-60071695D01*
X112544039Y-60033600D02*
X112467848Y-60071695D01*
X112467848Y-60071695D02*
X112315467Y-60071695D01*
X112315467Y-60071695D02*
X112239277Y-60033600D01*
X112239277Y-60033600D02*
X112201181Y-59957409D01*
X112201181Y-59957409D02*
X112201181Y-59919314D01*
X112201181Y-59919314D02*
X112239277Y-59843123D01*
X112239277Y-59843123D02*
X112315467Y-59805028D01*
X112315467Y-59805028D02*
X112429753Y-59805028D01*
X112429753Y-59805028D02*
X112505943Y-59766933D01*
X112505943Y-59766933D02*
X112544039Y-59690742D01*
X112544039Y-59690742D02*
X112544039Y-59652647D01*
X112544039Y-59652647D02*
X112505943Y-59576457D01*
X112505943Y-59576457D02*
X112429753Y-59538361D01*
X112429753Y-59538361D02*
X112315467Y-59538361D01*
X112315467Y-59538361D02*
X112239277Y-59576457D01*
X110905943Y-60071695D02*
X110905943Y-59271695D01*
X110905943Y-60033600D02*
X110982134Y-60071695D01*
X110982134Y-60071695D02*
X111134515Y-60071695D01*
X111134515Y-60071695D02*
X111210705Y-60033600D01*
X111210705Y-60033600D02*
X111248800Y-59995504D01*
X111248800Y-59995504D02*
X111286896Y-59919314D01*
X111286896Y-59919314D02*
X111286896Y-59690742D01*
X111286896Y-59690742D02*
X111248800Y-59614552D01*
X111248800Y-59614552D02*
X111210705Y-59576457D01*
X111210705Y-59576457D02*
X111134515Y-59538361D01*
X111134515Y-59538361D02*
X110982134Y-59538361D01*
X110982134Y-59538361D02*
X110905943Y-59576457D01*
X110220228Y-60033600D02*
X110296419Y-60071695D01*
X110296419Y-60071695D02*
X110448800Y-60071695D01*
X110448800Y-60071695D02*
X110524990Y-60033600D01*
X110524990Y-60033600D02*
X110563086Y-59957409D01*
X110563086Y-59957409D02*
X110563086Y-59652647D01*
X110563086Y-59652647D02*
X110524990Y-59576457D01*
X110524990Y-59576457D02*
X110448800Y-59538361D01*
X110448800Y-59538361D02*
X110296419Y-59538361D01*
X110296419Y-59538361D02*
X110220228Y-59576457D01*
X110220228Y-59576457D02*
X110182133Y-59652647D01*
X110182133Y-59652647D02*
X110182133Y-59728838D01*
X110182133Y-59728838D02*
X110563086Y-59805028D01*
X109877372Y-60033600D02*
X109801181Y-60071695D01*
X109801181Y-60071695D02*
X109648800Y-60071695D01*
X109648800Y-60071695D02*
X109572610Y-60033600D01*
X109572610Y-60033600D02*
X109534514Y-59957409D01*
X109534514Y-59957409D02*
X109534514Y-59919314D01*
X109534514Y-59919314D02*
X109572610Y-59843123D01*
X109572610Y-59843123D02*
X109648800Y-59805028D01*
X109648800Y-59805028D02*
X109763086Y-59805028D01*
X109763086Y-59805028D02*
X109839276Y-59766933D01*
X109839276Y-59766933D02*
X109877372Y-59690742D01*
X109877372Y-59690742D02*
X109877372Y-59652647D01*
X109877372Y-59652647D02*
X109839276Y-59576457D01*
X109839276Y-59576457D02*
X109763086Y-59538361D01*
X109763086Y-59538361D02*
X109648800Y-59538361D01*
X109648800Y-59538361D02*
X109572610Y-59576457D01*
X109191657Y-60071695D02*
X109191657Y-59538361D01*
X109191657Y-59271695D02*
X109229753Y-59309790D01*
X109229753Y-59309790D02*
X109191657Y-59347885D01*
X109191657Y-59347885D02*
X109153562Y-59309790D01*
X109153562Y-59309790D02*
X109191657Y-59271695D01*
X109191657Y-59271695D02*
X109191657Y-59347885D01*
X108467848Y-59538361D02*
X108467848Y-60185980D01*
X108467848Y-60185980D02*
X108505943Y-60262171D01*
X108505943Y-60262171D02*
X108544039Y-60300266D01*
X108544039Y-60300266D02*
X108620229Y-60338361D01*
X108620229Y-60338361D02*
X108734515Y-60338361D01*
X108734515Y-60338361D02*
X108810705Y-60300266D01*
X108467848Y-60033600D02*
X108544039Y-60071695D01*
X108544039Y-60071695D02*
X108696420Y-60071695D01*
X108696420Y-60071695D02*
X108772610Y-60033600D01*
X108772610Y-60033600D02*
X108810705Y-59995504D01*
X108810705Y-59995504D02*
X108848801Y-59919314D01*
X108848801Y-59919314D02*
X108848801Y-59690742D01*
X108848801Y-59690742D02*
X108810705Y-59614552D01*
X108810705Y-59614552D02*
X108772610Y-59576457D01*
X108772610Y-59576457D02*
X108696420Y-59538361D01*
X108696420Y-59538361D02*
X108544039Y-59538361D01*
X108544039Y-59538361D02*
X108467848Y-59576457D01*
X108086895Y-59538361D02*
X108086895Y-60071695D01*
X108086895Y-59614552D02*
X108048800Y-59576457D01*
X108048800Y-59576457D02*
X107972610Y-59538361D01*
X107972610Y-59538361D02*
X107858324Y-59538361D01*
X107858324Y-59538361D02*
X107782133Y-59576457D01*
X107782133Y-59576457D02*
X107744038Y-59652647D01*
X107744038Y-59652647D02*
X107744038Y-60071695D01*
X106753561Y-60071695D02*
X106753561Y-59271695D01*
X106753561Y-59576457D02*
X106677371Y-59538361D01*
X106677371Y-59538361D02*
X106524990Y-59538361D01*
X106524990Y-59538361D02*
X106448799Y-59576457D01*
X106448799Y-59576457D02*
X106410704Y-59614552D01*
X106410704Y-59614552D02*
X106372609Y-59690742D01*
X106372609Y-59690742D02*
X106372609Y-59919314D01*
X106372609Y-59919314D02*
X106410704Y-59995504D01*
X106410704Y-59995504D02*
X106448799Y-60033600D01*
X106448799Y-60033600D02*
X106524990Y-60071695D01*
X106524990Y-60071695D02*
X106677371Y-60071695D01*
X106677371Y-60071695D02*
X106753561Y-60033600D01*
X106105942Y-59538361D02*
X105915466Y-60071695D01*
X105724989Y-59538361D02*
X105915466Y-60071695D01*
X105915466Y-60071695D02*
X105991656Y-60262171D01*
X105991656Y-60262171D02*
X106029751Y-60300266D01*
X106029751Y-60300266D02*
X106105942Y-60338361D01*
X104658322Y-59271695D02*
X104505941Y-59271695D01*
X104505941Y-59271695D02*
X104429751Y-59309790D01*
X104429751Y-59309790D02*
X104353560Y-59385980D01*
X104353560Y-59385980D02*
X104315465Y-59538361D01*
X104315465Y-59538361D02*
X104315465Y-59805028D01*
X104315465Y-59805028D02*
X104353560Y-59957409D01*
X104353560Y-59957409D02*
X104429751Y-60033600D01*
X104429751Y-60033600D02*
X104505941Y-60071695D01*
X104505941Y-60071695D02*
X104658322Y-60071695D01*
X104658322Y-60071695D02*
X104734513Y-60033600D01*
X104734513Y-60033600D02*
X104810703Y-59957409D01*
X104810703Y-59957409D02*
X104848799Y-59805028D01*
X104848799Y-59805028D02*
X104848799Y-59538361D01*
X104848799Y-59538361D02*
X104810703Y-59385980D01*
X104810703Y-59385980D02*
X104734513Y-59309790D01*
X104734513Y-59309790D02*
X104658322Y-59271695D01*
X103972608Y-59538361D02*
X103972608Y-60338361D01*
X103972608Y-59576457D02*
X103896418Y-59538361D01*
X103896418Y-59538361D02*
X103744037Y-59538361D01*
X103744037Y-59538361D02*
X103667846Y-59576457D01*
X103667846Y-59576457D02*
X103629751Y-59614552D01*
X103629751Y-59614552D02*
X103591656Y-59690742D01*
X103591656Y-59690742D02*
X103591656Y-59919314D01*
X103591656Y-59919314D02*
X103629751Y-59995504D01*
X103629751Y-59995504D02*
X103667846Y-60033600D01*
X103667846Y-60033600D02*
X103744037Y-60071695D01*
X103744037Y-60071695D02*
X103896418Y-60071695D01*
X103896418Y-60071695D02*
X103972608Y-60033600D01*
X102944036Y-60033600D02*
X103020227Y-60071695D01*
X103020227Y-60071695D02*
X103172608Y-60071695D01*
X103172608Y-60071695D02*
X103248798Y-60033600D01*
X103248798Y-60033600D02*
X103286894Y-59957409D01*
X103286894Y-59957409D02*
X103286894Y-59652647D01*
X103286894Y-59652647D02*
X103248798Y-59576457D01*
X103248798Y-59576457D02*
X103172608Y-59538361D01*
X103172608Y-59538361D02*
X103020227Y-59538361D01*
X103020227Y-59538361D02*
X102944036Y-59576457D01*
X102944036Y-59576457D02*
X102905941Y-59652647D01*
X102905941Y-59652647D02*
X102905941Y-59728838D01*
X102905941Y-59728838D02*
X103286894Y-59805028D01*
X102563084Y-59538361D02*
X102563084Y-60071695D01*
X102563084Y-59614552D02*
X102524989Y-59576457D01*
X102524989Y-59576457D02*
X102448799Y-59538361D01*
X102448799Y-59538361D02*
X102334513Y-59538361D01*
X102334513Y-59538361D02*
X102258322Y-59576457D01*
X102258322Y-59576457D02*
X102220227Y-59652647D01*
X102220227Y-59652647D02*
X102220227Y-60071695D01*
X101915465Y-59271695D02*
X101420227Y-59271695D01*
X101420227Y-59271695D02*
X101686893Y-59576457D01*
X101686893Y-59576457D02*
X101572608Y-59576457D01*
X101572608Y-59576457D02*
X101496417Y-59614552D01*
X101496417Y-59614552D02*
X101458322Y-59652647D01*
X101458322Y-59652647D02*
X101420227Y-59728838D01*
X101420227Y-59728838D02*
X101420227Y-59919314D01*
X101420227Y-59919314D02*
X101458322Y-59995504D01*
X101458322Y-59995504D02*
X101496417Y-60033600D01*
X101496417Y-60033600D02*
X101572608Y-60071695D01*
X101572608Y-60071695D02*
X101801179Y-60071695D01*
X101801179Y-60071695D02*
X101877370Y-60033600D01*
X101877370Y-60033600D02*
X101915465Y-59995504D01*
X101077369Y-60071695D02*
X101077369Y-59271695D01*
X101077369Y-59271695D02*
X100886893Y-59271695D01*
X100886893Y-59271695D02*
X100772607Y-59309790D01*
X100772607Y-59309790D02*
X100696417Y-59385980D01*
X100696417Y-59385980D02*
X100658322Y-59462171D01*
X100658322Y-59462171D02*
X100620226Y-59614552D01*
X100620226Y-59614552D02*
X100620226Y-59728838D01*
X100620226Y-59728838D02*
X100658322Y-59881219D01*
X100658322Y-59881219D02*
X100696417Y-59957409D01*
X100696417Y-59957409D02*
X100772607Y-60033600D01*
X100772607Y-60033600D02*
X100886893Y-60071695D01*
X100886893Y-60071695D02*
X101077369Y-60071695D01*
X100124988Y-59271695D02*
X99972607Y-59271695D01*
X99972607Y-59271695D02*
X99896417Y-59309790D01*
X99896417Y-59309790D02*
X99820226Y-59385980D01*
X99820226Y-59385980D02*
X99782131Y-59538361D01*
X99782131Y-59538361D02*
X99782131Y-59805028D01*
X99782131Y-59805028D02*
X99820226Y-59957409D01*
X99820226Y-59957409D02*
X99896417Y-60033600D01*
X99896417Y-60033600D02*
X99972607Y-60071695D01*
X99972607Y-60071695D02*
X100124988Y-60071695D01*
X100124988Y-60071695D02*
X100201179Y-60033600D01*
X100201179Y-60033600D02*
X100277369Y-59957409D01*
X100277369Y-59957409D02*
X100315465Y-59805028D01*
X100315465Y-59805028D02*
X100315465Y-59538361D01*
X100315465Y-59538361D02*
X100277369Y-59385980D01*
X100277369Y-59385980D02*
X100201179Y-59309790D01*
X100201179Y-59309790D02*
X100124988Y-59271695D01*
X99058322Y-60071695D02*
X99439274Y-60071695D01*
X99439274Y-60071695D02*
X99439274Y-59271695D01*
X98791655Y-59652647D02*
X98524989Y-59652647D01*
X98410703Y-60071695D02*
X98791655Y-60071695D01*
X98791655Y-60071695D02*
X98791655Y-59271695D01*
X98791655Y-59271695D02*
X98410703Y-59271695D01*
X98067845Y-60071695D02*
X98067845Y-59271695D01*
X98067845Y-59271695D02*
X97877369Y-59271695D01*
X97877369Y-59271695D02*
X97763083Y-59309790D01*
X97763083Y-59309790D02*
X97686893Y-59385980D01*
X97686893Y-59385980D02*
X97648798Y-59462171D01*
X97648798Y-59462171D02*
X97610702Y-59614552D01*
X97610702Y-59614552D02*
X97610702Y-59728838D01*
X97610702Y-59728838D02*
X97648798Y-59881219D01*
X97648798Y-59881219D02*
X97686893Y-59957409D01*
X97686893Y-59957409D02*
X97763083Y-60033600D01*
X97763083Y-60033600D02*
X97877369Y-60071695D01*
X97877369Y-60071695D02*
X98067845Y-60071695D01*
X122105945Y-61359695D02*
X122105945Y-60826361D01*
X122105945Y-60559695D02*
X122144041Y-60597790D01*
X122144041Y-60597790D02*
X122105945Y-60635885D01*
X122105945Y-60635885D02*
X122067850Y-60597790D01*
X122067850Y-60597790D02*
X122105945Y-60559695D01*
X122105945Y-60559695D02*
X122105945Y-60635885D01*
X121763089Y-61321600D02*
X121686898Y-61359695D01*
X121686898Y-61359695D02*
X121534517Y-61359695D01*
X121534517Y-61359695D02*
X121458327Y-61321600D01*
X121458327Y-61321600D02*
X121420231Y-61245409D01*
X121420231Y-61245409D02*
X121420231Y-61207314D01*
X121420231Y-61207314D02*
X121458327Y-61131123D01*
X121458327Y-61131123D02*
X121534517Y-61093028D01*
X121534517Y-61093028D02*
X121648803Y-61093028D01*
X121648803Y-61093028D02*
X121724993Y-61054933D01*
X121724993Y-61054933D02*
X121763089Y-60978742D01*
X121763089Y-60978742D02*
X121763089Y-60940647D01*
X121763089Y-60940647D02*
X121724993Y-60864457D01*
X121724993Y-60864457D02*
X121648803Y-60826361D01*
X121648803Y-60826361D02*
X121534517Y-60826361D01*
X121534517Y-60826361D02*
X121458327Y-60864457D01*
X120353565Y-61359695D02*
X120429755Y-61321600D01*
X120429755Y-61321600D02*
X120467850Y-61245409D01*
X120467850Y-61245409D02*
X120467850Y-60559695D01*
X120048802Y-61359695D02*
X120048802Y-60826361D01*
X120048802Y-60559695D02*
X120086898Y-60597790D01*
X120086898Y-60597790D02*
X120048802Y-60635885D01*
X120048802Y-60635885D02*
X120010707Y-60597790D01*
X120010707Y-60597790D02*
X120048802Y-60559695D01*
X120048802Y-60559695D02*
X120048802Y-60635885D01*
X119324993Y-61321600D02*
X119401184Y-61359695D01*
X119401184Y-61359695D02*
X119553565Y-61359695D01*
X119553565Y-61359695D02*
X119629755Y-61321600D01*
X119629755Y-61321600D02*
X119667850Y-61283504D01*
X119667850Y-61283504D02*
X119705946Y-61207314D01*
X119705946Y-61207314D02*
X119705946Y-60978742D01*
X119705946Y-60978742D02*
X119667850Y-60902552D01*
X119667850Y-60902552D02*
X119629755Y-60864457D01*
X119629755Y-60864457D02*
X119553565Y-60826361D01*
X119553565Y-60826361D02*
X119401184Y-60826361D01*
X119401184Y-60826361D02*
X119324993Y-60864457D01*
X118677374Y-61321600D02*
X118753565Y-61359695D01*
X118753565Y-61359695D02*
X118905946Y-61359695D01*
X118905946Y-61359695D02*
X118982136Y-61321600D01*
X118982136Y-61321600D02*
X119020232Y-61245409D01*
X119020232Y-61245409D02*
X119020232Y-60940647D01*
X119020232Y-60940647D02*
X118982136Y-60864457D01*
X118982136Y-60864457D02*
X118905946Y-60826361D01*
X118905946Y-60826361D02*
X118753565Y-60826361D01*
X118753565Y-60826361D02*
X118677374Y-60864457D01*
X118677374Y-60864457D02*
X118639279Y-60940647D01*
X118639279Y-60940647D02*
X118639279Y-61016838D01*
X118639279Y-61016838D02*
X119020232Y-61093028D01*
X118296422Y-60826361D02*
X118296422Y-61359695D01*
X118296422Y-60902552D02*
X118258327Y-60864457D01*
X118258327Y-60864457D02*
X118182137Y-60826361D01*
X118182137Y-60826361D02*
X118067851Y-60826361D01*
X118067851Y-60826361D02*
X117991660Y-60864457D01*
X117991660Y-60864457D02*
X117953565Y-60940647D01*
X117953565Y-60940647D02*
X117953565Y-61359695D01*
X117610708Y-61321600D02*
X117534517Y-61359695D01*
X117534517Y-61359695D02*
X117382136Y-61359695D01*
X117382136Y-61359695D02*
X117305946Y-61321600D01*
X117305946Y-61321600D02*
X117267850Y-61245409D01*
X117267850Y-61245409D02*
X117267850Y-61207314D01*
X117267850Y-61207314D02*
X117305946Y-61131123D01*
X117305946Y-61131123D02*
X117382136Y-61093028D01*
X117382136Y-61093028D02*
X117496422Y-61093028D01*
X117496422Y-61093028D02*
X117572612Y-61054933D01*
X117572612Y-61054933D02*
X117610708Y-60978742D01*
X117610708Y-60978742D02*
X117610708Y-60940647D01*
X117610708Y-60940647D02*
X117572612Y-60864457D01*
X117572612Y-60864457D02*
X117496422Y-60826361D01*
X117496422Y-60826361D02*
X117382136Y-60826361D01*
X117382136Y-60826361D02*
X117305946Y-60864457D01*
X116620231Y-61321600D02*
X116696422Y-61359695D01*
X116696422Y-61359695D02*
X116848803Y-61359695D01*
X116848803Y-61359695D02*
X116924993Y-61321600D01*
X116924993Y-61321600D02*
X116963089Y-61245409D01*
X116963089Y-61245409D02*
X116963089Y-60940647D01*
X116963089Y-60940647D02*
X116924993Y-60864457D01*
X116924993Y-60864457D02*
X116848803Y-60826361D01*
X116848803Y-60826361D02*
X116696422Y-60826361D01*
X116696422Y-60826361D02*
X116620231Y-60864457D01*
X116620231Y-60864457D02*
X116582136Y-60940647D01*
X116582136Y-60940647D02*
X116582136Y-61016838D01*
X116582136Y-61016838D02*
X116963089Y-61093028D01*
X115896422Y-61359695D02*
X115896422Y-60559695D01*
X115896422Y-61321600D02*
X115972613Y-61359695D01*
X115972613Y-61359695D02*
X116124994Y-61359695D01*
X116124994Y-61359695D02*
X116201184Y-61321600D01*
X116201184Y-61321600D02*
X116239279Y-61283504D01*
X116239279Y-61283504D02*
X116277375Y-61207314D01*
X116277375Y-61207314D02*
X116277375Y-60978742D01*
X116277375Y-60978742D02*
X116239279Y-60902552D01*
X116239279Y-60902552D02*
X116201184Y-60864457D01*
X116201184Y-60864457D02*
X116124994Y-60826361D01*
X116124994Y-60826361D02*
X115972613Y-60826361D01*
X115972613Y-60826361D02*
X115896422Y-60864457D01*
X114563088Y-60826361D02*
X114563088Y-61359695D01*
X114905945Y-60826361D02*
X114905945Y-61245409D01*
X114905945Y-61245409D02*
X114867850Y-61321600D01*
X114867850Y-61321600D02*
X114791660Y-61359695D01*
X114791660Y-61359695D02*
X114677374Y-61359695D01*
X114677374Y-61359695D02*
X114601183Y-61321600D01*
X114601183Y-61321600D02*
X114563088Y-61283504D01*
X114182135Y-60826361D02*
X114182135Y-61359695D01*
X114182135Y-60902552D02*
X114144040Y-60864457D01*
X114144040Y-60864457D02*
X114067850Y-60826361D01*
X114067850Y-60826361D02*
X113953564Y-60826361D01*
X113953564Y-60826361D02*
X113877373Y-60864457D01*
X113877373Y-60864457D02*
X113839278Y-60940647D01*
X113839278Y-60940647D02*
X113839278Y-61359695D01*
X113115468Y-61359695D02*
X113115468Y-60559695D01*
X113115468Y-61321600D02*
X113191659Y-61359695D01*
X113191659Y-61359695D02*
X113344040Y-61359695D01*
X113344040Y-61359695D02*
X113420230Y-61321600D01*
X113420230Y-61321600D02*
X113458325Y-61283504D01*
X113458325Y-61283504D02*
X113496421Y-61207314D01*
X113496421Y-61207314D02*
X113496421Y-60978742D01*
X113496421Y-60978742D02*
X113458325Y-60902552D01*
X113458325Y-60902552D02*
X113420230Y-60864457D01*
X113420230Y-60864457D02*
X113344040Y-60826361D01*
X113344040Y-60826361D02*
X113191659Y-60826361D01*
X113191659Y-60826361D02*
X113115468Y-60864457D01*
X112429753Y-61321600D02*
X112505944Y-61359695D01*
X112505944Y-61359695D02*
X112658325Y-61359695D01*
X112658325Y-61359695D02*
X112734515Y-61321600D01*
X112734515Y-61321600D02*
X112772611Y-61245409D01*
X112772611Y-61245409D02*
X112772611Y-60940647D01*
X112772611Y-60940647D02*
X112734515Y-60864457D01*
X112734515Y-60864457D02*
X112658325Y-60826361D01*
X112658325Y-60826361D02*
X112505944Y-60826361D01*
X112505944Y-60826361D02*
X112429753Y-60864457D01*
X112429753Y-60864457D02*
X112391658Y-60940647D01*
X112391658Y-60940647D02*
X112391658Y-61016838D01*
X112391658Y-61016838D02*
X112772611Y-61093028D01*
X112048801Y-61359695D02*
X112048801Y-60826361D01*
X112048801Y-60978742D02*
X112010706Y-60902552D01*
X112010706Y-60902552D02*
X111972611Y-60864457D01*
X111972611Y-60864457D02*
X111896420Y-60826361D01*
X111896420Y-60826361D02*
X111820230Y-60826361D01*
X110486896Y-61283504D02*
X110524992Y-61321600D01*
X110524992Y-61321600D02*
X110639277Y-61359695D01*
X110639277Y-61359695D02*
X110715468Y-61359695D01*
X110715468Y-61359695D02*
X110829754Y-61321600D01*
X110829754Y-61321600D02*
X110905944Y-61245409D01*
X110905944Y-61245409D02*
X110944039Y-61169219D01*
X110944039Y-61169219D02*
X110982135Y-61016838D01*
X110982135Y-61016838D02*
X110982135Y-60902552D01*
X110982135Y-60902552D02*
X110944039Y-60750171D01*
X110944039Y-60750171D02*
X110905944Y-60673980D01*
X110905944Y-60673980D02*
X110829754Y-60597790D01*
X110829754Y-60597790D02*
X110715468Y-60559695D01*
X110715468Y-60559695D02*
X110639277Y-60559695D01*
X110639277Y-60559695D02*
X110524992Y-60597790D01*
X110524992Y-60597790D02*
X110486896Y-60635885D01*
X109686896Y-61283504D02*
X109724992Y-61321600D01*
X109724992Y-61321600D02*
X109839277Y-61359695D01*
X109839277Y-61359695D02*
X109915468Y-61359695D01*
X109915468Y-61359695D02*
X110029754Y-61321600D01*
X110029754Y-61321600D02*
X110105944Y-61245409D01*
X110105944Y-61245409D02*
X110144039Y-61169219D01*
X110144039Y-61169219D02*
X110182135Y-61016838D01*
X110182135Y-61016838D02*
X110182135Y-60902552D01*
X110182135Y-60902552D02*
X110144039Y-60750171D01*
X110144039Y-60750171D02*
X110105944Y-60673980D01*
X110105944Y-60673980D02*
X110029754Y-60597790D01*
X110029754Y-60597790D02*
X109915468Y-60559695D01*
X109915468Y-60559695D02*
X109839277Y-60559695D01*
X109839277Y-60559695D02*
X109724992Y-60597790D01*
X109724992Y-60597790D02*
X109686896Y-60635885D01*
X108467849Y-60940647D02*
X108353563Y-60978742D01*
X108353563Y-60978742D02*
X108315468Y-61016838D01*
X108315468Y-61016838D02*
X108277372Y-61093028D01*
X108277372Y-61093028D02*
X108277372Y-61207314D01*
X108277372Y-61207314D02*
X108315468Y-61283504D01*
X108315468Y-61283504D02*
X108353563Y-61321600D01*
X108353563Y-61321600D02*
X108429753Y-61359695D01*
X108429753Y-61359695D02*
X108734515Y-61359695D01*
X108734515Y-61359695D02*
X108734515Y-60559695D01*
X108734515Y-60559695D02*
X108467849Y-60559695D01*
X108467849Y-60559695D02*
X108391658Y-60597790D01*
X108391658Y-60597790D02*
X108353563Y-60635885D01*
X108353563Y-60635885D02*
X108315468Y-60712076D01*
X108315468Y-60712076D02*
X108315468Y-60788266D01*
X108315468Y-60788266D02*
X108353563Y-60864457D01*
X108353563Y-60864457D02*
X108391658Y-60902552D01*
X108391658Y-60902552D02*
X108467849Y-60940647D01*
X108467849Y-60940647D02*
X108734515Y-60940647D01*
X107782134Y-60978742D02*
X107782134Y-61359695D01*
X108048801Y-60559695D02*
X107782134Y-60978742D01*
X107782134Y-60978742D02*
X107515468Y-60559695D01*
X107248801Y-61054933D02*
X106639278Y-61054933D01*
X106258325Y-61359695D02*
X106258325Y-60559695D01*
X106258325Y-60559695D02*
X105801182Y-61359695D01*
X105801182Y-61359695D02*
X105801182Y-60559695D01*
X104963087Y-61283504D02*
X105001183Y-61321600D01*
X105001183Y-61321600D02*
X105115468Y-61359695D01*
X105115468Y-61359695D02*
X105191659Y-61359695D01*
X105191659Y-61359695D02*
X105305945Y-61321600D01*
X105305945Y-61321600D02*
X105382135Y-61245409D01*
X105382135Y-61245409D02*
X105420230Y-61169219D01*
X105420230Y-61169219D02*
X105458326Y-61016838D01*
X105458326Y-61016838D02*
X105458326Y-60902552D01*
X105458326Y-60902552D02*
X105420230Y-60750171D01*
X105420230Y-60750171D02*
X105382135Y-60673980D01*
X105382135Y-60673980D02*
X105305945Y-60597790D01*
X105305945Y-60597790D02*
X105191659Y-60559695D01*
X105191659Y-60559695D02*
X105115468Y-60559695D01*
X105115468Y-60559695D02*
X105001183Y-60597790D01*
X105001183Y-60597790D02*
X104963087Y-60635885D01*
X104620230Y-61054933D02*
X104010707Y-61054933D01*
X103667850Y-61321600D02*
X103553564Y-61359695D01*
X103553564Y-61359695D02*
X103363088Y-61359695D01*
X103363088Y-61359695D02*
X103286897Y-61321600D01*
X103286897Y-61321600D02*
X103248802Y-61283504D01*
X103248802Y-61283504D02*
X103210707Y-61207314D01*
X103210707Y-61207314D02*
X103210707Y-61131123D01*
X103210707Y-61131123D02*
X103248802Y-61054933D01*
X103248802Y-61054933D02*
X103286897Y-61016838D01*
X103286897Y-61016838D02*
X103363088Y-60978742D01*
X103363088Y-60978742D02*
X103515469Y-60940647D01*
X103515469Y-60940647D02*
X103591659Y-60902552D01*
X103591659Y-60902552D02*
X103629754Y-60864457D01*
X103629754Y-60864457D02*
X103667850Y-60788266D01*
X103667850Y-60788266D02*
X103667850Y-60712076D01*
X103667850Y-60712076D02*
X103629754Y-60635885D01*
X103629754Y-60635885D02*
X103591659Y-60597790D01*
X103591659Y-60597790D02*
X103515469Y-60559695D01*
X103515469Y-60559695D02*
X103324992Y-60559695D01*
X103324992Y-60559695D02*
X103210707Y-60597790D01*
X102905945Y-61131123D02*
X102524992Y-61131123D01*
X102982135Y-61359695D02*
X102715468Y-60559695D01*
X102715468Y-60559695D02*
X102448802Y-61359695D01*
X101229754Y-60826361D02*
X101229754Y-61359695D01*
X101420230Y-60521600D02*
X101610707Y-61093028D01*
X101610707Y-61093028D02*
X101115468Y-61093028D01*
X100810706Y-61283504D02*
X100772611Y-61321600D01*
X100772611Y-61321600D02*
X100810706Y-61359695D01*
X100810706Y-61359695D02*
X100848802Y-61321600D01*
X100848802Y-61321600D02*
X100810706Y-61283504D01*
X100810706Y-61283504D02*
X100810706Y-61359695D01*
X100277373Y-60559695D02*
X100201183Y-60559695D01*
X100201183Y-60559695D02*
X100124992Y-60597790D01*
X100124992Y-60597790D02*
X100086897Y-60635885D01*
X100086897Y-60635885D02*
X100048802Y-60712076D01*
X100048802Y-60712076D02*
X100010707Y-60864457D01*
X100010707Y-60864457D02*
X100010707Y-61054933D01*
X100010707Y-61054933D02*
X100048802Y-61207314D01*
X100048802Y-61207314D02*
X100086897Y-61283504D01*
X100086897Y-61283504D02*
X100124992Y-61321600D01*
X100124992Y-61321600D02*
X100201183Y-61359695D01*
X100201183Y-61359695D02*
X100277373Y-61359695D01*
X100277373Y-61359695D02*
X100353564Y-61321600D01*
X100353564Y-61321600D02*
X100391659Y-61283504D01*
X100391659Y-61283504D02*
X100429754Y-61207314D01*
X100429754Y-61207314D02*
X100467850Y-61054933D01*
X100467850Y-61054933D02*
X100467850Y-60864457D01*
X100467850Y-60864457D02*
X100429754Y-60712076D01*
X100429754Y-60712076D02*
X100391659Y-60635885D01*
X100391659Y-60635885D02*
X100353564Y-60597790D01*
X100353564Y-60597790D02*
X100277373Y-60559695D01*
X99667849Y-61283504D02*
X99629754Y-61321600D01*
X99629754Y-61321600D02*
X99667849Y-61359695D01*
X99667849Y-61359695D02*
X99705945Y-61321600D01*
X99705945Y-61321600D02*
X99667849Y-61283504D01*
X99667849Y-61283504D02*
X99667849Y-61359695D01*
D11*
X122101904Y-95480319D02*
X122101904Y-96289842D01*
X122101904Y-96289842D02*
X122054285Y-96385080D01*
X122054285Y-96385080D02*
X122006666Y-96432700D01*
X122006666Y-96432700D02*
X121911428Y-96480319D01*
X121911428Y-96480319D02*
X121720952Y-96480319D01*
X121720952Y-96480319D02*
X121625714Y-96432700D01*
X121625714Y-96432700D02*
X121578095Y-96385080D01*
X121578095Y-96385080D02*
X121530476Y-96289842D01*
X121530476Y-96289842D02*
X121530476Y-95480319D01*
X121101904Y-95575557D02*
X121054285Y-95527938D01*
X121054285Y-95527938D02*
X120959047Y-95480319D01*
X120959047Y-95480319D02*
X120720952Y-95480319D01*
X120720952Y-95480319D02*
X120625714Y-95527938D01*
X120625714Y-95527938D02*
X120578095Y-95575557D01*
X120578095Y-95575557D02*
X120530476Y-95670795D01*
X120530476Y-95670795D02*
X120530476Y-95766033D01*
X120530476Y-95766033D02*
X120578095Y-95908890D01*
X120578095Y-95908890D02*
X121149523Y-96480319D01*
X121149523Y-96480319D02*
X120530476Y-96480319D01*
X99241904Y-95480319D02*
X99241904Y-96289842D01*
X99241904Y-96289842D02*
X99194285Y-96385080D01*
X99194285Y-96385080D02*
X99146666Y-96432700D01*
X99146666Y-96432700D02*
X99051428Y-96480319D01*
X99051428Y-96480319D02*
X98860952Y-96480319D01*
X98860952Y-96480319D02*
X98765714Y-96432700D01*
X98765714Y-96432700D02*
X98718095Y-96385080D01*
X98718095Y-96385080D02*
X98670476Y-96289842D01*
X98670476Y-96289842D02*
X98670476Y-95480319D01*
X97670476Y-96480319D02*
X98241904Y-96480319D01*
X97956190Y-96480319D02*
X97956190Y-95480319D01*
X97956190Y-95480319D02*
X98051428Y-95623176D01*
X98051428Y-95623176D02*
X98146666Y-95718414D01*
X98146666Y-95718414D02*
X98241904Y-95766033D01*
D12*
%TO.C,U2*%
X123905000Y-106362500D02*
X117385000Y-106362500D01*
X123905000Y-96837500D02*
X117385000Y-96837500D01*
D10*
X125670000Y-97790000D02*
G75*
G03*
X125470000Y-97790000I-100000J0D01*
G01*
X125470000Y-97790000D02*
G75*
G03*
X125670000Y-97790000I100000J0D01*
G01*
D12*
%TO.C,U1*%
X101045000Y-106362500D02*
X94525000Y-106362500D01*
X101045000Y-96837500D02*
X94525000Y-96837500D01*
D10*
X102810000Y-97790000D02*
G75*
G03*
X102610000Y-97790000I-100000J0D01*
G01*
X102610000Y-97790000D02*
G75*
G03*
X102810000Y-97790000I100000J0D01*
G01*
%TD*%
%LPC*%
D13*
%TO.C,D6*%
X105410000Y-92715000D03*
D14*
X105410000Y-90175000D03*
%TD*%
D13*
%TO.C,D8*%
X121920000Y-92715000D03*
D14*
X121920000Y-90175000D03*
%TD*%
D13*
%TO.C,D1*%
X97155000Y-84455000D03*
D14*
X97155000Y-81915000D03*
%TD*%
D13*
%TO.C,D5*%
X97155000Y-92710000D03*
D14*
X97155000Y-90170000D03*
%TD*%
D13*
%TO.C,D4*%
X121920000Y-84460000D03*
D14*
X121920000Y-81920000D03*
%TD*%
D15*
%TO.C,C1*%
X96500000Y-73660000D03*
X94000000Y-73660000D03*
%TD*%
D13*
%TO.C,D7*%
X113665000Y-92715000D03*
D14*
X113665000Y-90175000D03*
%TD*%
D16*
%TO.C,B1*%
X96520000Y-52070000D03*
X99060000Y-52070000D03*
X101600000Y-52070000D03*
X104140000Y-52070000D03*
X106680000Y-52070000D03*
X109220000Y-52070000D03*
X111760000Y-52070000D03*
X114300000Y-52070000D03*
X116840000Y-52070000D03*
X119380000Y-52070000D03*
X121920000Y-52070000D03*
X124460000Y-52070000D03*
X124460000Y-67310000D03*
X121920000Y-67310000D03*
X119380000Y-67310000D03*
X116840000Y-67310000D03*
X114300000Y-67310000D03*
X111760000Y-67310000D03*
X109220000Y-67310000D03*
X106680000Y-67310000D03*
X104140000Y-67310000D03*
X101600000Y-67310000D03*
X99060000Y-67310000D03*
X96520000Y-67310000D03*
%TD*%
D13*
%TO.C,D2*%
X105410000Y-84455000D03*
D14*
X105410000Y-81915000D03*
%TD*%
D13*
%TO.C,D3*%
X113665000Y-84455000D03*
D14*
X113665000Y-81915000D03*
%TD*%
D17*
%TO.C,U2*%
X124460000Y-97790000D03*
D18*
X124460000Y-100330000D03*
X124460000Y-102870000D03*
X124460000Y-105410000D03*
X116830000Y-105410000D03*
X116830000Y-102870000D03*
X116830000Y-100330000D03*
X116830000Y-97790000D03*
%TD*%
D17*
%TO.C,U1*%
X101600000Y-97790000D03*
D18*
X101600000Y-100330000D03*
X101600000Y-102870000D03*
X101600000Y-105410000D03*
X93970000Y-105410000D03*
X93970000Y-102870000D03*
X93970000Y-100330000D03*
X93970000Y-97790000D03*
%TD*%
%LPD*%
M02*
