%TF.GenerationSoftware,KiCad,Pcbnew,7.0.9-7.0.9~ubuntu20.04.1*%
%TF.CreationDate,2023-12-28T23:11:07+09:00*%
%TF.ProjectId,diy_oled_3d_controller,6469795f-6f6c-4656-945f-33645f636f6e,rev?*%
%TF.SameCoordinates,Original*%
%TF.FileFunction,Legend,Bot*%
%TF.FilePolarity,Positive*%
%FSLAX46Y46*%
G04 Gerber Fmt 4.6, Leading zero omitted, Abs format (unit mm)*
G04 Created by KiCad (PCBNEW 7.0.9-7.0.9~ubuntu20.04.1) date 2023-12-28 23:11:07*
%MOMM*%
%LPD*%
G01*
G04 APERTURE LIST*
%ADD10C,0.150000*%
%ADD11C,0.127000*%
%ADD12C,0.200000*%
%ADD13R,1.800000X1.800000*%
%ADD14C,1.800000*%
%ADD15C,1.600000*%
%ADD16C,2.082800*%
%ADD17R,1.220000X1.220000*%
%ADD18C,1.220000*%
G04 APERTURE END LIST*
D10*
X122101904Y-95480319D02*
X122101904Y-96289842D01*
X122101904Y-96289842D02*
X122054285Y-96385080D01*
X122054285Y-96385080D02*
X122006666Y-96432700D01*
X122006666Y-96432700D02*
X121911428Y-96480319D01*
X121911428Y-96480319D02*
X121720952Y-96480319D01*
X121720952Y-96480319D02*
X121625714Y-96432700D01*
X121625714Y-96432700D02*
X121578095Y-96385080D01*
X121578095Y-96385080D02*
X121530476Y-96289842D01*
X121530476Y-96289842D02*
X121530476Y-95480319D01*
X121101904Y-95575557D02*
X121054285Y-95527938D01*
X121054285Y-95527938D02*
X120959047Y-95480319D01*
X120959047Y-95480319D02*
X120720952Y-95480319D01*
X120720952Y-95480319D02*
X120625714Y-95527938D01*
X120625714Y-95527938D02*
X120578095Y-95575557D01*
X120578095Y-95575557D02*
X120530476Y-95670795D01*
X120530476Y-95670795D02*
X120530476Y-95766033D01*
X120530476Y-95766033D02*
X120578095Y-95908890D01*
X120578095Y-95908890D02*
X121149523Y-96480319D01*
X121149523Y-96480319D02*
X120530476Y-96480319D01*
X99241904Y-95480319D02*
X99241904Y-96289842D01*
X99241904Y-96289842D02*
X99194285Y-96385080D01*
X99194285Y-96385080D02*
X99146666Y-96432700D01*
X99146666Y-96432700D02*
X99051428Y-96480319D01*
X99051428Y-96480319D02*
X98860952Y-96480319D01*
X98860952Y-96480319D02*
X98765714Y-96432700D01*
X98765714Y-96432700D02*
X98718095Y-96385080D01*
X98718095Y-96385080D02*
X98670476Y-96289842D01*
X98670476Y-96289842D02*
X98670476Y-95480319D01*
X97670476Y-96480319D02*
X98241904Y-96480319D01*
X97956190Y-96480319D02*
X97956190Y-95480319D01*
X97956190Y-95480319D02*
X98051428Y-95623176D01*
X98051428Y-95623176D02*
X98146666Y-95718414D01*
X98146666Y-95718414D02*
X98241904Y-95766033D01*
D11*
%TO.C,U2*%
X123905000Y-106362500D02*
X117385000Y-106362500D01*
X123905000Y-96837500D02*
X117385000Y-96837500D01*
D12*
X125670000Y-97790000D02*
G75*
G03*
X125670000Y-97790000I-100000J0D01*
G01*
D11*
%TO.C,U1*%
X101045000Y-106362500D02*
X94525000Y-106362500D01*
X101045000Y-96837500D02*
X94525000Y-96837500D01*
D12*
X102810000Y-97790000D02*
G75*
G03*
X102810000Y-97790000I-100000J0D01*
G01*
%TD*%
%LPC*%
D13*
%TO.C,D6*%
X105410000Y-92715000D03*
D14*
X105410000Y-90175000D03*
%TD*%
D13*
%TO.C,D8*%
X121920000Y-92715000D03*
D14*
X121920000Y-90175000D03*
%TD*%
D13*
%TO.C,D1*%
X97155000Y-84455000D03*
D14*
X97155000Y-81915000D03*
%TD*%
D13*
%TO.C,D5*%
X97155000Y-92710000D03*
D14*
X97155000Y-90170000D03*
%TD*%
D13*
%TO.C,D4*%
X121920000Y-84460000D03*
D14*
X121920000Y-81920000D03*
%TD*%
D15*
%TO.C,C1*%
X96500000Y-73660000D03*
X94000000Y-73660000D03*
%TD*%
D13*
%TO.C,D7*%
X113665000Y-92715000D03*
D14*
X113665000Y-90175000D03*
%TD*%
D16*
%TO.C,B1*%
X96520000Y-67310000D03*
X99060000Y-67310000D03*
X101600000Y-67310000D03*
X104140000Y-67310000D03*
X106680000Y-67310000D03*
X109220000Y-67310000D03*
X111760000Y-67310000D03*
X114300000Y-67310000D03*
X116840000Y-67310000D03*
X119380000Y-67310000D03*
X121920000Y-67310000D03*
X124460000Y-67310000D03*
X124460000Y-52070000D03*
X121920000Y-52070000D03*
X119380000Y-52070000D03*
X116840000Y-52070000D03*
X114300000Y-52070000D03*
X111760000Y-52070000D03*
X109220000Y-52070000D03*
X106680000Y-52070000D03*
X104140000Y-52070000D03*
X101600000Y-52070000D03*
X99060000Y-52070000D03*
X96520000Y-52070000D03*
%TD*%
D13*
%TO.C,D2*%
X105410000Y-84455000D03*
D14*
X105410000Y-81915000D03*
%TD*%
D13*
%TO.C,D3*%
X113665000Y-84455000D03*
D14*
X113665000Y-81915000D03*
%TD*%
D17*
%TO.C,U2*%
X124460000Y-97790000D03*
D18*
X124460000Y-100330000D03*
X124460000Y-102870000D03*
X124460000Y-105410000D03*
X116830000Y-105410000D03*
X116830000Y-102870000D03*
X116830000Y-100330000D03*
X116830000Y-97790000D03*
%TD*%
D17*
%TO.C,U1*%
X101600000Y-97790000D03*
D18*
X101600000Y-100330000D03*
X101600000Y-102870000D03*
X101600000Y-105410000D03*
X93970000Y-105410000D03*
X93970000Y-102870000D03*
X93970000Y-100330000D03*
X93970000Y-97790000D03*
%TD*%
%LPD*%
M02*
