<?xml version="1.0" encoding="UTF-8" standalone="no"?>
<svg
   width="16"
   height="16"
   fill="currentColor"
   class="bi bi-fast-forward-fill"
   viewBox="0 0 16 16"
   version="1.1"
   id="svg321"
   sodipodi:docname="fast-forward-fill.svg"
   inkscape:version="1.2.2 (732a01da63, 2022-12-09, custom)"
   xmlns:inkscape="http://www.inkscape.org/namespaces/inkscape"
   xmlns:sodipodi="http://sodipodi.sourceforge.net/DTD/sodipodi-0.dtd"
   xmlns="http://www.w3.org/2000/svg"
   xmlns:svg="http://www.w3.org/2000/svg">
  <defs
     id="defs325" />
  <sodipodi:namedview
     id="namedview323"
     pagecolor="#ffffff"
     bordercolor="#000000"
     borderopacity="0.25"
     inkscape:showpageshadow="2"
     inkscape:pageopacity="0.0"
     inkscape:pagecheckerboard="0"
     inkscape:deskcolor="#d1d1d1"
     showgrid="false"
     showguides="true"
     inkscape:zoom="53.125"
     inkscape:cx="8"
     inkscape:cy="8.0094118"
     inkscape:window-width="2496"
     inkscape:window-height="1016"
     inkscape:window-x="64"
     inkscape:window-y="27"
     inkscape:window-maximized="1"
     inkscape:current-layer="svg321">
    <sodipodi:guide
       position="6.4752941,12.536471"
       orientation="0,-1"
       id="guide354"
       inkscape:locked="false" />
  </sodipodi:namedview>
  <path
     d="M7.596 7.304a.802.802 0 0 1 0 1.392l-6.363 3.692C.713 12.69 0 12.345 0 11.692V4.308c0-.653.713-.998 1.233-.696l6.363 3.692Z"
     id="path317" />
  <path
     d="M15.596 7.304a.802.802 0 0 1 0 1.392l-6.363 3.692C8.713 12.69 8 12.345 8 11.692V4.308c0-.653.713-.998 1.233-.696l6.363 3.692Z"
     id="path319" />
  <path
     d="m 11.461471,7.3202385 a 0.802,0.802 0 0 1 0,1.392 L 5.0984708,12.404239 c -0.52,0.302 -1.233,-0.043 -1.233,-0.696 V 4.3242385 c 0,-0.653 0.713,-0.998 1.233,-0.696 z"
     id="path319-3" />
</svg>
