<?xml version="1.0" encoding="UTF-8" standalone="no"?>
<svg
   width="16"
   height="16"
   fill="currentColor"
   class="bi bi-rewind-fill"
   viewBox="0 0 16 16"
   version="1.1"
   id="svg399"
   sodipodi:docname="rewind-fill.svg"
   inkscape:version="1.2.2 (732a01da63, 2022-12-09, custom)"
   xmlns:inkscape="http://www.inkscape.org/namespaces/inkscape"
   xmlns:sodipodi="http://sodipodi.sourceforge.net/DTD/sodipodi-0.dtd"
   xmlns="http://www.w3.org/2000/svg"
   xmlns:svg="http://www.w3.org/2000/svg">
  <defs
     id="defs403" />
  <sodipodi:namedview
     id="namedview401"
     pagecolor="#ffffff"
     bordercolor="#000000"
     borderopacity="0.25"
     inkscape:showpageshadow="2"
     inkscape:pageopacity="0.0"
     inkscape:pagecheckerboard="0"
     inkscape:deskcolor="#d1d1d1"
     showgrid="false"
     showguides="true"
     inkscape:zoom="53.125"
     inkscape:cx="8"
     inkscape:cy="8.0094118"
     inkscape:window-width="2496"
     inkscape:window-height="1016"
     inkscape:window-x="64"
     inkscape:window-y="27"
     inkscape:window-maximized="1"
     inkscape:current-layer="svg399">
    <sodipodi:guide
       position="11.369412,12.498824"
       orientation="0,-1"
       id="guide432"
       inkscape:locked="false" />
  </sodipodi:namedview>
  <path
     d="M8.404 7.304a.802.802 0 0 0 0 1.392l6.363 3.692c.52.302 1.233-.043 1.233-.696V4.308c0-.653-.713-.998-1.233-.696L8.404 7.304Z"
     id="path395" />
  <path
     d="M.404 7.304a.802.802 0 0 0 0 1.392l6.363 3.692c.52.302 1.233-.043 1.233-.696V4.308c0-.653-.713-.998-1.233-.696L.404 7.304Z"
     id="path397" />
  <path
     d="m 4.358713,7.292812 a 0.802,0.802 0 0 0 0,1.3920001 l 6.363,3.6919999 c 0.52,0.302 1.233,-0.043 1.233,-0.696 V 4.2968121 c 0,-0.653 -0.713,-0.998 -1.233,-0.696 z"
     id="path397-6" />
</svg>
