<?xml version="1.0" encoding="UTF-8" standalone="no"?>
<svg
   width="16"
   height="16"
   fill="currentColor"
   class="bi bi-sliders2"
   viewBox="0 0 16 16"
   version="1.1"
   id="svg1"
   xmlns="http://www.w3.org/2000/svg"
   xmlns:svg="http://www.w3.org/2000/svg">
  <defs
     id="defs1">
    <linearGradient
       id="swatch1">
      <stop
         style="stop-color:#ffffff;stop-opacity:0;"
         offset="0"
         id="stop1" />
    </linearGradient>
  </defs>
  <path
     fill-rule="evenodd"
     d="M 12,3.5 C 12,3.2238576 12.223858,3 12.5,3 h 2 c 0.666666,0 0.666666,1 0,1 h -2 C 12.223858,4 12,3.7761424 12,3.5 Z m -6.5,2 C 5.7761424,5.5 6,5.7238576 6,6 v 1.5 h 8.5 c 0.666666,0 0.666666,1 0,1 H 6 V 10 c 0,0.666666 -1,0.666666 -1,0 V 6 C 5,5.7238576 5.2238576,5.5 5.5,5.5 Z M 1,8 C 1,7.7238576 1.2238576,7.5 1.5,7.5 h 2 c 0.6666664,0 0.6666664,1 0,1 h -2 C 1.2238576,8.5 1,8.2761424 1,8 Z m 9.5,2 c 0.276142,0 0.5,0.223858 0.5,0.5 v 4 c 0,0.666666 -1,0.666666 -1,0 V 13 H 1.5 c -0.66666638,0 -0.66666638,-1 0,-1 H 10 V 10.5 C 10,10.223858 10.223858,10 10.5,10 Z M 12,12.5 C 12,12.223858 12.223858,12 12.5,12 h 2 c 0.666666,0 0.666666,1 0,1 h -2 C 12.223858,13 12,12.776142 12,12.5 Z"
     id="path1"
     mask="none" />
  <text
     xml:space="preserve"
     style="font-size:7.8486px;font-family:'DejaVu Sans';-inkscape-font-specification:'DejaVu Sans';display:inline;fill:#000000;fill-opacity:1;stroke:none;stroke-width:0.669;stroke-dasharray:none;stroke-opacity:1;paint-order:stroke fill markers"
     x="0.23054488"
     y="6.2888165"
     id="text1"><tspan
       id="tspan1"
       x="0.23054488"
       y="6.2888165"
       style="font-style:normal;font-variant:normal;font-weight:bold;font-stretch:semi-condensed;font-family:'DejaVu Sans';-inkscape-font-specification:'DejaVu Sans Bold Semi-Condensed';fill:#000000;fill-opacity:1;stroke:none;stroke-width:0.669;stroke-dasharray:none;stroke-opacity:1;paint-order:stroke fill markers">IR</tspan></text>
</svg>
