%TF.GenerationSoftware,KiCad,Pcbnew,7.0.10-7.0.10~ubuntu20.04.1*%
%TF.CreationDate,2024-02-13T11:26:12+09:00*%
%TF.ProjectId,diy_oled_3d_controller,6469795f-6f6c-4656-945f-33645f636f6e,rev?*%
%TF.SameCoordinates,Original*%
%TF.FileFunction,Legend,Top*%
%TF.FilePolarity,Positive*%
%FSLAX46Y46*%
G04 Gerber Fmt 4.6, Leading zero omitted, Abs format (unit mm)*
G04 Created by KiCad (PCBNEW 7.0.10-7.0.10~ubuntu20.04.1) date 2024-02-13 11:26:12*
%MOMM*%
%LPD*%
G01*
G04 APERTURE LIST*
G04 Aperture macros list*
%AMRoundRect*
0 Rectangle with rounded corners*
0 $1 Rounding radius*
0 $2 $3 $4 $5 $6 $7 $8 $9 X,Y pos of 4 corners*
0 Add a 4 corners polygon primitive as box body*
4,1,4,$2,$3,$4,$5,$6,$7,$8,$9,$2,$3,0*
0 Add four circle primitives for the rounded corners*
1,1,$1+$1,$2,$3*
1,1,$1+$1,$4,$5*
1,1,$1+$1,$6,$7*
1,1,$1+$1,$8,$9*
0 Add four rect primitives between the rounded corners*
20,1,$1+$1,$2,$3,$4,$5,0*
20,1,$1+$1,$4,$5,$6,$7,0*
20,1,$1+$1,$6,$7,$8,$9,0*
20,1,$1+$1,$8,$9,$2,$3,0*%
G04 Aperture macros list end*
%ADD10C,0.200000*%
%ADD11C,0.150000*%
%ADD12C,0.127000*%
%ADD13C,0.120000*%
%ADD14RoundRect,0.237500X-0.237500X0.250000X-0.237500X-0.250000X0.237500X-0.250000X0.237500X0.250000X0*%
%ADD15RoundRect,0.250000X-0.450000X0.325000X-0.450000X-0.325000X0.450000X-0.325000X0.450000X0.325000X0*%
%ADD16R,1.800000X1.800000*%
%ADD17C,1.800000*%
%ADD18RoundRect,0.150000X-0.587500X-0.150000X0.587500X-0.150000X0.587500X0.150000X-0.587500X0.150000X0*%
%ADD19RoundRect,0.249999X-1.425001X0.450001X-1.425001X-0.450001X1.425001X-0.450001X1.425001X0.450001X0*%
%ADD20C,1.600000*%
%ADD21C,2.082800*%
%ADD22R,1.700000X1.000000*%
%ADD23R,1.220000X1.220000*%
%ADD24C,1.220000*%
G04 APERTURE END LIST*
D10*
X97540568Y-59322495D02*
X97997711Y-59322495D01*
X97769139Y-60122495D02*
X97769139Y-59322495D01*
X98264378Y-60122495D02*
X98264378Y-59322495D01*
X98607235Y-60122495D02*
X98607235Y-59703447D01*
X98607235Y-59703447D02*
X98569140Y-59627257D01*
X98569140Y-59627257D02*
X98492949Y-59589161D01*
X98492949Y-59589161D02*
X98378663Y-59589161D01*
X98378663Y-59589161D02*
X98302473Y-59627257D01*
X98302473Y-59627257D02*
X98264378Y-59665352D01*
X98988188Y-60122495D02*
X98988188Y-59589161D01*
X98988188Y-59322495D02*
X98950092Y-59360590D01*
X98950092Y-59360590D02*
X98988188Y-59398685D01*
X98988188Y-59398685D02*
X99026283Y-59360590D01*
X99026283Y-59360590D02*
X98988188Y-59322495D01*
X98988188Y-59322495D02*
X98988188Y-59398685D01*
X99331044Y-60084400D02*
X99407235Y-60122495D01*
X99407235Y-60122495D02*
X99559616Y-60122495D01*
X99559616Y-60122495D02*
X99635806Y-60084400D01*
X99635806Y-60084400D02*
X99673902Y-60008209D01*
X99673902Y-60008209D02*
X99673902Y-59970114D01*
X99673902Y-59970114D02*
X99635806Y-59893923D01*
X99635806Y-59893923D02*
X99559616Y-59855828D01*
X99559616Y-59855828D02*
X99445330Y-59855828D01*
X99445330Y-59855828D02*
X99369140Y-59817733D01*
X99369140Y-59817733D02*
X99331044Y-59741542D01*
X99331044Y-59741542D02*
X99331044Y-59703447D01*
X99331044Y-59703447D02*
X99369140Y-59627257D01*
X99369140Y-59627257D02*
X99445330Y-59589161D01*
X99445330Y-59589161D02*
X99559616Y-59589161D01*
X99559616Y-59589161D02*
X99635806Y-59627257D01*
X100626283Y-60122495D02*
X100626283Y-59322495D01*
X100626283Y-59322495D02*
X100931045Y-59322495D01*
X100931045Y-59322495D02*
X101007235Y-59360590D01*
X101007235Y-59360590D02*
X101045330Y-59398685D01*
X101045330Y-59398685D02*
X101083426Y-59474876D01*
X101083426Y-59474876D02*
X101083426Y-59589161D01*
X101083426Y-59589161D02*
X101045330Y-59665352D01*
X101045330Y-59665352D02*
X101007235Y-59703447D01*
X101007235Y-59703447D02*
X100931045Y-59741542D01*
X100931045Y-59741542D02*
X100626283Y-59741542D01*
X101883426Y-60046304D02*
X101845330Y-60084400D01*
X101845330Y-60084400D02*
X101731045Y-60122495D01*
X101731045Y-60122495D02*
X101654854Y-60122495D01*
X101654854Y-60122495D02*
X101540568Y-60084400D01*
X101540568Y-60084400D02*
X101464378Y-60008209D01*
X101464378Y-60008209D02*
X101426283Y-59932019D01*
X101426283Y-59932019D02*
X101388187Y-59779638D01*
X101388187Y-59779638D02*
X101388187Y-59665352D01*
X101388187Y-59665352D02*
X101426283Y-59512971D01*
X101426283Y-59512971D02*
X101464378Y-59436780D01*
X101464378Y-59436780D02*
X101540568Y-59360590D01*
X101540568Y-59360590D02*
X101654854Y-59322495D01*
X101654854Y-59322495D02*
X101731045Y-59322495D01*
X101731045Y-59322495D02*
X101845330Y-59360590D01*
X101845330Y-59360590D02*
X101883426Y-59398685D01*
X102492949Y-59703447D02*
X102607235Y-59741542D01*
X102607235Y-59741542D02*
X102645330Y-59779638D01*
X102645330Y-59779638D02*
X102683426Y-59855828D01*
X102683426Y-59855828D02*
X102683426Y-59970114D01*
X102683426Y-59970114D02*
X102645330Y-60046304D01*
X102645330Y-60046304D02*
X102607235Y-60084400D01*
X102607235Y-60084400D02*
X102531045Y-60122495D01*
X102531045Y-60122495D02*
X102226283Y-60122495D01*
X102226283Y-60122495D02*
X102226283Y-59322495D01*
X102226283Y-59322495D02*
X102492949Y-59322495D01*
X102492949Y-59322495D02*
X102569140Y-59360590D01*
X102569140Y-59360590D02*
X102607235Y-59398685D01*
X102607235Y-59398685D02*
X102645330Y-59474876D01*
X102645330Y-59474876D02*
X102645330Y-59551066D01*
X102645330Y-59551066D02*
X102607235Y-59627257D01*
X102607235Y-59627257D02*
X102569140Y-59665352D01*
X102569140Y-59665352D02*
X102492949Y-59703447D01*
X102492949Y-59703447D02*
X102226283Y-59703447D01*
X103978664Y-60122495D02*
X103978664Y-59703447D01*
X103978664Y-59703447D02*
X103940569Y-59627257D01*
X103940569Y-59627257D02*
X103864378Y-59589161D01*
X103864378Y-59589161D02*
X103711997Y-59589161D01*
X103711997Y-59589161D02*
X103635807Y-59627257D01*
X103978664Y-60084400D02*
X103902473Y-60122495D01*
X103902473Y-60122495D02*
X103711997Y-60122495D01*
X103711997Y-60122495D02*
X103635807Y-60084400D01*
X103635807Y-60084400D02*
X103597711Y-60008209D01*
X103597711Y-60008209D02*
X103597711Y-59932019D01*
X103597711Y-59932019D02*
X103635807Y-59855828D01*
X103635807Y-59855828D02*
X103711997Y-59817733D01*
X103711997Y-59817733D02*
X103902473Y-59817733D01*
X103902473Y-59817733D02*
X103978664Y-59779638D01*
X104359617Y-59589161D02*
X104359617Y-60122495D01*
X104359617Y-59665352D02*
X104397712Y-59627257D01*
X104397712Y-59627257D02*
X104473902Y-59589161D01*
X104473902Y-59589161D02*
X104588188Y-59589161D01*
X104588188Y-59589161D02*
X104664379Y-59627257D01*
X104664379Y-59627257D02*
X104702474Y-59703447D01*
X104702474Y-59703447D02*
X104702474Y-60122495D01*
X105426284Y-60122495D02*
X105426284Y-59322495D01*
X105426284Y-60084400D02*
X105350093Y-60122495D01*
X105350093Y-60122495D02*
X105197712Y-60122495D01*
X105197712Y-60122495D02*
X105121522Y-60084400D01*
X105121522Y-60084400D02*
X105083427Y-60046304D01*
X105083427Y-60046304D02*
X105045331Y-59970114D01*
X105045331Y-59970114D02*
X105045331Y-59741542D01*
X105045331Y-59741542D02*
X105083427Y-59665352D01*
X105083427Y-59665352D02*
X105121522Y-59627257D01*
X105121522Y-59627257D02*
X105197712Y-59589161D01*
X105197712Y-59589161D02*
X105350093Y-59589161D01*
X105350093Y-59589161D02*
X105426284Y-59627257D01*
X106416761Y-60122495D02*
X106416761Y-59589161D01*
X106416761Y-59322495D02*
X106378665Y-59360590D01*
X106378665Y-59360590D02*
X106416761Y-59398685D01*
X106416761Y-59398685D02*
X106454856Y-59360590D01*
X106454856Y-59360590D02*
X106416761Y-59322495D01*
X106416761Y-59322495D02*
X106416761Y-59398685D01*
X106683427Y-59589161D02*
X106988189Y-59589161D01*
X106797713Y-59322495D02*
X106797713Y-60008209D01*
X106797713Y-60008209D02*
X106835808Y-60084400D01*
X106835808Y-60084400D02*
X106911998Y-60122495D01*
X106911998Y-60122495D02*
X106988189Y-60122495D01*
X107216760Y-60084400D02*
X107292951Y-60122495D01*
X107292951Y-60122495D02*
X107445332Y-60122495D01*
X107445332Y-60122495D02*
X107521522Y-60084400D01*
X107521522Y-60084400D02*
X107559618Y-60008209D01*
X107559618Y-60008209D02*
X107559618Y-59970114D01*
X107559618Y-59970114D02*
X107521522Y-59893923D01*
X107521522Y-59893923D02*
X107445332Y-59855828D01*
X107445332Y-59855828D02*
X107331046Y-59855828D01*
X107331046Y-59855828D02*
X107254856Y-59817733D01*
X107254856Y-59817733D02*
X107216760Y-59741542D01*
X107216760Y-59741542D02*
X107216760Y-59703447D01*
X107216760Y-59703447D02*
X107254856Y-59627257D01*
X107254856Y-59627257D02*
X107331046Y-59589161D01*
X107331046Y-59589161D02*
X107445332Y-59589161D01*
X107445332Y-59589161D02*
X107521522Y-59627257D01*
X108854856Y-60122495D02*
X108854856Y-59322495D01*
X108854856Y-60084400D02*
X108778665Y-60122495D01*
X108778665Y-60122495D02*
X108626284Y-60122495D01*
X108626284Y-60122495D02*
X108550094Y-60084400D01*
X108550094Y-60084400D02*
X108511999Y-60046304D01*
X108511999Y-60046304D02*
X108473903Y-59970114D01*
X108473903Y-59970114D02*
X108473903Y-59741542D01*
X108473903Y-59741542D02*
X108511999Y-59665352D01*
X108511999Y-59665352D02*
X108550094Y-59627257D01*
X108550094Y-59627257D02*
X108626284Y-59589161D01*
X108626284Y-59589161D02*
X108778665Y-59589161D01*
X108778665Y-59589161D02*
X108854856Y-59627257D01*
X109540571Y-60084400D02*
X109464380Y-60122495D01*
X109464380Y-60122495D02*
X109311999Y-60122495D01*
X109311999Y-60122495D02*
X109235809Y-60084400D01*
X109235809Y-60084400D02*
X109197713Y-60008209D01*
X109197713Y-60008209D02*
X109197713Y-59703447D01*
X109197713Y-59703447D02*
X109235809Y-59627257D01*
X109235809Y-59627257D02*
X109311999Y-59589161D01*
X109311999Y-59589161D02*
X109464380Y-59589161D01*
X109464380Y-59589161D02*
X109540571Y-59627257D01*
X109540571Y-59627257D02*
X109578666Y-59703447D01*
X109578666Y-59703447D02*
X109578666Y-59779638D01*
X109578666Y-59779638D02*
X109197713Y-59855828D01*
X109883427Y-60084400D02*
X109959618Y-60122495D01*
X109959618Y-60122495D02*
X110111999Y-60122495D01*
X110111999Y-60122495D02*
X110188189Y-60084400D01*
X110188189Y-60084400D02*
X110226285Y-60008209D01*
X110226285Y-60008209D02*
X110226285Y-59970114D01*
X110226285Y-59970114D02*
X110188189Y-59893923D01*
X110188189Y-59893923D02*
X110111999Y-59855828D01*
X110111999Y-59855828D02*
X109997713Y-59855828D01*
X109997713Y-59855828D02*
X109921523Y-59817733D01*
X109921523Y-59817733D02*
X109883427Y-59741542D01*
X109883427Y-59741542D02*
X109883427Y-59703447D01*
X109883427Y-59703447D02*
X109921523Y-59627257D01*
X109921523Y-59627257D02*
X109997713Y-59589161D01*
X109997713Y-59589161D02*
X110111999Y-59589161D01*
X110111999Y-59589161D02*
X110188189Y-59627257D01*
X110569142Y-60122495D02*
X110569142Y-59589161D01*
X110569142Y-59322495D02*
X110531046Y-59360590D01*
X110531046Y-59360590D02*
X110569142Y-59398685D01*
X110569142Y-59398685D02*
X110607237Y-59360590D01*
X110607237Y-59360590D02*
X110569142Y-59322495D01*
X110569142Y-59322495D02*
X110569142Y-59398685D01*
X111292951Y-59589161D02*
X111292951Y-60236780D01*
X111292951Y-60236780D02*
X111254856Y-60312971D01*
X111254856Y-60312971D02*
X111216760Y-60351066D01*
X111216760Y-60351066D02*
X111140570Y-60389161D01*
X111140570Y-60389161D02*
X111026284Y-60389161D01*
X111026284Y-60389161D02*
X110950094Y-60351066D01*
X111292951Y-60084400D02*
X111216760Y-60122495D01*
X111216760Y-60122495D02*
X111064379Y-60122495D01*
X111064379Y-60122495D02*
X110988189Y-60084400D01*
X110988189Y-60084400D02*
X110950094Y-60046304D01*
X110950094Y-60046304D02*
X110911998Y-59970114D01*
X110911998Y-59970114D02*
X110911998Y-59741542D01*
X110911998Y-59741542D02*
X110950094Y-59665352D01*
X110950094Y-59665352D02*
X110988189Y-59627257D01*
X110988189Y-59627257D02*
X111064379Y-59589161D01*
X111064379Y-59589161D02*
X111216760Y-59589161D01*
X111216760Y-59589161D02*
X111292951Y-59627257D01*
X111673904Y-59589161D02*
X111673904Y-60122495D01*
X111673904Y-59665352D02*
X111711999Y-59627257D01*
X111711999Y-59627257D02*
X111788189Y-59589161D01*
X111788189Y-59589161D02*
X111902475Y-59589161D01*
X111902475Y-59589161D02*
X111978666Y-59627257D01*
X111978666Y-59627257D02*
X112016761Y-59703447D01*
X112016761Y-59703447D02*
X112016761Y-60122495D01*
X113007238Y-60122495D02*
X113007238Y-59322495D01*
X113007238Y-59627257D02*
X113083428Y-59589161D01*
X113083428Y-59589161D02*
X113235809Y-59589161D01*
X113235809Y-59589161D02*
X113312000Y-59627257D01*
X113312000Y-59627257D02*
X113350095Y-59665352D01*
X113350095Y-59665352D02*
X113388190Y-59741542D01*
X113388190Y-59741542D02*
X113388190Y-59970114D01*
X113388190Y-59970114D02*
X113350095Y-60046304D01*
X113350095Y-60046304D02*
X113312000Y-60084400D01*
X113312000Y-60084400D02*
X113235809Y-60122495D01*
X113235809Y-60122495D02*
X113083428Y-60122495D01*
X113083428Y-60122495D02*
X113007238Y-60084400D01*
X113654857Y-59589161D02*
X113845333Y-60122495D01*
X114035810Y-59589161D02*
X113845333Y-60122495D01*
X113845333Y-60122495D02*
X113769143Y-60312971D01*
X113769143Y-60312971D02*
X113731048Y-60351066D01*
X113731048Y-60351066D02*
X113654857Y-60389161D01*
X115102477Y-59322495D02*
X115254858Y-59322495D01*
X115254858Y-59322495D02*
X115331048Y-59360590D01*
X115331048Y-59360590D02*
X115407239Y-59436780D01*
X115407239Y-59436780D02*
X115445334Y-59589161D01*
X115445334Y-59589161D02*
X115445334Y-59855828D01*
X115445334Y-59855828D02*
X115407239Y-60008209D01*
X115407239Y-60008209D02*
X115331048Y-60084400D01*
X115331048Y-60084400D02*
X115254858Y-60122495D01*
X115254858Y-60122495D02*
X115102477Y-60122495D01*
X115102477Y-60122495D02*
X115026286Y-60084400D01*
X115026286Y-60084400D02*
X114950096Y-60008209D01*
X114950096Y-60008209D02*
X114912000Y-59855828D01*
X114912000Y-59855828D02*
X114912000Y-59589161D01*
X114912000Y-59589161D02*
X114950096Y-59436780D01*
X114950096Y-59436780D02*
X115026286Y-59360590D01*
X115026286Y-59360590D02*
X115102477Y-59322495D01*
X115788191Y-59589161D02*
X115788191Y-60389161D01*
X115788191Y-59627257D02*
X115864381Y-59589161D01*
X115864381Y-59589161D02*
X116016762Y-59589161D01*
X116016762Y-59589161D02*
X116092953Y-59627257D01*
X116092953Y-59627257D02*
X116131048Y-59665352D01*
X116131048Y-59665352D02*
X116169143Y-59741542D01*
X116169143Y-59741542D02*
X116169143Y-59970114D01*
X116169143Y-59970114D02*
X116131048Y-60046304D01*
X116131048Y-60046304D02*
X116092953Y-60084400D01*
X116092953Y-60084400D02*
X116016762Y-60122495D01*
X116016762Y-60122495D02*
X115864381Y-60122495D01*
X115864381Y-60122495D02*
X115788191Y-60084400D01*
X116816763Y-60084400D02*
X116740572Y-60122495D01*
X116740572Y-60122495D02*
X116588191Y-60122495D01*
X116588191Y-60122495D02*
X116512001Y-60084400D01*
X116512001Y-60084400D02*
X116473905Y-60008209D01*
X116473905Y-60008209D02*
X116473905Y-59703447D01*
X116473905Y-59703447D02*
X116512001Y-59627257D01*
X116512001Y-59627257D02*
X116588191Y-59589161D01*
X116588191Y-59589161D02*
X116740572Y-59589161D01*
X116740572Y-59589161D02*
X116816763Y-59627257D01*
X116816763Y-59627257D02*
X116854858Y-59703447D01*
X116854858Y-59703447D02*
X116854858Y-59779638D01*
X116854858Y-59779638D02*
X116473905Y-59855828D01*
X117197715Y-59589161D02*
X117197715Y-60122495D01*
X117197715Y-59665352D02*
X117235810Y-59627257D01*
X117235810Y-59627257D02*
X117312000Y-59589161D01*
X117312000Y-59589161D02*
X117426286Y-59589161D01*
X117426286Y-59589161D02*
X117502477Y-59627257D01*
X117502477Y-59627257D02*
X117540572Y-59703447D01*
X117540572Y-59703447D02*
X117540572Y-60122495D01*
X117845334Y-59322495D02*
X118340572Y-59322495D01*
X118340572Y-59322495D02*
X118073906Y-59627257D01*
X118073906Y-59627257D02*
X118188191Y-59627257D01*
X118188191Y-59627257D02*
X118264382Y-59665352D01*
X118264382Y-59665352D02*
X118302477Y-59703447D01*
X118302477Y-59703447D02*
X118340572Y-59779638D01*
X118340572Y-59779638D02*
X118340572Y-59970114D01*
X118340572Y-59970114D02*
X118302477Y-60046304D01*
X118302477Y-60046304D02*
X118264382Y-60084400D01*
X118264382Y-60084400D02*
X118188191Y-60122495D01*
X118188191Y-60122495D02*
X117959620Y-60122495D01*
X117959620Y-60122495D02*
X117883429Y-60084400D01*
X117883429Y-60084400D02*
X117845334Y-60046304D01*
X118683430Y-60122495D02*
X118683430Y-59322495D01*
X118683430Y-59322495D02*
X118873906Y-59322495D01*
X118873906Y-59322495D02*
X118988192Y-59360590D01*
X118988192Y-59360590D02*
X119064382Y-59436780D01*
X119064382Y-59436780D02*
X119102477Y-59512971D01*
X119102477Y-59512971D02*
X119140573Y-59665352D01*
X119140573Y-59665352D02*
X119140573Y-59779638D01*
X119140573Y-59779638D02*
X119102477Y-59932019D01*
X119102477Y-59932019D02*
X119064382Y-60008209D01*
X119064382Y-60008209D02*
X118988192Y-60084400D01*
X118988192Y-60084400D02*
X118873906Y-60122495D01*
X118873906Y-60122495D02*
X118683430Y-60122495D01*
X119635811Y-59322495D02*
X119788192Y-59322495D01*
X119788192Y-59322495D02*
X119864382Y-59360590D01*
X119864382Y-59360590D02*
X119940573Y-59436780D01*
X119940573Y-59436780D02*
X119978668Y-59589161D01*
X119978668Y-59589161D02*
X119978668Y-59855828D01*
X119978668Y-59855828D02*
X119940573Y-60008209D01*
X119940573Y-60008209D02*
X119864382Y-60084400D01*
X119864382Y-60084400D02*
X119788192Y-60122495D01*
X119788192Y-60122495D02*
X119635811Y-60122495D01*
X119635811Y-60122495D02*
X119559620Y-60084400D01*
X119559620Y-60084400D02*
X119483430Y-60008209D01*
X119483430Y-60008209D02*
X119445334Y-59855828D01*
X119445334Y-59855828D02*
X119445334Y-59589161D01*
X119445334Y-59589161D02*
X119483430Y-59436780D01*
X119483430Y-59436780D02*
X119559620Y-59360590D01*
X119559620Y-59360590D02*
X119635811Y-59322495D01*
X120702477Y-60122495D02*
X120321525Y-60122495D01*
X120321525Y-60122495D02*
X120321525Y-59322495D01*
X120969144Y-59703447D02*
X121235810Y-59703447D01*
X121350096Y-60122495D02*
X120969144Y-60122495D01*
X120969144Y-60122495D02*
X120969144Y-59322495D01*
X120969144Y-59322495D02*
X121350096Y-59322495D01*
X121692954Y-60122495D02*
X121692954Y-59322495D01*
X121692954Y-59322495D02*
X121883430Y-59322495D01*
X121883430Y-59322495D02*
X121997716Y-59360590D01*
X121997716Y-59360590D02*
X122073906Y-59436780D01*
X122073906Y-59436780D02*
X122112001Y-59512971D01*
X122112001Y-59512971D02*
X122150097Y-59665352D01*
X122150097Y-59665352D02*
X122150097Y-59779638D01*
X122150097Y-59779638D02*
X122112001Y-59932019D01*
X122112001Y-59932019D02*
X122073906Y-60008209D01*
X122073906Y-60008209D02*
X121997716Y-60084400D01*
X121997716Y-60084400D02*
X121883430Y-60122495D01*
X121883430Y-60122495D02*
X121692954Y-60122495D01*
X97654854Y-61410495D02*
X97654854Y-60877161D01*
X97654854Y-60610495D02*
X97616758Y-60648590D01*
X97616758Y-60648590D02*
X97654854Y-60686685D01*
X97654854Y-60686685D02*
X97692949Y-60648590D01*
X97692949Y-60648590D02*
X97654854Y-60610495D01*
X97654854Y-60610495D02*
X97654854Y-60686685D01*
X97997710Y-61372400D02*
X98073901Y-61410495D01*
X98073901Y-61410495D02*
X98226282Y-61410495D01*
X98226282Y-61410495D02*
X98302472Y-61372400D01*
X98302472Y-61372400D02*
X98340568Y-61296209D01*
X98340568Y-61296209D02*
X98340568Y-61258114D01*
X98340568Y-61258114D02*
X98302472Y-61181923D01*
X98302472Y-61181923D02*
X98226282Y-61143828D01*
X98226282Y-61143828D02*
X98111996Y-61143828D01*
X98111996Y-61143828D02*
X98035806Y-61105733D01*
X98035806Y-61105733D02*
X97997710Y-61029542D01*
X97997710Y-61029542D02*
X97997710Y-60991447D01*
X97997710Y-60991447D02*
X98035806Y-60915257D01*
X98035806Y-60915257D02*
X98111996Y-60877161D01*
X98111996Y-60877161D02*
X98226282Y-60877161D01*
X98226282Y-60877161D02*
X98302472Y-60915257D01*
X99407234Y-61410495D02*
X99331044Y-61372400D01*
X99331044Y-61372400D02*
X99292949Y-61296209D01*
X99292949Y-61296209D02*
X99292949Y-60610495D01*
X99711997Y-61410495D02*
X99711997Y-60877161D01*
X99711997Y-60610495D02*
X99673901Y-60648590D01*
X99673901Y-60648590D02*
X99711997Y-60686685D01*
X99711997Y-60686685D02*
X99750092Y-60648590D01*
X99750092Y-60648590D02*
X99711997Y-60610495D01*
X99711997Y-60610495D02*
X99711997Y-60686685D01*
X100435806Y-61372400D02*
X100359615Y-61410495D01*
X100359615Y-61410495D02*
X100207234Y-61410495D01*
X100207234Y-61410495D02*
X100131044Y-61372400D01*
X100131044Y-61372400D02*
X100092949Y-61334304D01*
X100092949Y-61334304D02*
X100054853Y-61258114D01*
X100054853Y-61258114D02*
X100054853Y-61029542D01*
X100054853Y-61029542D02*
X100092949Y-60953352D01*
X100092949Y-60953352D02*
X100131044Y-60915257D01*
X100131044Y-60915257D02*
X100207234Y-60877161D01*
X100207234Y-60877161D02*
X100359615Y-60877161D01*
X100359615Y-60877161D02*
X100435806Y-60915257D01*
X101083425Y-61372400D02*
X101007234Y-61410495D01*
X101007234Y-61410495D02*
X100854853Y-61410495D01*
X100854853Y-61410495D02*
X100778663Y-61372400D01*
X100778663Y-61372400D02*
X100740567Y-61296209D01*
X100740567Y-61296209D02*
X100740567Y-60991447D01*
X100740567Y-60991447D02*
X100778663Y-60915257D01*
X100778663Y-60915257D02*
X100854853Y-60877161D01*
X100854853Y-60877161D02*
X101007234Y-60877161D01*
X101007234Y-60877161D02*
X101083425Y-60915257D01*
X101083425Y-60915257D02*
X101121520Y-60991447D01*
X101121520Y-60991447D02*
X101121520Y-61067638D01*
X101121520Y-61067638D02*
X100740567Y-61143828D01*
X101464377Y-60877161D02*
X101464377Y-61410495D01*
X101464377Y-60953352D02*
X101502472Y-60915257D01*
X101502472Y-60915257D02*
X101578662Y-60877161D01*
X101578662Y-60877161D02*
X101692948Y-60877161D01*
X101692948Y-60877161D02*
X101769139Y-60915257D01*
X101769139Y-60915257D02*
X101807234Y-60991447D01*
X101807234Y-60991447D02*
X101807234Y-61410495D01*
X102150091Y-61372400D02*
X102226282Y-61410495D01*
X102226282Y-61410495D02*
X102378663Y-61410495D01*
X102378663Y-61410495D02*
X102454853Y-61372400D01*
X102454853Y-61372400D02*
X102492949Y-61296209D01*
X102492949Y-61296209D02*
X102492949Y-61258114D01*
X102492949Y-61258114D02*
X102454853Y-61181923D01*
X102454853Y-61181923D02*
X102378663Y-61143828D01*
X102378663Y-61143828D02*
X102264377Y-61143828D01*
X102264377Y-61143828D02*
X102188187Y-61105733D01*
X102188187Y-61105733D02*
X102150091Y-61029542D01*
X102150091Y-61029542D02*
X102150091Y-60991447D01*
X102150091Y-60991447D02*
X102188187Y-60915257D01*
X102188187Y-60915257D02*
X102264377Y-60877161D01*
X102264377Y-60877161D02*
X102378663Y-60877161D01*
X102378663Y-60877161D02*
X102454853Y-60915257D01*
X103140568Y-61372400D02*
X103064377Y-61410495D01*
X103064377Y-61410495D02*
X102911996Y-61410495D01*
X102911996Y-61410495D02*
X102835806Y-61372400D01*
X102835806Y-61372400D02*
X102797710Y-61296209D01*
X102797710Y-61296209D02*
X102797710Y-60991447D01*
X102797710Y-60991447D02*
X102835806Y-60915257D01*
X102835806Y-60915257D02*
X102911996Y-60877161D01*
X102911996Y-60877161D02*
X103064377Y-60877161D01*
X103064377Y-60877161D02*
X103140568Y-60915257D01*
X103140568Y-60915257D02*
X103178663Y-60991447D01*
X103178663Y-60991447D02*
X103178663Y-61067638D01*
X103178663Y-61067638D02*
X102797710Y-61143828D01*
X103864377Y-61410495D02*
X103864377Y-60610495D01*
X103864377Y-61372400D02*
X103788186Y-61410495D01*
X103788186Y-61410495D02*
X103635805Y-61410495D01*
X103635805Y-61410495D02*
X103559615Y-61372400D01*
X103559615Y-61372400D02*
X103521520Y-61334304D01*
X103521520Y-61334304D02*
X103483424Y-61258114D01*
X103483424Y-61258114D02*
X103483424Y-61029542D01*
X103483424Y-61029542D02*
X103521520Y-60953352D01*
X103521520Y-60953352D02*
X103559615Y-60915257D01*
X103559615Y-60915257D02*
X103635805Y-60877161D01*
X103635805Y-60877161D02*
X103788186Y-60877161D01*
X103788186Y-60877161D02*
X103864377Y-60915257D01*
X105197711Y-60877161D02*
X105197711Y-61410495D01*
X104854854Y-60877161D02*
X104854854Y-61296209D01*
X104854854Y-61296209D02*
X104892949Y-61372400D01*
X104892949Y-61372400D02*
X104969139Y-61410495D01*
X104969139Y-61410495D02*
X105083425Y-61410495D01*
X105083425Y-61410495D02*
X105159616Y-61372400D01*
X105159616Y-61372400D02*
X105197711Y-61334304D01*
X105578664Y-60877161D02*
X105578664Y-61410495D01*
X105578664Y-60953352D02*
X105616759Y-60915257D01*
X105616759Y-60915257D02*
X105692949Y-60877161D01*
X105692949Y-60877161D02*
X105807235Y-60877161D01*
X105807235Y-60877161D02*
X105883426Y-60915257D01*
X105883426Y-60915257D02*
X105921521Y-60991447D01*
X105921521Y-60991447D02*
X105921521Y-61410495D01*
X106645331Y-61410495D02*
X106645331Y-60610495D01*
X106645331Y-61372400D02*
X106569140Y-61410495D01*
X106569140Y-61410495D02*
X106416759Y-61410495D01*
X106416759Y-61410495D02*
X106340569Y-61372400D01*
X106340569Y-61372400D02*
X106302474Y-61334304D01*
X106302474Y-61334304D02*
X106264378Y-61258114D01*
X106264378Y-61258114D02*
X106264378Y-61029542D01*
X106264378Y-61029542D02*
X106302474Y-60953352D01*
X106302474Y-60953352D02*
X106340569Y-60915257D01*
X106340569Y-60915257D02*
X106416759Y-60877161D01*
X106416759Y-60877161D02*
X106569140Y-60877161D01*
X106569140Y-60877161D02*
X106645331Y-60915257D01*
X107331046Y-61372400D02*
X107254855Y-61410495D01*
X107254855Y-61410495D02*
X107102474Y-61410495D01*
X107102474Y-61410495D02*
X107026284Y-61372400D01*
X107026284Y-61372400D02*
X106988188Y-61296209D01*
X106988188Y-61296209D02*
X106988188Y-60991447D01*
X106988188Y-60991447D02*
X107026284Y-60915257D01*
X107026284Y-60915257D02*
X107102474Y-60877161D01*
X107102474Y-60877161D02*
X107254855Y-60877161D01*
X107254855Y-60877161D02*
X107331046Y-60915257D01*
X107331046Y-60915257D02*
X107369141Y-60991447D01*
X107369141Y-60991447D02*
X107369141Y-61067638D01*
X107369141Y-61067638D02*
X106988188Y-61143828D01*
X107711998Y-61410495D02*
X107711998Y-60877161D01*
X107711998Y-61029542D02*
X107750093Y-60953352D01*
X107750093Y-60953352D02*
X107788188Y-60915257D01*
X107788188Y-60915257D02*
X107864379Y-60877161D01*
X107864379Y-60877161D02*
X107940569Y-60877161D01*
X109273903Y-61334304D02*
X109235807Y-61372400D01*
X109235807Y-61372400D02*
X109121522Y-61410495D01*
X109121522Y-61410495D02*
X109045331Y-61410495D01*
X109045331Y-61410495D02*
X108931045Y-61372400D01*
X108931045Y-61372400D02*
X108854855Y-61296209D01*
X108854855Y-61296209D02*
X108816760Y-61220019D01*
X108816760Y-61220019D02*
X108778664Y-61067638D01*
X108778664Y-61067638D02*
X108778664Y-60953352D01*
X108778664Y-60953352D02*
X108816760Y-60800971D01*
X108816760Y-60800971D02*
X108854855Y-60724780D01*
X108854855Y-60724780D02*
X108931045Y-60648590D01*
X108931045Y-60648590D02*
X109045331Y-60610495D01*
X109045331Y-60610495D02*
X109121522Y-60610495D01*
X109121522Y-60610495D02*
X109235807Y-60648590D01*
X109235807Y-60648590D02*
X109273903Y-60686685D01*
X110073903Y-61334304D02*
X110035807Y-61372400D01*
X110035807Y-61372400D02*
X109921522Y-61410495D01*
X109921522Y-61410495D02*
X109845331Y-61410495D01*
X109845331Y-61410495D02*
X109731045Y-61372400D01*
X109731045Y-61372400D02*
X109654855Y-61296209D01*
X109654855Y-61296209D02*
X109616760Y-61220019D01*
X109616760Y-61220019D02*
X109578664Y-61067638D01*
X109578664Y-61067638D02*
X109578664Y-60953352D01*
X109578664Y-60953352D02*
X109616760Y-60800971D01*
X109616760Y-60800971D02*
X109654855Y-60724780D01*
X109654855Y-60724780D02*
X109731045Y-60648590D01*
X109731045Y-60648590D02*
X109845331Y-60610495D01*
X109845331Y-60610495D02*
X109921522Y-60610495D01*
X109921522Y-60610495D02*
X110035807Y-60648590D01*
X110035807Y-60648590D02*
X110073903Y-60686685D01*
X111292950Y-60991447D02*
X111407236Y-61029542D01*
X111407236Y-61029542D02*
X111445331Y-61067638D01*
X111445331Y-61067638D02*
X111483427Y-61143828D01*
X111483427Y-61143828D02*
X111483427Y-61258114D01*
X111483427Y-61258114D02*
X111445331Y-61334304D01*
X111445331Y-61334304D02*
X111407236Y-61372400D01*
X111407236Y-61372400D02*
X111331046Y-61410495D01*
X111331046Y-61410495D02*
X111026284Y-61410495D01*
X111026284Y-61410495D02*
X111026284Y-60610495D01*
X111026284Y-60610495D02*
X111292950Y-60610495D01*
X111292950Y-60610495D02*
X111369141Y-60648590D01*
X111369141Y-60648590D02*
X111407236Y-60686685D01*
X111407236Y-60686685D02*
X111445331Y-60762876D01*
X111445331Y-60762876D02*
X111445331Y-60839066D01*
X111445331Y-60839066D02*
X111407236Y-60915257D01*
X111407236Y-60915257D02*
X111369141Y-60953352D01*
X111369141Y-60953352D02*
X111292950Y-60991447D01*
X111292950Y-60991447D02*
X111026284Y-60991447D01*
X111978665Y-61029542D02*
X111978665Y-61410495D01*
X111711998Y-60610495D02*
X111978665Y-61029542D01*
X111978665Y-61029542D02*
X112245331Y-60610495D01*
X112511998Y-61105733D02*
X113121522Y-61105733D01*
X113502474Y-61410495D02*
X113502474Y-60610495D01*
X113502474Y-60610495D02*
X113959617Y-61410495D01*
X113959617Y-61410495D02*
X113959617Y-60610495D01*
X114797712Y-61334304D02*
X114759616Y-61372400D01*
X114759616Y-61372400D02*
X114645331Y-61410495D01*
X114645331Y-61410495D02*
X114569140Y-61410495D01*
X114569140Y-61410495D02*
X114454854Y-61372400D01*
X114454854Y-61372400D02*
X114378664Y-61296209D01*
X114378664Y-61296209D02*
X114340569Y-61220019D01*
X114340569Y-61220019D02*
X114302473Y-61067638D01*
X114302473Y-61067638D02*
X114302473Y-60953352D01*
X114302473Y-60953352D02*
X114340569Y-60800971D01*
X114340569Y-60800971D02*
X114378664Y-60724780D01*
X114378664Y-60724780D02*
X114454854Y-60648590D01*
X114454854Y-60648590D02*
X114569140Y-60610495D01*
X114569140Y-60610495D02*
X114645331Y-60610495D01*
X114645331Y-60610495D02*
X114759616Y-60648590D01*
X114759616Y-60648590D02*
X114797712Y-60686685D01*
X115140569Y-61105733D02*
X115750093Y-61105733D01*
X116092949Y-61372400D02*
X116207235Y-61410495D01*
X116207235Y-61410495D02*
X116397711Y-61410495D01*
X116397711Y-61410495D02*
X116473902Y-61372400D01*
X116473902Y-61372400D02*
X116511997Y-61334304D01*
X116511997Y-61334304D02*
X116550092Y-61258114D01*
X116550092Y-61258114D02*
X116550092Y-61181923D01*
X116550092Y-61181923D02*
X116511997Y-61105733D01*
X116511997Y-61105733D02*
X116473902Y-61067638D01*
X116473902Y-61067638D02*
X116397711Y-61029542D01*
X116397711Y-61029542D02*
X116245330Y-60991447D01*
X116245330Y-60991447D02*
X116169140Y-60953352D01*
X116169140Y-60953352D02*
X116131045Y-60915257D01*
X116131045Y-60915257D02*
X116092949Y-60839066D01*
X116092949Y-60839066D02*
X116092949Y-60762876D01*
X116092949Y-60762876D02*
X116131045Y-60686685D01*
X116131045Y-60686685D02*
X116169140Y-60648590D01*
X116169140Y-60648590D02*
X116245330Y-60610495D01*
X116245330Y-60610495D02*
X116435807Y-60610495D01*
X116435807Y-60610495D02*
X116550092Y-60648590D01*
X116854854Y-61181923D02*
X117235807Y-61181923D01*
X116778664Y-61410495D02*
X117045331Y-60610495D01*
X117045331Y-60610495D02*
X117311997Y-61410495D01*
X118531045Y-60877161D02*
X118531045Y-61410495D01*
X118340569Y-60572400D02*
X118150092Y-61143828D01*
X118150092Y-61143828D02*
X118645331Y-61143828D01*
X118950093Y-61334304D02*
X118988188Y-61372400D01*
X118988188Y-61372400D02*
X118950093Y-61410495D01*
X118950093Y-61410495D02*
X118911997Y-61372400D01*
X118911997Y-61372400D02*
X118950093Y-61334304D01*
X118950093Y-61334304D02*
X118950093Y-61410495D01*
X119483426Y-60610495D02*
X119559616Y-60610495D01*
X119559616Y-60610495D02*
X119635807Y-60648590D01*
X119635807Y-60648590D02*
X119673902Y-60686685D01*
X119673902Y-60686685D02*
X119711997Y-60762876D01*
X119711997Y-60762876D02*
X119750092Y-60915257D01*
X119750092Y-60915257D02*
X119750092Y-61105733D01*
X119750092Y-61105733D02*
X119711997Y-61258114D01*
X119711997Y-61258114D02*
X119673902Y-61334304D01*
X119673902Y-61334304D02*
X119635807Y-61372400D01*
X119635807Y-61372400D02*
X119559616Y-61410495D01*
X119559616Y-61410495D02*
X119483426Y-61410495D01*
X119483426Y-61410495D02*
X119407235Y-61372400D01*
X119407235Y-61372400D02*
X119369140Y-61334304D01*
X119369140Y-61334304D02*
X119331045Y-61258114D01*
X119331045Y-61258114D02*
X119292949Y-61105733D01*
X119292949Y-61105733D02*
X119292949Y-60915257D01*
X119292949Y-60915257D02*
X119331045Y-60762876D01*
X119331045Y-60762876D02*
X119369140Y-60686685D01*
X119369140Y-60686685D02*
X119407235Y-60648590D01*
X119407235Y-60648590D02*
X119483426Y-60610495D01*
X120092950Y-61334304D02*
X120131045Y-61372400D01*
X120131045Y-61372400D02*
X120092950Y-61410495D01*
X120092950Y-61410495D02*
X120054854Y-61372400D01*
X120054854Y-61372400D02*
X120092950Y-61334304D01*
X120092950Y-61334304D02*
X120092950Y-61410495D01*
D11*
X95002209Y-60277333D02*
X95002209Y-60610666D01*
X95526019Y-60610666D02*
X94526019Y-60610666D01*
X94526019Y-60610666D02*
X94526019Y-60134476D01*
X95526019Y-59229714D02*
X95526019Y-59801142D01*
X95526019Y-59515428D02*
X94526019Y-59515428D01*
X94526019Y-59515428D02*
X94668876Y-59610666D01*
X94668876Y-59610666D02*
X94764114Y-59705904D01*
X94764114Y-59705904D02*
X94811733Y-59801142D01*
X95083333Y-78419580D02*
X95035714Y-78467200D01*
X95035714Y-78467200D02*
X94892857Y-78514819D01*
X94892857Y-78514819D02*
X94797619Y-78514819D01*
X94797619Y-78514819D02*
X94654762Y-78467200D01*
X94654762Y-78467200D02*
X94559524Y-78371961D01*
X94559524Y-78371961D02*
X94511905Y-78276723D01*
X94511905Y-78276723D02*
X94464286Y-78086247D01*
X94464286Y-78086247D02*
X94464286Y-77943390D01*
X94464286Y-77943390D02*
X94511905Y-77752914D01*
X94511905Y-77752914D02*
X94559524Y-77657676D01*
X94559524Y-77657676D02*
X94654762Y-77562438D01*
X94654762Y-77562438D02*
X94797619Y-77514819D01*
X94797619Y-77514819D02*
X94892857Y-77514819D01*
X94892857Y-77514819D02*
X95035714Y-77562438D01*
X95035714Y-77562438D02*
X95083333Y-77610057D01*
X96035714Y-78514819D02*
X95464286Y-78514819D01*
X95750000Y-78514819D02*
X95750000Y-77514819D01*
X95750000Y-77514819D02*
X95654762Y-77657676D01*
X95654762Y-77657676D02*
X95559524Y-77752914D01*
X95559524Y-77752914D02*
X95464286Y-77800533D01*
D12*
X93936094Y-59936742D02*
X93965122Y-59849656D01*
X93965122Y-59849656D02*
X93994151Y-59820627D01*
X93994151Y-59820627D02*
X94052208Y-59791599D01*
X94052208Y-59791599D02*
X94139294Y-59791599D01*
X94139294Y-59791599D02*
X94197351Y-59820627D01*
X94197351Y-59820627D02*
X94226380Y-59849656D01*
X94226380Y-59849656D02*
X94255408Y-59907713D01*
X94255408Y-59907713D02*
X94255408Y-60139942D01*
X94255408Y-60139942D02*
X93645808Y-60139942D01*
X93645808Y-60139942D02*
X93645808Y-59936742D01*
X93645808Y-59936742D02*
X93674837Y-59878685D01*
X93674837Y-59878685D02*
X93703865Y-59849656D01*
X93703865Y-59849656D02*
X93761922Y-59820627D01*
X93761922Y-59820627D02*
X93819980Y-59820627D01*
X93819980Y-59820627D02*
X93878037Y-59849656D01*
X93878037Y-59849656D02*
X93907065Y-59878685D01*
X93907065Y-59878685D02*
X93936094Y-59936742D01*
X93936094Y-59936742D02*
X93936094Y-60139942D01*
X94255408Y-59211027D02*
X94255408Y-59559370D01*
X94255408Y-59385199D02*
X93645808Y-59385199D01*
X93645808Y-59385199D02*
X93732894Y-59443256D01*
X93732894Y-59443256D02*
X93790951Y-59501313D01*
X93790951Y-59501313D02*
X93819980Y-59559370D01*
X124706380Y-64755485D02*
X124735408Y-64668400D01*
X124735408Y-64668400D02*
X124735408Y-64523257D01*
X124735408Y-64523257D02*
X124706380Y-64465200D01*
X124706380Y-64465200D02*
X124677351Y-64436171D01*
X124677351Y-64436171D02*
X124619294Y-64407142D01*
X124619294Y-64407142D02*
X124561237Y-64407142D01*
X124561237Y-64407142D02*
X124503180Y-64436171D01*
X124503180Y-64436171D02*
X124474151Y-64465200D01*
X124474151Y-64465200D02*
X124445122Y-64523257D01*
X124445122Y-64523257D02*
X124416094Y-64639371D01*
X124416094Y-64639371D02*
X124387065Y-64697428D01*
X124387065Y-64697428D02*
X124358037Y-64726457D01*
X124358037Y-64726457D02*
X124299980Y-64755485D01*
X124299980Y-64755485D02*
X124241922Y-64755485D01*
X124241922Y-64755485D02*
X124183865Y-64726457D01*
X124183865Y-64726457D02*
X124154837Y-64697428D01*
X124154837Y-64697428D02*
X124125808Y-64639371D01*
X124125808Y-64639371D02*
X124125808Y-64494228D01*
X124125808Y-64494228D02*
X124154837Y-64407142D01*
X124735408Y-64145886D02*
X124125808Y-64145886D01*
X124125808Y-64145886D02*
X124125808Y-63913657D01*
X124125808Y-63913657D02*
X124154837Y-63855600D01*
X124154837Y-63855600D02*
X124183865Y-63826571D01*
X124183865Y-63826571D02*
X124241922Y-63797543D01*
X124241922Y-63797543D02*
X124329008Y-63797543D01*
X124329008Y-63797543D02*
X124387065Y-63826571D01*
X124387065Y-63826571D02*
X124416094Y-63855600D01*
X124416094Y-63855600D02*
X124445122Y-63913657D01*
X124445122Y-63913657D02*
X124445122Y-64145886D01*
X124561237Y-63565314D02*
X124561237Y-63275029D01*
X124735408Y-63623371D02*
X124125808Y-63420171D01*
X124125808Y-63420171D02*
X124735408Y-63216971D01*
X124735408Y-62665429D02*
X124445122Y-62868629D01*
X124735408Y-63013772D02*
X124125808Y-63013772D01*
X124125808Y-63013772D02*
X124125808Y-62781543D01*
X124125808Y-62781543D02*
X124154837Y-62723486D01*
X124154837Y-62723486D02*
X124183865Y-62694457D01*
X124183865Y-62694457D02*
X124241922Y-62665429D01*
X124241922Y-62665429D02*
X124329008Y-62665429D01*
X124329008Y-62665429D02*
X124387065Y-62694457D01*
X124387065Y-62694457D02*
X124416094Y-62723486D01*
X124416094Y-62723486D02*
X124445122Y-62781543D01*
X124445122Y-62781543D02*
X124445122Y-63013772D01*
X124735408Y-62404172D02*
X124125808Y-62404172D01*
X124735408Y-62055829D02*
X124387065Y-62317086D01*
X124125808Y-62055829D02*
X124474151Y-62404172D01*
X124416094Y-61591372D02*
X124416094Y-61794572D01*
X124735408Y-61794572D02*
X124125808Y-61794572D01*
X124125808Y-61794572D02*
X124125808Y-61504286D01*
X124125808Y-61272058D02*
X124619294Y-61272058D01*
X124619294Y-61272058D02*
X124677351Y-61243029D01*
X124677351Y-61243029D02*
X124706380Y-61214001D01*
X124706380Y-61214001D02*
X124735408Y-61155943D01*
X124735408Y-61155943D02*
X124735408Y-61039829D01*
X124735408Y-61039829D02*
X124706380Y-60981772D01*
X124706380Y-60981772D02*
X124677351Y-60952743D01*
X124677351Y-60952743D02*
X124619294Y-60923715D01*
X124619294Y-60923715D02*
X124125808Y-60923715D01*
X124735408Y-60633429D02*
X124125808Y-60633429D01*
X124125808Y-60633429D02*
X124735408Y-60285086D01*
X124735408Y-60285086D02*
X124125808Y-60285086D01*
X124793465Y-60139943D02*
X124793465Y-59675485D01*
X124735408Y-59530343D02*
X124125808Y-59530343D01*
X124125808Y-59530343D02*
X124125808Y-59298114D01*
X124125808Y-59298114D02*
X124154837Y-59240057D01*
X124154837Y-59240057D02*
X124183865Y-59211028D01*
X124183865Y-59211028D02*
X124241922Y-59182000D01*
X124241922Y-59182000D02*
X124329008Y-59182000D01*
X124329008Y-59182000D02*
X124387065Y-59211028D01*
X124387065Y-59211028D02*
X124416094Y-59240057D01*
X124416094Y-59240057D02*
X124445122Y-59298114D01*
X124445122Y-59298114D02*
X124445122Y-59530343D01*
X124735408Y-58572400D02*
X124445122Y-58775600D01*
X124735408Y-58920743D02*
X124125808Y-58920743D01*
X124125808Y-58920743D02*
X124125808Y-58688514D01*
X124125808Y-58688514D02*
X124154837Y-58630457D01*
X124154837Y-58630457D02*
X124183865Y-58601428D01*
X124183865Y-58601428D02*
X124241922Y-58572400D01*
X124241922Y-58572400D02*
X124329008Y-58572400D01*
X124329008Y-58572400D02*
X124387065Y-58601428D01*
X124387065Y-58601428D02*
X124416094Y-58630457D01*
X124416094Y-58630457D02*
X124445122Y-58688514D01*
X124445122Y-58688514D02*
X124445122Y-58920743D01*
X124125808Y-58195028D02*
X124125808Y-58078914D01*
X124125808Y-58078914D02*
X124154837Y-58020857D01*
X124154837Y-58020857D02*
X124212894Y-57962800D01*
X124212894Y-57962800D02*
X124329008Y-57933771D01*
X124329008Y-57933771D02*
X124532208Y-57933771D01*
X124532208Y-57933771D02*
X124648322Y-57962800D01*
X124648322Y-57962800D02*
X124706380Y-58020857D01*
X124706380Y-58020857D02*
X124735408Y-58078914D01*
X124735408Y-58078914D02*
X124735408Y-58195028D01*
X124735408Y-58195028D02*
X124706380Y-58253086D01*
X124706380Y-58253086D02*
X124648322Y-58311143D01*
X124648322Y-58311143D02*
X124532208Y-58340171D01*
X124532208Y-58340171D02*
X124329008Y-58340171D01*
X124329008Y-58340171D02*
X124212894Y-58311143D01*
X124212894Y-58311143D02*
X124154837Y-58253086D01*
X124154837Y-58253086D02*
X124125808Y-58195028D01*
X124793465Y-57817657D02*
X124793465Y-57353199D01*
X124735408Y-57208057D02*
X124125808Y-57208057D01*
X124125808Y-57208057D02*
X124561237Y-57004857D01*
X124561237Y-57004857D02*
X124125808Y-56801657D01*
X124125808Y-56801657D02*
X124735408Y-56801657D01*
X124735408Y-56511371D02*
X124125808Y-56511371D01*
X124677351Y-55872742D02*
X124706380Y-55901770D01*
X124706380Y-55901770D02*
X124735408Y-55988856D01*
X124735408Y-55988856D02*
X124735408Y-56046913D01*
X124735408Y-56046913D02*
X124706380Y-56133999D01*
X124706380Y-56133999D02*
X124648322Y-56192056D01*
X124648322Y-56192056D02*
X124590265Y-56221085D01*
X124590265Y-56221085D02*
X124474151Y-56250113D01*
X124474151Y-56250113D02*
X124387065Y-56250113D01*
X124387065Y-56250113D02*
X124270951Y-56221085D01*
X124270951Y-56221085D02*
X124212894Y-56192056D01*
X124212894Y-56192056D02*
X124154837Y-56133999D01*
X124154837Y-56133999D02*
X124125808Y-56046913D01*
X124125808Y-56046913D02*
X124125808Y-55988856D01*
X124125808Y-55988856D02*
X124154837Y-55901770D01*
X124154837Y-55901770D02*
X124183865Y-55872742D01*
X124735408Y-55263142D02*
X124445122Y-55466342D01*
X124735408Y-55611485D02*
X124125808Y-55611485D01*
X124125808Y-55611485D02*
X124125808Y-55379256D01*
X124125808Y-55379256D02*
X124154837Y-55321199D01*
X124154837Y-55321199D02*
X124183865Y-55292170D01*
X124183865Y-55292170D02*
X124241922Y-55263142D01*
X124241922Y-55263142D02*
X124329008Y-55263142D01*
X124329008Y-55263142D02*
X124387065Y-55292170D01*
X124387065Y-55292170D02*
X124416094Y-55321199D01*
X124416094Y-55321199D02*
X124445122Y-55379256D01*
X124445122Y-55379256D02*
X124445122Y-55611485D01*
X124125808Y-54885770D02*
X124125808Y-54769656D01*
X124125808Y-54769656D02*
X124154837Y-54711599D01*
X124154837Y-54711599D02*
X124212894Y-54653542D01*
X124212894Y-54653542D02*
X124329008Y-54624513D01*
X124329008Y-54624513D02*
X124532208Y-54624513D01*
X124532208Y-54624513D02*
X124648322Y-54653542D01*
X124648322Y-54653542D02*
X124706380Y-54711599D01*
X124706380Y-54711599D02*
X124735408Y-54769656D01*
X124735408Y-54769656D02*
X124735408Y-54885770D01*
X124735408Y-54885770D02*
X124706380Y-54943828D01*
X124706380Y-54943828D02*
X124648322Y-55001885D01*
X124648322Y-55001885D02*
X124532208Y-55030913D01*
X124532208Y-55030913D02*
X124329008Y-55030913D01*
X124329008Y-55030913D02*
X124212894Y-55001885D01*
X124212894Y-55001885D02*
X124154837Y-54943828D01*
X124154837Y-54943828D02*
X124125808Y-54885770D01*
D11*
X107667817Y-98956771D02*
X107810694Y-99004396D01*
X107810694Y-99004396D02*
X108048821Y-99004396D01*
X108048821Y-99004396D02*
X108144072Y-98956771D01*
X108144072Y-98956771D02*
X108191697Y-98909145D01*
X108191697Y-98909145D02*
X108239322Y-98813894D01*
X108239322Y-98813894D02*
X108239322Y-98718643D01*
X108239322Y-98718643D02*
X108191697Y-98623393D01*
X108191697Y-98623393D02*
X108144072Y-98575767D01*
X108144072Y-98575767D02*
X108048821Y-98528142D01*
X108048821Y-98528142D02*
X107858319Y-98480516D01*
X107858319Y-98480516D02*
X107763068Y-98432891D01*
X107763068Y-98432891D02*
X107715443Y-98385265D01*
X107715443Y-98385265D02*
X107667817Y-98290015D01*
X107667817Y-98290015D02*
X107667817Y-98194764D01*
X107667817Y-98194764D02*
X107715443Y-98099513D01*
X107715443Y-98099513D02*
X107763068Y-98051887D01*
X107763068Y-98051887D02*
X107858319Y-98004262D01*
X107858319Y-98004262D02*
X108096446Y-98004262D01*
X108096446Y-98004262D02*
X108239322Y-98051887D01*
X109191831Y-99004396D02*
X108620326Y-99004396D01*
X108906079Y-99004396D02*
X108906079Y-98004262D01*
X108906079Y-98004262D02*
X108810828Y-98147138D01*
X108810828Y-98147138D02*
X108715577Y-98242389D01*
X108715577Y-98242389D02*
X108620326Y-98290015D01*
D13*
%TO.C,R1*%
X121305000Y-70865276D02*
X121305000Y-71374724D01*
X120260000Y-70865276D02*
X120260000Y-71374724D01*
%TO.C,F1*%
X92711200Y-59682748D02*
X92711200Y-60205252D01*
X94131200Y-59682748D02*
X94131200Y-60205252D01*
%TO.C,D6*%
X103865000Y-94005000D02*
X106955000Y-94005000D01*
X105410462Y-88455001D02*
G75*
G03*
X103865170Y-94004999I-462J-2989999D01*
G01*
X106954830Y-94005000D02*
G75*
G03*
X105409538Y-88455000I-1544830J2560000D01*
G01*
X107910000Y-91445000D02*
G75*
G03*
X102910000Y-91445000I-2500000J0D01*
G01*
X102910000Y-91445000D02*
G75*
G03*
X107910000Y-91445000I2500000J0D01*
G01*
%TO.C,D8*%
X120375000Y-94005000D02*
X123465000Y-94005000D01*
X121920462Y-88455001D02*
G75*
G03*
X120375170Y-94004999I-462J-2989999D01*
G01*
X123464830Y-94005000D02*
G75*
G03*
X121919538Y-88455000I-1544830J2560000D01*
G01*
X124420000Y-91445000D02*
G75*
G03*
X119420000Y-91445000I-2500000J0D01*
G01*
X119420000Y-91445000D02*
G75*
G03*
X124420000Y-91445000I2500000J0D01*
G01*
%TO.C,D1*%
X95610000Y-85745000D02*
X98700000Y-85745000D01*
X97155462Y-80195001D02*
G75*
G03*
X95610170Y-85744999I-462J-2989999D01*
G01*
X98699830Y-85745000D02*
G75*
G03*
X97154538Y-80195000I-1544830J2560000D01*
G01*
X99655000Y-83185000D02*
G75*
G03*
X94655000Y-83185000I-2500000J0D01*
G01*
X94655000Y-83185000D02*
G75*
G03*
X99655000Y-83185000I2500000J0D01*
G01*
%TO.C,Q1*%
X123825000Y-69560000D02*
X122150000Y-69560000D01*
X123825000Y-69560000D02*
X124475000Y-69560000D01*
X123825000Y-72680000D02*
X123175000Y-72680000D01*
X123825000Y-72680000D02*
X124475000Y-72680000D01*
%TO.C,D5*%
X95610000Y-94000000D02*
X98700000Y-94000000D01*
X97155462Y-88450001D02*
G75*
G03*
X95610170Y-93999999I-462J-2989999D01*
G01*
X98699830Y-94000000D02*
G75*
G03*
X97154538Y-88450000I-1544830J2560000D01*
G01*
X99655000Y-91440000D02*
G75*
G03*
X94655000Y-91440000I-2500000J0D01*
G01*
X94655000Y-91440000D02*
G75*
G03*
X99655000Y-91440000I2500000J0D01*
G01*
%TO.C,D4*%
X120375000Y-85750000D02*
X123465000Y-85750000D01*
X121920462Y-80200001D02*
G75*
G03*
X120375170Y-85749999I-462J-2989999D01*
G01*
X123464830Y-85750000D02*
G75*
G03*
X121919538Y-80200000I-1544830J2560000D01*
G01*
X124420000Y-83190000D02*
G75*
G03*
X119420000Y-83190000I-2500000J0D01*
G01*
X119420000Y-83190000D02*
G75*
G03*
X124420000Y-83190000I2500000J0D01*
G01*
%TO.C,R11*%
X113470000Y-72117936D02*
X113470000Y-76472064D01*
X110050000Y-72117936D02*
X110050000Y-76472064D01*
%TO.C,C1*%
X98520000Y-73660000D02*
G75*
G03*
X91980000Y-73660000I-3270000J0D01*
G01*
X91980000Y-73660000D02*
G75*
G03*
X98520000Y-73660000I3270000J0D01*
G01*
%TO.C,D7*%
X112120000Y-94005000D02*
X115210000Y-94005000D01*
X113665462Y-88455001D02*
G75*
G03*
X112120170Y-94004999I-462J-2989999D01*
G01*
X115209830Y-94005000D02*
G75*
G03*
X113664538Y-88455000I-1544830J2560000D01*
G01*
X116165000Y-91445000D02*
G75*
G03*
X111165000Y-91445000I-2500000J0D01*
G01*
X111165000Y-91445000D02*
G75*
G03*
X116165000Y-91445000I2500000J0D01*
G01*
%TO.C,D2*%
X103865000Y-85745000D02*
X106955000Y-85745000D01*
X105410462Y-80195001D02*
G75*
G03*
X103865170Y-85744999I-462J-2989999D01*
G01*
X106954830Y-85745000D02*
G75*
G03*
X105409538Y-80195000I-1544830J2560000D01*
G01*
X107910000Y-83185000D02*
G75*
G03*
X102910000Y-83185000I-2500000J0D01*
G01*
X102910000Y-83185000D02*
G75*
G03*
X107910000Y-83185000I2500000J0D01*
G01*
%TO.C,R13*%
X103310000Y-72117936D02*
X103310000Y-76472064D01*
X99890000Y-72117936D02*
X99890000Y-76472064D01*
D12*
%TO.C,S1*%
X108755000Y-99635000D02*
X108755000Y-99735000D01*
X108755000Y-99635000D02*
X110955000Y-99635000D01*
X108755000Y-104735000D02*
X108755000Y-104835000D01*
X108755000Y-104835000D02*
X110955000Y-104835000D01*
X110955000Y-99735000D02*
X110955000Y-99635000D01*
X110955000Y-104735000D02*
X110955000Y-104835000D01*
X105668500Y-104985000D02*
G75*
G03*
X105541500Y-104985000I-63500J0D01*
G01*
X105541500Y-104985000D02*
G75*
G03*
X105668500Y-104985000I63500J0D01*
G01*
X110855000Y-102235000D02*
G75*
G03*
X108855000Y-102235000I-1000000J0D01*
G01*
X108855000Y-102235000D02*
G75*
G03*
X110855000Y-102235000I1000000J0D01*
G01*
D13*
%TO.C,R10*%
X118550000Y-72117936D02*
X118550000Y-76472064D01*
X115130000Y-72117936D02*
X115130000Y-76472064D01*
%TO.C,R12*%
X108390000Y-72117936D02*
X108390000Y-76472064D01*
X104970000Y-72117936D02*
X104970000Y-76472064D01*
%TO.C,D3*%
X112120000Y-85745000D02*
X115210000Y-85745000D01*
X113665462Y-80195001D02*
G75*
G03*
X112120170Y-85744999I-462J-2989999D01*
G01*
X115209830Y-85745000D02*
G75*
G03*
X113664538Y-80195000I-1544830J2560000D01*
G01*
X116165000Y-83185000D02*
G75*
G03*
X111165000Y-83185000I-2500000J0D01*
G01*
X111165000Y-83185000D02*
G75*
G03*
X116165000Y-83185000I2500000J0D01*
G01*
%TD*%
%LPC*%
D14*
%TO.C,R1*%
X120782500Y-70207500D03*
X120782500Y-72032500D03*
%TD*%
D15*
%TO.C,F1*%
X93421200Y-60969000D03*
X93421200Y-58919000D03*
%TD*%
D16*
%TO.C,D6*%
X105410000Y-92715000D03*
D17*
X105410000Y-90175000D03*
%TD*%
D16*
%TO.C,D8*%
X121920000Y-92715000D03*
D17*
X121920000Y-90175000D03*
%TD*%
D16*
%TO.C,D1*%
X97155000Y-84455000D03*
D17*
X97155000Y-81915000D03*
%TD*%
D18*
%TO.C,Q1*%
X122887500Y-70170000D03*
X122887500Y-72070000D03*
X124762500Y-71120000D03*
%TD*%
D16*
%TO.C,D5*%
X97155000Y-92710000D03*
D17*
X97155000Y-90170000D03*
%TD*%
D16*
%TO.C,D4*%
X121920000Y-84460000D03*
D17*
X121920000Y-81920000D03*
%TD*%
D19*
%TO.C,R11*%
X111760000Y-71245000D03*
X111760000Y-77345000D03*
%TD*%
D20*
%TO.C,C1*%
X96500000Y-73660000D03*
X94000000Y-73660000D03*
%TD*%
D16*
%TO.C,D7*%
X113665000Y-92715000D03*
D17*
X113665000Y-90175000D03*
%TD*%
D21*
%TO.C,B1*%
X96520000Y-52070000D03*
X99060000Y-52070000D03*
X101600000Y-52070000D03*
X104140000Y-52070000D03*
X106680000Y-52070000D03*
X109220000Y-52070000D03*
X111760000Y-52070000D03*
X114300000Y-52070000D03*
X116840000Y-52070000D03*
X119380000Y-52070000D03*
X121920000Y-52070000D03*
X124460000Y-52070000D03*
X124460000Y-67310000D03*
X121920000Y-67310000D03*
X119380000Y-67310000D03*
X116840000Y-67310000D03*
X114300000Y-67310000D03*
X111760000Y-67310000D03*
X109220000Y-67310000D03*
X106680000Y-67310000D03*
X104140000Y-67310000D03*
X101600000Y-67310000D03*
X99060000Y-67310000D03*
X96520000Y-67310000D03*
%TD*%
D16*
%TO.C,D2*%
X105410000Y-84455000D03*
D17*
X105410000Y-81915000D03*
%TD*%
D19*
%TO.C,R13*%
X101600000Y-71245000D03*
X101600000Y-77345000D03*
%TD*%
D22*
%TO.C,S1*%
X106705000Y-104135000D03*
X113005000Y-104135000D03*
X106705000Y-100335000D03*
X113005000Y-100335000D03*
%TD*%
D19*
%TO.C,R10*%
X116840000Y-71245000D03*
X116840000Y-77345000D03*
%TD*%
%TO.C,R12*%
X106680000Y-71245000D03*
X106680000Y-77345000D03*
%TD*%
D16*
%TO.C,D3*%
X113665000Y-84455000D03*
D17*
X113665000Y-81915000D03*
%TD*%
D23*
%TO.C,U2*%
X124460000Y-97790000D03*
D24*
X124460000Y-100330000D03*
X124460000Y-102870000D03*
X124460000Y-105410000D03*
X116830000Y-105410000D03*
X116830000Y-102870000D03*
X116830000Y-100330000D03*
X116830000Y-97790000D03*
%TD*%
D23*
%TO.C,U1*%
X101600000Y-97790000D03*
D24*
X101600000Y-100330000D03*
X101600000Y-102870000D03*
X101600000Y-105410000D03*
X93970000Y-105410000D03*
X93970000Y-102870000D03*
X93970000Y-100330000D03*
X93970000Y-97790000D03*
%TD*%
%LPD*%
M02*
