%TF.GenerationSoftware,KiCad,Pcbnew,8.0.1-8.0.1-1~ubuntu22.04.1*%
%TF.CreationDate,2024-04-18T21:36:37+09:00*%
%TF.ProjectId,diy_oled_3d_controller,6469795f-6f6c-4656-945f-33645f636f6e,rev?*%
%TF.SameCoordinates,Original*%
%TF.FileFunction,Copper,L2,Bot*%
%TF.FilePolarity,Positive*%
%FSLAX46Y46*%
G04 Gerber Fmt 4.6, Leading zero omitted, Abs format (unit mm)*
G04 Created by KiCad (PCBNEW 8.0.1-8.0.1-1~ubuntu22.04.1) date 2024-04-18 21:36:37*
%MOMM*%
%LPD*%
G01*
G04 APERTURE LIST*
%TA.AperFunction,ComponentPad*%
%ADD10C,1.600000*%
%TD*%
%TA.AperFunction,ComponentPad*%
%ADD11R,1.700000X1.700000*%
%TD*%
%TA.AperFunction,ComponentPad*%
%ADD12O,1.700000X1.700000*%
%TD*%
%TA.AperFunction,ComponentPad*%
%ADD13C,1.879600*%
%TD*%
%TA.AperFunction,ComponentPad*%
%ADD14R,1.220000X1.220000*%
%TD*%
%TA.AperFunction,ComponentPad*%
%ADD15C,1.220000*%
%TD*%
%TA.AperFunction,SMDPad,CuDef*%
%ADD16R,1.750000X1.800000*%
%TD*%
%TA.AperFunction,ViaPad*%
%ADD17C,0.800000*%
%TD*%
%TA.AperFunction,Conductor*%
%ADD18C,0.500000*%
%TD*%
%TA.AperFunction,Conductor*%
%ADD19C,1.000000*%
%TD*%
%TA.AperFunction,Conductor*%
%ADD20C,2.000000*%
%TD*%
G04 APERTURE END LIST*
D10*
%TO.P,C1,1*%
%TO.N,/5V_AFTER_FUSE*%
X96500000Y-78500000D03*
%TO.P,C1,2*%
%TO.N,GND1*%
X94000000Y-78500000D03*
%TD*%
D11*
%TO.P,J3,1,Pin_1*%
%TO.N,/LED_POWER_3*%
X101000000Y-112500000D03*
D12*
%TO.P,J3,2,Pin_2*%
%TO.N,GND3*%
X103540000Y-112500000D03*
%TO.P,J3,3,Pin_3*%
%TO.N,/VCC_3*%
X106080000Y-112500000D03*
%TO.P,J3,4,Pin_4*%
%TO.N,/LED_CONTROL_3*%
X108620000Y-112500000D03*
%TO.P,J3,5,Pin_5*%
%TO.N,/LEFT_SIGNAL_3*%
X111160000Y-112500000D03*
%TO.P,J3,6,Pin_6*%
%TO.N,/RIGHT_SIGNAL_3*%
X113700000Y-112500000D03*
%TD*%
D13*
%TO.P,B1,1,TXO*%
%TO.N,unconnected-(B1-TXO-Pad1)*%
X108000000Y-38420000D03*
%TO.P,B1,2,RXI*%
%TO.N,unconnected-(B1-RXI-Pad2)*%
X108000000Y-40960000D03*
%TO.P,B1,3,GND*%
%TO.N,unconnected-(B1-GND-Pad3)*%
X108000000Y-43500000D03*
%TO.P,B1,4,GND*%
%TO.N,unconnected-(B1-GND-Pad4)*%
X108000000Y-46040000D03*
%TO.P,B1,5,2*%
%TO.N,Net-(B1-2)*%
X108000000Y-48580000D03*
%TO.P,B1,6,\u002A3*%
%TO.N,/LED_CONTROL_1*%
X108000000Y-51120000D03*
%TO.P,B1,7,4*%
%TO.N,Net-(B1-4)*%
X108000000Y-53660000D03*
%TO.P,B1,8,\u002A5*%
%TO.N,Net-(B1-\u002A5)*%
X108000000Y-56200000D03*
%TO.P,B1,9,\u002A6*%
%TO.N,unconnected-(B1-\u002A6-Pad9)*%
X108000000Y-58740000D03*
%TO.P,B1,10,7*%
%TO.N,unconnected-(B1-7-Pad10)*%
X108000000Y-61280000D03*
%TO.P,B1,11,8*%
%TO.N,unconnected-(B1-8-Pad11)*%
X108000000Y-63820000D03*
%TO.P,B1,12,\u002A9*%
%TO.N,unconnected-(B1-\u002A9-Pad12)*%
X108000000Y-66360000D03*
%TO.P,B1,13,\u002A10*%
%TO.N,unconnected-(B1-\u002A10-Pad13)*%
X123240000Y-66360000D03*
%TO.P,B1,14,11(MOSI)*%
%TO.N,unconnected-(B1-11(MOSI)-Pad14)*%
X123240000Y-63820000D03*
%TO.P,B1,15,12(MISO)*%
%TO.N,unconnected-(B1-12(MISO)-Pad15)*%
X123240000Y-61280000D03*
%TO.P,B1,16,13(SCK)*%
%TO.N,unconnected-(B1-13(SCK)-Pad16)*%
X123240000Y-58740000D03*
%TO.P,B1,17,A0*%
%TO.N,/RIGHT_SIGNAL_1*%
X123240000Y-56200000D03*
%TO.P,B1,18,A1*%
%TO.N,/LEFT_SIGNAL_1*%
X123240000Y-53660000D03*
%TO.P,B1,19,A2*%
%TO.N,unconnected-(B1-A2-Pad19)*%
X123240000Y-51120000D03*
%TO.P,B1,20,A3*%
%TO.N,unconnected-(B1-A3-Pad20)*%
X123240000Y-48580000D03*
%TO.P,B1,21,VCC*%
%TO.N,/VCC_1*%
X123240000Y-46040000D03*
%TO.P,B1,22,RESET*%
%TO.N,Net-(B1-RESET)*%
X123240000Y-43500000D03*
%TO.P,B1,23,GND*%
%TO.N,GND1*%
X123240000Y-40960000D03*
%TO.P,B1,24,RAW*%
%TO.N,+5V_1*%
X123240000Y-38420000D03*
%TD*%
D11*
%TO.P,J1,1,Pin_1*%
%TO.N,/LED_POWER_1*%
X101000000Y-81500000D03*
D12*
%TO.P,J1,2,Pin_2*%
%TO.N,GND1*%
X103540000Y-81500000D03*
%TO.P,J1,3,Pin_3*%
%TO.N,/VCC_1*%
X106080000Y-81500000D03*
%TO.P,J1,4,Pin_4*%
%TO.N,/LED_CONTROL_1*%
X108620000Y-81500000D03*
%TO.P,J1,5,Pin_5*%
%TO.N,/LEFT_SIGNAL_1*%
X111160000Y-81500000D03*
%TO.P,J1,6,Pin_6*%
%TO.N,/RIGHT_SIGNAL_1*%
X113700000Y-81500000D03*
%TD*%
D11*
%TO.P,J2,1,Pin_1*%
%TO.N,/LED_POWER_2*%
X101000000Y-88000000D03*
D12*
%TO.P,J2,2,Pin_2*%
%TO.N,GND2*%
X103540000Y-88000000D03*
%TO.P,J2,3,Pin_3*%
%TO.N,/VCC_2*%
X106080000Y-88000000D03*
%TO.P,J2,4,Pin_4*%
%TO.N,/LED_CONTROL_2*%
X108620000Y-88000000D03*
%TO.P,J2,5,Pin_5*%
%TO.N,/LEFT_SIGNAL_2*%
X111160000Y-88000000D03*
%TO.P,J2,6,Pin_6*%
%TO.N,/RIGHT_SIGNAL_2*%
X113700000Y-88000000D03*
%TD*%
D10*
%TO.P,C2,1*%
%TO.N,/VCC_1*%
X123500000Y-78500000D03*
%TO.P,C2,2*%
%TO.N,GND1*%
X126000000Y-78500000D03*
%TD*%
D14*
%TO.P,U2,1,VS*%
%TO.N,/VCC_3*%
X115815000Y-123690000D03*
D15*
%TO.P,U2,2,-IN*%
%TO.N,unconnected-(U2--IN-Pad2)*%
X115815000Y-126230000D03*
%TO.P,U2,3,-V*%
%TO.N,GND3*%
X115815000Y-128770000D03*
%TO.P,U2,4,1MOHM_FB*%
%TO.N,/RIGHT_SIGNAL_3*%
X115815000Y-131310000D03*
%TO.P,U2,5,OUTPUT*%
X108185000Y-131310000D03*
%TO.P,U2,6*%
%TO.N,N/C*%
X108185000Y-128770000D03*
%TO.P,U2,7*%
X108185000Y-126230000D03*
%TO.P,U2,8,COMMON*%
%TO.N,GND3*%
X108185000Y-123690000D03*
%TD*%
D16*
%TO.P,D9,A*%
%TO.N,Net-(U4-VINB-)*%
X115650000Y-105970000D03*
%TO.P,D9,K*%
%TO.N,GND2*%
X108500000Y-105970000D03*
%TD*%
%TO.P,D10,A*%
%TO.N,Net-(U4-VINA-)*%
X93425000Y-105970000D03*
%TO.P,D10,K*%
%TO.N,GND2*%
X100575000Y-105970000D03*
%TD*%
D14*
%TO.P,U1,1,VS*%
%TO.N,/VCC_3*%
X100815000Y-123690000D03*
D15*
%TO.P,U1,2,-IN*%
%TO.N,unconnected-(U1--IN-Pad2)*%
X100815000Y-126230000D03*
%TO.P,U1,3,-V*%
%TO.N,GND3*%
X100815000Y-128770000D03*
%TO.P,U1,4,1MOHM_FB*%
%TO.N,/LEFT_SIGNAL_3*%
X100815000Y-131310000D03*
%TO.P,U1,5,OUTPUT*%
X93185000Y-131310000D03*
%TO.P,U1,6*%
%TO.N,N/C*%
X93185000Y-128770000D03*
%TO.P,U1,7*%
X93185000Y-126230000D03*
%TO.P,U1,8,COMMON*%
%TO.N,GND3*%
X93185000Y-123690000D03*
%TD*%
D17*
%TO.N,+5V_1*%
X93500000Y-70000000D03*
%TO.N,/LEFT_SIGNAL_2*%
X109500000Y-99000000D03*
%TO.N,/RIGHT_SIGNAL_2*%
X107170000Y-101365000D03*
%TO.N,Net-(U4-VINA-)*%
X101830000Y-101365000D03*
%TO.N,Net-(U4-VINB-)*%
X107170000Y-102635000D03*
%TO.N,GND2*%
X108500000Y-106000000D03*
X100575000Y-105970000D03*
%TO.N,/VCC_2*%
X107170000Y-100095000D03*
%TO.N,/VCC_3*%
X105000000Y-123500000D03*
X112000000Y-123500000D03*
%TD*%
D18*
%TO.N,Net-(U4-VINA-)*%
X101830000Y-101365000D02*
X101635000Y-101365000D01*
X101635000Y-101365000D02*
X97030000Y-105970000D01*
X97030000Y-105970000D02*
X93425000Y-105970000D01*
%TO.N,Net-(U4-VINB-)*%
X107170000Y-102635000D02*
X112315000Y-102635000D01*
X112315000Y-102635000D02*
X115650000Y-105970000D01*
%TO.N,/RIGHT_SIGNAL_2*%
X107170000Y-101365000D02*
X110635000Y-101365000D01*
X110635000Y-101365000D02*
X113700000Y-98300000D01*
X113700000Y-98300000D02*
X113700000Y-88000000D01*
D19*
%TO.N,/VCC_2*%
X107170000Y-100000000D02*
X106080000Y-98910000D01*
X106080000Y-98910000D02*
X106080000Y-88000000D01*
D18*
%TO.N,/LEFT_SIGNAL_2*%
X109500000Y-99000000D02*
X110442918Y-99000000D01*
X110442918Y-99000000D02*
X111160000Y-98282918D01*
X111160000Y-98282918D02*
X111160000Y-88000000D01*
%TO.N,/LEFT_SIGNAL_3*%
X111160000Y-112500000D02*
X113500000Y-114840000D01*
X113500000Y-114840000D02*
X113500000Y-126000000D01*
X104000000Y-127500000D02*
X100815000Y-130685000D01*
X113500000Y-126000000D02*
X112000000Y-127500000D01*
X112000000Y-127500000D02*
X104000000Y-127500000D01*
X100815000Y-130685000D02*
X100815000Y-131310000D01*
D20*
%TO.N,+5V_1*%
X123240000Y-38420000D02*
X120820000Y-36000000D01*
X120820000Y-36000000D02*
X106500000Y-36000000D01*
X106500000Y-36000000D02*
X96000000Y-46500000D01*
X96000000Y-46500000D02*
X96000000Y-67500000D01*
X96000000Y-67500000D02*
X93500000Y-70000000D01*
D18*
%TO.N,/LED_CONTROL_1*%
X108000000Y-51120000D02*
X113500000Y-56620000D01*
X113500000Y-56620000D02*
X113500000Y-76620000D01*
%TO.N,/LEFT_SIGNAL_1*%
X123240000Y-53660000D02*
X114500000Y-62400000D01*
X114500000Y-62400000D02*
X114500000Y-78160000D01*
%TO.N,/RIGHT_SIGNAL_1*%
X123240000Y-56200000D02*
X115500000Y-63940000D01*
X115500000Y-63940000D02*
X115500000Y-79700000D01*
%TO.N,/LED_CONTROL_1*%
X113500000Y-76620000D02*
X108620000Y-81500000D01*
%TO.N,/LEFT_SIGNAL_1*%
X114500000Y-78160000D02*
X111160000Y-81500000D01*
D20*
%TO.N,GND1*%
X103540000Y-81500000D02*
X103540000Y-79960000D01*
X103540000Y-79960000D02*
X104000000Y-79500000D01*
D18*
%TO.N,/RIGHT_SIGNAL_1*%
X115500000Y-79700000D02*
X113700000Y-81500000D01*
%TO.N,Net-(U4-VINA-)*%
X93455000Y-105940000D02*
X93425000Y-105970000D01*
%TO.N,Net-(U4-VINB-)*%
X115530000Y-105970000D02*
X115500000Y-106000000D01*
X115650000Y-105970000D02*
X115530000Y-105970000D01*
%TO.N,GND2*%
X100575000Y-105970000D02*
X100530000Y-105970000D01*
X100530000Y-105970000D02*
X100500000Y-106000000D01*
%TO.N,/LEFT_SIGNAL_3*%
X93185000Y-131310000D02*
X100815000Y-131310000D01*
D19*
%TO.N,/VCC_3*%
X112000000Y-123500000D02*
X109500000Y-121000000D01*
X106080000Y-122420000D02*
X105000000Y-123500000D01*
X106080000Y-121000000D02*
X106080000Y-122420000D01*
X109500000Y-121000000D02*
X106080000Y-121000000D01*
X106080000Y-121000000D02*
X106080000Y-112500000D01*
D18*
%TO.N,/RIGHT_SIGNAL_3*%
X113700000Y-112500000D02*
X113700000Y-113000000D01*
X113700000Y-113000000D02*
X114500000Y-113800000D01*
X115815000Y-131310000D02*
X114500000Y-129995000D01*
X114500000Y-129995000D02*
X114500000Y-113800000D01*
X108185000Y-131310000D02*
X115815000Y-131310000D01*
%TD*%
%TA.AperFunction,Conductor*%
%TO.N,GND3*%
G36*
X93893635Y-113020002D02*
G01*
X93940128Y-113073658D01*
X93949093Y-113101419D01*
X93949500Y-113103465D01*
X93989870Y-113306420D01*
X94069059Y-113497598D01*
X94165002Y-113641188D01*
X94184024Y-113669656D01*
X94184029Y-113669662D01*
X94330337Y-113815970D01*
X94330343Y-113815975D01*
X94330345Y-113815977D01*
X94502402Y-113930941D01*
X94693580Y-114010130D01*
X94896535Y-114050500D01*
X94896536Y-114050500D01*
X95103464Y-114050500D01*
X95103465Y-114050500D01*
X95306420Y-114010130D01*
X95497598Y-113930941D01*
X95669655Y-113815977D01*
X95815977Y-113669655D01*
X95930941Y-113497598D01*
X96010130Y-113306420D01*
X96050500Y-113103465D01*
X96050907Y-113101419D01*
X96083815Y-113038509D01*
X96145510Y-113003377D01*
X96174486Y-113000000D01*
X99515500Y-113000000D01*
X99583621Y-113020002D01*
X99630114Y-113073658D01*
X99641500Y-113126000D01*
X99641500Y-113398649D01*
X99648009Y-113459196D01*
X99648011Y-113459204D01*
X99699110Y-113596202D01*
X99699112Y-113596207D01*
X99786738Y-113713261D01*
X99903792Y-113800887D01*
X99903794Y-113800888D01*
X99903796Y-113800889D01*
X99957600Y-113820957D01*
X100040795Y-113851988D01*
X100040803Y-113851990D01*
X100101350Y-113858499D01*
X100101355Y-113858499D01*
X100101362Y-113858500D01*
X100101368Y-113858500D01*
X101898632Y-113858500D01*
X101898638Y-113858500D01*
X101898645Y-113858499D01*
X101898649Y-113858499D01*
X101959196Y-113851990D01*
X101959199Y-113851989D01*
X101959201Y-113851989D01*
X102096204Y-113800889D01*
X102166399Y-113748342D01*
X102213261Y-113713261D01*
X102300886Y-113596208D01*
X102300885Y-113596208D01*
X102300889Y-113596204D01*
X102345196Y-113477413D01*
X102387741Y-113420581D01*
X102454262Y-113395770D01*
X102523636Y-113410862D01*
X102555952Y-113436112D01*
X102617097Y-113502534D01*
X102794698Y-113640767D01*
X102794699Y-113640768D01*
X102992628Y-113747882D01*
X102992630Y-113747883D01*
X103205483Y-113820955D01*
X103205492Y-113820957D01*
X103286000Y-113834391D01*
X103286000Y-113000000D01*
X103794000Y-113000000D01*
X103794000Y-113834390D01*
X103874507Y-113820957D01*
X103874516Y-113820955D01*
X104087369Y-113747883D01*
X104087371Y-113747882D01*
X104285300Y-113640768D01*
X104285301Y-113640767D01*
X104462902Y-113502534D01*
X104615327Y-113336955D01*
X104704218Y-113200898D01*
X104758221Y-113154809D01*
X104828569Y-113145234D01*
X104892927Y-113175211D01*
X104915180Y-113200894D01*
X104924459Y-113215095D01*
X105004278Y-113337269D01*
X105038199Y-113374115D01*
X105069622Y-113437779D01*
X105071500Y-113459454D01*
X105071500Y-121950074D01*
X105051498Y-122018195D01*
X105034596Y-122039169D01*
X104216645Y-122857121D01*
X104216644Y-122857123D01*
X104106279Y-123022296D01*
X104030258Y-123205826D01*
X104030256Y-123205831D01*
X103991500Y-123400668D01*
X103991500Y-123599331D01*
X104009535Y-123689999D01*
X104030256Y-123794168D01*
X104106279Y-123977704D01*
X104216647Y-124142881D01*
X104357119Y-124283353D01*
X104522296Y-124393721D01*
X104705832Y-124469744D01*
X104900671Y-124508500D01*
X104900672Y-124508500D01*
X105099328Y-124508500D01*
X105099329Y-124508500D01*
X105294168Y-124469744D01*
X105477704Y-124393721D01*
X105642881Y-124283353D01*
X106236230Y-123690004D01*
X107062210Y-123690004D01*
X107081327Y-123896310D01*
X107138027Y-124095590D01*
X107138030Y-124095598D01*
X107230385Y-124281072D01*
X107232248Y-124283540D01*
X107753913Y-123761875D01*
X107779644Y-123857904D01*
X107836913Y-123957097D01*
X107917903Y-124038087D01*
X108017096Y-124095356D01*
X108113123Y-124121086D01*
X107594730Y-124639478D01*
X107684523Y-124695076D01*
X107684533Y-124695081D01*
X107877730Y-124769926D01*
X108081404Y-124808000D01*
X108288596Y-124808000D01*
X108492266Y-124769927D01*
X108685470Y-124695079D01*
X108685474Y-124695077D01*
X108775269Y-124639478D01*
X108256876Y-124121085D01*
X108352904Y-124095356D01*
X108452097Y-124038087D01*
X108533087Y-123957097D01*
X108590356Y-123857904D01*
X108616085Y-123761876D01*
X109137749Y-124283540D01*
X109137751Y-124283540D01*
X109139612Y-124281075D01*
X109231969Y-124095598D01*
X109231972Y-124095590D01*
X109288672Y-123896310D01*
X109307790Y-123690004D01*
X109307790Y-123689995D01*
X109288672Y-123483689D01*
X109231972Y-123284409D01*
X109231969Y-123284401D01*
X109139615Y-123098928D01*
X109137750Y-123096458D01*
X108616085Y-123618123D01*
X108590356Y-123522096D01*
X108533087Y-123422903D01*
X108452097Y-123341913D01*
X108352904Y-123284644D01*
X108256875Y-123258913D01*
X108775268Y-122740520D01*
X108685471Y-122684920D01*
X108685464Y-122684917D01*
X108492269Y-122610073D01*
X108288596Y-122572000D01*
X108081404Y-122572000D01*
X107877730Y-122610073D01*
X107684535Y-122684917D01*
X107684523Y-122684923D01*
X107594729Y-122740520D01*
X108113123Y-123258914D01*
X108017096Y-123284644D01*
X107917903Y-123341913D01*
X107836913Y-123422903D01*
X107779644Y-123522096D01*
X107753914Y-123618123D01*
X107232249Y-123096458D01*
X107232246Y-123096458D01*
X107230391Y-123098917D01*
X107230386Y-123098925D01*
X107138030Y-123284401D01*
X107138027Y-123284409D01*
X107081327Y-123483689D01*
X107062210Y-123689995D01*
X107062210Y-123690004D01*
X106236230Y-123690004D01*
X106863354Y-123062881D01*
X106973722Y-122897703D01*
X107049744Y-122714168D01*
X107050796Y-122708882D01*
X107066664Y-122629110D01*
X107088499Y-122519334D01*
X107088500Y-122519327D01*
X107088500Y-122134500D01*
X107108502Y-122066379D01*
X107162158Y-122019886D01*
X107214500Y-122008500D01*
X109030076Y-122008500D01*
X109098197Y-122028502D01*
X109119171Y-122045405D01*
X111357113Y-124283348D01*
X111357119Y-124283353D01*
X111522296Y-124393722D01*
X111705832Y-124469744D01*
X111900671Y-124508500D01*
X111900672Y-124508500D01*
X112099328Y-124508500D01*
X112099329Y-124508500D01*
X112294169Y-124469744D01*
X112477704Y-124393722D01*
X112545498Y-124348422D01*
X112613249Y-124327207D01*
X112681717Y-124345989D01*
X112729160Y-124398806D01*
X112741500Y-124453187D01*
X112741500Y-125633629D01*
X112721498Y-125701750D01*
X112704595Y-125722724D01*
X111722724Y-126704595D01*
X111660412Y-126738621D01*
X111633629Y-126741500D01*
X109369210Y-126741500D01*
X109301089Y-126721498D01*
X109254596Y-126667842D01*
X109244492Y-126597568D01*
X109248020Y-126581019D01*
X109289165Y-126436406D01*
X109289166Y-126436404D01*
X109308292Y-126230000D01*
X109289166Y-126023596D01*
X109232439Y-125824220D01*
X109171456Y-125701750D01*
X109140045Y-125638667D01*
X109140041Y-125638662D01*
X109136240Y-125633629D01*
X109115472Y-125606127D01*
X109015124Y-125473243D01*
X108861936Y-125333594D01*
X108685700Y-125224473D01*
X108685696Y-125224471D01*
X108685694Y-125224470D01*
X108499564Y-125152363D01*
X108492404Y-125149589D01*
X108424483Y-125136892D01*
X108288644Y-125111500D01*
X108081356Y-125111500D01*
X107979476Y-125130544D01*
X107877595Y-125149589D01*
X107784641Y-125185600D01*
X107684306Y-125224470D01*
X107684305Y-125224470D01*
X107684304Y-125224471D01*
X107684299Y-125224473D01*
X107508063Y-125333594D01*
X107354875Y-125473243D01*
X107229958Y-125638662D01*
X107229954Y-125638667D01*
X107137563Y-125824214D01*
X107137560Y-125824220D01*
X107080834Y-126023594D01*
X107061708Y-126230000D01*
X107080834Y-126436406D01*
X107121980Y-126581019D01*
X107121384Y-126652013D01*
X107082499Y-126711415D01*
X107017673Y-126740364D01*
X107000790Y-126741500D01*
X103925288Y-126741500D01*
X103852024Y-126756073D01*
X103852024Y-126756074D01*
X103778753Y-126770649D01*
X103778751Y-126770649D01*
X103778750Y-126770650D01*
X103778749Y-126770650D01*
X103721576Y-126794331D01*
X103721576Y-126794332D01*
X103656394Y-126821332D01*
X103640716Y-126827826D01*
X103516488Y-126910832D01*
X103516486Y-126910833D01*
X102052596Y-128374722D01*
X101990284Y-128408747D01*
X101919468Y-128403682D01*
X101862633Y-128361135D01*
X101850710Y-128341789D01*
X101769615Y-128178928D01*
X101767750Y-128176457D01*
X101246085Y-128698122D01*
X101220356Y-128602096D01*
X101163087Y-128502903D01*
X101082097Y-128421913D01*
X100982904Y-128364644D01*
X100886875Y-128338913D01*
X101405268Y-127820520D01*
X101315471Y-127764920D01*
X101315464Y-127764917D01*
X101122269Y-127690073D01*
X100918596Y-127652000D01*
X100711404Y-127652000D01*
X100507730Y-127690073D01*
X100314535Y-127764917D01*
X100314523Y-127764923D01*
X100224729Y-127820520D01*
X100743123Y-128338914D01*
X100647096Y-128364644D01*
X100547903Y-128421913D01*
X100466913Y-128502903D01*
X100409644Y-128602096D01*
X100383914Y-128698123D01*
X99862249Y-128176458D01*
X99862246Y-128176458D01*
X99860391Y-128178917D01*
X99860386Y-128178925D01*
X99768030Y-128364401D01*
X99768027Y-128364409D01*
X99711327Y-128563689D01*
X99692210Y-128769995D01*
X99692210Y-128770004D01*
X99711327Y-128976310D01*
X99768027Y-129175590D01*
X99768030Y-129175598D01*
X99860385Y-129361072D01*
X99862248Y-129363540D01*
X100383913Y-128841875D01*
X100409644Y-128937904D01*
X100466913Y-129037097D01*
X100547903Y-129118087D01*
X100647096Y-129175356D01*
X100743123Y-129201086D01*
X100224730Y-129719478D01*
X100314523Y-129775076D01*
X100314530Y-129775080D01*
X100377626Y-129799523D01*
X100433922Y-129842782D01*
X100457893Y-129909609D01*
X100441929Y-129978788D01*
X100421207Y-130006110D01*
X100225836Y-130201482D01*
X100225835Y-130201483D01*
X100142825Y-130325716D01*
X100142823Y-130325721D01*
X100097983Y-130433972D01*
X100066462Y-130478867D01*
X100022863Y-130518614D01*
X99959046Y-130549726D01*
X99937976Y-130551500D01*
X94062024Y-130551500D01*
X93993903Y-130531498D01*
X93977138Y-130518615D01*
X93861936Y-130413594D01*
X93685700Y-130304473D01*
X93685696Y-130304471D01*
X93685694Y-130304470D01*
X93567285Y-130258598D01*
X93492404Y-130229589D01*
X93421029Y-130216247D01*
X93288644Y-130191500D01*
X93081356Y-130191500D01*
X92979476Y-130210544D01*
X92877595Y-130229589D01*
X92727833Y-130287607D01*
X92684306Y-130304470D01*
X92684305Y-130304470D01*
X92684304Y-130304471D01*
X92684299Y-130304473D01*
X92508063Y-130413594D01*
X92354875Y-130553243D01*
X92229958Y-130718662D01*
X92229954Y-130718667D01*
X92137563Y-130904214D01*
X92137560Y-130904220D01*
X92080834Y-131103594D01*
X92061708Y-131310000D01*
X92080834Y-131516405D01*
X92137560Y-131715779D01*
X92137563Y-131715785D01*
X92229954Y-131901332D01*
X92229958Y-131901337D01*
X92354875Y-132066756D01*
X92508063Y-132206405D01*
X92684299Y-132315526D01*
X92684300Y-132315526D01*
X92684306Y-132315530D01*
X92877597Y-132390411D01*
X93081356Y-132428500D01*
X93081358Y-132428500D01*
X93288642Y-132428500D01*
X93288644Y-132428500D01*
X93492403Y-132390411D01*
X93685694Y-132315530D01*
X93861935Y-132206406D01*
X93977138Y-132101385D01*
X94040955Y-132070274D01*
X94062024Y-132068500D01*
X99937976Y-132068500D01*
X100006097Y-132088502D01*
X100022862Y-132101385D01*
X100138063Y-132206405D01*
X100314299Y-132315526D01*
X100314300Y-132315526D01*
X100314306Y-132315530D01*
X100507597Y-132390411D01*
X100711356Y-132428500D01*
X100711358Y-132428500D01*
X100918642Y-132428500D01*
X100918644Y-132428500D01*
X101122403Y-132390411D01*
X101315694Y-132315530D01*
X101491935Y-132206406D01*
X101645123Y-132066757D01*
X101657401Y-132050499D01*
X101669692Y-132034221D01*
X101770042Y-131901337D01*
X101770043Y-131901333D01*
X101770045Y-131901332D01*
X101816240Y-131808558D01*
X101862439Y-131715780D01*
X101919166Y-131516404D01*
X101938292Y-131310000D01*
X101919166Y-131103596D01*
X101919129Y-131103467D01*
X103449500Y-131103467D01*
X103449526Y-131103596D01*
X103489870Y-131306420D01*
X103569059Y-131497598D01*
X103684023Y-131669655D01*
X103684024Y-131669656D01*
X103684029Y-131669662D01*
X103830337Y-131815970D01*
X103830343Y-131815975D01*
X103830345Y-131815977D01*
X104002402Y-131930941D01*
X104193580Y-132010130D01*
X104396535Y-132050500D01*
X104396536Y-132050500D01*
X104603464Y-132050500D01*
X104603465Y-132050500D01*
X104806420Y-132010130D01*
X104997598Y-131930941D01*
X105169655Y-131815977D01*
X105315977Y-131669655D01*
X105430941Y-131497598D01*
X105510130Y-131306420D01*
X105550500Y-131103465D01*
X105550500Y-130896535D01*
X105510130Y-130693580D01*
X105430941Y-130502402D01*
X105315977Y-130330345D01*
X105315975Y-130330343D01*
X105315970Y-130330337D01*
X105169662Y-130184029D01*
X105169656Y-130184024D01*
X105169655Y-130184023D01*
X104997598Y-130069059D01*
X104806420Y-129989870D01*
X104750707Y-129978788D01*
X104603467Y-129949500D01*
X104603465Y-129949500D01*
X104396535Y-129949500D01*
X104396532Y-129949500D01*
X104193579Y-129989870D01*
X104193574Y-129989872D01*
X104002402Y-130069059D01*
X103830343Y-130184024D01*
X103830337Y-130184029D01*
X103684029Y-130330337D01*
X103684024Y-130330343D01*
X103569059Y-130502402D01*
X103489872Y-130693574D01*
X103489870Y-130693579D01*
X103449500Y-130896532D01*
X103449500Y-131103467D01*
X101919129Y-131103467D01*
X101862439Y-130904220D01*
X101850347Y-130879936D01*
X101838366Y-130855874D01*
X101825908Y-130785979D01*
X101853215Y-130720444D01*
X101862052Y-130710627D01*
X104277276Y-128295405D01*
X104339588Y-128261379D01*
X104366371Y-128258500D01*
X107000790Y-128258500D01*
X107068911Y-128278502D01*
X107115404Y-128332158D01*
X107125508Y-128402432D01*
X107121980Y-128418981D01*
X107080834Y-128563593D01*
X107061708Y-128770000D01*
X107080834Y-128976405D01*
X107137560Y-129175779D01*
X107137563Y-129175785D01*
X107229954Y-129361332D01*
X107229958Y-129361337D01*
X107354875Y-129526756D01*
X107508063Y-129666405D01*
X107684299Y-129775526D01*
X107684300Y-129775526D01*
X107684306Y-129775530D01*
X107877597Y-129850411D01*
X108081356Y-129888500D01*
X108081358Y-129888500D01*
X108288642Y-129888500D01*
X108288644Y-129888500D01*
X108492403Y-129850411D01*
X108685694Y-129775530D01*
X108861935Y-129666406D01*
X109015123Y-129526757D01*
X109140042Y-129361337D01*
X109140043Y-129361333D01*
X109140045Y-129361332D01*
X109217889Y-129205000D01*
X109232439Y-129175780D01*
X109289166Y-128976404D01*
X109308292Y-128770000D01*
X109289166Y-128563596D01*
X109248020Y-128418981D01*
X109248616Y-128347987D01*
X109287501Y-128288585D01*
X109352327Y-128259636D01*
X109369210Y-128258500D01*
X112074701Y-128258500D01*
X112074705Y-128258500D01*
X112074706Y-128258500D01*
X112147976Y-128243925D01*
X112221247Y-128229351D01*
X112359284Y-128172174D01*
X112483515Y-128089166D01*
X113526405Y-127046276D01*
X113588717Y-127012250D01*
X113659532Y-127017315D01*
X113716368Y-127059862D01*
X113741179Y-127126382D01*
X113741500Y-127135371D01*
X113741500Y-130069711D01*
X113748141Y-130103095D01*
X113756074Y-130142976D01*
X113770649Y-130216247D01*
X113776176Y-130229589D01*
X113827827Y-130354286D01*
X113828639Y-130355501D01*
X113828868Y-130356234D01*
X113830743Y-130359741D01*
X113830077Y-130360096D01*
X113849852Y-130423255D01*
X113831067Y-130491721D01*
X113778248Y-130539163D01*
X113723872Y-130551500D01*
X109062024Y-130551500D01*
X108993903Y-130531498D01*
X108977138Y-130518615D01*
X108861936Y-130413594D01*
X108685700Y-130304473D01*
X108685696Y-130304471D01*
X108685694Y-130304470D01*
X108567285Y-130258598D01*
X108492404Y-130229589D01*
X108421029Y-130216247D01*
X108288644Y-130191500D01*
X108081356Y-130191500D01*
X107979476Y-130210544D01*
X107877595Y-130229589D01*
X107727833Y-130287607D01*
X107684306Y-130304470D01*
X107684305Y-130304470D01*
X107684304Y-130304471D01*
X107684299Y-130304473D01*
X107508063Y-130413594D01*
X107354875Y-130553243D01*
X107229958Y-130718662D01*
X107229954Y-130718667D01*
X107137563Y-130904214D01*
X107137560Y-130904220D01*
X107080834Y-131103594D01*
X107061708Y-131310000D01*
X107080834Y-131516405D01*
X107137560Y-131715779D01*
X107137563Y-131715785D01*
X107229954Y-131901332D01*
X107229958Y-131901337D01*
X107354875Y-132066756D01*
X107508063Y-132206405D01*
X107684299Y-132315526D01*
X107684300Y-132315526D01*
X107684306Y-132315530D01*
X107877597Y-132390411D01*
X108081356Y-132428500D01*
X108081358Y-132428500D01*
X108288642Y-132428500D01*
X108288644Y-132428500D01*
X108492403Y-132390411D01*
X108685694Y-132315530D01*
X108861935Y-132206406D01*
X108977138Y-132101385D01*
X109040955Y-132070274D01*
X109062024Y-132068500D01*
X114937976Y-132068500D01*
X115006097Y-132088502D01*
X115022862Y-132101385D01*
X115138063Y-132206405D01*
X115314299Y-132315526D01*
X115314300Y-132315526D01*
X115314306Y-132315530D01*
X115507597Y-132390411D01*
X115711356Y-132428500D01*
X115711358Y-132428500D01*
X115918642Y-132428500D01*
X115918644Y-132428500D01*
X116122403Y-132390411D01*
X116315694Y-132315530D01*
X116491935Y-132206406D01*
X116645123Y-132066757D01*
X116657401Y-132050499D01*
X116669692Y-132034221D01*
X116770042Y-131901337D01*
X116770043Y-131901333D01*
X116770045Y-131901332D01*
X116816240Y-131808558D01*
X116862439Y-131715780D01*
X116919166Y-131516404D01*
X116938292Y-131310000D01*
X116919166Y-131103596D01*
X116862439Y-130904220D01*
X116858611Y-130896532D01*
X116770045Y-130718667D01*
X116770041Y-130718662D01*
X116751099Y-130693579D01*
X116745472Y-130686127D01*
X116645124Y-130553243D01*
X116491936Y-130413594D01*
X116315700Y-130304473D01*
X116315696Y-130304471D01*
X116315694Y-130304470D01*
X116197285Y-130258598D01*
X116122404Y-130229589D01*
X116051029Y-130216247D01*
X115918644Y-130191500D01*
X115918642Y-130191500D01*
X115821371Y-130191500D01*
X115753250Y-130171498D01*
X115732276Y-130154595D01*
X115680776Y-130103095D01*
X115646750Y-130040783D01*
X115651815Y-129969968D01*
X115694362Y-129913132D01*
X115760882Y-129888321D01*
X115769871Y-129888000D01*
X115918596Y-129888000D01*
X116122266Y-129849927D01*
X116315470Y-129775079D01*
X116315474Y-129775077D01*
X116405269Y-129719478D01*
X115886876Y-129201085D01*
X115982904Y-129175356D01*
X116082097Y-129118087D01*
X116163087Y-129037097D01*
X116220356Y-128937904D01*
X116246085Y-128841876D01*
X116767749Y-129363540D01*
X116767751Y-129363540D01*
X116769612Y-129361075D01*
X116861969Y-129175598D01*
X116861972Y-129175590D01*
X116918672Y-128976310D01*
X116937790Y-128770004D01*
X116937790Y-128769995D01*
X116918672Y-128563689D01*
X116861972Y-128364409D01*
X116861969Y-128364401D01*
X116769615Y-128178928D01*
X116767750Y-128176458D01*
X116246085Y-128698123D01*
X116220356Y-128602096D01*
X116163087Y-128502903D01*
X116082097Y-128421913D01*
X115982904Y-128364644D01*
X115886875Y-128338913D01*
X116405269Y-127820520D01*
X116315471Y-127764920D01*
X116315464Y-127764917D01*
X116122269Y-127690073D01*
X115918596Y-127652000D01*
X115711404Y-127652000D01*
X115507733Y-127690072D01*
X115430016Y-127720180D01*
X115359270Y-127726136D01*
X115296534Y-127692899D01*
X115261727Y-127631020D01*
X115258500Y-127602688D01*
X115258500Y-127397847D01*
X115278502Y-127329726D01*
X115332158Y-127283233D01*
X115402432Y-127273129D01*
X115430013Y-127280354D01*
X115507597Y-127310411D01*
X115711356Y-127348500D01*
X115711358Y-127348500D01*
X115918642Y-127348500D01*
X115918644Y-127348500D01*
X116122403Y-127310411D01*
X116315694Y-127235530D01*
X116491935Y-127126406D01*
X116645123Y-126986757D01*
X116770042Y-126821337D01*
X116770043Y-126821333D01*
X116770045Y-126821332D01*
X116846474Y-126667842D01*
X116862439Y-126635780D01*
X116919166Y-126436404D01*
X116938292Y-126230000D01*
X116919166Y-126023596D01*
X116862439Y-125824220D01*
X116801456Y-125701750D01*
X116770045Y-125638667D01*
X116770041Y-125638662D01*
X116766240Y-125633629D01*
X116745472Y-125606127D01*
X116645124Y-125473243D01*
X116491936Y-125333594D01*
X116315700Y-125224473D01*
X116315696Y-125224471D01*
X116315694Y-125224470D01*
X116129564Y-125152363D01*
X116122404Y-125149589D01*
X116054483Y-125136892D01*
X115918644Y-125111500D01*
X115711356Y-125111500D01*
X115609476Y-125130544D01*
X115507595Y-125149589D01*
X115430016Y-125179644D01*
X115359270Y-125185600D01*
X115296534Y-125152363D01*
X115261727Y-125090484D01*
X115258500Y-125062152D01*
X115258500Y-124934500D01*
X115278502Y-124866379D01*
X115332158Y-124819886D01*
X115384500Y-124808500D01*
X116473632Y-124808500D01*
X116473638Y-124808500D01*
X116473645Y-124808499D01*
X116473649Y-124808499D01*
X116534196Y-124801990D01*
X116534199Y-124801989D01*
X116534201Y-124801989D01*
X116671204Y-124750889D01*
X116788261Y-124663261D01*
X116875889Y-124546204D01*
X116926989Y-124409201D01*
X116928654Y-124393722D01*
X116933499Y-124348649D01*
X116933500Y-124348632D01*
X116933500Y-123031367D01*
X116933499Y-123031350D01*
X116926990Y-122970803D01*
X116926988Y-122970795D01*
X116897924Y-122892875D01*
X116875889Y-122833796D01*
X116875888Y-122833794D01*
X116875887Y-122833792D01*
X116788261Y-122716738D01*
X116671207Y-122629112D01*
X116671202Y-122629110D01*
X116534204Y-122578011D01*
X116534196Y-122578009D01*
X116473649Y-122571500D01*
X116473638Y-122571500D01*
X115384500Y-122571500D01*
X115316379Y-122551498D01*
X115269886Y-122497842D01*
X115258500Y-122445500D01*
X115258500Y-113725293D01*
X115258499Y-113725290D01*
X115247434Y-113669662D01*
X115229351Y-113578754D01*
X115172174Y-113440716D01*
X115089166Y-113316485D01*
X114987776Y-113215095D01*
X114953750Y-113152783D01*
X114958815Y-113081968D01*
X115001362Y-113025132D01*
X115067882Y-113000321D01*
X115076871Y-113000000D01*
X117374000Y-113000000D01*
X117442121Y-113020002D01*
X117488614Y-113073658D01*
X117500000Y-113126000D01*
X117500000Y-132874000D01*
X117479998Y-132942121D01*
X117426342Y-132988614D01*
X117374000Y-133000000D01*
X91626000Y-133000000D01*
X91557879Y-132979998D01*
X91511386Y-132926342D01*
X91500000Y-132874000D01*
X91500000Y-128770000D01*
X92061708Y-128770000D01*
X92080834Y-128976405D01*
X92137560Y-129175779D01*
X92137563Y-129175785D01*
X92229954Y-129361332D01*
X92229958Y-129361337D01*
X92354875Y-129526756D01*
X92508063Y-129666405D01*
X92684299Y-129775526D01*
X92684300Y-129775526D01*
X92684306Y-129775530D01*
X92877597Y-129850411D01*
X93081356Y-129888500D01*
X93081358Y-129888500D01*
X93288642Y-129888500D01*
X93288644Y-129888500D01*
X93492403Y-129850411D01*
X93685694Y-129775530D01*
X93861935Y-129666406D01*
X94015123Y-129526757D01*
X94140042Y-129361337D01*
X94140043Y-129361333D01*
X94140045Y-129361332D01*
X94217889Y-129205000D01*
X94232439Y-129175780D01*
X94289166Y-128976404D01*
X94308292Y-128770000D01*
X94289166Y-128563596D01*
X94232439Y-128364220D01*
X94194777Y-128288585D01*
X94140045Y-128178667D01*
X94140041Y-128178662D01*
X94015124Y-128013243D01*
X93861936Y-127873594D01*
X93685700Y-127764473D01*
X93685696Y-127764471D01*
X93685694Y-127764470D01*
X93567285Y-127718598D01*
X93492404Y-127689589D01*
X93424483Y-127676892D01*
X93288644Y-127651500D01*
X93081356Y-127651500D01*
X92979476Y-127670544D01*
X92877595Y-127689589D01*
X92727833Y-127747607D01*
X92684306Y-127764470D01*
X92684305Y-127764470D01*
X92684304Y-127764471D01*
X92684299Y-127764473D01*
X92508063Y-127873594D01*
X92354875Y-128013243D01*
X92229958Y-128178662D01*
X92229954Y-128178667D01*
X92137563Y-128364214D01*
X92137560Y-128364220D01*
X92080834Y-128563594D01*
X92061708Y-128770000D01*
X91500000Y-128770000D01*
X91500000Y-126230000D01*
X92061708Y-126230000D01*
X92080834Y-126436405D01*
X92137560Y-126635779D01*
X92137563Y-126635785D01*
X92229954Y-126821332D01*
X92229958Y-126821337D01*
X92354875Y-126986756D01*
X92508063Y-127126405D01*
X92684299Y-127235526D01*
X92684300Y-127235526D01*
X92684306Y-127235530D01*
X92877597Y-127310411D01*
X93081356Y-127348500D01*
X93081358Y-127348500D01*
X93288642Y-127348500D01*
X93288644Y-127348500D01*
X93492403Y-127310411D01*
X93685694Y-127235530D01*
X93861935Y-127126406D01*
X94015123Y-126986757D01*
X94140042Y-126821337D01*
X94140043Y-126821333D01*
X94140045Y-126821332D01*
X94216474Y-126667842D01*
X94232439Y-126635780D01*
X94289166Y-126436404D01*
X94308292Y-126230000D01*
X99691708Y-126230000D01*
X99710834Y-126436405D01*
X99767560Y-126635779D01*
X99767563Y-126635785D01*
X99859954Y-126821332D01*
X99859958Y-126821337D01*
X99984875Y-126986756D01*
X100138063Y-127126405D01*
X100314299Y-127235526D01*
X100314300Y-127235526D01*
X100314306Y-127235530D01*
X100507597Y-127310411D01*
X100711356Y-127348500D01*
X100711358Y-127348500D01*
X100918642Y-127348500D01*
X100918644Y-127348500D01*
X101122403Y-127310411D01*
X101315694Y-127235530D01*
X101491935Y-127126406D01*
X101645123Y-126986757D01*
X101770042Y-126821337D01*
X101770043Y-126821333D01*
X101770045Y-126821332D01*
X101846474Y-126667842D01*
X101862439Y-126635780D01*
X101919166Y-126436404D01*
X101938292Y-126230000D01*
X101919166Y-126023596D01*
X101862439Y-125824220D01*
X101801456Y-125701750D01*
X101770045Y-125638667D01*
X101770041Y-125638662D01*
X101766240Y-125633629D01*
X101745472Y-125606127D01*
X101645124Y-125473243D01*
X101491936Y-125333594D01*
X101315700Y-125224473D01*
X101315696Y-125224471D01*
X101315694Y-125224470D01*
X101129564Y-125152363D01*
X101122404Y-125149589D01*
X101054483Y-125136892D01*
X100918644Y-125111500D01*
X100711356Y-125111500D01*
X100609476Y-125130544D01*
X100507595Y-125149589D01*
X100414641Y-125185600D01*
X100314306Y-125224470D01*
X100314305Y-125224470D01*
X100314304Y-125224471D01*
X100314299Y-125224473D01*
X100138063Y-125333594D01*
X99984875Y-125473243D01*
X99859958Y-125638662D01*
X99859954Y-125638667D01*
X99767563Y-125824214D01*
X99767560Y-125824220D01*
X99710834Y-126023594D01*
X99691708Y-126230000D01*
X94308292Y-126230000D01*
X94289166Y-126023596D01*
X94232439Y-125824220D01*
X94171456Y-125701750D01*
X94140045Y-125638667D01*
X94140041Y-125638662D01*
X94136240Y-125633629D01*
X94115472Y-125606127D01*
X94015124Y-125473243D01*
X93861936Y-125333594D01*
X93685700Y-125224473D01*
X93685696Y-125224471D01*
X93685694Y-125224470D01*
X93499564Y-125152363D01*
X93492404Y-125149589D01*
X93424483Y-125136892D01*
X93288644Y-125111500D01*
X93081356Y-125111500D01*
X92979476Y-125130544D01*
X92877595Y-125149589D01*
X92784641Y-125185600D01*
X92684306Y-125224470D01*
X92684305Y-125224470D01*
X92684304Y-125224471D01*
X92684299Y-125224473D01*
X92508063Y-125333594D01*
X92354875Y-125473243D01*
X92229958Y-125638662D01*
X92229954Y-125638667D01*
X92137563Y-125824214D01*
X92137560Y-125824220D01*
X92080834Y-126023594D01*
X92061708Y-126230000D01*
X91500000Y-126230000D01*
X91500000Y-123690004D01*
X92062210Y-123690004D01*
X92081327Y-123896310D01*
X92138027Y-124095590D01*
X92138030Y-124095598D01*
X92230385Y-124281072D01*
X92232248Y-124283540D01*
X92753913Y-123761875D01*
X92779644Y-123857904D01*
X92836913Y-123957097D01*
X92917903Y-124038087D01*
X93017096Y-124095356D01*
X93113123Y-124121086D01*
X92594730Y-124639478D01*
X92684523Y-124695076D01*
X92684533Y-124695081D01*
X92877730Y-124769926D01*
X93081404Y-124808000D01*
X93288596Y-124808000D01*
X93492266Y-124769927D01*
X93685470Y-124695079D01*
X93685474Y-124695077D01*
X93775269Y-124639478D01*
X93484440Y-124348649D01*
X99696500Y-124348649D01*
X99703009Y-124409196D01*
X99703011Y-124409204D01*
X99754110Y-124546202D01*
X99754112Y-124546207D01*
X99841738Y-124663261D01*
X99958792Y-124750887D01*
X99958794Y-124750888D01*
X99958796Y-124750889D01*
X100009836Y-124769926D01*
X100095795Y-124801988D01*
X100095803Y-124801990D01*
X100156350Y-124808499D01*
X100156355Y-124808499D01*
X100156362Y-124808500D01*
X100156368Y-124808500D01*
X101473632Y-124808500D01*
X101473638Y-124808500D01*
X101473645Y-124808499D01*
X101473649Y-124808499D01*
X101534196Y-124801990D01*
X101534199Y-124801989D01*
X101534201Y-124801989D01*
X101671204Y-124750889D01*
X101788261Y-124663261D01*
X101875889Y-124546204D01*
X101926989Y-124409201D01*
X101928654Y-124393722D01*
X101933499Y-124348649D01*
X101933500Y-124348632D01*
X101933500Y-123031367D01*
X101933499Y-123031350D01*
X101926990Y-122970803D01*
X101926988Y-122970795D01*
X101897924Y-122892875D01*
X101875889Y-122833796D01*
X101875888Y-122833794D01*
X101875887Y-122833792D01*
X101788261Y-122716738D01*
X101671207Y-122629112D01*
X101671202Y-122629110D01*
X101534204Y-122578011D01*
X101534196Y-122578009D01*
X101473649Y-122571500D01*
X101473638Y-122571500D01*
X100156362Y-122571500D01*
X100156350Y-122571500D01*
X100095803Y-122578009D01*
X100095795Y-122578011D01*
X99958797Y-122629110D01*
X99958792Y-122629112D01*
X99841738Y-122716738D01*
X99754112Y-122833792D01*
X99754110Y-122833797D01*
X99703011Y-122970795D01*
X99703009Y-122970803D01*
X99696500Y-123031350D01*
X99696500Y-124348649D01*
X93484440Y-124348649D01*
X93256876Y-124121085D01*
X93352904Y-124095356D01*
X93452097Y-124038087D01*
X93533087Y-123957097D01*
X93590356Y-123857904D01*
X93616085Y-123761876D01*
X94137749Y-124283540D01*
X94137751Y-124283540D01*
X94139612Y-124281075D01*
X94231969Y-124095598D01*
X94231972Y-124095590D01*
X94288672Y-123896310D01*
X94307790Y-123690004D01*
X94307790Y-123689995D01*
X94288672Y-123483689D01*
X94231972Y-123284409D01*
X94231969Y-123284401D01*
X94139615Y-123098928D01*
X94137750Y-123096458D01*
X93616085Y-123618123D01*
X93590356Y-123522096D01*
X93533087Y-123422903D01*
X93452097Y-123341913D01*
X93352904Y-123284644D01*
X93256875Y-123258913D01*
X93775268Y-122740520D01*
X93685471Y-122684920D01*
X93685464Y-122684917D01*
X93492269Y-122610073D01*
X93288596Y-122572000D01*
X93081404Y-122572000D01*
X92877730Y-122610073D01*
X92684535Y-122684917D01*
X92684523Y-122684923D01*
X92594729Y-122740520D01*
X93113123Y-123258914D01*
X93017096Y-123284644D01*
X92917903Y-123341913D01*
X92836913Y-123422903D01*
X92779644Y-123522096D01*
X92753914Y-123618123D01*
X92232249Y-123096458D01*
X92232246Y-123096458D01*
X92230391Y-123098917D01*
X92230386Y-123098925D01*
X92138030Y-123284401D01*
X92138027Y-123284409D01*
X92081327Y-123483689D01*
X92062210Y-123689995D01*
X92062210Y-123690004D01*
X91500000Y-123690004D01*
X91500000Y-113126000D01*
X91520002Y-113057879D01*
X91573658Y-113011386D01*
X91626000Y-113000000D01*
X93825514Y-113000000D01*
X93893635Y-113020002D01*
G37*
%TD.AperFunction*%
%TD*%
%TA.AperFunction,Conductor*%
%TO.N,GND1*%
G36*
X128942121Y-34020002D02*
G01*
X128988614Y-34073658D01*
X129000000Y-34126000D01*
X129000000Y-81874000D01*
X128979998Y-81942121D01*
X128926342Y-81988614D01*
X128874000Y-82000000D01*
X115136649Y-82000000D01*
X115068528Y-81979998D01*
X115022035Y-81926342D01*
X115011931Y-81856068D01*
X115014505Y-81843068D01*
X115042125Y-81733998D01*
X115044564Y-81724368D01*
X115063156Y-81500000D01*
X115045750Y-81289951D01*
X115060059Y-81220415D01*
X115082219Y-81190460D01*
X116089165Y-80183516D01*
X116172173Y-80059285D01*
X116172174Y-80059284D01*
X116229351Y-79921246D01*
X116258500Y-79774706D01*
X116258500Y-78500000D01*
X122186502Y-78500000D01*
X122206457Y-78728086D01*
X122265715Y-78949240D01*
X122265717Y-78949246D01*
X122362477Y-79156749D01*
X122486328Y-79333627D01*
X122493802Y-79344300D01*
X122655700Y-79506198D01*
X122843251Y-79637523D01*
X123050757Y-79734284D01*
X123271913Y-79793543D01*
X123500000Y-79813498D01*
X123728087Y-79793543D01*
X123949243Y-79734284D01*
X124156749Y-79637523D01*
X124344300Y-79506198D01*
X124506198Y-79344300D01*
X124637523Y-79156749D01*
X124637523Y-79156748D01*
X124637525Y-79156746D01*
X124640274Y-79151985D01*
X124642082Y-79153028D01*
X124682990Y-79106561D01*
X124751265Y-79087095D01*
X124819227Y-79107631D01*
X124858349Y-79152779D01*
X124860161Y-79151734D01*
X124862913Y-79156501D01*
X124912899Y-79227888D01*
X125600000Y-78540788D01*
X125600000Y-78552661D01*
X125627259Y-78654394D01*
X125679920Y-78745606D01*
X125754394Y-78820080D01*
X125845606Y-78872741D01*
X125947339Y-78900000D01*
X125959210Y-78900000D01*
X125272110Y-79587098D01*
X125272110Y-79587100D01*
X125343498Y-79637086D01*
X125550926Y-79733811D01*
X125550931Y-79733813D01*
X125771999Y-79793048D01*
X125771995Y-79793048D01*
X126000000Y-79812995D01*
X126228002Y-79793048D01*
X126449068Y-79733813D01*
X126449073Y-79733811D01*
X126656497Y-79637088D01*
X126727888Y-79587099D01*
X126727888Y-79587097D01*
X126040791Y-78900000D01*
X126052661Y-78900000D01*
X126154394Y-78872741D01*
X126245606Y-78820080D01*
X126320080Y-78745606D01*
X126372741Y-78654394D01*
X126400000Y-78552661D01*
X126400000Y-78540791D01*
X127087097Y-79227888D01*
X127087099Y-79227888D01*
X127137088Y-79156497D01*
X127233811Y-78949073D01*
X127233813Y-78949068D01*
X127293048Y-78728002D01*
X127312995Y-78500000D01*
X127293048Y-78271997D01*
X127233813Y-78050931D01*
X127233811Y-78050926D01*
X127137086Y-77843498D01*
X127087100Y-77772110D01*
X127087098Y-77772110D01*
X126400000Y-78459208D01*
X126400000Y-78447339D01*
X126372741Y-78345606D01*
X126320080Y-78254394D01*
X126245606Y-78179920D01*
X126154394Y-78127259D01*
X126052661Y-78100000D01*
X126040790Y-78100000D01*
X126727888Y-77412899D01*
X126727888Y-77412898D01*
X126656501Y-77362913D01*
X126449073Y-77266188D01*
X126449068Y-77266186D01*
X126228000Y-77206951D01*
X126228004Y-77206951D01*
X126000000Y-77187004D01*
X125771997Y-77206951D01*
X125550931Y-77266186D01*
X125550926Y-77266188D01*
X125343500Y-77362913D01*
X125272109Y-77412900D01*
X125959209Y-78100000D01*
X125947339Y-78100000D01*
X125845606Y-78127259D01*
X125754394Y-78179920D01*
X125679920Y-78254394D01*
X125627259Y-78345606D01*
X125600000Y-78447339D01*
X125600000Y-78459209D01*
X124912900Y-77772109D01*
X124862912Y-77843501D01*
X124860161Y-77848267D01*
X124858288Y-77847185D01*
X124817536Y-77893455D01*
X124749256Y-77912905D01*
X124681299Y-77892352D01*
X124642018Y-77847008D01*
X124640274Y-77848015D01*
X124637525Y-77843253D01*
X124506200Y-77655703D01*
X124506195Y-77655697D01*
X124344302Y-77493804D01*
X124344296Y-77493799D01*
X124156749Y-77362477D01*
X123949246Y-77265717D01*
X123949240Y-77265715D01*
X123855771Y-77240670D01*
X123728087Y-77206457D01*
X123500000Y-77186502D01*
X123271913Y-77206457D01*
X123050759Y-77265715D01*
X123050753Y-77265717D01*
X122843250Y-77362477D01*
X122655703Y-77493799D01*
X122655697Y-77493804D01*
X122493804Y-77655697D01*
X122493799Y-77655703D01*
X122362477Y-77843250D01*
X122265717Y-78050753D01*
X122265715Y-78050759D01*
X122206457Y-78271913D01*
X122186502Y-78500000D01*
X116258500Y-78500000D01*
X116258500Y-71603465D01*
X121449500Y-71603465D01*
X121489870Y-71806420D01*
X121569059Y-71997598D01*
X121684023Y-72169655D01*
X121684024Y-72169656D01*
X121684029Y-72169662D01*
X121830337Y-72315970D01*
X121830343Y-72315975D01*
X121830345Y-72315977D01*
X122002402Y-72430941D01*
X122193580Y-72510130D01*
X122396535Y-72550500D01*
X122396536Y-72550500D01*
X122603464Y-72550500D01*
X122603465Y-72550500D01*
X122806420Y-72510130D01*
X122997598Y-72430941D01*
X123169655Y-72315977D01*
X123315977Y-72169655D01*
X123430941Y-71997598D01*
X123510130Y-71806420D01*
X123550500Y-71603465D01*
X123550500Y-71396535D01*
X123510130Y-71193580D01*
X123430941Y-71002402D01*
X123315977Y-70830345D01*
X123315975Y-70830343D01*
X123315970Y-70830337D01*
X123169662Y-70684029D01*
X123169656Y-70684024D01*
X123169655Y-70684023D01*
X122997598Y-70569059D01*
X122806420Y-70489870D01*
X122603467Y-70449500D01*
X122603465Y-70449500D01*
X122396535Y-70449500D01*
X122396532Y-70449500D01*
X122193579Y-70489870D01*
X122193574Y-70489872D01*
X122002402Y-70569059D01*
X121830343Y-70684024D01*
X121830337Y-70684029D01*
X121684029Y-70830337D01*
X121684024Y-70830343D01*
X121569059Y-71002402D01*
X121489872Y-71193574D01*
X121489870Y-71193579D01*
X121449500Y-71396532D01*
X121449500Y-71396535D01*
X121449500Y-71603465D01*
X116258500Y-71603465D01*
X116258500Y-64306370D01*
X116278502Y-64238249D01*
X116295400Y-64217280D01*
X121594577Y-58918102D01*
X121656887Y-58884078D01*
X121727702Y-58889143D01*
X121784538Y-58931690D01*
X121805814Y-58976268D01*
X121865476Y-59211870D01*
X121865477Y-59211871D01*
X121865478Y-59211874D01*
X121961892Y-59431677D01*
X122093171Y-59632613D01*
X122093174Y-59632617D01*
X122093176Y-59632619D01*
X122255725Y-59809195D01*
X122255731Y-59809201D01*
X122255734Y-59809203D01*
X122255737Y-59809206D01*
X122385967Y-59910569D01*
X122427438Y-59968194D01*
X122431171Y-60039092D01*
X122395981Y-60100754D01*
X122385967Y-60109431D01*
X122255737Y-60210793D01*
X122255725Y-60210804D01*
X122093176Y-60387380D01*
X121961892Y-60588323D01*
X121865477Y-60808128D01*
X121865476Y-60808129D01*
X121806558Y-61040793D01*
X121786736Y-61280000D01*
X121806558Y-61519206D01*
X121865476Y-61751870D01*
X121865477Y-61751871D01*
X121865478Y-61751874D01*
X121961892Y-61971677D01*
X122093171Y-62172613D01*
X122093174Y-62172617D01*
X122093176Y-62172619D01*
X122255725Y-62349195D01*
X122255731Y-62349201D01*
X122255734Y-62349203D01*
X122255737Y-62349206D01*
X122385967Y-62450569D01*
X122427438Y-62508194D01*
X122431171Y-62579092D01*
X122395981Y-62640754D01*
X122385967Y-62649431D01*
X122255737Y-62750793D01*
X122255725Y-62750804D01*
X122093176Y-62927380D01*
X122093172Y-62927385D01*
X122093171Y-62927387D01*
X121974635Y-63108819D01*
X121961892Y-63128323D01*
X121865477Y-63348128D01*
X121865476Y-63348129D01*
X121806558Y-63580793D01*
X121786736Y-63820000D01*
X121806558Y-64059206D01*
X121865476Y-64291870D01*
X121865477Y-64291871D01*
X121865478Y-64291874D01*
X121961892Y-64511677D01*
X122093171Y-64712613D01*
X122093174Y-64712617D01*
X122093176Y-64712619D01*
X122255725Y-64889195D01*
X122255731Y-64889201D01*
X122255734Y-64889203D01*
X122255737Y-64889206D01*
X122385967Y-64990569D01*
X122427438Y-65048194D01*
X122431171Y-65119092D01*
X122395981Y-65180754D01*
X122385967Y-65189431D01*
X122255737Y-65290793D01*
X122255725Y-65290804D01*
X122093176Y-65467380D01*
X121961892Y-65668323D01*
X121865477Y-65888128D01*
X121865476Y-65888129D01*
X121806558Y-66120793D01*
X121786736Y-66360000D01*
X121806558Y-66599206D01*
X121865476Y-66831870D01*
X121865477Y-66831871D01*
X121865478Y-66831874D01*
X121961892Y-67051677D01*
X122093171Y-67252613D01*
X122093174Y-67252617D01*
X122093176Y-67252619D01*
X122255725Y-67429195D01*
X122255731Y-67429201D01*
X122445140Y-67576624D01*
X122656231Y-67690860D01*
X122883245Y-67768795D01*
X123119990Y-67808300D01*
X123119994Y-67808300D01*
X123360006Y-67808300D01*
X123360010Y-67808300D01*
X123596755Y-67768795D01*
X123823769Y-67690860D01*
X124034860Y-67576624D01*
X124224269Y-67429201D01*
X124386829Y-67252613D01*
X124518108Y-67051677D01*
X124614522Y-66831874D01*
X124673443Y-66599199D01*
X124693264Y-66360000D01*
X124673443Y-66120801D01*
X124614522Y-65888126D01*
X124518108Y-65668323D01*
X124386829Y-65467387D01*
X124224269Y-65290799D01*
X124094031Y-65189430D01*
X124052561Y-65131807D01*
X124048827Y-65060908D01*
X124084017Y-64999246D01*
X124094031Y-64990569D01*
X124224269Y-64889201D01*
X124386829Y-64712613D01*
X124518108Y-64511677D01*
X124614522Y-64291874D01*
X124673443Y-64059199D01*
X124693264Y-63820000D01*
X124673443Y-63580801D01*
X124614522Y-63348126D01*
X124518108Y-63128323D01*
X124386829Y-62927387D01*
X124355839Y-62893723D01*
X124224274Y-62750804D01*
X124224272Y-62750802D01*
X124224269Y-62750799D01*
X124094031Y-62649430D01*
X124052561Y-62591807D01*
X124048827Y-62520908D01*
X124084017Y-62459246D01*
X124094031Y-62450569D01*
X124224269Y-62349201D01*
X124386829Y-62172613D01*
X124518108Y-61971677D01*
X124614522Y-61751874D01*
X124673443Y-61519199D01*
X124693264Y-61280000D01*
X124673443Y-61040801D01*
X124614522Y-60808126D01*
X124518108Y-60588323D01*
X124386829Y-60387387D01*
X124224269Y-60210799D01*
X124094031Y-60109430D01*
X124052561Y-60051807D01*
X124048827Y-59980908D01*
X124084017Y-59919246D01*
X124094031Y-59910569D01*
X124224269Y-59809201D01*
X124386829Y-59632613D01*
X124518108Y-59431677D01*
X124614522Y-59211874D01*
X124673443Y-58979199D01*
X124693264Y-58740000D01*
X124673443Y-58500801D01*
X124614522Y-58268126D01*
X124518108Y-58048323D01*
X124386829Y-57847387D01*
X124224269Y-57670799D01*
X124094031Y-57569430D01*
X124052561Y-57511807D01*
X124048827Y-57440908D01*
X124084017Y-57379246D01*
X124094031Y-57370569D01*
X124224269Y-57269201D01*
X124386829Y-57092613D01*
X124518108Y-56891677D01*
X124614522Y-56671874D01*
X124673443Y-56439199D01*
X124693264Y-56200000D01*
X124673443Y-55960801D01*
X124614522Y-55728126D01*
X124518108Y-55508323D01*
X124386829Y-55307387D01*
X124224269Y-55130799D01*
X124094031Y-55029430D01*
X124052561Y-54971807D01*
X124048827Y-54900908D01*
X124084017Y-54839246D01*
X124094031Y-54830569D01*
X124224269Y-54729201D01*
X124386829Y-54552613D01*
X124518108Y-54351677D01*
X124614522Y-54131874D01*
X124673443Y-53899199D01*
X124693264Y-53660000D01*
X124673443Y-53420801D01*
X124614522Y-53188126D01*
X124518108Y-52968323D01*
X124386829Y-52767387D01*
X124224269Y-52590799D01*
X124094031Y-52489430D01*
X124052561Y-52431807D01*
X124048827Y-52360908D01*
X124084017Y-52299246D01*
X124094031Y-52290569D01*
X124224269Y-52189201D01*
X124386829Y-52012613D01*
X124518108Y-51811677D01*
X124614522Y-51591874D01*
X124673443Y-51359199D01*
X124693264Y-51120000D01*
X124673443Y-50880801D01*
X124614522Y-50648126D01*
X124518108Y-50428323D01*
X124386829Y-50227387D01*
X124224269Y-50050799D01*
X124094031Y-49949430D01*
X124052561Y-49891807D01*
X124048827Y-49820908D01*
X124084017Y-49759246D01*
X124094031Y-49750569D01*
X124224269Y-49649201D01*
X124386829Y-49472613D01*
X124518108Y-49271677D01*
X124614522Y-49051874D01*
X124673443Y-48819199D01*
X124693264Y-48580000D01*
X124673443Y-48340801D01*
X124614522Y-48108126D01*
X124518108Y-47888323D01*
X124386829Y-47687387D01*
X124224269Y-47510799D01*
X124094031Y-47409430D01*
X124052561Y-47351807D01*
X124048827Y-47280908D01*
X124084017Y-47219246D01*
X124094031Y-47210569D01*
X124224269Y-47109201D01*
X124386829Y-46932613D01*
X124518108Y-46731677D01*
X124614522Y-46511874D01*
X124673443Y-46279199D01*
X124693264Y-46040000D01*
X124673443Y-45800801D01*
X124614522Y-45568126D01*
X124518108Y-45348323D01*
X124386829Y-45147387D01*
X124224269Y-44970799D01*
X124094031Y-44869430D01*
X124052561Y-44811807D01*
X124048827Y-44740908D01*
X124084017Y-44679246D01*
X124094031Y-44670569D01*
X124224269Y-44569201D01*
X124386829Y-44392613D01*
X124518108Y-44191677D01*
X124614522Y-43971874D01*
X124673443Y-43739199D01*
X124693264Y-43500000D01*
X124673443Y-43260801D01*
X124614522Y-43028126D01*
X124518108Y-42808323D01*
X124386829Y-42607387D01*
X124224269Y-42430799D01*
X124093623Y-42329113D01*
X124052153Y-42271488D01*
X124048419Y-42200590D01*
X124068672Y-42165100D01*
X124069679Y-42148888D01*
X123371481Y-41450690D01*
X123436081Y-41433381D01*
X123551920Y-41366502D01*
X123646502Y-41271920D01*
X123713381Y-41156081D01*
X123730690Y-41091481D01*
X124427955Y-41788746D01*
X124427956Y-41788746D01*
X124517667Y-41651434D01*
X124614045Y-41431714D01*
X124614048Y-41431707D01*
X124672946Y-41199124D01*
X124692761Y-40960000D01*
X124672946Y-40720875D01*
X124614048Y-40488292D01*
X124614045Y-40488285D01*
X124517667Y-40268565D01*
X124427956Y-40131252D01*
X123730690Y-40828518D01*
X123713381Y-40763919D01*
X123646502Y-40648080D01*
X123551920Y-40553498D01*
X123436081Y-40486619D01*
X123371480Y-40469309D01*
X124069677Y-39771111D01*
X124068661Y-39754735D01*
X124084403Y-39685506D01*
X124120354Y-39644994D01*
X124222722Y-39570620D01*
X124390620Y-39402722D01*
X124530185Y-39210627D01*
X124637982Y-38999063D01*
X124711356Y-38773241D01*
X124748501Y-38538722D01*
X124748501Y-38301278D01*
X124711356Y-38066759D01*
X124637982Y-37840937D01*
X124530185Y-37629373D01*
X124390620Y-37437279D01*
X124390618Y-37437276D01*
X124390615Y-37437273D01*
X121975030Y-35021689D01*
X121975010Y-35021667D01*
X121802727Y-34849384D01*
X121802724Y-34849382D01*
X121802722Y-34849380D01*
X121610627Y-34709815D01*
X121399063Y-34602018D01*
X121399060Y-34602017D01*
X121399058Y-34602016D01*
X121173245Y-34528645D01*
X121173243Y-34528644D01*
X121173241Y-34528644D01*
X120938722Y-34491499D01*
X120701278Y-34491499D01*
X120696085Y-34491499D01*
X120696061Y-34491500D01*
X106381278Y-34491500D01*
X106146759Y-34528644D01*
X106146753Y-34528645D01*
X105920941Y-34602016D01*
X105920935Y-34602019D01*
X105709369Y-34709817D01*
X105517277Y-34849380D01*
X105433329Y-34933329D01*
X105349380Y-35017278D01*
X105349377Y-35017281D01*
X95017281Y-45349377D01*
X95017278Y-45349380D01*
X94933329Y-45433329D01*
X94849380Y-45517277D01*
X94812437Y-45568126D01*
X94709817Y-45709369D01*
X94602019Y-45920935D01*
X94602016Y-45920941D01*
X94528645Y-46146754D01*
X94491499Y-46381281D01*
X94491499Y-46623914D01*
X94491500Y-46623939D01*
X94491500Y-66822968D01*
X94471498Y-66891089D01*
X94454595Y-66912063D01*
X92349384Y-69017273D01*
X92349381Y-69017276D01*
X92209817Y-69209369D01*
X92102019Y-69420935D01*
X92102016Y-69420941D01*
X92028645Y-69646754D01*
X92028644Y-69646757D01*
X92028644Y-69646759D01*
X91991499Y-69881278D01*
X91991499Y-70118722D01*
X92028644Y-70353241D01*
X92028645Y-70353245D01*
X92098767Y-70569059D01*
X92102018Y-70579063D01*
X92155501Y-70684029D01*
X92209817Y-70790630D01*
X92349381Y-70982723D01*
X92517276Y-71150618D01*
X92517279Y-71150620D01*
X92709373Y-71290185D01*
X92920937Y-71397982D01*
X93146759Y-71471356D01*
X93381278Y-71508501D01*
X93381281Y-71508501D01*
X93618719Y-71508501D01*
X93618722Y-71508501D01*
X93853241Y-71471356D01*
X94079063Y-71397982D01*
X94290627Y-71290185D01*
X94482721Y-71150620D01*
X96975540Y-68657799D01*
X96975553Y-68657789D01*
X97150615Y-68482727D01*
X97150620Y-68482722D01*
X97290185Y-68290627D01*
X97397982Y-68079063D01*
X97471356Y-67853241D01*
X97497075Y-67690860D01*
X97508501Y-67618722D01*
X97508501Y-67381278D01*
X97508501Y-67376821D01*
X97508500Y-67376791D01*
X97508500Y-47177030D01*
X97528502Y-47108909D01*
X97545400Y-47087940D01*
X106333810Y-38299529D01*
X106396120Y-38265505D01*
X106466935Y-38270570D01*
X106523771Y-38313117D01*
X106548582Y-38379637D01*
X106548473Y-38399027D01*
X106546736Y-38419996D01*
X106546736Y-38420000D01*
X106556573Y-38538718D01*
X106566558Y-38659206D01*
X106625476Y-38891870D01*
X106625477Y-38891871D01*
X106625478Y-38891874D01*
X106721892Y-39111677D01*
X106853171Y-39312613D01*
X106853174Y-39312617D01*
X106853176Y-39312619D01*
X106936126Y-39402727D01*
X107015731Y-39489201D01*
X107015734Y-39489203D01*
X107015737Y-39489206D01*
X107145967Y-39590569D01*
X107187438Y-39648194D01*
X107191171Y-39719092D01*
X107155981Y-39780754D01*
X107145967Y-39789431D01*
X107015737Y-39890793D01*
X107015725Y-39890804D01*
X106853176Y-40067380D01*
X106853172Y-40067385D01*
X106853171Y-40067387D01*
X106811446Y-40131252D01*
X106721892Y-40268323D01*
X106625477Y-40488128D01*
X106625476Y-40488129D01*
X106566558Y-40720793D01*
X106546736Y-40960000D01*
X106566558Y-41199206D01*
X106625476Y-41431870D01*
X106625477Y-41431871D01*
X106625478Y-41431874D01*
X106721892Y-41651677D01*
X106853171Y-41852613D01*
X106853174Y-41852617D01*
X106853176Y-41852619D01*
X107015725Y-42029195D01*
X107015731Y-42029201D01*
X107015734Y-42029203D01*
X107015737Y-42029206D01*
X107145967Y-42130569D01*
X107187438Y-42188194D01*
X107191171Y-42259092D01*
X107155981Y-42320754D01*
X107145967Y-42329431D01*
X107015737Y-42430793D01*
X107015725Y-42430804D01*
X106853176Y-42607380D01*
X106721892Y-42808323D01*
X106625477Y-43028128D01*
X106625476Y-43028129D01*
X106566558Y-43260793D01*
X106546736Y-43500000D01*
X106566558Y-43739206D01*
X106625476Y-43971870D01*
X106625477Y-43971871D01*
X106625478Y-43971874D01*
X106721892Y-44191677D01*
X106853171Y-44392613D01*
X106853174Y-44392617D01*
X106853176Y-44392619D01*
X107015725Y-44569195D01*
X107015731Y-44569201D01*
X107015734Y-44569203D01*
X107015737Y-44569206D01*
X107145967Y-44670569D01*
X107187438Y-44728194D01*
X107191171Y-44799092D01*
X107155981Y-44860754D01*
X107145967Y-44869431D01*
X107015737Y-44970793D01*
X107015725Y-44970804D01*
X106853176Y-45147380D01*
X106721892Y-45348323D01*
X106625478Y-45568126D01*
X106566558Y-45800793D01*
X106566557Y-45800799D01*
X106566557Y-45800801D01*
X106546736Y-46040000D01*
X106555582Y-46146759D01*
X106566558Y-46279206D01*
X106625476Y-46511870D01*
X106625477Y-46511871D01*
X106625478Y-46511874D01*
X106721892Y-46731677D01*
X106853171Y-46932613D01*
X106853174Y-46932617D01*
X106853176Y-46932619D01*
X106996154Y-47087935D01*
X107015731Y-47109201D01*
X107015734Y-47109203D01*
X107015737Y-47109206D01*
X107145967Y-47210569D01*
X107187438Y-47268194D01*
X107191171Y-47339092D01*
X107155981Y-47400754D01*
X107145967Y-47409431D01*
X107015737Y-47510793D01*
X107015725Y-47510804D01*
X106853176Y-47687380D01*
X106721892Y-47888323D01*
X106625477Y-48108128D01*
X106625476Y-48108129D01*
X106566558Y-48340793D01*
X106546736Y-48580000D01*
X106566558Y-48819206D01*
X106625476Y-49051870D01*
X106625477Y-49051871D01*
X106625478Y-49051874D01*
X106721892Y-49271677D01*
X106853171Y-49472613D01*
X106853174Y-49472617D01*
X106853176Y-49472619D01*
X107015725Y-49649195D01*
X107015731Y-49649201D01*
X107015734Y-49649203D01*
X107015737Y-49649206D01*
X107145967Y-49750569D01*
X107187438Y-49808194D01*
X107191171Y-49879092D01*
X107155981Y-49940754D01*
X107145967Y-49949431D01*
X107015737Y-50050793D01*
X107015725Y-50050804D01*
X106853176Y-50227380D01*
X106721892Y-50428323D01*
X106625477Y-50648128D01*
X106625476Y-50648129D01*
X106566558Y-50880793D01*
X106546736Y-51120000D01*
X106566558Y-51359206D01*
X106625476Y-51591870D01*
X106625477Y-51591871D01*
X106625478Y-51591874D01*
X106721892Y-51811677D01*
X106853171Y-52012613D01*
X106853174Y-52012617D01*
X106853176Y-52012619D01*
X107015725Y-52189195D01*
X107015731Y-52189201D01*
X107015734Y-52189203D01*
X107015737Y-52189206D01*
X107145967Y-52290569D01*
X107187438Y-52348194D01*
X107191171Y-52419092D01*
X107155981Y-52480754D01*
X107145967Y-52489431D01*
X107015737Y-52590793D01*
X107015725Y-52590804D01*
X106853176Y-52767380D01*
X106721892Y-52968323D01*
X106625477Y-53188128D01*
X106625476Y-53188129D01*
X106566558Y-53420793D01*
X106566557Y-53420799D01*
X106566557Y-53420801D01*
X106546736Y-53660000D01*
X106566314Y-53896269D01*
X106566558Y-53899206D01*
X106625476Y-54131870D01*
X106625477Y-54131871D01*
X106625478Y-54131874D01*
X106721892Y-54351677D01*
X106853171Y-54552613D01*
X106853174Y-54552617D01*
X106853176Y-54552619D01*
X107015725Y-54729195D01*
X107015731Y-54729201D01*
X107015734Y-54729203D01*
X107015737Y-54729206D01*
X107145967Y-54830569D01*
X107187438Y-54888194D01*
X107191171Y-54959092D01*
X107155981Y-55020754D01*
X107145967Y-55029431D01*
X107015737Y-55130793D01*
X107015725Y-55130804D01*
X106853176Y-55307380D01*
X106721892Y-55508323D01*
X106625477Y-55728128D01*
X106625476Y-55728129D01*
X106566558Y-55960793D01*
X106566557Y-55960799D01*
X106566557Y-55960801D01*
X106546736Y-56200000D01*
X106566314Y-56436271D01*
X106566558Y-56439206D01*
X106625476Y-56671870D01*
X106625477Y-56671871D01*
X106625478Y-56671874D01*
X106721892Y-56891677D01*
X106853171Y-57092613D01*
X106853174Y-57092617D01*
X106853176Y-57092619D01*
X107015725Y-57269195D01*
X107015731Y-57269201D01*
X107015734Y-57269203D01*
X107015737Y-57269206D01*
X107145967Y-57370569D01*
X107187438Y-57428194D01*
X107191171Y-57499092D01*
X107155981Y-57560754D01*
X107145967Y-57569431D01*
X107015737Y-57670793D01*
X107015725Y-57670804D01*
X106853176Y-57847380D01*
X106721892Y-58048323D01*
X106625477Y-58268128D01*
X106625476Y-58268129D01*
X106566558Y-58500793D01*
X106566557Y-58500799D01*
X106566557Y-58500801D01*
X106546736Y-58740000D01*
X106566314Y-58976268D01*
X106566558Y-58979206D01*
X106625476Y-59211870D01*
X106625477Y-59211871D01*
X106625478Y-59211874D01*
X106721892Y-59431677D01*
X106853171Y-59632613D01*
X106853174Y-59632617D01*
X106853176Y-59632619D01*
X107015725Y-59809195D01*
X107015731Y-59809201D01*
X107015734Y-59809203D01*
X107015737Y-59809206D01*
X107145967Y-59910569D01*
X107187438Y-59968194D01*
X107191171Y-60039092D01*
X107155981Y-60100754D01*
X107145967Y-60109431D01*
X107015737Y-60210793D01*
X107015725Y-60210804D01*
X106853176Y-60387380D01*
X106721892Y-60588323D01*
X106625477Y-60808128D01*
X106625476Y-60808129D01*
X106566558Y-61040793D01*
X106546736Y-61280000D01*
X106566558Y-61519206D01*
X106625476Y-61751870D01*
X106625477Y-61751871D01*
X106625478Y-61751874D01*
X106721892Y-61971677D01*
X106853171Y-62172613D01*
X106853174Y-62172617D01*
X106853176Y-62172619D01*
X107015725Y-62349195D01*
X107015731Y-62349201D01*
X107015734Y-62349203D01*
X107015737Y-62349206D01*
X107145967Y-62450569D01*
X107187438Y-62508194D01*
X107191171Y-62579092D01*
X107155981Y-62640754D01*
X107145967Y-62649431D01*
X107015737Y-62750793D01*
X107015725Y-62750804D01*
X106853176Y-62927380D01*
X106853172Y-62927385D01*
X106853171Y-62927387D01*
X106734635Y-63108819D01*
X106721892Y-63128323D01*
X106625477Y-63348128D01*
X106625476Y-63348129D01*
X106566558Y-63580793D01*
X106546736Y-63820000D01*
X106566558Y-64059206D01*
X106625476Y-64291870D01*
X106625477Y-64291871D01*
X106625478Y-64291874D01*
X106721892Y-64511677D01*
X106853171Y-64712613D01*
X106853174Y-64712617D01*
X106853176Y-64712619D01*
X107015725Y-64889195D01*
X107015731Y-64889201D01*
X107015734Y-64889203D01*
X107015737Y-64889206D01*
X107145967Y-64990569D01*
X107187438Y-65048194D01*
X107191171Y-65119092D01*
X107155981Y-65180754D01*
X107145967Y-65189431D01*
X107015737Y-65290793D01*
X107015725Y-65290804D01*
X106853176Y-65467380D01*
X106721892Y-65668323D01*
X106625477Y-65888128D01*
X106625476Y-65888129D01*
X106566558Y-66120793D01*
X106546736Y-66360000D01*
X106566558Y-66599206D01*
X106625476Y-66831870D01*
X106625477Y-66831871D01*
X106625478Y-66831874D01*
X106721892Y-67051677D01*
X106853171Y-67252613D01*
X106853174Y-67252617D01*
X106853176Y-67252619D01*
X107015725Y-67429195D01*
X107015731Y-67429201D01*
X107205140Y-67576624D01*
X107416231Y-67690860D01*
X107643245Y-67768795D01*
X107879990Y-67808300D01*
X107879994Y-67808300D01*
X108120006Y-67808300D01*
X108120010Y-67808300D01*
X108356755Y-67768795D01*
X108583769Y-67690860D01*
X108794860Y-67576624D01*
X108984269Y-67429201D01*
X109146829Y-67252613D01*
X109278108Y-67051677D01*
X109374522Y-66831874D01*
X109433443Y-66599199D01*
X109453264Y-66360000D01*
X109433443Y-66120801D01*
X109374522Y-65888126D01*
X109278108Y-65668323D01*
X109146829Y-65467387D01*
X108984269Y-65290799D01*
X108854031Y-65189430D01*
X108812561Y-65131807D01*
X108808827Y-65060908D01*
X108844017Y-64999246D01*
X108854031Y-64990569D01*
X108984269Y-64889201D01*
X109146829Y-64712613D01*
X109278108Y-64511677D01*
X109374522Y-64291874D01*
X109433443Y-64059199D01*
X109453264Y-63820000D01*
X109433443Y-63580801D01*
X109374522Y-63348126D01*
X109278108Y-63128323D01*
X109146829Y-62927387D01*
X109115839Y-62893723D01*
X108984274Y-62750804D01*
X108984272Y-62750802D01*
X108984269Y-62750799D01*
X108854031Y-62649430D01*
X108812561Y-62591807D01*
X108808827Y-62520908D01*
X108844017Y-62459246D01*
X108854031Y-62450569D01*
X108984269Y-62349201D01*
X109146829Y-62172613D01*
X109278108Y-61971677D01*
X109374522Y-61751874D01*
X109433443Y-61519199D01*
X109453264Y-61280000D01*
X109433443Y-61040801D01*
X109374522Y-60808126D01*
X109278108Y-60588323D01*
X109146829Y-60387387D01*
X108984269Y-60210799D01*
X108854031Y-60109430D01*
X108812561Y-60051807D01*
X108808827Y-59980908D01*
X108844017Y-59919246D01*
X108854031Y-59910569D01*
X108984269Y-59809201D01*
X109146829Y-59632613D01*
X109278108Y-59431677D01*
X109374522Y-59211874D01*
X109433443Y-58979199D01*
X109453264Y-58740000D01*
X109433443Y-58500801D01*
X109374522Y-58268126D01*
X109278108Y-58048323D01*
X109146829Y-57847387D01*
X108984269Y-57670799D01*
X108854031Y-57569430D01*
X108812561Y-57511807D01*
X108808827Y-57440908D01*
X108844017Y-57379246D01*
X108854031Y-57370569D01*
X108984269Y-57269201D01*
X109146829Y-57092613D01*
X109278108Y-56891677D01*
X109374522Y-56671874D01*
X109433443Y-56439199D01*
X109453264Y-56200000D01*
X109433443Y-55960801D01*
X109374522Y-55728126D01*
X109278108Y-55508323D01*
X109146829Y-55307387D01*
X108984269Y-55130799D01*
X108854031Y-55029430D01*
X108812561Y-54971807D01*
X108808827Y-54900908D01*
X108844017Y-54839246D01*
X108854031Y-54830569D01*
X108984269Y-54729201D01*
X109146829Y-54552613D01*
X109278108Y-54351677D01*
X109374522Y-54131874D01*
X109433443Y-53899199D01*
X109433443Y-53899193D01*
X109434184Y-53896269D01*
X109470297Y-53835143D01*
X109533724Y-53803244D01*
X109604328Y-53810701D01*
X109645424Y-53838105D01*
X112704595Y-56897276D01*
X112738621Y-56959588D01*
X112741500Y-56986371D01*
X112741500Y-76253628D01*
X112721498Y-76321749D01*
X112704595Y-76342723D01*
X108926904Y-80120413D01*
X108864592Y-80154439D01*
X108817072Y-80155600D01*
X108771577Y-80148009D01*
X108732569Y-80141500D01*
X108507431Y-80141500D01*
X108362971Y-80165606D01*
X108285369Y-80178555D01*
X108285360Y-80178557D01*
X108072428Y-80251656D01*
X108072426Y-80251658D01*
X107874426Y-80358810D01*
X107874424Y-80358811D01*
X107696762Y-80497091D01*
X107544279Y-80662729D01*
X107455483Y-80798643D01*
X107401479Y-80844731D01*
X107331131Y-80854306D01*
X107266774Y-80824329D01*
X107244517Y-80798643D01*
X107155720Y-80662729D01*
X107039570Y-80536559D01*
X107003240Y-80497094D01*
X107003239Y-80497093D01*
X107003237Y-80497091D01*
X106883367Y-80403792D01*
X106825576Y-80358811D01*
X106627574Y-80251658D01*
X106627572Y-80251657D01*
X106627571Y-80251656D01*
X106414639Y-80178557D01*
X106414630Y-80178555D01*
X106337029Y-80165606D01*
X106192569Y-80141500D01*
X105967431Y-80141500D01*
X105822971Y-80165606D01*
X105745369Y-80178555D01*
X105745360Y-80178557D01*
X105532428Y-80251656D01*
X105532426Y-80251658D01*
X105334426Y-80358810D01*
X105334424Y-80358811D01*
X105156762Y-80497091D01*
X105004279Y-80662729D01*
X104915183Y-80799101D01*
X104861179Y-80845189D01*
X104790831Y-80854764D01*
X104726474Y-80824786D01*
X104704217Y-80799100D01*
X104615327Y-80663044D01*
X104462902Y-80497465D01*
X104285301Y-80359232D01*
X104285300Y-80359231D01*
X104087371Y-80252117D01*
X104087369Y-80252116D01*
X103874512Y-80179043D01*
X103874501Y-80179040D01*
X103794000Y-80165606D01*
X103794000Y-81069297D01*
X103732993Y-81034075D01*
X103605826Y-81000000D01*
X103474174Y-81000000D01*
X103347007Y-81034075D01*
X103286000Y-81069297D01*
X103286000Y-80165607D01*
X103285999Y-80165606D01*
X103205498Y-80179040D01*
X103205487Y-80179043D01*
X102992630Y-80252116D01*
X102992628Y-80252117D01*
X102794699Y-80359231D01*
X102794698Y-80359232D01*
X102617096Y-80497465D01*
X102555951Y-80563888D01*
X102495098Y-80600459D01*
X102424134Y-80598324D01*
X102365588Y-80558163D01*
X102345195Y-80522583D01*
X102300889Y-80403796D01*
X102300887Y-80403792D01*
X102213261Y-80286738D01*
X102096207Y-80199112D01*
X102096202Y-80199110D01*
X101959204Y-80148011D01*
X101959196Y-80148009D01*
X101898649Y-80141500D01*
X101898638Y-80141500D01*
X100101362Y-80141500D01*
X100101350Y-80141500D01*
X100040803Y-80148009D01*
X100040795Y-80148011D01*
X99903797Y-80199110D01*
X99903792Y-80199112D01*
X99786738Y-80286738D01*
X99699112Y-80403792D01*
X99699110Y-80403797D01*
X99648011Y-80540795D01*
X99648009Y-80540803D01*
X99641500Y-80601350D01*
X99641500Y-81874000D01*
X99621498Y-81942121D01*
X99567842Y-81988614D01*
X99515500Y-82000000D01*
X91626000Y-82000000D01*
X91557879Y-81979998D01*
X91511386Y-81926342D01*
X91500000Y-81874000D01*
X91500000Y-78500000D01*
X92687004Y-78500000D01*
X92706951Y-78728002D01*
X92766186Y-78949068D01*
X92766188Y-78949073D01*
X92862913Y-79156501D01*
X92912899Y-79227888D01*
X93600000Y-78540788D01*
X93600000Y-78552661D01*
X93627259Y-78654394D01*
X93679920Y-78745606D01*
X93754394Y-78820080D01*
X93845606Y-78872741D01*
X93947339Y-78900000D01*
X93959210Y-78900000D01*
X93272110Y-79587098D01*
X93272110Y-79587100D01*
X93343498Y-79637086D01*
X93550926Y-79733811D01*
X93550931Y-79733813D01*
X93771999Y-79793048D01*
X93771995Y-79793048D01*
X94000000Y-79812995D01*
X94228002Y-79793048D01*
X94449068Y-79733813D01*
X94449073Y-79733811D01*
X94656497Y-79637088D01*
X94727888Y-79587099D01*
X94727888Y-79587097D01*
X94040791Y-78900000D01*
X94052661Y-78900000D01*
X94154394Y-78872741D01*
X94245606Y-78820080D01*
X94320080Y-78745606D01*
X94372741Y-78654394D01*
X94400000Y-78552661D01*
X94400000Y-78540791D01*
X95087097Y-79227888D01*
X95087099Y-79227888D01*
X95137088Y-79156496D01*
X95139841Y-79151730D01*
X95141729Y-79152820D01*
X95182384Y-79106594D01*
X95250651Y-79087094D01*
X95318622Y-79107597D01*
X95357989Y-79152987D01*
X95359726Y-79151985D01*
X95362474Y-79156746D01*
X95493799Y-79344296D01*
X95493802Y-79344300D01*
X95655700Y-79506198D01*
X95843251Y-79637523D01*
X96050757Y-79734284D01*
X96271913Y-79793543D01*
X96500000Y-79813498D01*
X96728087Y-79793543D01*
X96949243Y-79734284D01*
X97156749Y-79637523D01*
X97344300Y-79506198D01*
X97506198Y-79344300D01*
X97637523Y-79156749D01*
X97734284Y-78949243D01*
X97793543Y-78728087D01*
X97813498Y-78500000D01*
X97793543Y-78271913D01*
X97734284Y-78050757D01*
X97637523Y-77843251D01*
X97506198Y-77655700D01*
X97344300Y-77493802D01*
X97228757Y-77412898D01*
X97156749Y-77362477D01*
X96949246Y-77265717D01*
X96949240Y-77265715D01*
X96855771Y-77240670D01*
X96728087Y-77206457D01*
X96500000Y-77186502D01*
X96271913Y-77206457D01*
X96050759Y-77265715D01*
X96050753Y-77265717D01*
X95843250Y-77362477D01*
X95655703Y-77493799D01*
X95655697Y-77493804D01*
X95493804Y-77655697D01*
X95493799Y-77655703D01*
X95362474Y-77843253D01*
X95359726Y-77848015D01*
X95357931Y-77846978D01*
X95316942Y-77893480D01*
X95248653Y-77912903D01*
X95180705Y-77892324D01*
X95141655Y-77847217D01*
X95139839Y-77848266D01*
X95137086Y-77843498D01*
X95087100Y-77772110D01*
X95087098Y-77772110D01*
X94400000Y-78459208D01*
X94400000Y-78447339D01*
X94372741Y-78345606D01*
X94320080Y-78254394D01*
X94245606Y-78179920D01*
X94154394Y-78127259D01*
X94052661Y-78100000D01*
X94040790Y-78100000D01*
X94727888Y-77412899D01*
X94727888Y-77412898D01*
X94656501Y-77362913D01*
X94449073Y-77266188D01*
X94449068Y-77266186D01*
X94228000Y-77206951D01*
X94228004Y-77206951D01*
X94000000Y-77187004D01*
X93771997Y-77206951D01*
X93550931Y-77266186D01*
X93550926Y-77266188D01*
X93343500Y-77362913D01*
X93272109Y-77412900D01*
X93959209Y-78100000D01*
X93947339Y-78100000D01*
X93845606Y-78127259D01*
X93754394Y-78179920D01*
X93679920Y-78254394D01*
X93627259Y-78345606D01*
X93600000Y-78447339D01*
X93600000Y-78459209D01*
X92912900Y-77772109D01*
X92862913Y-77843500D01*
X92766188Y-78050926D01*
X92766186Y-78050931D01*
X92706951Y-78271997D01*
X92687004Y-78500000D01*
X91500000Y-78500000D01*
X91500000Y-37603467D01*
X93949500Y-37603467D01*
X93989870Y-37806420D01*
X94069059Y-37997598D01*
X94115271Y-38066759D01*
X94184024Y-38169656D01*
X94184029Y-38169662D01*
X94330337Y-38315970D01*
X94330343Y-38315975D01*
X94330345Y-38315977D01*
X94502402Y-38430941D01*
X94693580Y-38510130D01*
X94896535Y-38550500D01*
X94896536Y-38550500D01*
X95103464Y-38550500D01*
X95103465Y-38550500D01*
X95306420Y-38510130D01*
X95497598Y-38430941D01*
X95669655Y-38315977D01*
X95815977Y-38169655D01*
X95930941Y-37997598D01*
X96010130Y-37806420D01*
X96050500Y-37603465D01*
X96050500Y-37396535D01*
X96010130Y-37193580D01*
X95930941Y-37002402D01*
X95815977Y-36830345D01*
X95815975Y-36830343D01*
X95815970Y-36830337D01*
X95669662Y-36684029D01*
X95669656Y-36684024D01*
X95669655Y-36684023D01*
X95497598Y-36569059D01*
X95306420Y-36489870D01*
X95103467Y-36449500D01*
X95103465Y-36449500D01*
X94896535Y-36449500D01*
X94896532Y-36449500D01*
X94693579Y-36489870D01*
X94693574Y-36489872D01*
X94502402Y-36569059D01*
X94330343Y-36684024D01*
X94330337Y-36684029D01*
X94184029Y-36830337D01*
X94184024Y-36830343D01*
X94069059Y-37002402D01*
X93989872Y-37193574D01*
X93989870Y-37193579D01*
X93949500Y-37396532D01*
X93949500Y-37603467D01*
X91500000Y-37603467D01*
X91500000Y-34126000D01*
X91520002Y-34057879D01*
X91573658Y-34011386D01*
X91626000Y-34000000D01*
X128874000Y-34000000D01*
X128942121Y-34020002D01*
G37*
%TD.AperFunction*%
%TA.AperFunction,Conductor*%
G36*
X120211090Y-37528502D02*
G01*
X120232064Y-37545405D01*
X122257273Y-39570615D01*
X122257276Y-39570617D01*
X122257279Y-39570620D01*
X122359639Y-39644989D01*
X122402993Y-39701211D01*
X122411336Y-39754732D01*
X122410319Y-39771110D01*
X123108518Y-40469309D01*
X123043919Y-40486619D01*
X122928080Y-40553498D01*
X122833498Y-40648080D01*
X122766619Y-40763919D01*
X122749309Y-40828518D01*
X122052042Y-40131251D01*
X122052041Y-40131252D01*
X121962338Y-40268553D01*
X121962331Y-40268567D01*
X121865954Y-40488285D01*
X121865951Y-40488292D01*
X121807053Y-40720875D01*
X121787238Y-40960000D01*
X121807053Y-41199124D01*
X121865951Y-41431707D01*
X121865954Y-41431714D01*
X121962329Y-41651428D01*
X121962336Y-41651440D01*
X122052042Y-41788746D01*
X122749309Y-41091479D01*
X122766619Y-41156081D01*
X122833498Y-41271920D01*
X122928080Y-41366502D01*
X123043919Y-41433381D01*
X123108519Y-41450690D01*
X122410320Y-42148889D01*
X122411314Y-42164905D01*
X122427846Y-42187877D01*
X122431579Y-42258775D01*
X122396390Y-42320437D01*
X122386378Y-42329111D01*
X122255739Y-42430793D01*
X122255730Y-42430800D01*
X122255725Y-42430804D01*
X122093176Y-42607380D01*
X121961892Y-42808323D01*
X121865477Y-43028128D01*
X121865476Y-43028129D01*
X121806558Y-43260793D01*
X121786736Y-43500000D01*
X121806558Y-43739206D01*
X121865476Y-43971870D01*
X121865477Y-43971871D01*
X121865478Y-43971874D01*
X121961892Y-44191677D01*
X122093171Y-44392613D01*
X122093174Y-44392617D01*
X122093176Y-44392619D01*
X122255725Y-44569195D01*
X122255731Y-44569201D01*
X122255734Y-44569203D01*
X122255737Y-44569206D01*
X122385967Y-44670569D01*
X122427438Y-44728194D01*
X122431171Y-44799092D01*
X122395981Y-44860754D01*
X122385967Y-44869431D01*
X122255737Y-44970793D01*
X122255725Y-44970804D01*
X122093176Y-45147380D01*
X121961892Y-45348323D01*
X121865478Y-45568126D01*
X121806558Y-45800793D01*
X121806557Y-45800799D01*
X121806557Y-45800801D01*
X121786736Y-46040000D01*
X121795582Y-46146759D01*
X121806558Y-46279206D01*
X121865476Y-46511870D01*
X121865477Y-46511871D01*
X121865478Y-46511874D01*
X121961892Y-46731677D01*
X122093171Y-46932613D01*
X122093174Y-46932617D01*
X122093176Y-46932619D01*
X122236154Y-47087935D01*
X122255731Y-47109201D01*
X122255734Y-47109203D01*
X122255737Y-47109206D01*
X122385967Y-47210569D01*
X122427438Y-47268194D01*
X122431171Y-47339092D01*
X122395981Y-47400754D01*
X122385967Y-47409431D01*
X122255737Y-47510793D01*
X122255725Y-47510804D01*
X122093176Y-47687380D01*
X121961892Y-47888323D01*
X121865477Y-48108128D01*
X121865476Y-48108129D01*
X121806558Y-48340793D01*
X121786736Y-48580000D01*
X121806558Y-48819206D01*
X121865476Y-49051870D01*
X121865477Y-49051871D01*
X121865478Y-49051874D01*
X121961892Y-49271677D01*
X122093171Y-49472613D01*
X122093174Y-49472617D01*
X122093176Y-49472619D01*
X122255725Y-49649195D01*
X122255731Y-49649201D01*
X122255734Y-49649203D01*
X122255737Y-49649206D01*
X122385967Y-49750569D01*
X122427438Y-49808194D01*
X122431171Y-49879092D01*
X122395981Y-49940754D01*
X122385967Y-49949431D01*
X122255737Y-50050793D01*
X122255725Y-50050804D01*
X122093176Y-50227380D01*
X121961892Y-50428323D01*
X121865477Y-50648128D01*
X121865476Y-50648129D01*
X121806558Y-50880793D01*
X121786736Y-51120000D01*
X121806558Y-51359206D01*
X121865476Y-51591870D01*
X121865477Y-51591871D01*
X121865478Y-51591874D01*
X121961892Y-51811677D01*
X122093171Y-52012613D01*
X122093174Y-52012617D01*
X122093176Y-52012619D01*
X122255725Y-52189195D01*
X122255731Y-52189201D01*
X122255734Y-52189203D01*
X122255737Y-52189206D01*
X122385967Y-52290569D01*
X122427438Y-52348194D01*
X122431171Y-52419092D01*
X122395981Y-52480754D01*
X122385967Y-52489431D01*
X122255737Y-52590793D01*
X122255725Y-52590804D01*
X122093176Y-52767380D01*
X121961892Y-52968323D01*
X121865477Y-53188128D01*
X121865476Y-53188129D01*
X121806558Y-53420793D01*
X121806557Y-53420799D01*
X121806557Y-53420801D01*
X121786736Y-53660000D01*
X121806557Y-53899199D01*
X121806557Y-53899201D01*
X121806558Y-53899205D01*
X121813545Y-53926799D01*
X121810876Y-53997745D01*
X121780495Y-54046822D01*
X114473595Y-61353723D01*
X114411283Y-61387749D01*
X114340468Y-61382684D01*
X114283632Y-61340137D01*
X114258821Y-61273617D01*
X114258500Y-61264628D01*
X114258500Y-56545293D01*
X114258499Y-56545290D01*
X114256998Y-56537745D01*
X114229351Y-56398754D01*
X114172174Y-56260716D01*
X114089165Y-56136484D01*
X113983516Y-56030835D01*
X109459503Y-51506822D01*
X109425477Y-51444510D01*
X109426454Y-51386793D01*
X109433443Y-51359199D01*
X109453264Y-51120000D01*
X109433443Y-50880801D01*
X109374522Y-50648126D01*
X109278108Y-50428323D01*
X109146829Y-50227387D01*
X108984269Y-50050799D01*
X108854031Y-49949430D01*
X108812561Y-49891807D01*
X108808827Y-49820908D01*
X108844017Y-49759246D01*
X108854031Y-49750569D01*
X108984269Y-49649201D01*
X109146829Y-49472613D01*
X109278108Y-49271677D01*
X109374522Y-49051874D01*
X109433443Y-48819199D01*
X109453264Y-48580000D01*
X109433443Y-48340801D01*
X109374522Y-48108126D01*
X109278108Y-47888323D01*
X109146829Y-47687387D01*
X108984269Y-47510799D01*
X108854031Y-47409430D01*
X108812561Y-47351807D01*
X108808827Y-47280908D01*
X108844017Y-47219246D01*
X108854031Y-47210569D01*
X108984269Y-47109201D01*
X109146829Y-46932613D01*
X109278108Y-46731677D01*
X109374522Y-46511874D01*
X109433443Y-46279199D01*
X109453264Y-46040000D01*
X109433443Y-45800801D01*
X109374522Y-45568126D01*
X109278108Y-45348323D01*
X109146829Y-45147387D01*
X108984269Y-44970799D01*
X108854031Y-44869430D01*
X108812561Y-44811807D01*
X108808827Y-44740908D01*
X108844017Y-44679246D01*
X108854031Y-44670569D01*
X108984269Y-44569201D01*
X109146829Y-44392613D01*
X109278108Y-44191677D01*
X109374522Y-43971874D01*
X109433443Y-43739199D01*
X109453264Y-43500000D01*
X109433443Y-43260801D01*
X109374522Y-43028126D01*
X109278108Y-42808323D01*
X109146829Y-42607387D01*
X108984269Y-42430799D01*
X108854031Y-42329430D01*
X108812561Y-42271807D01*
X108808827Y-42200908D01*
X108844017Y-42139246D01*
X108854031Y-42130569D01*
X108984269Y-42029201D01*
X109146829Y-41852613D01*
X109278108Y-41651677D01*
X109374522Y-41431874D01*
X109433443Y-41199199D01*
X109453264Y-40960000D01*
X109433443Y-40720801D01*
X109403052Y-40600790D01*
X109374523Y-40488129D01*
X109374522Y-40488128D01*
X109374522Y-40488126D01*
X109278108Y-40268323D01*
X109146829Y-40067387D01*
X108984269Y-39890799D01*
X108854031Y-39789430D01*
X108812561Y-39731807D01*
X108808827Y-39660908D01*
X108844017Y-39599246D01*
X108854031Y-39590569D01*
X108984269Y-39489201D01*
X109146829Y-39312613D01*
X109278108Y-39111677D01*
X109374522Y-38891874D01*
X109433443Y-38659199D01*
X109453264Y-38420000D01*
X109433443Y-38180801D01*
X109430621Y-38169656D01*
X109374523Y-37948129D01*
X109374522Y-37948128D01*
X109374522Y-37948126D01*
X109278108Y-37728323D01*
X109261835Y-37703415D01*
X109241322Y-37635447D01*
X109260811Y-37567178D01*
X109314116Y-37520283D01*
X109367318Y-37508500D01*
X120142969Y-37508500D01*
X120211090Y-37528502D01*
G37*
%TD.AperFunction*%
%TD*%
%TA.AperFunction,Conductor*%
%TO.N,GND2*%
G36*
X93893635Y-88520002D02*
G01*
X93940128Y-88573658D01*
X93949093Y-88601419D01*
X93949500Y-88603465D01*
X93989870Y-88806420D01*
X94069059Y-88997598D01*
X94165002Y-89141188D01*
X94184024Y-89169656D01*
X94184029Y-89169662D01*
X94330337Y-89315970D01*
X94330343Y-89315975D01*
X94330345Y-89315977D01*
X94502402Y-89430941D01*
X94693580Y-89510130D01*
X94896535Y-89550500D01*
X94896536Y-89550500D01*
X95103464Y-89550500D01*
X95103465Y-89550500D01*
X95306420Y-89510130D01*
X95497598Y-89430941D01*
X95669655Y-89315977D01*
X95815977Y-89169655D01*
X95930941Y-88997598D01*
X96010130Y-88806420D01*
X96050500Y-88603465D01*
X96050907Y-88601419D01*
X96083815Y-88538509D01*
X96145510Y-88503377D01*
X96174486Y-88500000D01*
X99515500Y-88500000D01*
X99583621Y-88520002D01*
X99630114Y-88573658D01*
X99641500Y-88626000D01*
X99641500Y-88898649D01*
X99648009Y-88959196D01*
X99648011Y-88959204D01*
X99699110Y-89096202D01*
X99699112Y-89096207D01*
X99786738Y-89213261D01*
X99903792Y-89300887D01*
X99903794Y-89300888D01*
X99903796Y-89300889D01*
X99957600Y-89320957D01*
X100040795Y-89351988D01*
X100040803Y-89351990D01*
X100101350Y-89358499D01*
X100101355Y-89358499D01*
X100101362Y-89358500D01*
X100101368Y-89358500D01*
X101898632Y-89358500D01*
X101898638Y-89358500D01*
X101898645Y-89358499D01*
X101898649Y-89358499D01*
X101959196Y-89351990D01*
X101959199Y-89351989D01*
X101959201Y-89351989D01*
X102096204Y-89300889D01*
X102166399Y-89248342D01*
X102213261Y-89213261D01*
X102300886Y-89096208D01*
X102300885Y-89096208D01*
X102300889Y-89096204D01*
X102345196Y-88977413D01*
X102387741Y-88920581D01*
X102454262Y-88895770D01*
X102523636Y-88910862D01*
X102555952Y-88936112D01*
X102617097Y-89002534D01*
X102794698Y-89140767D01*
X102794699Y-89140768D01*
X102992628Y-89247882D01*
X102992630Y-89247883D01*
X103205483Y-89320955D01*
X103205492Y-89320957D01*
X103286000Y-89334391D01*
X103286000Y-88500000D01*
X103794000Y-88500000D01*
X103794000Y-89334390D01*
X103874507Y-89320957D01*
X103874516Y-89320955D01*
X104087369Y-89247883D01*
X104087371Y-89247882D01*
X104285300Y-89140768D01*
X104285301Y-89140767D01*
X104462902Y-89002534D01*
X104615327Y-88836955D01*
X104704218Y-88700898D01*
X104758221Y-88654809D01*
X104828569Y-88645234D01*
X104892927Y-88675211D01*
X104915180Y-88700894D01*
X104965423Y-88777797D01*
X105004278Y-88837269D01*
X105038199Y-88874115D01*
X105069622Y-88937779D01*
X105071500Y-88959454D01*
X105071500Y-99009334D01*
X105106740Y-99186498D01*
X105110254Y-99204162D01*
X105110254Y-99204163D01*
X105110255Y-99204167D01*
X105110256Y-99204168D01*
X105186279Y-99387704D01*
X105296647Y-99552881D01*
X105296649Y-99552883D01*
X106414152Y-100670387D01*
X106448178Y-100732699D01*
X106443113Y-100803515D01*
X106434177Y-100822481D01*
X106335474Y-100993441D01*
X106335473Y-100993445D01*
X106276457Y-101175072D01*
X106256496Y-101365000D01*
X106276457Y-101554927D01*
X106306526Y-101647470D01*
X106335473Y-101736556D01*
X106335476Y-101736561D01*
X106430957Y-101901940D01*
X106430958Y-101901941D01*
X106430960Y-101901944D01*
X106434296Y-101905649D01*
X106443337Y-101915690D01*
X106474054Y-101979698D01*
X106465289Y-102050152D01*
X106443337Y-102084310D01*
X106430957Y-102098059D01*
X106335476Y-102263438D01*
X106335473Y-102263445D01*
X106276457Y-102445072D01*
X106256496Y-102635000D01*
X106276457Y-102824927D01*
X106306526Y-102917470D01*
X106335473Y-103006556D01*
X106335476Y-103006561D01*
X106430958Y-103171941D01*
X106430965Y-103171951D01*
X106558744Y-103313864D01*
X106558747Y-103313866D01*
X106713248Y-103426118D01*
X106887712Y-103503794D01*
X107074513Y-103543500D01*
X107265487Y-103543500D01*
X107452288Y-103503794D01*
X107626752Y-103426118D01*
X107638524Y-103417564D01*
X107705391Y-103393706D01*
X107712587Y-103393500D01*
X111948629Y-103393500D01*
X112016750Y-103413502D01*
X112037724Y-103430405D01*
X114229595Y-105622276D01*
X114263621Y-105684588D01*
X114266500Y-105711371D01*
X114266500Y-106918649D01*
X114273009Y-106979196D01*
X114273011Y-106979204D01*
X114324110Y-107116202D01*
X114324112Y-107116207D01*
X114411738Y-107233261D01*
X114465000Y-107273132D01*
X114507547Y-107329967D01*
X114512612Y-107400783D01*
X114478586Y-107463095D01*
X114416274Y-107497121D01*
X114389491Y-107500000D01*
X109759676Y-107500000D01*
X109691555Y-107479998D01*
X109645062Y-107426342D01*
X109634958Y-107356068D01*
X109664452Y-107291488D01*
X109684166Y-107273132D01*
X109737905Y-107232902D01*
X109825444Y-107115965D01*
X109825444Y-107115964D01*
X109876494Y-106979093D01*
X109882999Y-106918597D01*
X109883000Y-106918585D01*
X109883000Y-106224000D01*
X107117000Y-106224000D01*
X107117000Y-106918597D01*
X107123505Y-106979093D01*
X107174555Y-107115964D01*
X107174555Y-107115965D01*
X107262094Y-107232902D01*
X107315834Y-107273132D01*
X107358380Y-107329968D01*
X107363444Y-107400784D01*
X107329419Y-107463096D01*
X107267106Y-107497121D01*
X107240324Y-107500000D01*
X105289823Y-107500000D01*
X105221702Y-107479998D01*
X105175209Y-107426342D01*
X105165105Y-107356068D01*
X105194599Y-107291488D01*
X105200728Y-107284905D01*
X105315970Y-107169662D01*
X105315977Y-107169655D01*
X105430941Y-106997598D01*
X105510130Y-106806420D01*
X105550500Y-106603465D01*
X105550500Y-106396535D01*
X105510130Y-106193580D01*
X105430941Y-106002402D01*
X105315977Y-105830345D01*
X105315975Y-105830343D01*
X105315970Y-105830337D01*
X105201633Y-105716000D01*
X107117000Y-105716000D01*
X108246000Y-105716000D01*
X108246000Y-104562000D01*
X108754000Y-104562000D01*
X108754000Y-105716000D01*
X109883000Y-105716000D01*
X109883000Y-105021414D01*
X109882999Y-105021402D01*
X109876494Y-104960906D01*
X109825444Y-104824035D01*
X109825444Y-104824034D01*
X109737904Y-104707095D01*
X109620965Y-104619555D01*
X109484093Y-104568505D01*
X109423597Y-104562000D01*
X108754000Y-104562000D01*
X108246000Y-104562000D01*
X107576402Y-104562000D01*
X107515906Y-104568505D01*
X107379035Y-104619555D01*
X107379034Y-104619555D01*
X107262095Y-104707095D01*
X107174555Y-104824034D01*
X107174555Y-104824035D01*
X107123505Y-104960906D01*
X107117000Y-105021402D01*
X107117000Y-105716000D01*
X105201633Y-105716000D01*
X105169662Y-105684029D01*
X105169656Y-105684024D01*
X105169655Y-105684023D01*
X104997598Y-105569059D01*
X104806420Y-105489870D01*
X104603467Y-105449500D01*
X104603465Y-105449500D01*
X104396535Y-105449500D01*
X104396532Y-105449500D01*
X104193579Y-105489870D01*
X104193574Y-105489872D01*
X104002402Y-105569059D01*
X103830343Y-105684024D01*
X103830337Y-105684029D01*
X103684029Y-105830337D01*
X103684024Y-105830343D01*
X103569059Y-106002402D01*
X103489872Y-106193574D01*
X103489870Y-106193579D01*
X103449500Y-106396532D01*
X103449500Y-106603467D01*
X103474371Y-106728500D01*
X103489870Y-106806420D01*
X103569059Y-106997598D01*
X103684023Y-107169655D01*
X103684024Y-107169656D01*
X103684029Y-107169662D01*
X103799272Y-107284905D01*
X103833298Y-107347217D01*
X103828233Y-107418032D01*
X103785686Y-107474868D01*
X103719166Y-107499679D01*
X103710177Y-107500000D01*
X101834676Y-107500000D01*
X101766555Y-107479998D01*
X101720062Y-107426342D01*
X101709958Y-107356068D01*
X101739452Y-107291488D01*
X101759166Y-107273132D01*
X101812905Y-107232902D01*
X101900444Y-107115965D01*
X101900444Y-107115964D01*
X101951494Y-106979093D01*
X101957999Y-106918597D01*
X101958000Y-106918585D01*
X101958000Y-106224000D01*
X99192000Y-106224000D01*
X99192000Y-106918597D01*
X99198505Y-106979093D01*
X99249555Y-107115964D01*
X99249555Y-107115965D01*
X99337094Y-107232902D01*
X99390834Y-107273132D01*
X99433380Y-107329968D01*
X99438444Y-107400784D01*
X99404419Y-107463096D01*
X99342106Y-107497121D01*
X99315324Y-107500000D01*
X94685509Y-107500000D01*
X94617388Y-107479998D01*
X94570895Y-107426342D01*
X94560791Y-107356068D01*
X94590285Y-107291488D01*
X94610000Y-107273132D01*
X94663261Y-107233261D01*
X94750887Y-107116207D01*
X94750887Y-107116206D01*
X94750889Y-107116204D01*
X94801989Y-106979201D01*
X94808500Y-106918638D01*
X94808500Y-106854500D01*
X94828502Y-106786379D01*
X94882158Y-106739886D01*
X94934500Y-106728500D01*
X97104701Y-106728500D01*
X97104705Y-106728500D01*
X97104706Y-106728500D01*
X97177976Y-106713925D01*
X97251247Y-106699351D01*
X97389284Y-106642174D01*
X97513515Y-106559166D01*
X98976907Y-105095773D01*
X99039217Y-105061750D01*
X99110032Y-105066814D01*
X99166868Y-105109361D01*
X99191679Y-105175881D01*
X99192000Y-105184870D01*
X99192000Y-105716000D01*
X100321000Y-105716000D01*
X100321000Y-104562000D01*
X100829000Y-104562000D01*
X100829000Y-105716000D01*
X101958000Y-105716000D01*
X101958000Y-105021414D01*
X101957999Y-105021402D01*
X101951494Y-104960906D01*
X101900444Y-104824035D01*
X101900444Y-104824034D01*
X101812904Y-104707095D01*
X101695965Y-104619555D01*
X101559093Y-104568505D01*
X101498597Y-104562000D01*
X100829000Y-104562000D01*
X100321000Y-104562000D01*
X99814870Y-104562000D01*
X99746749Y-104541998D01*
X99700256Y-104488342D01*
X99690152Y-104418068D01*
X99719646Y-104353488D01*
X99725761Y-104346919D01*
X101762276Y-102310405D01*
X101824588Y-102276379D01*
X101851371Y-102273500D01*
X101925487Y-102273500D01*
X102112288Y-102233794D01*
X102286752Y-102156118D01*
X102441253Y-102043866D01*
X102569040Y-101901944D01*
X102664527Y-101736556D01*
X102723542Y-101554928D01*
X102743504Y-101365000D01*
X102723542Y-101175072D01*
X102664527Y-100993444D01*
X102569040Y-100828056D01*
X102569038Y-100828054D01*
X102569034Y-100828048D01*
X102441255Y-100686135D01*
X102286752Y-100573882D01*
X102112288Y-100496206D01*
X101925487Y-100456500D01*
X101734513Y-100456500D01*
X101547711Y-100496206D01*
X101373247Y-100573882D01*
X101218744Y-100686135D01*
X101090960Y-100828054D01*
X101090956Y-100828060D01*
X101087906Y-100833343D01*
X101067886Y-100859431D01*
X96752724Y-105174595D01*
X96690412Y-105208620D01*
X96663629Y-105211500D01*
X94934500Y-105211500D01*
X94866379Y-105191498D01*
X94819886Y-105137842D01*
X94808500Y-105085500D01*
X94808500Y-105021367D01*
X94808499Y-105021350D01*
X94801990Y-104960803D01*
X94801988Y-104960795D01*
X94750978Y-104824035D01*
X94750889Y-104823796D01*
X94750888Y-104823794D01*
X94750887Y-104823792D01*
X94663261Y-104706738D01*
X94546207Y-104619112D01*
X94546202Y-104619110D01*
X94409204Y-104568011D01*
X94409196Y-104568009D01*
X94348649Y-104561500D01*
X94348638Y-104561500D01*
X92501362Y-104561500D01*
X92501350Y-104561500D01*
X92440803Y-104568009D01*
X92440795Y-104568011D01*
X92303797Y-104619110D01*
X92303792Y-104619112D01*
X92186738Y-104706738D01*
X92099112Y-104823792D01*
X92099110Y-104823797D01*
X92048011Y-104960795D01*
X92048009Y-104960803D01*
X92041500Y-105021350D01*
X92041500Y-106918649D01*
X92048009Y-106979196D01*
X92048011Y-106979204D01*
X92099110Y-107116202D01*
X92099112Y-107116207D01*
X92186738Y-107233261D01*
X92240000Y-107273132D01*
X92282547Y-107329967D01*
X92287612Y-107400783D01*
X92253586Y-107463095D01*
X92191274Y-107497121D01*
X92164491Y-107500000D01*
X91626000Y-107500000D01*
X91557879Y-107479998D01*
X91511386Y-107426342D01*
X91500000Y-107374000D01*
X91500000Y-88626000D01*
X91520002Y-88557879D01*
X91573658Y-88511386D01*
X91626000Y-88500000D01*
X93825514Y-88500000D01*
X93893635Y-88520002D01*
G37*
%TD.AperFunction*%
%TD*%
M02*
