M48
; DRILL file {KiCad 8.0.1-8.0.1-1~ubuntu22.04.1} date 2024-04-18T21:36:37+0900
; FORMAT={-:-/ absolute / inch / decimal}
; #@! TF.CreationDate,2024-04-18T21:36:37+09:00
; #@! TF.GenerationSoftware,Kicad,Pcbnew,8.0.1-8.0.1-1~ubuntu22.04.1
; #@! TF.FileFunction,Plated,1,2,PTH
FMAT,2
INCH
; #@! TA.AperFunction,Plated,PTH,ViaDrill
T1C0.0157
; #@! TA.AperFunction,Plated,PTH,ComponentDrill
T2C0.0315
; #@! TA.AperFunction,Plated,PTH,ComponentDrill
T3C0.0343
; #@! TA.AperFunction,Plated,PTH,ComponentDrill
T4C0.0394
; #@! TA.AperFunction,Plated,PTH,ComponentDrill
T5C0.0400
%
G90
G05
T1
X3.6811Y-2.7559
X3.9596Y-4.172
X4.0091Y-3.9907
X4.1339Y-4.8622
X4.2193Y-3.9407
X4.2193Y-3.9907
X4.2193Y-4.0407
X4.2717Y-4.1732
X4.311Y-3.8976
X4.4094Y-4.8622
T2
X3.7008Y-3.0906
X3.7992Y-3.0906
X4.8622Y-3.0906
X4.9606Y-3.0906
T3
X3.6687Y-4.8697
X3.6687Y-4.9697
X3.6687Y-5.0697
X3.6687Y-5.1697
X3.9691Y-4.8697
X3.9691Y-4.9697
X3.9691Y-5.0697
X3.9691Y-5.1697
X4.2593Y-4.8697
X4.2593Y-4.9697
X4.2593Y-5.0697
X4.2593Y-5.1697
X4.5596Y-4.8697
X4.5596Y-4.9697
X4.5596Y-5.0697
X4.5596Y-5.1697
T4
X3.9764Y-3.2087
X3.9764Y-3.4646
X3.9764Y-4.4291
X4.0764Y-3.2087
X4.0764Y-3.4646
X4.0764Y-4.4291
X4.1764Y-3.2087
X4.1764Y-3.4646
X4.1764Y-4.4291
X4.2764Y-3.2087
X4.2764Y-3.4646
X4.2764Y-4.4291
X4.3764Y-3.2087
X4.3764Y-3.4646
X4.3764Y-4.4291
X4.4764Y-3.2087
X4.4764Y-3.4646
X4.4764Y-4.4291
T5
X4.252Y-1.5126
X4.252Y-1.6126
X4.252Y-1.7126
X4.252Y-1.8126
X4.252Y-1.9126
X4.252Y-2.0126
X4.252Y-2.1126
X4.252Y-2.2126
X4.252Y-2.3126
X4.252Y-2.4126
X4.252Y-2.5126
X4.252Y-2.6126
X4.852Y-1.5126
X4.852Y-1.6126
X4.852Y-1.7126
X4.852Y-1.8126
X4.852Y-1.9126
X4.852Y-2.0126
X4.852Y-2.1126
X4.852Y-2.2126
X4.852Y-2.3126
X4.852Y-2.4126
X4.852Y-2.5126
X4.852Y-2.6126
M30
