%TF.GenerationSoftware,KiCad,Pcbnew,8.0.1-8.0.1-1~ubuntu22.04.1*%
%TF.CreationDate,2024-04-18T21:36:37+09:00*%
%TF.ProjectId,diy_oled_3d_controller,6469795f-6f6c-4656-945f-33645f636f6e,rev?*%
%TF.SameCoordinates,Original*%
%TF.FileFunction,Soldermask,Bot*%
%TF.FilePolarity,Negative*%
%FSLAX46Y46*%
G04 Gerber Fmt 4.6, Leading zero omitted, Abs format (unit mm)*
G04 Created by KiCad (PCBNEW 8.0.1-8.0.1-1~ubuntu22.04.1) date 2024-04-18 21:36:37*
%MOMM*%
%LPD*%
G01*
G04 APERTURE LIST*
G04 Aperture macros list*
%AMRoundRect*
0 Rectangle with rounded corners*
0 $1 Rounding radius*
0 $2 $3 $4 $5 $6 $7 $8 $9 X,Y pos of 4 corners*
0 Add a 4 corners polygon primitive as box body*
4,1,4,$2,$3,$4,$5,$6,$7,$8,$9,$2,$3,0*
0 Add four circle primitives for the rounded corners*
1,1,$1+$1,$2,$3*
1,1,$1+$1,$4,$5*
1,1,$1+$1,$6,$7*
1,1,$1+$1,$8,$9*
0 Add four rect primitives between the rounded corners*
20,1,$1+$1,$2,$3,$4,$5,0*
20,1,$1+$1,$4,$5,$6,$7,0*
20,1,$1+$1,$6,$7,$8,$9,0*
20,1,$1+$1,$8,$9,$2,$3,0*%
G04 Aperture macros list end*
%ADD10C,1.600000*%
%ADD11R,1.700000X1.700000*%
%ADD12O,1.700000X1.700000*%
%ADD13C,2.082800*%
%ADD14R,1.220000X1.220000*%
%ADD15C,1.220000*%
%ADD16RoundRect,0.102000X-0.875000X-0.900000X0.875000X-0.900000X0.875000X0.900000X-0.875000X0.900000X0*%
%ADD17RoundRect,0.102000X0.875000X0.900000X-0.875000X0.900000X-0.875000X-0.900000X0.875000X-0.900000X0*%
G04 APERTURE END LIST*
D10*
%TO.C,H6*%
X104500000Y-131000000D03*
%TD*%
%TO.C,H5*%
X95000000Y-113000000D03*
%TD*%
%TO.C,H4*%
X104500000Y-106500000D03*
%TD*%
%TO.C,H3*%
X95000000Y-88500000D03*
%TD*%
%TO.C,H2*%
X122500000Y-71500000D03*
%TD*%
%TO.C,H1*%
X95000000Y-37500000D03*
%TD*%
%TO.C,C1*%
X96500000Y-78500000D03*
X94000000Y-78500000D03*
%TD*%
D11*
%TO.C,J3*%
X101000000Y-112500000D03*
D12*
X103540000Y-112500000D03*
X106080000Y-112500000D03*
X108620000Y-112500000D03*
X111160000Y-112500000D03*
X113700000Y-112500000D03*
%TD*%
D13*
%TO.C,B1*%
X108000000Y-38420000D03*
X108000000Y-40960000D03*
X108000000Y-43500000D03*
X108000000Y-46040000D03*
X108000000Y-48580000D03*
X108000000Y-51120000D03*
X108000000Y-53660000D03*
X108000000Y-56200000D03*
X108000000Y-58740000D03*
X108000000Y-61280000D03*
X108000000Y-63820000D03*
X108000000Y-66360000D03*
X123240000Y-66360000D03*
X123240000Y-63820000D03*
X123240000Y-61280000D03*
X123240000Y-58740000D03*
X123240000Y-56200000D03*
X123240000Y-53660000D03*
X123240000Y-51120000D03*
X123240000Y-48580000D03*
X123240000Y-46040000D03*
X123240000Y-43500000D03*
X123240000Y-40960000D03*
X123240000Y-38420000D03*
%TD*%
D11*
%TO.C,J1*%
X101000000Y-81500000D03*
D12*
X103540000Y-81500000D03*
X106080000Y-81500000D03*
X108620000Y-81500000D03*
X111160000Y-81500000D03*
X113700000Y-81500000D03*
%TD*%
D11*
%TO.C,J2*%
X101000000Y-88000000D03*
D12*
X103540000Y-88000000D03*
X106080000Y-88000000D03*
X108620000Y-88000000D03*
X111160000Y-88000000D03*
X113700000Y-88000000D03*
%TD*%
D10*
%TO.C,C2*%
X123500000Y-78500000D03*
X126000000Y-78500000D03*
%TD*%
D14*
%TO.C,U2*%
X115815000Y-123690000D03*
D15*
X115815000Y-126230000D03*
X115815000Y-128770000D03*
X115815000Y-131310000D03*
X108185000Y-131310000D03*
X108185000Y-128770000D03*
X108185000Y-126230000D03*
X108185000Y-123690000D03*
%TD*%
D16*
%TO.C,D9*%
X115650000Y-105970000D03*
X108500000Y-105970000D03*
%TD*%
D17*
%TO.C,D10*%
X93425000Y-105970000D03*
X100575000Y-105970000D03*
%TD*%
D14*
%TO.C,U1*%
X100815000Y-123690000D03*
D15*
X100815000Y-126230000D03*
X100815000Y-128770000D03*
X100815000Y-131310000D03*
X93185000Y-131310000D03*
X93185000Y-128770000D03*
X93185000Y-126230000D03*
X93185000Y-123690000D03*
%TD*%
M02*
