%TF.GenerationSoftware,KiCad,Pcbnew,8.0.1-8.0.1-1~ubuntu22.04.1*%
%TF.CreationDate,2024-04-18T21:36:37+09:00*%
%TF.ProjectId,diy_oled_3d_controller,6469795f-6f6c-4656-945f-33645f636f6e,rev?*%
%TF.SameCoordinates,Original*%
%TF.FileFunction,Copper,L1,Top*%
%TF.FilePolarity,Positive*%
%FSLAX46Y46*%
G04 Gerber Fmt 4.6, Leading zero omitted, Abs format (unit mm)*
G04 Created by KiCad (PCBNEW 8.0.1-8.0.1-1~ubuntu22.04.1) date 2024-04-18 21:36:37*
%MOMM*%
%LPD*%
G01*
G04 APERTURE LIST*
G04 Aperture macros list*
%AMRoundRect*
0 Rectangle with rounded corners*
0 $1 Rounding radius*
0 $2 $3 $4 $5 $6 $7 $8 $9 X,Y pos of 4 corners*
0 Add a 4 corners polygon primitive as box body*
4,1,4,$2,$3,$4,$5,$6,$7,$8,$9,$2,$3,0*
0 Add four circle primitives for the rounded corners*
1,1,$1+$1,$2,$3*
1,1,$1+$1,$4,$5*
1,1,$1+$1,$6,$7*
1,1,$1+$1,$8,$9*
0 Add four rect primitives between the rounded corners*
20,1,$1+$1,$2,$3,$4,$5,0*
20,1,$1+$1,$4,$5,$6,$7,0*
20,1,$1+$1,$6,$7,$8,$9,0*
20,1,$1+$1,$8,$9,$2,$3,0*%
G04 Aperture macros list end*
%TA.AperFunction,SMDPad,CuDef*%
%ADD10RoundRect,0.042000X-0.748000X-0.258000X0.748000X-0.258000X0.748000X0.258000X-0.748000X0.258000X0*%
%TD*%
%TA.AperFunction,SMDPad,CuDef*%
%ADD11RoundRect,0.237500X0.237500X-0.250000X0.237500X0.250000X-0.237500X0.250000X-0.237500X-0.250000X0*%
%TD*%
%TA.AperFunction,SMDPad,CuDef*%
%ADD12RoundRect,0.237500X-0.237500X0.300000X-0.237500X-0.300000X0.237500X-0.300000X0.237500X0.300000X0*%
%TD*%
%TA.AperFunction,SMDPad,CuDef*%
%ADD13RoundRect,0.237500X0.250000X0.237500X-0.250000X0.237500X-0.250000X-0.237500X0.250000X-0.237500X0*%
%TD*%
%TA.AperFunction,SMDPad,CuDef*%
%ADD14R,1.700000X1.000000*%
%TD*%
%TA.AperFunction,SMDPad,CuDef*%
%ADD15RoundRect,0.250000X-0.325000X-0.450000X0.325000X-0.450000X0.325000X0.450000X-0.325000X0.450000X0*%
%TD*%
%TA.AperFunction,SMDPad,CuDef*%
%ADD16RoundRect,0.250001X1.074999X-0.462499X1.074999X0.462499X-1.074999X0.462499X-1.074999X-0.462499X0*%
%TD*%
%TA.AperFunction,SMDPad,CuDef*%
%ADD17RoundRect,0.150000X-0.150000X0.587500X-0.150000X-0.587500X0.150000X-0.587500X0.150000X0.587500X0*%
%TD*%
%TA.AperFunction,SMDPad,CuDef*%
%ADD18RoundRect,0.237500X0.237500X-0.300000X0.237500X0.300000X-0.237500X0.300000X-0.237500X-0.300000X0*%
%TD*%
%TA.AperFunction,SMDPad,CuDef*%
%ADD19RoundRect,0.249999X-1.425001X0.450001X-1.425001X-0.450001X1.425001X-0.450001X1.425001X0.450001X0*%
%TD*%
%TA.AperFunction,ComponentPad*%
%ADD20C,1.600000*%
%TD*%
%TA.AperFunction,ComponentPad*%
%ADD21R,1.700000X1.700000*%
%TD*%
%TA.AperFunction,ComponentPad*%
%ADD22O,1.700000X1.700000*%
%TD*%
%TA.AperFunction,ComponentPad*%
%ADD23C,1.879600*%
%TD*%
%TA.AperFunction,SMDPad,CuDef*%
%ADD24RoundRect,0.237500X-0.237500X0.250000X-0.237500X-0.250000X0.237500X-0.250000X0.237500X0.250000X0*%
%TD*%
%TA.AperFunction,ComponentPad*%
%ADD25R,1.220000X1.220000*%
%TD*%
%TA.AperFunction,ComponentPad*%
%ADD26C,1.220000*%
%TD*%
%TA.AperFunction,ViaPad*%
%ADD27C,0.800000*%
%TD*%
%TA.AperFunction,Conductor*%
%ADD28C,0.500000*%
%TD*%
%TA.AperFunction,Conductor*%
%ADD29C,2.000000*%
%TD*%
%TA.AperFunction,Conductor*%
%ADD30C,1.000000*%
%TD*%
G04 APERTURE END LIST*
D10*
%TO.P,U4,1,VOUTA*%
%TO.N,/LEFT_SIGNAL_2*%
X101830000Y-100095000D03*
%TO.P,U4,2,VINA-*%
%TO.N,Net-(U4-VINA-)*%
X101830000Y-101365000D03*
%TO.P,U4,3,VINA+*%
%TO.N,GND2*%
X101830000Y-102635000D03*
%TO.P,U4,4,VSS*%
X101830000Y-103905000D03*
%TO.P,U4,5,VINB+*%
X107170000Y-103905000D03*
%TO.P,U4,6,VINB-*%
%TO.N,Net-(U4-VINB-)*%
X107170000Y-102635000D03*
%TO.P,U4,7,VOUTB*%
%TO.N,/RIGHT_SIGNAL_2*%
X107170000Y-101365000D03*
%TO.P,U4,8,VDD*%
%TO.N,/VCC_2*%
X107170000Y-100095000D03*
%TD*%
D11*
%TO.P,R3,1*%
%TO.N,Net-(U4-VINA-)*%
X97500000Y-101825000D03*
%TO.P,R3,2*%
%TO.N,/LEFT_SIGNAL_2*%
X97500000Y-100000000D03*
%TD*%
D12*
%TO.P,C4,1*%
%TO.N,/LEFT_SIGNAL_2*%
X99500000Y-100000000D03*
%TO.P,C4,2*%
%TO.N,Net-(U4-VINA-)*%
X99500000Y-101725000D03*
%TD*%
D13*
%TO.P,R1,1*%
%TO.N,/LED_CONTROL_2*%
X112825000Y-92500000D03*
%TO.P,R1,2*%
%TO.N,GND2*%
X111000000Y-92500000D03*
%TD*%
D14*
%TO.P,S4,1,1*%
%TO.N,Net-(B1-\u002A5)*%
X96200000Y-66200000D03*
%TO.P,S4,2,2*%
X102500000Y-66200000D03*
%TO.P,S4,3,3*%
%TO.N,GND1*%
X96200000Y-62400000D03*
%TO.P,S4,4,4*%
X102500000Y-62400000D03*
%TD*%
D15*
%TO.P,F1,1*%
%TO.N,+5V_1*%
X95950000Y-70000000D03*
%TO.P,F1,2*%
%TO.N,/5V_AFTER_FUSE*%
X98000000Y-70000000D03*
%TD*%
D16*
%TO.P,D12,1,K*%
%TO.N,/LED_MOSFET_3*%
X99000000Y-120975000D03*
%TO.P,D12,2,A*%
%TO.N,/LED_POWER_3*%
X99000000Y-118000000D03*
%TD*%
%TO.P,D1,1,K*%
%TO.N,/LED_MOSFET_2*%
X94000000Y-97000000D03*
%TO.P,D1,2,A*%
%TO.N,/LED_POWER_2*%
X94000000Y-94025000D03*
%TD*%
D17*
%TO.P,Q1,1,G*%
%TO.N,/LED_CONTROL_2*%
X112862500Y-94500000D03*
%TO.P,Q1,2,S*%
%TO.N,GND2*%
X110962500Y-94500000D03*
%TO.P,Q1,3,D*%
%TO.N,/LED_MOSFET_2*%
X111912500Y-96375000D03*
%TD*%
D18*
%TO.P,C3,1*%
%TO.N,Net-(U4-VINB-)*%
X109500000Y-103225000D03*
%TO.P,C3,2*%
%TO.N,/RIGHT_SIGNAL_2*%
X109500000Y-101500000D03*
%TD*%
D16*
%TO.P,D4,1,K*%
%TO.N,/LED_MOSFET_2*%
X107500000Y-97000000D03*
%TO.P,D4,2,A*%
%TO.N,/LED_POWER_2*%
X107500000Y-94025000D03*
%TD*%
D19*
%TO.P,R11,1*%
%TO.N,/5V_AFTER_FUSE*%
X111660000Y-69745000D03*
%TO.P,R11,2*%
%TO.N,/LED_POWER_1*%
X111660000Y-75845000D03*
%TD*%
D20*
%TO.P,C1,1*%
%TO.N,/5V_AFTER_FUSE*%
X96500000Y-78500000D03*
%TO.P,C1,2*%
%TO.N,GND1*%
X94000000Y-78500000D03*
%TD*%
D21*
%TO.P,J3,1,Pin_1*%
%TO.N,/LED_POWER_3*%
X101000000Y-112500000D03*
D22*
%TO.P,J3,2,Pin_2*%
%TO.N,GND3*%
X103540000Y-112500000D03*
%TO.P,J3,3,Pin_3*%
%TO.N,/VCC_3*%
X106080000Y-112500000D03*
%TO.P,J3,4,Pin_4*%
%TO.N,/LED_CONTROL_3*%
X108620000Y-112500000D03*
%TO.P,J3,5,Pin_5*%
%TO.N,/LEFT_SIGNAL_3*%
X111160000Y-112500000D03*
%TO.P,J3,6,Pin_6*%
%TO.N,/RIGHT_SIGNAL_3*%
X113700000Y-112500000D03*
%TD*%
D23*
%TO.P,B1,1,TXO*%
%TO.N,unconnected-(B1-TXO-Pad1)*%
X108000000Y-38420000D03*
%TO.P,B1,2,RXI*%
%TO.N,unconnected-(B1-RXI-Pad2)*%
X108000000Y-40960000D03*
%TO.P,B1,3,GND*%
%TO.N,unconnected-(B1-GND-Pad3)*%
X108000000Y-43500000D03*
%TO.P,B1,4,GND*%
%TO.N,unconnected-(B1-GND-Pad4)*%
X108000000Y-46040000D03*
%TO.P,B1,5,2*%
%TO.N,Net-(B1-2)*%
X108000000Y-48580000D03*
%TO.P,B1,6,\u002A3*%
%TO.N,/LED_CONTROL_1*%
X108000000Y-51120000D03*
%TO.P,B1,7,4*%
%TO.N,Net-(B1-4)*%
X108000000Y-53660000D03*
%TO.P,B1,8,\u002A5*%
%TO.N,Net-(B1-\u002A5)*%
X108000000Y-56200000D03*
%TO.P,B1,9,\u002A6*%
%TO.N,unconnected-(B1-\u002A6-Pad9)*%
X108000000Y-58740000D03*
%TO.P,B1,10,7*%
%TO.N,unconnected-(B1-7-Pad10)*%
X108000000Y-61280000D03*
%TO.P,B1,11,8*%
%TO.N,unconnected-(B1-8-Pad11)*%
X108000000Y-63820000D03*
%TO.P,B1,12,\u002A9*%
%TO.N,unconnected-(B1-\u002A9-Pad12)*%
X108000000Y-66360000D03*
%TO.P,B1,13,\u002A10*%
%TO.N,unconnected-(B1-\u002A10-Pad13)*%
X123240000Y-66360000D03*
%TO.P,B1,14,11(MOSI)*%
%TO.N,unconnected-(B1-11(MOSI)-Pad14)*%
X123240000Y-63820000D03*
%TO.P,B1,15,12(MISO)*%
%TO.N,unconnected-(B1-12(MISO)-Pad15)*%
X123240000Y-61280000D03*
%TO.P,B1,16,13(SCK)*%
%TO.N,unconnected-(B1-13(SCK)-Pad16)*%
X123240000Y-58740000D03*
%TO.P,B1,17,A0*%
%TO.N,/RIGHT_SIGNAL_1*%
X123240000Y-56200000D03*
%TO.P,B1,18,A1*%
%TO.N,/LEFT_SIGNAL_1*%
X123240000Y-53660000D03*
%TO.P,B1,19,A2*%
%TO.N,unconnected-(B1-A2-Pad19)*%
X123240000Y-51120000D03*
%TO.P,B1,20,A3*%
%TO.N,unconnected-(B1-A3-Pad20)*%
X123240000Y-48580000D03*
%TO.P,B1,21,VCC*%
%TO.N,/VCC_1*%
X123240000Y-46040000D03*
%TO.P,B1,22,RESET*%
%TO.N,Net-(B1-RESET)*%
X123240000Y-43500000D03*
%TO.P,B1,23,GND*%
%TO.N,GND1*%
X123240000Y-40960000D03*
%TO.P,B1,24,RAW*%
%TO.N,+5V_1*%
X123240000Y-38420000D03*
%TD*%
D16*
%TO.P,D2,1,K*%
%TO.N,/LED_MOSFET_2*%
X98500000Y-97000000D03*
%TO.P,D2,2,A*%
%TO.N,/LED_POWER_2*%
X98500000Y-94025000D03*
%TD*%
D14*
%TO.P,S2,1,1*%
%TO.N,Net-(B1-2)*%
X96200000Y-52146000D03*
%TO.P,S2,2,2*%
X102500000Y-52146000D03*
%TO.P,S2,3,3*%
%TO.N,GND1*%
X96200000Y-48346000D03*
%TO.P,S2,4,4*%
X102500000Y-48346000D03*
%TD*%
D17*
%TO.P,Q2,1,G*%
%TO.N,/LED_CONTROL_3*%
X115000000Y-119500000D03*
%TO.P,Q2,2,S*%
%TO.N,GND3*%
X113100000Y-119500000D03*
%TO.P,Q2,3,D*%
%TO.N,/LED_MOSFET_3*%
X114050000Y-121375000D03*
%TD*%
D21*
%TO.P,J1,1,Pin_1*%
%TO.N,/LED_POWER_1*%
X101000000Y-81500000D03*
D22*
%TO.P,J1,2,Pin_2*%
%TO.N,GND1*%
X103540000Y-81500000D03*
%TO.P,J1,3,Pin_3*%
%TO.N,/VCC_1*%
X106080000Y-81500000D03*
%TO.P,J1,4,Pin_4*%
%TO.N,/LED_CONTROL_1*%
X108620000Y-81500000D03*
%TO.P,J1,5,Pin_5*%
%TO.N,/LEFT_SIGNAL_1*%
X111160000Y-81500000D03*
%TO.P,J1,6,Pin_6*%
%TO.N,/RIGHT_SIGNAL_1*%
X113700000Y-81500000D03*
%TD*%
D19*
%TO.P,R13,1*%
%TO.N,/5V_AFTER_FUSE*%
X101500000Y-69745000D03*
%TO.P,R13,2*%
%TO.N,/LED_POWER_1*%
X101500000Y-75845000D03*
%TD*%
D14*
%TO.P,S1,1,1*%
%TO.N,Net-(B1-RESET)*%
X96200000Y-45000000D03*
%TO.P,S1,2,2*%
X102500000Y-45000000D03*
%TO.P,S1,3,3*%
%TO.N,GND1*%
X96200000Y-41200000D03*
%TO.P,S1,4,4*%
X102500000Y-41200000D03*
%TD*%
D21*
%TO.P,J2,1,Pin_1*%
%TO.N,/LED_POWER_2*%
X101000000Y-88000000D03*
D22*
%TO.P,J2,2,Pin_2*%
%TO.N,GND2*%
X103540000Y-88000000D03*
%TO.P,J2,3,Pin_3*%
%TO.N,/VCC_2*%
X106080000Y-88000000D03*
%TO.P,J2,4,Pin_4*%
%TO.N,/LED_CONTROL_2*%
X108620000Y-88000000D03*
%TO.P,J2,5,Pin_5*%
%TO.N,/LEFT_SIGNAL_2*%
X111160000Y-88000000D03*
%TO.P,J2,6,Pin_6*%
%TO.N,/RIGHT_SIGNAL_2*%
X113700000Y-88000000D03*
%TD*%
D16*
%TO.P,D14,1,K*%
%TO.N,/LED_MOSFET_3*%
X109000000Y-120975000D03*
%TO.P,D14,2,A*%
%TO.N,/LED_POWER_3*%
X109000000Y-118000000D03*
%TD*%
%TO.P,D11,1,K*%
%TO.N,/LED_MOSFET_3*%
X94130000Y-120975000D03*
%TO.P,D11,2,A*%
%TO.N,/LED_POWER_3*%
X94130000Y-118000000D03*
%TD*%
D19*
%TO.P,R10,1*%
%TO.N,/5V_AFTER_FUSE*%
X116740000Y-69745000D03*
%TO.P,R10,2*%
%TO.N,/LED_POWER_1*%
X116740000Y-75845000D03*
%TD*%
D20*
%TO.P,C2,1*%
%TO.N,/VCC_1*%
X123500000Y-78500000D03*
%TO.P,C2,2*%
%TO.N,GND1*%
X126000000Y-78500000D03*
%TD*%
D19*
%TO.P,R12,1*%
%TO.N,/5V_AFTER_FUSE*%
X106580000Y-69745000D03*
%TO.P,R12,2*%
%TO.N,/LED_POWER_1*%
X106580000Y-75845000D03*
%TD*%
D16*
%TO.P,D13,1,K*%
%TO.N,/LED_MOSFET_3*%
X104000000Y-120975000D03*
%TO.P,D13,2,A*%
%TO.N,/LED_POWER_3*%
X104000000Y-118000000D03*
%TD*%
%TO.P,D3,1,K*%
%TO.N,/LED_MOSFET_2*%
X103000000Y-97000000D03*
%TO.P,D3,2,A*%
%TO.N,/LED_POWER_2*%
X103000000Y-94025000D03*
%TD*%
D13*
%TO.P,R4,1*%
%TO.N,/LED_CONTROL_3*%
X115000000Y-117500000D03*
%TO.P,R4,2*%
%TO.N,GND3*%
X113175000Y-117500000D03*
%TD*%
D24*
%TO.P,R2,1*%
%TO.N,/RIGHT_SIGNAL_2*%
X111500000Y-101500000D03*
%TO.P,R2,2*%
%TO.N,Net-(U4-VINB-)*%
X111500000Y-103325000D03*
%TD*%
D14*
%TO.P,S3,1,1*%
%TO.N,Net-(B1-4)*%
X96200000Y-59173000D03*
%TO.P,S3,2,2*%
X102500000Y-59173000D03*
%TO.P,S3,3,3*%
%TO.N,GND1*%
X96200000Y-55373000D03*
%TO.P,S3,4,4*%
X102500000Y-55373000D03*
%TD*%
D25*
%TO.P,U2,1,VS*%
%TO.N,/VCC_3*%
X115815000Y-123690000D03*
D26*
%TO.P,U2,2,-IN*%
%TO.N,unconnected-(U2--IN-Pad2)*%
X115815000Y-126230000D03*
%TO.P,U2,3,-V*%
%TO.N,GND3*%
X115815000Y-128770000D03*
%TO.P,U2,4,1MOHM_FB*%
%TO.N,/RIGHT_SIGNAL_3*%
X115815000Y-131310000D03*
%TO.P,U2,5,OUTPUT*%
X108185000Y-131310000D03*
%TO.P,U2,6*%
%TO.N,N/C*%
X108185000Y-128770000D03*
%TO.P,U2,7*%
X108185000Y-126230000D03*
%TO.P,U2,8,COMMON*%
%TO.N,GND3*%
X108185000Y-123690000D03*
%TD*%
D25*
%TO.P,U1,1,VS*%
%TO.N,/VCC_3*%
X100815000Y-123690000D03*
D26*
%TO.P,U1,2,-IN*%
%TO.N,unconnected-(U1--IN-Pad2)*%
X100815000Y-126230000D03*
%TO.P,U1,3,-V*%
%TO.N,GND3*%
X100815000Y-128770000D03*
%TO.P,U1,4,1MOHM_FB*%
%TO.N,/LEFT_SIGNAL_3*%
X100815000Y-131310000D03*
%TO.P,U1,5,OUTPUT*%
X93185000Y-131310000D03*
%TO.P,U1,6*%
%TO.N,N/C*%
X93185000Y-128770000D03*
%TO.P,U1,7*%
X93185000Y-126230000D03*
%TO.P,U1,8,COMMON*%
%TO.N,GND3*%
X93185000Y-123690000D03*
%TD*%
D27*
%TO.N,+5V_1*%
X93500000Y-70000000D03*
%TO.N,/LEFT_SIGNAL_2*%
X109500000Y-99000000D03*
%TO.N,/RIGHT_SIGNAL_2*%
X107170000Y-101365000D03*
%TO.N,Net-(U4-VINA-)*%
X101830000Y-101365000D03*
%TO.N,Net-(U4-VINB-)*%
X107170000Y-102635000D03*
%TO.N,GND2*%
X108500000Y-106000000D03*
X100575000Y-105970000D03*
%TO.N,/VCC_2*%
X107170000Y-100095000D03*
%TO.N,/VCC_3*%
X105000000Y-123500000D03*
X112000000Y-123500000D03*
%TD*%
D28*
%TO.N,Net-(U4-VINA-)*%
X99500000Y-101725000D02*
X99860000Y-101365000D01*
X99860000Y-101365000D02*
X101830000Y-101365000D01*
%TO.N,GND2*%
X101830000Y-104715000D02*
X101830000Y-102715000D01*
X101830000Y-104715000D02*
X100575000Y-105970000D01*
X107170000Y-103905000D02*
X108500000Y-105235000D01*
X108500000Y-105235000D02*
X108500000Y-106000000D01*
%TO.N,/LEFT_SIGNAL_2*%
X109500000Y-99000000D02*
X102925000Y-99000000D01*
X102925000Y-99000000D02*
X101830000Y-100095000D01*
%TO.N,Net-(B1-\u002A5)*%
X102500000Y-66200000D02*
X106000000Y-62700000D01*
X106000000Y-62700000D02*
X106000000Y-58200000D01*
X96200000Y-66200000D02*
X102500000Y-66200000D01*
%TO.N,Net-(B1-4)*%
X102500000Y-59173000D02*
X102500000Y-59160000D01*
X102500000Y-59160000D02*
X108000000Y-53660000D01*
X96200000Y-59173000D02*
X102500000Y-59173000D01*
%TO.N,Net-(B1-2)*%
X102500000Y-52146000D02*
X104434000Y-52146000D01*
X104434000Y-52146000D02*
X108000000Y-48580000D01*
X96200000Y-52146000D02*
X102500000Y-52146000D01*
%TO.N,Net-(B1-RESET)*%
X96200000Y-45000000D02*
X102500000Y-45000000D01*
X105000000Y-41377000D02*
X102500000Y-43877000D01*
X102500000Y-43877000D02*
X102500000Y-45000000D01*
X123240000Y-43500000D02*
X116240000Y-36500000D01*
X116240000Y-36500000D02*
X105000000Y-36500000D01*
X105000000Y-36500000D02*
X105000000Y-41377000D01*
D29*
%TO.N,+5V_1*%
X93500000Y-70000000D02*
X95950000Y-70000000D01*
D28*
%TO.N,Net-(U4-VINB-)*%
X109500000Y-103225000D02*
X108910000Y-102635000D01*
X108910000Y-102635000D02*
X107170000Y-102635000D01*
X111500000Y-103325000D02*
X109600000Y-103325000D01*
X109600000Y-103325000D02*
X109500000Y-103225000D01*
%TO.N,/RIGHT_SIGNAL_2*%
X109500000Y-101500000D02*
X111500000Y-101500000D01*
X107170000Y-101365000D02*
X109365000Y-101365000D01*
X109365000Y-101365000D02*
X109500000Y-101500000D01*
%TO.N,Net-(U4-VINA-)*%
X97500000Y-101825000D02*
X99400000Y-101825000D01*
X99400000Y-101825000D02*
X99500000Y-101725000D01*
%TO.N,/LEFT_SIGNAL_2*%
X101830000Y-100095000D02*
X99595000Y-100095000D01*
X99595000Y-100095000D02*
X99500000Y-100000000D01*
X97500000Y-100000000D02*
X99500000Y-100000000D01*
D29*
%TO.N,/VCC_1*%
X123240000Y-46040000D02*
X124569077Y-46040000D01*
X124569077Y-46040000D02*
X127000000Y-48470923D01*
X127000000Y-48470923D02*
X127000000Y-73000000D01*
D30*
X123500000Y-78500000D02*
X109080000Y-78500000D01*
D29*
X123500000Y-76500000D02*
X123500000Y-78500000D01*
D30*
X109080000Y-78500000D02*
X106080000Y-81500000D01*
D29*
X127000000Y-73000000D02*
X123500000Y-76500000D01*
%TO.N,GND1*%
X103540000Y-81500000D02*
X103540000Y-79960000D01*
X103540000Y-79960000D02*
X104000000Y-79500000D01*
%TO.N,/5V_AFTER_FUSE*%
X101500000Y-69745000D02*
X98405000Y-69745000D01*
X96500000Y-74745000D02*
X101500000Y-69745000D01*
X96500000Y-78500000D02*
X96500000Y-74745000D01*
X98405000Y-69745000D02*
X98150000Y-70000000D01*
X101500000Y-69745000D02*
X116740000Y-69745000D01*
%TO.N,/LED_POWER_2*%
X94000000Y-94025000D02*
X107500000Y-94025000D01*
X99500000Y-93025000D02*
X98500000Y-94025000D01*
X99500000Y-90500000D02*
X99500000Y-93025000D01*
X101000000Y-89000000D02*
X101000000Y-88000000D01*
X99500000Y-90500000D02*
X101000000Y-89000000D01*
%TO.N,GND2*%
X105736913Y-91398994D02*
X103540000Y-89202081D01*
X111000000Y-92500000D02*
X109898994Y-91398994D01*
X110962500Y-94500000D02*
X110962500Y-92537500D01*
X103540000Y-89202081D02*
X103540000Y-88000000D01*
X110962500Y-92537500D02*
X111000000Y-92500000D01*
X109898994Y-91398994D02*
X105736913Y-91398994D01*
%TO.N,/LED_POWER_3*%
X101000000Y-112500000D02*
X101000000Y-116000000D01*
X94130000Y-118000000D02*
X109000000Y-118000000D01*
X101000000Y-116000000D02*
X99000000Y-118000000D01*
%TO.N,/LED_POWER_1*%
X101000000Y-76345000D02*
X101500000Y-75845000D01*
X101500000Y-75845000D02*
X116740000Y-75845000D01*
X101000000Y-81500000D02*
X101000000Y-76345000D01*
D28*
%TO.N,/LED_CONTROL_2*%
X112862500Y-94500000D02*
X112862500Y-92537500D01*
X112825000Y-92500000D02*
X112825000Y-92274390D01*
X112862500Y-92537500D02*
X112825000Y-92500000D01*
X108620000Y-88120000D02*
X108620000Y-88000000D01*
X110499604Y-89948994D02*
X110448994Y-89948994D01*
X112825000Y-92274390D02*
X110499604Y-89948994D01*
X110448994Y-89948994D02*
X108620000Y-88120000D01*
%TO.N,/LED_CONTROL_3*%
X115000000Y-114500000D02*
X115000000Y-117500000D01*
X114500000Y-114000000D02*
X115000000Y-114500000D01*
X108620000Y-113000000D02*
X109620000Y-114000000D01*
X115000000Y-117500000D02*
X115000000Y-119500000D01*
X109620000Y-114000000D02*
X114500000Y-114000000D01*
D30*
%TO.N,/VCC_3*%
X104810000Y-123690000D02*
X105000000Y-123500000D01*
X100815000Y-123690000D02*
X104810000Y-123690000D01*
X115625000Y-123500000D02*
X115815000Y-123690000D01*
X112000000Y-123500000D02*
X115625000Y-123500000D01*
D29*
%TO.N,GND3*%
X105337919Y-115500000D02*
X111175000Y-115500000D01*
X111175000Y-115500000D02*
X113175000Y-117500000D01*
X113100000Y-119500000D02*
X113100000Y-117575000D01*
X113100000Y-117575000D02*
X113175000Y-117500000D01*
X103540000Y-112500000D02*
X103540000Y-113702081D01*
X103540000Y-113702081D02*
X105337919Y-115500000D01*
%TO.N,/LED_MOSFET_2*%
X107500000Y-97000000D02*
X111573770Y-97000000D01*
X94000000Y-97000000D02*
X107500000Y-97000000D01*
X111573770Y-97000000D02*
X112055635Y-96518135D01*
%TO.N,/LED_MOSFET_3*%
X110700000Y-121700000D02*
X114011270Y-121700000D01*
X109000000Y-120975000D02*
X109975000Y-120975000D01*
X114011270Y-121700000D02*
X114193135Y-121518135D01*
X94130000Y-120975000D02*
X109000000Y-120975000D01*
X109975000Y-120975000D02*
X110700000Y-121700000D01*
D28*
%TO.N,Net-(B1-\u002A5)*%
X108000000Y-56200000D02*
X106000000Y-58200000D01*
%TO.N,Net-(B1-2)*%
X107366000Y-47946000D02*
X108000000Y-48580000D01*
X108000000Y-48580000D02*
X107920000Y-48580000D01*
%TD*%
%TA.AperFunction,Conductor*%
%TO.N,GND3*%
G36*
X93893635Y-113020002D02*
G01*
X93940128Y-113073658D01*
X93949093Y-113101419D01*
X93949500Y-113103465D01*
X93989870Y-113306420D01*
X94069059Y-113497598D01*
X94165002Y-113641188D01*
X94184024Y-113669656D01*
X94184029Y-113669662D01*
X94330337Y-113815970D01*
X94330343Y-113815975D01*
X94330345Y-113815977D01*
X94502402Y-113930941D01*
X94693580Y-114010130D01*
X94896535Y-114050500D01*
X94896536Y-114050500D01*
X95103464Y-114050500D01*
X95103465Y-114050500D01*
X95306420Y-114010130D01*
X95497598Y-113930941D01*
X95669655Y-113815977D01*
X95815977Y-113669655D01*
X95930941Y-113497598D01*
X96010130Y-113306420D01*
X96050500Y-113103465D01*
X96050907Y-113101419D01*
X96083815Y-113038509D01*
X96145510Y-113003377D01*
X96174486Y-113000000D01*
X99365500Y-113000000D01*
X99433621Y-113020002D01*
X99480114Y-113073658D01*
X99491500Y-113126000D01*
X99491500Y-115322968D01*
X99471498Y-115391089D01*
X99454595Y-115412063D01*
X98412064Y-116454595D01*
X98349752Y-116488620D01*
X98322969Y-116491500D01*
X94011278Y-116491500D01*
X93784424Y-116527430D01*
X93776753Y-116528645D01*
X93550941Y-116602016D01*
X93550935Y-116602019D01*
X93339369Y-116709817D01*
X93277269Y-116754936D01*
X93210401Y-116778795D01*
X93203208Y-116779000D01*
X93004448Y-116779000D01*
X92900578Y-116789612D01*
X92732262Y-116845385D01*
X92732260Y-116845386D01*
X92581348Y-116938470D01*
X92581342Y-116938475D01*
X92455975Y-117063842D01*
X92455970Y-117063848D01*
X92362886Y-117214760D01*
X92362885Y-117214762D01*
X92307112Y-117383078D01*
X92296500Y-117486947D01*
X92296500Y-118513052D01*
X92296499Y-118513052D01*
X92307112Y-118616921D01*
X92307112Y-118616923D01*
X92307113Y-118616925D01*
X92362885Y-118785238D01*
X92455970Y-118936151D01*
X92455975Y-118936157D01*
X92581342Y-119061524D01*
X92581348Y-119061529D01*
X92581349Y-119061530D01*
X92732262Y-119154615D01*
X92900575Y-119210387D01*
X92928906Y-119213281D01*
X93004448Y-119221000D01*
X93004456Y-119221000D01*
X93203208Y-119221000D01*
X93271329Y-119241002D01*
X93277269Y-119245064D01*
X93283811Y-119249817D01*
X93339373Y-119290185D01*
X93506290Y-119375233D01*
X93557905Y-119423981D01*
X93574971Y-119492896D01*
X93552070Y-119560098D01*
X93506290Y-119599766D01*
X93360119Y-119674244D01*
X93339369Y-119684817D01*
X93277269Y-119729936D01*
X93210401Y-119753795D01*
X93203208Y-119754000D01*
X93004448Y-119754000D01*
X92900578Y-119764612D01*
X92732262Y-119820385D01*
X92732260Y-119820386D01*
X92581348Y-119913470D01*
X92581342Y-119913475D01*
X92455975Y-120038842D01*
X92455970Y-120038848D01*
X92362886Y-120189760D01*
X92362885Y-120189762D01*
X92307112Y-120358078D01*
X92296500Y-120461947D01*
X92296500Y-121488052D01*
X92296499Y-121488052D01*
X92307112Y-121591921D01*
X92307112Y-121591923D01*
X92307113Y-121591925D01*
X92362885Y-121760238D01*
X92362886Y-121760239D01*
X92455970Y-121911151D01*
X92455975Y-121911157D01*
X92581342Y-122036524D01*
X92581348Y-122036529D01*
X92581349Y-122036530D01*
X92732262Y-122129615D01*
X92900575Y-122185387D01*
X92928906Y-122188281D01*
X93004448Y-122196000D01*
X93004456Y-122196000D01*
X93203208Y-122196000D01*
X93271329Y-122216002D01*
X93277269Y-122220064D01*
X93339373Y-122265185D01*
X93541377Y-122368111D01*
X93592990Y-122416857D01*
X93601130Y-122449730D01*
X93616615Y-122434632D01*
X93686174Y-122420416D01*
X93714534Y-122426138D01*
X93776759Y-122446356D01*
X94011278Y-122483500D01*
X99774740Y-122483500D01*
X99842861Y-122503502D01*
X99889354Y-122557158D01*
X99899458Y-122627432D01*
X99869964Y-122692012D01*
X99850250Y-122710368D01*
X99841737Y-122716740D01*
X99754112Y-122833792D01*
X99754110Y-122833797D01*
X99703011Y-122970795D01*
X99703009Y-122970803D01*
X99696500Y-123031350D01*
X99696500Y-124348649D01*
X99703009Y-124409196D01*
X99703011Y-124409204D01*
X99754110Y-124546202D01*
X99754112Y-124546207D01*
X99841738Y-124663261D01*
X99958792Y-124750887D01*
X99958794Y-124750888D01*
X99958796Y-124750889D01*
X100009836Y-124769926D01*
X100095795Y-124801988D01*
X100095803Y-124801990D01*
X100156350Y-124808499D01*
X100156355Y-124808499D01*
X100156362Y-124808500D01*
X100156368Y-124808500D01*
X101473632Y-124808500D01*
X101473638Y-124808500D01*
X101473645Y-124808499D01*
X101473649Y-124808499D01*
X101534196Y-124801990D01*
X101534199Y-124801989D01*
X101534201Y-124801989D01*
X101671204Y-124750889D01*
X101707615Y-124723632D01*
X101774136Y-124698821D01*
X101783124Y-124698500D01*
X104909328Y-124698500D01*
X104909329Y-124698500D01*
X105104169Y-124659744D01*
X105287704Y-124583721D01*
X105452881Y-124473353D01*
X105593353Y-124332881D01*
X105783354Y-124142881D01*
X105893722Y-123977703D01*
X105969744Y-123794168D01*
X106008500Y-123599328D01*
X106008500Y-123400671D01*
X105969744Y-123205831D01*
X105893722Y-123022296D01*
X105783354Y-122857119D01*
X105642881Y-122716646D01*
X105642879Y-122716645D01*
X105642874Y-122716640D01*
X105639317Y-122714264D01*
X105593790Y-122659787D01*
X105584943Y-122589343D01*
X105615585Y-122525300D01*
X105675987Y-122487989D01*
X105709320Y-122483500D01*
X107566989Y-122483500D01*
X107635110Y-122503502D01*
X107681603Y-122557158D01*
X107691707Y-122627432D01*
X107662213Y-122692012D01*
X107633318Y-122716628D01*
X107594729Y-122740520D01*
X108113123Y-123258914D01*
X108017096Y-123284644D01*
X107917903Y-123341913D01*
X107836913Y-123422903D01*
X107779644Y-123522096D01*
X107753914Y-123618123D01*
X107232249Y-123096458D01*
X107232246Y-123096458D01*
X107230391Y-123098917D01*
X107230386Y-123098925D01*
X107138030Y-123284401D01*
X107138027Y-123284409D01*
X107081327Y-123483689D01*
X107062210Y-123689995D01*
X107062210Y-123690004D01*
X107081327Y-123896310D01*
X107138027Y-124095590D01*
X107138030Y-124095598D01*
X107230385Y-124281072D01*
X107232248Y-124283540D01*
X107753913Y-123761875D01*
X107779644Y-123857904D01*
X107836913Y-123957097D01*
X107917903Y-124038087D01*
X108017096Y-124095356D01*
X108113123Y-124121086D01*
X107594730Y-124639478D01*
X107684523Y-124695076D01*
X107684533Y-124695081D01*
X107877730Y-124769926D01*
X108081404Y-124808000D01*
X108288596Y-124808000D01*
X108492266Y-124769927D01*
X108685470Y-124695079D01*
X108685474Y-124695077D01*
X108775269Y-124639478D01*
X108256876Y-124121085D01*
X108352904Y-124095356D01*
X108452097Y-124038087D01*
X108533087Y-123957097D01*
X108590356Y-123857904D01*
X108616085Y-123761876D01*
X109137749Y-124283540D01*
X109137751Y-124283540D01*
X109139612Y-124281075D01*
X109231969Y-124095598D01*
X109231972Y-124095590D01*
X109288672Y-123896310D01*
X109307790Y-123690004D01*
X109307790Y-123689995D01*
X109288672Y-123483689D01*
X109231972Y-123284409D01*
X109231969Y-123284401D01*
X109139615Y-123098928D01*
X109137750Y-123096458D01*
X108616085Y-123618123D01*
X108590356Y-123522096D01*
X108533087Y-123422903D01*
X108452097Y-123341913D01*
X108352904Y-123284644D01*
X108256875Y-123258913D01*
X108775268Y-122740520D01*
X108736681Y-122716628D01*
X108689293Y-122663761D01*
X108678010Y-122593667D01*
X108706413Y-122528600D01*
X108765486Y-122489218D01*
X108803011Y-122483500D01*
X108881278Y-122483500D01*
X109297969Y-122483500D01*
X109366090Y-122503502D01*
X109387064Y-122520405D01*
X109546204Y-122679545D01*
X109546233Y-122679576D01*
X109717272Y-122850615D01*
X109717275Y-122850617D01*
X109717278Y-122850620D01*
X109909373Y-122990185D01*
X110120937Y-123097982D01*
X110346759Y-123171356D01*
X110581278Y-123208501D01*
X110581281Y-123208501D01*
X110823915Y-123208501D01*
X110823939Y-123208500D01*
X110876193Y-123208500D01*
X110944314Y-123228502D01*
X110990807Y-123282158D01*
X111000911Y-123352432D01*
X110999772Y-123359080D01*
X110991500Y-123400663D01*
X110991500Y-123599331D01*
X111009535Y-123689999D01*
X111030256Y-123794169D01*
X111106279Y-123977704D01*
X111216647Y-124142881D01*
X111357119Y-124283353D01*
X111522296Y-124393721D01*
X111705831Y-124469744D01*
X111900671Y-124508500D01*
X114662815Y-124508500D01*
X114730936Y-124528502D01*
X114763683Y-124558991D01*
X114841738Y-124663261D01*
X114958792Y-124750887D01*
X114958794Y-124750888D01*
X114958796Y-124750889D01*
X115009836Y-124769926D01*
X115095795Y-124801988D01*
X115095803Y-124801990D01*
X115156350Y-124808499D01*
X115156355Y-124808499D01*
X115156362Y-124808500D01*
X115156368Y-124808500D01*
X116473632Y-124808500D01*
X116473638Y-124808500D01*
X116473645Y-124808499D01*
X116473649Y-124808499D01*
X116534196Y-124801990D01*
X116534199Y-124801989D01*
X116534201Y-124801989D01*
X116671204Y-124750889D01*
X116788261Y-124663261D01*
X116875889Y-124546204D01*
X116926989Y-124409201D01*
X116928654Y-124393721D01*
X116933499Y-124348649D01*
X116933500Y-124348632D01*
X116933500Y-123031367D01*
X116933499Y-123031350D01*
X116926990Y-122970803D01*
X116926988Y-122970795D01*
X116897924Y-122892875D01*
X116875889Y-122833796D01*
X116875888Y-122833794D01*
X116875887Y-122833792D01*
X116788261Y-122716738D01*
X116671207Y-122629112D01*
X116671202Y-122629110D01*
X116534204Y-122578011D01*
X116534196Y-122578009D01*
X116473649Y-122571500D01*
X116473638Y-122571500D01*
X116043804Y-122571500D01*
X115995585Y-122561909D01*
X115984115Y-122557158D01*
X115961594Y-122547829D01*
X115919172Y-122530257D01*
X115919170Y-122530256D01*
X115919169Y-122530256D01*
X115821089Y-122510746D01*
X115724331Y-122491500D01*
X115724329Y-122491500D01*
X115595823Y-122491500D01*
X115527702Y-122471498D01*
X115481209Y-122417842D01*
X115471105Y-122347568D01*
X115483554Y-122308301D01*
X115591117Y-122097198D01*
X115664491Y-121871376D01*
X115701636Y-121636857D01*
X115701636Y-121399413D01*
X115664491Y-121164894D01*
X115591117Y-120939072D01*
X115508807Y-120777530D01*
X115495704Y-120707755D01*
X115522404Y-120641970D01*
X115550841Y-120617189D01*
X115550546Y-120616809D01*
X115556800Y-120611956D01*
X115556807Y-120611953D01*
X115674453Y-120494307D01*
X115759145Y-120351101D01*
X115805562Y-120191331D01*
X115808499Y-120154011D01*
X115808500Y-120154011D01*
X115808500Y-118845989D01*
X115808499Y-118845988D01*
X115805562Y-118808671D01*
X115805561Y-118808667D01*
X115763503Y-118663897D01*
X115758500Y-118628745D01*
X115758500Y-118336194D01*
X115778502Y-118268073D01*
X115795400Y-118247103D01*
X115839158Y-118203346D01*
X115930709Y-118054920D01*
X115985562Y-117889381D01*
X115996000Y-117787213D01*
X115995999Y-117212788D01*
X115985562Y-117110619D01*
X115930709Y-116945080D01*
X115839158Y-116796654D01*
X115839157Y-116796653D01*
X115839152Y-116796647D01*
X115795405Y-116752900D01*
X115761379Y-116690588D01*
X115758500Y-116663805D01*
X115758500Y-114425293D01*
X115758499Y-114425290D01*
X115729351Y-114278754D01*
X115672174Y-114140716D01*
X115589165Y-114016484D01*
X115483516Y-113910835D01*
X114983515Y-113410834D01*
X114909096Y-113361109D01*
X114863569Y-113306633D01*
X114854721Y-113236190D01*
X114873616Y-113187429D01*
X114898860Y-113148791D01*
X114931058Y-113075385D01*
X114976738Y-113021038D01*
X115044550Y-113000014D01*
X115046445Y-113000000D01*
X117374000Y-113000000D01*
X117442121Y-113020002D01*
X117488614Y-113073658D01*
X117500000Y-113126000D01*
X117500000Y-132874000D01*
X117479998Y-132942121D01*
X117426342Y-132988614D01*
X117374000Y-133000000D01*
X91626000Y-133000000D01*
X91557879Y-132979998D01*
X91511386Y-132926342D01*
X91500000Y-132874000D01*
X91500000Y-131310000D01*
X92061708Y-131310000D01*
X92080834Y-131516405D01*
X92137560Y-131715779D01*
X92137563Y-131715785D01*
X92229954Y-131901332D01*
X92229958Y-131901337D01*
X92354875Y-132066756D01*
X92508063Y-132206405D01*
X92684299Y-132315526D01*
X92684300Y-132315526D01*
X92684306Y-132315530D01*
X92877597Y-132390411D01*
X93081356Y-132428500D01*
X93081358Y-132428500D01*
X93288642Y-132428500D01*
X93288644Y-132428500D01*
X93492403Y-132390411D01*
X93685694Y-132315530D01*
X93861935Y-132206406D01*
X94015123Y-132066757D01*
X94027401Y-132050499D01*
X94039692Y-132034221D01*
X94140042Y-131901337D01*
X94140043Y-131901333D01*
X94140045Y-131901332D01*
X94186240Y-131808558D01*
X94232439Y-131715780D01*
X94289166Y-131516404D01*
X94308292Y-131310000D01*
X99691708Y-131310000D01*
X99710834Y-131516405D01*
X99767560Y-131715779D01*
X99767563Y-131715785D01*
X99859954Y-131901332D01*
X99859958Y-131901337D01*
X99984875Y-132066756D01*
X100138063Y-132206405D01*
X100314299Y-132315526D01*
X100314300Y-132315526D01*
X100314306Y-132315530D01*
X100507597Y-132390411D01*
X100711356Y-132428500D01*
X100711358Y-132428500D01*
X100918642Y-132428500D01*
X100918644Y-132428500D01*
X101122403Y-132390411D01*
X101315694Y-132315530D01*
X101491935Y-132206406D01*
X101645123Y-132066757D01*
X101657401Y-132050499D01*
X101669692Y-132034221D01*
X101770042Y-131901337D01*
X101770043Y-131901333D01*
X101770045Y-131901332D01*
X101816240Y-131808558D01*
X101862439Y-131715780D01*
X101919166Y-131516404D01*
X101938292Y-131310000D01*
X101919166Y-131103596D01*
X101919129Y-131103467D01*
X103449500Y-131103467D01*
X103449526Y-131103596D01*
X103489870Y-131306420D01*
X103569059Y-131497598D01*
X103684023Y-131669655D01*
X103684024Y-131669656D01*
X103684029Y-131669662D01*
X103830337Y-131815970D01*
X103830343Y-131815975D01*
X103830345Y-131815977D01*
X104002402Y-131930941D01*
X104193580Y-132010130D01*
X104396535Y-132050500D01*
X104396536Y-132050500D01*
X104603464Y-132050500D01*
X104603465Y-132050500D01*
X104806420Y-132010130D01*
X104997598Y-131930941D01*
X105169655Y-131815977D01*
X105315977Y-131669655D01*
X105430941Y-131497598D01*
X105508647Y-131310000D01*
X107061708Y-131310000D01*
X107080834Y-131516405D01*
X107137560Y-131715779D01*
X107137563Y-131715785D01*
X107229954Y-131901332D01*
X107229958Y-131901337D01*
X107354875Y-132066756D01*
X107508063Y-132206405D01*
X107684299Y-132315526D01*
X107684300Y-132315526D01*
X107684306Y-132315530D01*
X107877597Y-132390411D01*
X108081356Y-132428500D01*
X108081358Y-132428500D01*
X108288642Y-132428500D01*
X108288644Y-132428500D01*
X108492403Y-132390411D01*
X108685694Y-132315530D01*
X108861935Y-132206406D01*
X109015123Y-132066757D01*
X109027401Y-132050499D01*
X109039692Y-132034221D01*
X109140042Y-131901337D01*
X109140043Y-131901333D01*
X109140045Y-131901332D01*
X109186240Y-131808558D01*
X109232439Y-131715780D01*
X109289166Y-131516404D01*
X109308292Y-131310000D01*
X114691708Y-131310000D01*
X114710834Y-131516405D01*
X114767560Y-131715779D01*
X114767563Y-131715785D01*
X114859954Y-131901332D01*
X114859958Y-131901337D01*
X114984875Y-132066756D01*
X115138063Y-132206405D01*
X115314299Y-132315526D01*
X115314300Y-132315526D01*
X115314306Y-132315530D01*
X115507597Y-132390411D01*
X115711356Y-132428500D01*
X115711358Y-132428500D01*
X115918642Y-132428500D01*
X115918644Y-132428500D01*
X116122403Y-132390411D01*
X116315694Y-132315530D01*
X116491935Y-132206406D01*
X116645123Y-132066757D01*
X116657401Y-132050499D01*
X116669692Y-132034221D01*
X116770042Y-131901337D01*
X116770043Y-131901333D01*
X116770045Y-131901332D01*
X116816240Y-131808558D01*
X116862439Y-131715780D01*
X116919166Y-131516404D01*
X116938292Y-131310000D01*
X116919166Y-131103596D01*
X116862439Y-130904220D01*
X116858611Y-130896532D01*
X116770045Y-130718667D01*
X116770041Y-130718662D01*
X116751099Y-130693579D01*
X116745472Y-130686127D01*
X116645124Y-130553243D01*
X116491936Y-130413594D01*
X116315700Y-130304473D01*
X116315696Y-130304471D01*
X116315694Y-130304470D01*
X116197285Y-130258598D01*
X116122404Y-130229589D01*
X116054483Y-130216892D01*
X115918644Y-130191500D01*
X115711356Y-130191500D01*
X115609476Y-130210544D01*
X115507595Y-130229589D01*
X115357833Y-130287607D01*
X115314306Y-130304470D01*
X115314305Y-130304470D01*
X115314304Y-130304471D01*
X115314299Y-130304473D01*
X115138063Y-130413594D01*
X114984875Y-130553243D01*
X114859958Y-130718662D01*
X114859954Y-130718667D01*
X114767563Y-130904214D01*
X114767560Y-130904220D01*
X114710834Y-131103594D01*
X114691708Y-131310000D01*
X109308292Y-131310000D01*
X109289166Y-131103596D01*
X109232439Y-130904220D01*
X109228611Y-130896532D01*
X109140045Y-130718667D01*
X109140041Y-130718662D01*
X109121099Y-130693579D01*
X109115472Y-130686127D01*
X109015124Y-130553243D01*
X108861936Y-130413594D01*
X108685700Y-130304473D01*
X108685696Y-130304471D01*
X108685694Y-130304470D01*
X108567285Y-130258598D01*
X108492404Y-130229589D01*
X108424483Y-130216892D01*
X108288644Y-130191500D01*
X108081356Y-130191500D01*
X107979476Y-130210544D01*
X107877595Y-130229589D01*
X107727833Y-130287607D01*
X107684306Y-130304470D01*
X107684305Y-130304470D01*
X107684304Y-130304471D01*
X107684299Y-130304473D01*
X107508063Y-130413594D01*
X107354875Y-130553243D01*
X107229958Y-130718662D01*
X107229954Y-130718667D01*
X107137563Y-130904214D01*
X107137560Y-130904220D01*
X107080834Y-131103594D01*
X107061708Y-131310000D01*
X105508647Y-131310000D01*
X105510130Y-131306420D01*
X105550500Y-131103465D01*
X105550500Y-130896535D01*
X105510130Y-130693580D01*
X105430941Y-130502402D01*
X105315977Y-130330345D01*
X105315975Y-130330343D01*
X105315970Y-130330337D01*
X105169662Y-130184029D01*
X105169656Y-130184024D01*
X105169655Y-130184023D01*
X104997598Y-130069059D01*
X104806420Y-129989870D01*
X104603467Y-129949500D01*
X104603465Y-129949500D01*
X104396535Y-129949500D01*
X104396532Y-129949500D01*
X104193579Y-129989870D01*
X104193574Y-129989872D01*
X104002402Y-130069059D01*
X103830343Y-130184024D01*
X103830337Y-130184029D01*
X103684029Y-130330337D01*
X103684024Y-130330343D01*
X103569059Y-130502402D01*
X103489872Y-130693574D01*
X103489870Y-130693579D01*
X103449500Y-130896532D01*
X103449500Y-131103467D01*
X101919129Y-131103467D01*
X101862439Y-130904220D01*
X101858611Y-130896532D01*
X101770045Y-130718667D01*
X101770041Y-130718662D01*
X101751099Y-130693579D01*
X101745472Y-130686127D01*
X101645124Y-130553243D01*
X101491936Y-130413594D01*
X101315700Y-130304473D01*
X101315696Y-130304471D01*
X101315694Y-130304470D01*
X101197285Y-130258598D01*
X101122404Y-130229589D01*
X101054483Y-130216892D01*
X100918644Y-130191500D01*
X100711356Y-130191500D01*
X100609476Y-130210544D01*
X100507595Y-130229589D01*
X100357833Y-130287607D01*
X100314306Y-130304470D01*
X100314305Y-130304470D01*
X100314304Y-130304471D01*
X100314299Y-130304473D01*
X100138063Y-130413594D01*
X99984875Y-130553243D01*
X99859958Y-130718662D01*
X99859954Y-130718667D01*
X99767563Y-130904214D01*
X99767560Y-130904220D01*
X99710834Y-131103594D01*
X99691708Y-131310000D01*
X94308292Y-131310000D01*
X94289166Y-131103596D01*
X94232439Y-130904220D01*
X94228611Y-130896532D01*
X94140045Y-130718667D01*
X94140041Y-130718662D01*
X94121099Y-130693579D01*
X94115472Y-130686127D01*
X94015124Y-130553243D01*
X93861936Y-130413594D01*
X93685700Y-130304473D01*
X93685696Y-130304471D01*
X93685694Y-130304470D01*
X93567285Y-130258598D01*
X93492404Y-130229589D01*
X93424483Y-130216892D01*
X93288644Y-130191500D01*
X93081356Y-130191500D01*
X92979476Y-130210544D01*
X92877595Y-130229589D01*
X92727833Y-130287607D01*
X92684306Y-130304470D01*
X92684305Y-130304470D01*
X92684304Y-130304471D01*
X92684299Y-130304473D01*
X92508063Y-130413594D01*
X92354875Y-130553243D01*
X92229958Y-130718662D01*
X92229954Y-130718667D01*
X92137563Y-130904214D01*
X92137560Y-130904220D01*
X92080834Y-131103594D01*
X92061708Y-131310000D01*
X91500000Y-131310000D01*
X91500000Y-128770000D01*
X92061708Y-128770000D01*
X92080834Y-128976405D01*
X92137560Y-129175779D01*
X92137563Y-129175785D01*
X92229954Y-129361332D01*
X92229958Y-129361337D01*
X92354875Y-129526756D01*
X92508063Y-129666405D01*
X92684299Y-129775526D01*
X92684300Y-129775526D01*
X92684306Y-129775530D01*
X92877597Y-129850411D01*
X93081356Y-129888500D01*
X93081358Y-129888500D01*
X93288642Y-129888500D01*
X93288644Y-129888500D01*
X93492403Y-129850411D01*
X93685694Y-129775530D01*
X93861935Y-129666406D01*
X94015123Y-129526757D01*
X94140042Y-129361337D01*
X94140043Y-129361333D01*
X94140045Y-129361332D01*
X94217889Y-129205000D01*
X94232439Y-129175780D01*
X94289166Y-128976404D01*
X94308292Y-128770004D01*
X99692210Y-128770004D01*
X99711327Y-128976310D01*
X99768027Y-129175590D01*
X99768030Y-129175598D01*
X99860385Y-129361072D01*
X99862248Y-129363540D01*
X100383913Y-128841875D01*
X100409644Y-128937904D01*
X100466913Y-129037097D01*
X100547903Y-129118087D01*
X100647096Y-129175356D01*
X100743123Y-129201086D01*
X100224730Y-129719478D01*
X100314523Y-129775076D01*
X100314533Y-129775081D01*
X100507730Y-129849926D01*
X100711404Y-129888000D01*
X100918596Y-129888000D01*
X101122266Y-129849927D01*
X101315470Y-129775079D01*
X101315474Y-129775077D01*
X101405269Y-129719478D01*
X100886876Y-129201085D01*
X100982904Y-129175356D01*
X101082097Y-129118087D01*
X101163087Y-129037097D01*
X101220356Y-128937904D01*
X101246085Y-128841876D01*
X101767749Y-129363540D01*
X101767751Y-129363540D01*
X101769612Y-129361075D01*
X101861969Y-129175598D01*
X101861972Y-129175590D01*
X101918672Y-128976310D01*
X101937790Y-128770004D01*
X101937790Y-128770000D01*
X107061708Y-128770000D01*
X107080834Y-128976405D01*
X107137560Y-129175779D01*
X107137563Y-129175785D01*
X107229954Y-129361332D01*
X107229958Y-129361337D01*
X107354875Y-129526756D01*
X107508063Y-129666405D01*
X107684299Y-129775526D01*
X107684300Y-129775526D01*
X107684306Y-129775530D01*
X107877597Y-129850411D01*
X108081356Y-129888500D01*
X108081358Y-129888500D01*
X108288642Y-129888500D01*
X108288644Y-129888500D01*
X108492403Y-129850411D01*
X108685694Y-129775530D01*
X108861935Y-129666406D01*
X109015123Y-129526757D01*
X109140042Y-129361337D01*
X109140043Y-129361333D01*
X109140045Y-129361332D01*
X109217889Y-129205000D01*
X109232439Y-129175780D01*
X109289166Y-128976404D01*
X109308292Y-128770004D01*
X114692210Y-128770004D01*
X114711327Y-128976310D01*
X114768027Y-129175590D01*
X114768030Y-129175598D01*
X114860385Y-129361072D01*
X114862248Y-129363540D01*
X115383913Y-128841875D01*
X115409644Y-128937904D01*
X115466913Y-129037097D01*
X115547903Y-129118087D01*
X115647096Y-129175356D01*
X115743123Y-129201086D01*
X115224730Y-129719478D01*
X115314523Y-129775076D01*
X115314533Y-129775081D01*
X115507730Y-129849926D01*
X115711404Y-129888000D01*
X115918596Y-129888000D01*
X116122266Y-129849927D01*
X116315470Y-129775079D01*
X116315474Y-129775077D01*
X116405269Y-129719478D01*
X115886876Y-129201085D01*
X115982904Y-129175356D01*
X116082097Y-129118087D01*
X116163087Y-129037097D01*
X116220356Y-128937904D01*
X116246085Y-128841876D01*
X116767749Y-129363540D01*
X116767751Y-129363540D01*
X116769612Y-129361075D01*
X116861969Y-129175598D01*
X116861972Y-129175590D01*
X116918672Y-128976310D01*
X116937790Y-128770004D01*
X116937790Y-128769995D01*
X116918672Y-128563689D01*
X116861972Y-128364409D01*
X116861969Y-128364401D01*
X116769615Y-128178928D01*
X116767750Y-128176458D01*
X116246085Y-128698123D01*
X116220356Y-128602096D01*
X116163087Y-128502903D01*
X116082097Y-128421913D01*
X115982904Y-128364644D01*
X115886875Y-128338913D01*
X116405268Y-127820520D01*
X116315471Y-127764920D01*
X116315464Y-127764917D01*
X116122269Y-127690073D01*
X115918596Y-127652000D01*
X115711404Y-127652000D01*
X115507730Y-127690073D01*
X115314535Y-127764917D01*
X115314523Y-127764923D01*
X115224729Y-127820520D01*
X115743123Y-128338914D01*
X115647096Y-128364644D01*
X115547903Y-128421913D01*
X115466913Y-128502903D01*
X115409644Y-128602096D01*
X115383914Y-128698123D01*
X114862249Y-128176458D01*
X114862246Y-128176458D01*
X114860391Y-128178917D01*
X114860386Y-128178925D01*
X114768030Y-128364401D01*
X114768027Y-128364409D01*
X114711327Y-128563689D01*
X114692210Y-128769995D01*
X114692210Y-128770004D01*
X109308292Y-128770004D01*
X109308292Y-128770000D01*
X109289166Y-128563596D01*
X109232439Y-128364220D01*
X109217889Y-128335000D01*
X109140045Y-128178667D01*
X109140041Y-128178662D01*
X109015124Y-128013243D01*
X108861936Y-127873594D01*
X108685700Y-127764473D01*
X108685696Y-127764471D01*
X108685694Y-127764470D01*
X108567285Y-127718598D01*
X108492404Y-127689589D01*
X108424483Y-127676892D01*
X108288644Y-127651500D01*
X108081356Y-127651500D01*
X107979476Y-127670544D01*
X107877595Y-127689589D01*
X107727833Y-127747607D01*
X107684306Y-127764470D01*
X107684305Y-127764470D01*
X107684304Y-127764471D01*
X107684299Y-127764473D01*
X107508063Y-127873594D01*
X107354875Y-128013243D01*
X107229958Y-128178662D01*
X107229954Y-128178667D01*
X107137563Y-128364214D01*
X107137560Y-128364220D01*
X107080834Y-128563594D01*
X107061708Y-128770000D01*
X101937790Y-128770000D01*
X101937790Y-128769995D01*
X101918672Y-128563689D01*
X101861972Y-128364409D01*
X101861969Y-128364401D01*
X101769615Y-128178928D01*
X101767750Y-128176458D01*
X101246085Y-128698123D01*
X101220356Y-128602096D01*
X101163087Y-128502903D01*
X101082097Y-128421913D01*
X100982904Y-128364644D01*
X100886875Y-128338913D01*
X101405268Y-127820520D01*
X101315471Y-127764920D01*
X101315464Y-127764917D01*
X101122269Y-127690073D01*
X100918596Y-127652000D01*
X100711404Y-127652000D01*
X100507730Y-127690073D01*
X100314535Y-127764917D01*
X100314523Y-127764923D01*
X100224729Y-127820520D01*
X100743123Y-128338914D01*
X100647096Y-128364644D01*
X100547903Y-128421913D01*
X100466913Y-128502903D01*
X100409644Y-128602096D01*
X100383914Y-128698123D01*
X99862249Y-128176458D01*
X99862246Y-128176458D01*
X99860391Y-128178917D01*
X99860386Y-128178925D01*
X99768030Y-128364401D01*
X99768027Y-128364409D01*
X99711327Y-128563689D01*
X99692210Y-128769995D01*
X99692210Y-128770004D01*
X94308292Y-128770004D01*
X94308292Y-128770000D01*
X94289166Y-128563596D01*
X94232439Y-128364220D01*
X94217889Y-128335000D01*
X94140045Y-128178667D01*
X94140041Y-128178662D01*
X94015124Y-128013243D01*
X93861936Y-127873594D01*
X93685700Y-127764473D01*
X93685696Y-127764471D01*
X93685694Y-127764470D01*
X93567285Y-127718598D01*
X93492404Y-127689589D01*
X93424483Y-127676892D01*
X93288644Y-127651500D01*
X93081356Y-127651500D01*
X92979476Y-127670544D01*
X92877595Y-127689589D01*
X92727833Y-127747607D01*
X92684306Y-127764470D01*
X92684305Y-127764470D01*
X92684304Y-127764471D01*
X92684299Y-127764473D01*
X92508063Y-127873594D01*
X92354875Y-128013243D01*
X92229958Y-128178662D01*
X92229954Y-128178667D01*
X92137563Y-128364214D01*
X92137560Y-128364220D01*
X92080834Y-128563594D01*
X92061708Y-128770000D01*
X91500000Y-128770000D01*
X91500000Y-126230000D01*
X92061708Y-126230000D01*
X92080834Y-126436405D01*
X92137560Y-126635779D01*
X92137563Y-126635785D01*
X92229954Y-126821332D01*
X92229958Y-126821337D01*
X92354875Y-126986756D01*
X92508063Y-127126405D01*
X92684299Y-127235526D01*
X92684300Y-127235526D01*
X92684306Y-127235530D01*
X92877597Y-127310411D01*
X93081356Y-127348500D01*
X93081358Y-127348500D01*
X93288642Y-127348500D01*
X93288644Y-127348500D01*
X93492403Y-127310411D01*
X93685694Y-127235530D01*
X93861935Y-127126406D01*
X94015123Y-126986757D01*
X94140042Y-126821337D01*
X94140043Y-126821333D01*
X94140045Y-126821332D01*
X94186240Y-126728558D01*
X94232439Y-126635780D01*
X94289166Y-126436404D01*
X94308292Y-126230000D01*
X99691708Y-126230000D01*
X99710834Y-126436405D01*
X99767560Y-126635779D01*
X99767563Y-126635785D01*
X99859954Y-126821332D01*
X99859958Y-126821337D01*
X99984875Y-126986756D01*
X100138063Y-127126405D01*
X100314299Y-127235526D01*
X100314300Y-127235526D01*
X100314306Y-127235530D01*
X100507597Y-127310411D01*
X100711356Y-127348500D01*
X100711358Y-127348500D01*
X100918642Y-127348500D01*
X100918644Y-127348500D01*
X101122403Y-127310411D01*
X101315694Y-127235530D01*
X101491935Y-127126406D01*
X101645123Y-126986757D01*
X101770042Y-126821337D01*
X101770043Y-126821333D01*
X101770045Y-126821332D01*
X101816240Y-126728558D01*
X101862439Y-126635780D01*
X101919166Y-126436404D01*
X101938292Y-126230000D01*
X107061708Y-126230000D01*
X107080834Y-126436405D01*
X107137560Y-126635779D01*
X107137563Y-126635785D01*
X107229954Y-126821332D01*
X107229958Y-126821337D01*
X107354875Y-126986756D01*
X107508063Y-127126405D01*
X107684299Y-127235526D01*
X107684300Y-127235526D01*
X107684306Y-127235530D01*
X107877597Y-127310411D01*
X108081356Y-127348500D01*
X108081358Y-127348500D01*
X108288642Y-127348500D01*
X108288644Y-127348500D01*
X108492403Y-127310411D01*
X108685694Y-127235530D01*
X108861935Y-127126406D01*
X109015123Y-126986757D01*
X109140042Y-126821337D01*
X109140043Y-126821333D01*
X109140045Y-126821332D01*
X109186240Y-126728558D01*
X109232439Y-126635780D01*
X109289166Y-126436404D01*
X109308292Y-126230000D01*
X114691708Y-126230000D01*
X114710834Y-126436405D01*
X114767560Y-126635779D01*
X114767563Y-126635785D01*
X114859954Y-126821332D01*
X114859958Y-126821337D01*
X114984875Y-126986756D01*
X115138063Y-127126405D01*
X115314299Y-127235526D01*
X115314300Y-127235526D01*
X115314306Y-127235530D01*
X115507597Y-127310411D01*
X115711356Y-127348500D01*
X115711358Y-127348500D01*
X115918642Y-127348500D01*
X115918644Y-127348500D01*
X116122403Y-127310411D01*
X116315694Y-127235530D01*
X116491935Y-127126406D01*
X116645123Y-126986757D01*
X116770042Y-126821337D01*
X116770043Y-126821333D01*
X116770045Y-126821332D01*
X116816240Y-126728558D01*
X116862439Y-126635780D01*
X116919166Y-126436404D01*
X116938292Y-126230000D01*
X116919166Y-126023596D01*
X116862439Y-125824220D01*
X116861319Y-125821971D01*
X116770045Y-125638667D01*
X116770041Y-125638662D01*
X116645124Y-125473243D01*
X116491936Y-125333594D01*
X116315700Y-125224473D01*
X116315696Y-125224471D01*
X116315694Y-125224470D01*
X116197285Y-125178598D01*
X116122404Y-125149589D01*
X116054483Y-125136892D01*
X115918644Y-125111500D01*
X115711356Y-125111500D01*
X115609476Y-125130544D01*
X115507595Y-125149589D01*
X115357833Y-125207607D01*
X115314306Y-125224470D01*
X115314305Y-125224470D01*
X115314304Y-125224471D01*
X115314299Y-125224473D01*
X115138063Y-125333594D01*
X114984875Y-125473243D01*
X114859958Y-125638662D01*
X114859954Y-125638667D01*
X114767563Y-125824214D01*
X114767560Y-125824220D01*
X114710834Y-126023594D01*
X114691708Y-126230000D01*
X109308292Y-126230000D01*
X109289166Y-126023596D01*
X109232439Y-125824220D01*
X109231319Y-125821971D01*
X109140045Y-125638667D01*
X109140041Y-125638662D01*
X109015124Y-125473243D01*
X108861936Y-125333594D01*
X108685700Y-125224473D01*
X108685696Y-125224471D01*
X108685694Y-125224470D01*
X108567285Y-125178598D01*
X108492404Y-125149589D01*
X108424483Y-125136892D01*
X108288644Y-125111500D01*
X108081356Y-125111500D01*
X107979476Y-125130544D01*
X107877595Y-125149589D01*
X107727833Y-125207607D01*
X107684306Y-125224470D01*
X107684305Y-125224470D01*
X107684304Y-125224471D01*
X107684299Y-125224473D01*
X107508063Y-125333594D01*
X107354875Y-125473243D01*
X107229958Y-125638662D01*
X107229954Y-125638667D01*
X107137563Y-125824214D01*
X107137560Y-125824220D01*
X107080834Y-126023594D01*
X107061708Y-126230000D01*
X101938292Y-126230000D01*
X101919166Y-126023596D01*
X101862439Y-125824220D01*
X101861319Y-125821971D01*
X101770045Y-125638667D01*
X101770041Y-125638662D01*
X101645124Y-125473243D01*
X101491936Y-125333594D01*
X101315700Y-125224473D01*
X101315696Y-125224471D01*
X101315694Y-125224470D01*
X101197285Y-125178598D01*
X101122404Y-125149589D01*
X101054483Y-125136892D01*
X100918644Y-125111500D01*
X100711356Y-125111500D01*
X100609476Y-125130544D01*
X100507595Y-125149589D01*
X100357833Y-125207607D01*
X100314306Y-125224470D01*
X100314305Y-125224470D01*
X100314304Y-125224471D01*
X100314299Y-125224473D01*
X100138063Y-125333594D01*
X99984875Y-125473243D01*
X99859958Y-125638662D01*
X99859954Y-125638667D01*
X99767563Y-125824214D01*
X99767560Y-125824220D01*
X99710834Y-126023594D01*
X99691708Y-126230000D01*
X94308292Y-126230000D01*
X94289166Y-126023596D01*
X94232439Y-125824220D01*
X94231319Y-125821971D01*
X94140045Y-125638667D01*
X94140041Y-125638662D01*
X94015124Y-125473243D01*
X93861936Y-125333594D01*
X93685700Y-125224473D01*
X93685696Y-125224471D01*
X93685694Y-125224470D01*
X93567285Y-125178598D01*
X93492404Y-125149589D01*
X93424483Y-125136892D01*
X93288644Y-125111500D01*
X93081356Y-125111500D01*
X92979476Y-125130544D01*
X92877595Y-125149589D01*
X92727833Y-125207607D01*
X92684306Y-125224470D01*
X92684305Y-125224470D01*
X92684304Y-125224471D01*
X92684299Y-125224473D01*
X92508063Y-125333594D01*
X92354875Y-125473243D01*
X92229958Y-125638662D01*
X92229954Y-125638667D01*
X92137563Y-125824214D01*
X92137560Y-125824220D01*
X92080834Y-126023594D01*
X92061708Y-126230000D01*
X91500000Y-126230000D01*
X91500000Y-123690004D01*
X92062210Y-123690004D01*
X92081327Y-123896310D01*
X92138027Y-124095590D01*
X92138030Y-124095598D01*
X92230385Y-124281072D01*
X92232248Y-124283540D01*
X92753913Y-123761875D01*
X92779644Y-123857904D01*
X92836913Y-123957097D01*
X92917903Y-124038087D01*
X93017096Y-124095356D01*
X93113123Y-124121086D01*
X92594730Y-124639478D01*
X92684523Y-124695076D01*
X92684533Y-124695081D01*
X92877730Y-124769926D01*
X93081404Y-124808000D01*
X93288596Y-124808000D01*
X93492266Y-124769927D01*
X93685470Y-124695079D01*
X93685474Y-124695077D01*
X93775269Y-124639478D01*
X93256876Y-124121085D01*
X93352904Y-124095356D01*
X93452097Y-124038087D01*
X93533087Y-123957097D01*
X93590356Y-123857904D01*
X93616085Y-123761876D01*
X94137749Y-124283540D01*
X94137751Y-124283540D01*
X94139612Y-124281075D01*
X94231969Y-124095598D01*
X94231972Y-124095590D01*
X94288672Y-123896310D01*
X94307790Y-123690004D01*
X94307790Y-123689995D01*
X94288672Y-123483689D01*
X94231972Y-123284409D01*
X94231969Y-123284401D01*
X94139615Y-123098928D01*
X94137750Y-123096458D01*
X93616085Y-123618123D01*
X93590356Y-123522096D01*
X93533087Y-123422903D01*
X93452097Y-123341913D01*
X93352904Y-123284644D01*
X93256875Y-123258913D01*
X93775268Y-122740520D01*
X93685471Y-122684920D01*
X93685464Y-122684917D01*
X93630085Y-122663463D01*
X93573790Y-122620204D01*
X93557984Y-122576139D01*
X93531558Y-122597126D01*
X93461020Y-122604231D01*
X93288596Y-122572000D01*
X93081404Y-122572000D01*
X92877730Y-122610073D01*
X92684535Y-122684917D01*
X92684523Y-122684923D01*
X92594729Y-122740520D01*
X93113123Y-123258914D01*
X93017096Y-123284644D01*
X92917903Y-123341913D01*
X92836913Y-123422903D01*
X92779644Y-123522096D01*
X92753914Y-123618123D01*
X92232249Y-123096458D01*
X92232246Y-123096458D01*
X92230391Y-123098917D01*
X92230386Y-123098925D01*
X92138030Y-123284401D01*
X92138027Y-123284409D01*
X92081327Y-123483689D01*
X92062210Y-123689995D01*
X92062210Y-123690004D01*
X91500000Y-123690004D01*
X91500000Y-113126000D01*
X91520002Y-113057879D01*
X91573658Y-113011386D01*
X91626000Y-113000000D01*
X93825514Y-113000000D01*
X93893635Y-113020002D01*
G37*
%TD.AperFunction*%
%TA.AperFunction,Conductor*%
G36*
X103794000Y-113834390D02*
G01*
X103874507Y-113820957D01*
X103874516Y-113820955D01*
X104087369Y-113747883D01*
X104087371Y-113747882D01*
X104285300Y-113640768D01*
X104285301Y-113640767D01*
X104462902Y-113502534D01*
X104615325Y-113336958D01*
X104704218Y-113200898D01*
X104758222Y-113154810D01*
X104828570Y-113145235D01*
X104892927Y-113175212D01*
X104915183Y-113200898D01*
X104929034Y-113222099D01*
X105004275Y-113337265D01*
X105004279Y-113337270D01*
X105156762Y-113502908D01*
X105211331Y-113545381D01*
X105334424Y-113641189D01*
X105532426Y-113748342D01*
X105532427Y-113748342D01*
X105532428Y-113748343D01*
X105644227Y-113786723D01*
X105745365Y-113821444D01*
X105967431Y-113858500D01*
X105967435Y-113858500D01*
X106192565Y-113858500D01*
X106192569Y-113858500D01*
X106414635Y-113821444D01*
X106627574Y-113748342D01*
X106825576Y-113641189D01*
X107003240Y-113502906D01*
X107155722Y-113337268D01*
X107244518Y-113201354D01*
X107298520Y-113155268D01*
X107368868Y-113145692D01*
X107433225Y-113175669D01*
X107455480Y-113201353D01*
X107478241Y-113236190D01*
X107544275Y-113337265D01*
X107544279Y-113337270D01*
X107696762Y-113502908D01*
X107751331Y-113545381D01*
X107874424Y-113641189D01*
X108072426Y-113748342D01*
X108072427Y-113748342D01*
X108072428Y-113748343D01*
X108141218Y-113771958D01*
X108285365Y-113821444D01*
X108345652Y-113831503D01*
X108409551Y-113862444D01*
X108414009Y-113866690D01*
X109136485Y-114589166D01*
X109260716Y-114672174D01*
X109398754Y-114729351D01*
X109545294Y-114758500D01*
X109545295Y-114758500D01*
X109694705Y-114758500D01*
X114115500Y-114758500D01*
X114183621Y-114778502D01*
X114230114Y-114832158D01*
X114241500Y-114884500D01*
X114241500Y-116663806D01*
X114221498Y-116731927D01*
X114204598Y-116752897D01*
X114178701Y-116778795D01*
X114176240Y-116781256D01*
X114113927Y-116815280D01*
X114043111Y-116810214D01*
X113998051Y-116781254D01*
X113890539Y-116673742D01*
X113890533Y-116673737D01*
X113742207Y-116582248D01*
X113576776Y-116527431D01*
X113576773Y-116527430D01*
X113474684Y-116517000D01*
X113429000Y-116517000D01*
X113429000Y-118400000D01*
X113408998Y-118468121D01*
X113388066Y-118486257D01*
X113390904Y-118489095D01*
X113354000Y-118525999D01*
X113354000Y-119246000D01*
X113907999Y-119246000D01*
X113907999Y-118846043D01*
X113905065Y-118808749D01*
X113858681Y-118649099D01*
X113790256Y-118533398D01*
X113772797Y-118464582D01*
X113795314Y-118397251D01*
X113832564Y-118362018D01*
X113890530Y-118326264D01*
X113890534Y-118326261D01*
X113998050Y-118218745D01*
X114060362Y-118184720D01*
X114131178Y-118189784D01*
X114176241Y-118218745D01*
X114204595Y-118247099D01*
X114238621Y-118309411D01*
X114241500Y-118336194D01*
X114241500Y-118628745D01*
X114236497Y-118663897D01*
X114194438Y-118808667D01*
X114194437Y-118808671D01*
X114191500Y-118845988D01*
X114191500Y-119883945D01*
X114171498Y-119952066D01*
X114117842Y-119998559D01*
X114079252Y-120008558D01*
X114079300Y-120008860D01*
X114076188Y-120009352D01*
X114075408Y-120009555D01*
X114074418Y-120009633D01*
X114053707Y-120012913D01*
X113983296Y-120003812D01*
X113928983Y-119958089D01*
X113908012Y-119890261D01*
X113907999Y-119888463D01*
X113908000Y-119754000D01*
X112292001Y-119754000D01*
X112292001Y-120065500D01*
X112271999Y-120133621D01*
X112218343Y-120180114D01*
X112166001Y-120191500D01*
X111377031Y-120191500D01*
X111308910Y-120171498D01*
X111287936Y-120154595D01*
X111130030Y-119996689D01*
X111130010Y-119996667D01*
X110957727Y-119824384D01*
X110957724Y-119824382D01*
X110957722Y-119824380D01*
X110765627Y-119684815D01*
X110554063Y-119577018D01*
X110554060Y-119577017D01*
X110554058Y-119577016D01*
X110328245Y-119503645D01*
X110328243Y-119503644D01*
X110328241Y-119503644D01*
X110119984Y-119470658D01*
X110055832Y-119440246D01*
X110018305Y-119379978D01*
X110019319Y-119308988D01*
X110058552Y-119249817D01*
X110123548Y-119221249D01*
X110126889Y-119220863D01*
X110178357Y-119215604D01*
X110229425Y-119210387D01*
X110397738Y-119154615D01*
X110548651Y-119061530D01*
X110674030Y-118936151D01*
X110767115Y-118785238D01*
X110822887Y-118616925D01*
X110831421Y-118533398D01*
X110833500Y-118513052D01*
X110833500Y-117754000D01*
X112179500Y-117754000D01*
X112179500Y-117787184D01*
X112189930Y-117889273D01*
X112189931Y-117889276D01*
X112244748Y-118054707D01*
X112336237Y-118203033D01*
X112336242Y-118203039D01*
X112443479Y-118310276D01*
X112477505Y-118372588D01*
X112472440Y-118443403D01*
X112443481Y-118488465D01*
X112425947Y-118505999D01*
X112341318Y-118649098D01*
X112294934Y-118808750D01*
X112292000Y-118846043D01*
X112292000Y-119246000D01*
X112846000Y-119246000D01*
X112846000Y-118337500D01*
X112866002Y-118269379D01*
X112886933Y-118251242D01*
X112884096Y-118248405D01*
X112921000Y-118211501D01*
X112921000Y-117754000D01*
X112179500Y-117754000D01*
X110833500Y-117754000D01*
X110833500Y-117486947D01*
X110822887Y-117383078D01*
X110822887Y-117383075D01*
X110777466Y-117246000D01*
X112179500Y-117246000D01*
X112921000Y-117246000D01*
X112921000Y-116517000D01*
X112875315Y-116517000D01*
X112773226Y-116527430D01*
X112773223Y-116527431D01*
X112607792Y-116582248D01*
X112459466Y-116673737D01*
X112459460Y-116673742D01*
X112336242Y-116796960D01*
X112336237Y-116796966D01*
X112244748Y-116945292D01*
X112189931Y-117110723D01*
X112189930Y-117110726D01*
X112179500Y-117212815D01*
X112179500Y-117246000D01*
X110777466Y-117246000D01*
X110767115Y-117214762D01*
X110674030Y-117063849D01*
X110674029Y-117063848D01*
X110674024Y-117063842D01*
X110548657Y-116938475D01*
X110548651Y-116938470D01*
X110397738Y-116845385D01*
X110229425Y-116789613D01*
X110229423Y-116789612D01*
X110229421Y-116789612D01*
X110125552Y-116779000D01*
X110125544Y-116779000D01*
X109926792Y-116779000D01*
X109858671Y-116758998D01*
X109852731Y-116754936D01*
X109790630Y-116709817D01*
X109790629Y-116709816D01*
X109790627Y-116709815D01*
X109579063Y-116602018D01*
X109579060Y-116602017D01*
X109579058Y-116602016D01*
X109353246Y-116528645D01*
X109353242Y-116528644D01*
X109353241Y-116528644D01*
X109118722Y-116491500D01*
X109118719Y-116491500D01*
X102596985Y-116491500D01*
X102528864Y-116471498D01*
X102482371Y-116417842D01*
X102472267Y-116347568D01*
X102472536Y-116345789D01*
X102508501Y-116118722D01*
X102508501Y-115881278D01*
X102508501Y-115876821D01*
X102508500Y-115876791D01*
X102508500Y-113675747D01*
X102528502Y-113607626D01*
X102582158Y-113561133D01*
X102652432Y-113551029D01*
X102711891Y-113576316D01*
X102794690Y-113640762D01*
X102794699Y-113640768D01*
X102992628Y-113747882D01*
X102992630Y-113747883D01*
X103205483Y-113820955D01*
X103205492Y-113820957D01*
X103286000Y-113834391D01*
X103286000Y-113000000D01*
X103794000Y-113000000D01*
X103794000Y-113834390D01*
G37*
%TD.AperFunction*%
%TD*%
%TA.AperFunction,Conductor*%
%TO.N,GND1*%
G36*
X128942121Y-34020002D02*
G01*
X128988614Y-34073658D01*
X129000000Y-34126000D01*
X129000000Y-81874000D01*
X128979998Y-81942121D01*
X128926342Y-81988614D01*
X128874000Y-82000000D01*
X115136649Y-82000000D01*
X115068528Y-81979998D01*
X115022035Y-81926342D01*
X115011931Y-81856068D01*
X115014505Y-81843068D01*
X115042125Y-81733998D01*
X115044564Y-81724368D01*
X115063156Y-81500000D01*
X115044564Y-81275632D01*
X114989296Y-81057384D01*
X114898860Y-80851209D01*
X114881597Y-80824786D01*
X114775724Y-80662734D01*
X114775720Y-80662729D01*
X114659570Y-80536559D01*
X114623240Y-80497094D01*
X114623239Y-80497093D01*
X114623237Y-80497091D01*
X114528924Y-80423684D01*
X114445576Y-80358811D01*
X114247574Y-80251658D01*
X114247572Y-80251657D01*
X114247571Y-80251656D01*
X114034639Y-80178557D01*
X114034630Y-80178555D01*
X113957029Y-80165606D01*
X113812569Y-80141500D01*
X113587431Y-80141500D01*
X113442971Y-80165606D01*
X113365369Y-80178555D01*
X113365360Y-80178557D01*
X113152428Y-80251656D01*
X113152426Y-80251658D01*
X112954426Y-80358810D01*
X112954424Y-80358811D01*
X112776762Y-80497091D01*
X112624279Y-80662729D01*
X112535483Y-80798643D01*
X112481479Y-80844731D01*
X112411131Y-80854306D01*
X112346774Y-80824329D01*
X112324517Y-80798643D01*
X112235720Y-80662729D01*
X112119570Y-80536559D01*
X112083240Y-80497094D01*
X112083239Y-80497093D01*
X112083237Y-80497091D01*
X111988924Y-80423684D01*
X111905576Y-80358811D01*
X111707574Y-80251658D01*
X111707572Y-80251657D01*
X111707571Y-80251656D01*
X111494639Y-80178557D01*
X111494630Y-80178555D01*
X111417029Y-80165606D01*
X111272569Y-80141500D01*
X111047431Y-80141500D01*
X110902971Y-80165606D01*
X110825369Y-80178555D01*
X110825360Y-80178557D01*
X110612428Y-80251656D01*
X110612426Y-80251658D01*
X110414426Y-80358810D01*
X110414424Y-80358811D01*
X110236762Y-80497091D01*
X110084279Y-80662729D01*
X109995483Y-80798643D01*
X109941479Y-80844731D01*
X109871131Y-80854306D01*
X109806774Y-80824329D01*
X109784517Y-80798643D01*
X109695720Y-80662729D01*
X109579570Y-80536559D01*
X109543240Y-80497094D01*
X109543239Y-80497093D01*
X109543237Y-80497091D01*
X109448924Y-80423684D01*
X109365576Y-80358811D01*
X109167574Y-80251658D01*
X109167572Y-80251657D01*
X109167571Y-80251656D01*
X109051035Y-80211650D01*
X108993100Y-80170613D01*
X108966548Y-80104768D01*
X108979809Y-80035021D01*
X109002848Y-80003385D01*
X109460831Y-79545404D01*
X109523143Y-79511379D01*
X109549926Y-79508500D01*
X122322968Y-79508500D01*
X122391089Y-79528502D01*
X122412058Y-79545400D01*
X122517278Y-79650620D01*
X122709373Y-79790185D01*
X122920937Y-79897982D01*
X123146759Y-79971356D01*
X123381278Y-80008500D01*
X123381281Y-80008500D01*
X123618719Y-80008500D01*
X123618722Y-80008500D01*
X123853241Y-79971356D01*
X124079063Y-79897982D01*
X124290627Y-79790185D01*
X124482722Y-79650620D01*
X124650620Y-79482722D01*
X124790185Y-79290627D01*
X124790191Y-79290614D01*
X124792170Y-79287386D01*
X124844812Y-79239748D01*
X124910593Y-79227687D01*
X124912900Y-79227888D01*
X125600000Y-78540788D01*
X125600000Y-78552661D01*
X125627259Y-78654394D01*
X125679920Y-78745606D01*
X125754394Y-78820080D01*
X125845606Y-78872741D01*
X125947339Y-78900000D01*
X125959210Y-78900000D01*
X125272110Y-79587098D01*
X125272110Y-79587100D01*
X125343498Y-79637086D01*
X125550926Y-79733811D01*
X125550931Y-79733813D01*
X125771999Y-79793048D01*
X125771995Y-79793048D01*
X126000000Y-79812995D01*
X126228002Y-79793048D01*
X126449068Y-79733813D01*
X126449073Y-79733811D01*
X126656497Y-79637088D01*
X126727888Y-79587099D01*
X126727888Y-79587097D01*
X126040791Y-78900000D01*
X126052661Y-78900000D01*
X126154394Y-78872741D01*
X126245606Y-78820080D01*
X126320080Y-78745606D01*
X126372741Y-78654394D01*
X126400000Y-78552661D01*
X126400000Y-78540791D01*
X127087097Y-79227888D01*
X127087099Y-79227888D01*
X127137088Y-79156497D01*
X127233811Y-78949073D01*
X127233813Y-78949068D01*
X127293048Y-78728002D01*
X127312995Y-78500000D01*
X127293048Y-78271997D01*
X127233813Y-78050931D01*
X127233811Y-78050926D01*
X127137086Y-77843498D01*
X127087100Y-77772110D01*
X127087098Y-77772110D01*
X126400000Y-78459208D01*
X126400000Y-78447339D01*
X126372741Y-78345606D01*
X126320080Y-78254394D01*
X126245606Y-78179920D01*
X126154394Y-78127259D01*
X126052661Y-78100000D01*
X126040789Y-78100000D01*
X126727888Y-77412899D01*
X126727888Y-77412898D01*
X126656501Y-77362913D01*
X126449073Y-77266188D01*
X126449068Y-77266186D01*
X126228000Y-77206951D01*
X126228004Y-77206951D01*
X126000000Y-77187004D01*
X125771997Y-77206951D01*
X125550931Y-77266186D01*
X125550926Y-77266188D01*
X125343498Y-77362913D01*
X125206770Y-77458651D01*
X125139496Y-77481339D01*
X125070636Y-77464054D01*
X125022052Y-77412284D01*
X125008500Y-77355438D01*
X125008500Y-77177030D01*
X125028502Y-77108909D01*
X125045400Y-77087940D01*
X127975535Y-74157804D01*
X127975549Y-74157793D01*
X128150615Y-73982727D01*
X128150620Y-73982722D01*
X128290185Y-73790627D01*
X128390178Y-73594380D01*
X128397982Y-73579064D01*
X128471356Y-73353241D01*
X128508500Y-73118722D01*
X128508500Y-72881279D01*
X128508500Y-48352201D01*
X128471356Y-48117682D01*
X128397982Y-47891860D01*
X128290185Y-47680296D01*
X128150620Y-47488201D01*
X127982722Y-47320303D01*
X127982721Y-47320302D01*
X125724106Y-45061688D01*
X125724087Y-45061667D01*
X125551804Y-44889384D01*
X125551801Y-44889382D01*
X125551799Y-44889380D01*
X125387486Y-44770000D01*
X125359707Y-44749817D01*
X125359706Y-44749816D01*
X125359704Y-44749815D01*
X125148140Y-44642018D01*
X125148137Y-44642017D01*
X125148135Y-44642016D01*
X124922322Y-44568645D01*
X124922320Y-44568644D01*
X124922318Y-44568644D01*
X124687799Y-44531499D01*
X124528918Y-44531499D01*
X124460797Y-44511497D01*
X124414304Y-44457841D01*
X124404200Y-44387567D01*
X124423435Y-44336583D01*
X124518108Y-44191677D01*
X124614522Y-43971874D01*
X124673443Y-43739199D01*
X124693264Y-43500000D01*
X124673443Y-43260801D01*
X124651839Y-43175488D01*
X124614523Y-43028129D01*
X124614522Y-43028128D01*
X124614522Y-43028126D01*
X124518108Y-42808323D01*
X124386829Y-42607387D01*
X124224269Y-42430799D01*
X124093623Y-42329113D01*
X124052153Y-42271488D01*
X124048419Y-42200590D01*
X124068672Y-42165100D01*
X124069678Y-42148889D01*
X123371479Y-41450690D01*
X123436081Y-41433381D01*
X123551920Y-41366502D01*
X123646502Y-41271920D01*
X123713381Y-41156081D01*
X123730690Y-41091481D01*
X124427955Y-41788746D01*
X124427956Y-41788746D01*
X124517667Y-41651434D01*
X124614045Y-41431714D01*
X124614048Y-41431707D01*
X124672946Y-41199124D01*
X124692761Y-40960000D01*
X124672946Y-40720875D01*
X124614048Y-40488292D01*
X124614045Y-40488285D01*
X124517667Y-40268565D01*
X124427956Y-40131252D01*
X123730690Y-40828518D01*
X123713381Y-40763919D01*
X123646502Y-40648080D01*
X123551920Y-40553498D01*
X123436081Y-40486619D01*
X123371480Y-40469309D01*
X124069678Y-39771110D01*
X124068683Y-39755091D01*
X124052153Y-39732120D01*
X124048421Y-39661222D01*
X124083612Y-39599561D01*
X124093625Y-39590885D01*
X124224269Y-39489201D01*
X124386829Y-39312613D01*
X124518108Y-39111677D01*
X124614522Y-38891874D01*
X124673443Y-38659199D01*
X124693264Y-38420000D01*
X124673443Y-38180801D01*
X124670621Y-38169656D01*
X124614523Y-37948129D01*
X124614522Y-37948128D01*
X124614522Y-37948126D01*
X124518108Y-37728323D01*
X124386829Y-37527387D01*
X124331250Y-37467012D01*
X124224274Y-37350804D01*
X124224272Y-37350802D01*
X124224269Y-37350799D01*
X124034860Y-37203376D01*
X123823769Y-37089140D01*
X123823766Y-37089139D01*
X123823765Y-37089138D01*
X123596759Y-37011206D01*
X123596750Y-37011204D01*
X123549674Y-37003348D01*
X123360010Y-36971700D01*
X123119990Y-36971700D01*
X122961974Y-36998067D01*
X122883249Y-37011204D01*
X122883240Y-37011206D01*
X122656234Y-37089138D01*
X122656231Y-37089140D01*
X122445140Y-37203376D01*
X122445138Y-37203377D01*
X122445137Y-37203378D01*
X122255730Y-37350800D01*
X122255725Y-37350804D01*
X122093176Y-37527380D01*
X122093172Y-37527385D01*
X122093171Y-37527387D01*
X122043465Y-37603467D01*
X121961892Y-37728323D01*
X121865477Y-37948128D01*
X121865476Y-37948129D01*
X121806558Y-38180793D01*
X121806557Y-38180799D01*
X121806557Y-38180801D01*
X121786736Y-38420000D01*
X121794204Y-38510129D01*
X121806558Y-38659206D01*
X121865476Y-38891870D01*
X121865477Y-38891871D01*
X121865478Y-38891874D01*
X121961892Y-39111677D01*
X122093171Y-39312613D01*
X122093174Y-39312617D01*
X122093176Y-39312619D01*
X122255725Y-39489195D01*
X122255731Y-39489201D01*
X122255734Y-39489203D01*
X122255737Y-39489206D01*
X122386373Y-39590885D01*
X122427844Y-39648510D01*
X122431577Y-39719408D01*
X122411327Y-39754890D01*
X122410319Y-39771110D01*
X123108518Y-40469309D01*
X123043919Y-40486619D01*
X122928080Y-40553498D01*
X122833498Y-40648080D01*
X122766619Y-40763919D01*
X122749309Y-40828519D01*
X122052042Y-40131251D01*
X122052041Y-40131252D01*
X121962338Y-40268553D01*
X121962331Y-40268567D01*
X121865954Y-40488285D01*
X121865951Y-40488292D01*
X121806226Y-40724142D01*
X121770114Y-40785268D01*
X121706686Y-40817167D01*
X121636082Y-40809710D01*
X121594987Y-40782306D01*
X116723519Y-35910838D01*
X116723518Y-35910837D01*
X116723515Y-35910834D01*
X116599284Y-35827826D01*
X116461247Y-35770649D01*
X116387976Y-35756074D01*
X116387975Y-35756073D01*
X116314711Y-35741500D01*
X116314706Y-35741500D01*
X105074706Y-35741500D01*
X104925294Y-35741500D01*
X104925290Y-35741500D01*
X104778753Y-35770649D01*
X104778750Y-35770650D01*
X104640715Y-35827826D01*
X104516488Y-35910832D01*
X104516481Y-35910837D01*
X104410837Y-36016481D01*
X104410832Y-36016488D01*
X104327826Y-36140715D01*
X104270650Y-36278750D01*
X104270649Y-36278753D01*
X104241500Y-36425290D01*
X104241500Y-41010629D01*
X104221498Y-41078750D01*
X104204595Y-41099724D01*
X103887224Y-41417095D01*
X103824912Y-41451121D01*
X103798129Y-41454000D01*
X102754000Y-41454000D01*
X102754000Y-42208000D01*
X102792129Y-42208000D01*
X102860250Y-42228002D01*
X102906743Y-42281658D01*
X102916847Y-42351932D01*
X102887353Y-42416512D01*
X102881224Y-42423095D01*
X101910836Y-43393482D01*
X101910831Y-43393489D01*
X101839662Y-43500001D01*
X101827828Y-43517711D01*
X101770650Y-43655750D01*
X101770649Y-43655753D01*
X101741500Y-43802290D01*
X101741500Y-43865500D01*
X101721498Y-43933621D01*
X101667842Y-43980114D01*
X101615500Y-43991500D01*
X101601350Y-43991500D01*
X101540803Y-43998009D01*
X101540795Y-43998011D01*
X101403797Y-44049110D01*
X101403792Y-44049112D01*
X101286738Y-44136738D01*
X101246113Y-44191009D01*
X101189278Y-44233556D01*
X101145245Y-44241500D01*
X97554755Y-44241500D01*
X97486634Y-44221498D01*
X97453887Y-44191009D01*
X97413261Y-44136738D01*
X97296207Y-44049112D01*
X97296202Y-44049110D01*
X97159204Y-43998011D01*
X97159196Y-43998009D01*
X97098649Y-43991500D01*
X97098638Y-43991500D01*
X95301362Y-43991500D01*
X95301350Y-43991500D01*
X95240803Y-43998009D01*
X95240795Y-43998011D01*
X95103797Y-44049110D01*
X95103792Y-44049112D01*
X94986738Y-44136738D01*
X94899112Y-44253792D01*
X94899110Y-44253797D01*
X94848011Y-44390795D01*
X94848009Y-44390803D01*
X94841500Y-44451350D01*
X94841500Y-45548649D01*
X94848009Y-45609196D01*
X94848011Y-45609204D01*
X94899110Y-45746202D01*
X94899112Y-45746207D01*
X94986738Y-45863261D01*
X95103792Y-45950887D01*
X95103794Y-45950888D01*
X95103796Y-45950889D01*
X95162875Y-45972924D01*
X95240795Y-46001988D01*
X95240803Y-46001990D01*
X95301350Y-46008499D01*
X95301355Y-46008499D01*
X95301362Y-46008500D01*
X95301368Y-46008500D01*
X97098632Y-46008500D01*
X97098638Y-46008500D01*
X97098645Y-46008499D01*
X97098649Y-46008499D01*
X97159196Y-46001990D01*
X97159199Y-46001989D01*
X97159201Y-46001989D01*
X97296204Y-45950889D01*
X97413261Y-45863261D01*
X97453887Y-45808991D01*
X97510722Y-45766444D01*
X97554755Y-45758500D01*
X101145245Y-45758500D01*
X101213366Y-45778502D01*
X101246113Y-45808991D01*
X101286738Y-45863261D01*
X101403792Y-45950887D01*
X101403794Y-45950888D01*
X101403796Y-45950889D01*
X101462875Y-45972924D01*
X101540795Y-46001988D01*
X101540803Y-46001990D01*
X101601350Y-46008499D01*
X101601355Y-46008499D01*
X101601362Y-46008500D01*
X101601368Y-46008500D01*
X103398632Y-46008500D01*
X103398638Y-46008500D01*
X103398645Y-46008499D01*
X103398649Y-46008499D01*
X103459196Y-46001990D01*
X103459199Y-46001989D01*
X103459201Y-46001989D01*
X103596204Y-45950889D01*
X103713261Y-45863261D01*
X103776711Y-45778502D01*
X103800887Y-45746207D01*
X103800887Y-45746206D01*
X103800889Y-45746204D01*
X103851989Y-45609201D01*
X103858500Y-45548638D01*
X103858500Y-44451362D01*
X103852185Y-44392619D01*
X103851990Y-44390803D01*
X103851988Y-44390795D01*
X103800889Y-44253797D01*
X103800887Y-44253792D01*
X103713262Y-44136740D01*
X103713259Y-44136738D01*
X103668551Y-44103269D01*
X103600729Y-44052498D01*
X103558183Y-43995662D01*
X103553119Y-43924846D01*
X103587142Y-43862537D01*
X105589166Y-41860515D01*
X105672174Y-41736284D01*
X105729351Y-41598247D01*
X105758500Y-41451705D01*
X105758500Y-41302295D01*
X105758500Y-37384500D01*
X105778502Y-37316379D01*
X105832158Y-37269886D01*
X105884500Y-37258500D01*
X106813447Y-37258500D01*
X106881568Y-37278502D01*
X106928061Y-37332158D01*
X106938165Y-37402432D01*
X106908671Y-37467012D01*
X106906149Y-37469837D01*
X106853173Y-37527384D01*
X106721892Y-37728323D01*
X106625477Y-37948128D01*
X106625476Y-37948129D01*
X106566558Y-38180793D01*
X106566557Y-38180799D01*
X106566557Y-38180801D01*
X106546736Y-38420000D01*
X106554204Y-38510129D01*
X106566558Y-38659206D01*
X106625476Y-38891870D01*
X106625477Y-38891871D01*
X106625478Y-38891874D01*
X106721892Y-39111677D01*
X106853171Y-39312613D01*
X106853174Y-39312617D01*
X106853176Y-39312619D01*
X107015725Y-39489195D01*
X107015731Y-39489201D01*
X107015734Y-39489203D01*
X107015737Y-39489206D01*
X107145967Y-39590569D01*
X107187438Y-39648194D01*
X107191171Y-39719092D01*
X107155981Y-39780754D01*
X107145967Y-39789431D01*
X107015737Y-39890793D01*
X107015725Y-39890804D01*
X106853176Y-40067380D01*
X106853172Y-40067385D01*
X106853171Y-40067387D01*
X106811446Y-40131252D01*
X106721892Y-40268323D01*
X106625477Y-40488128D01*
X106625476Y-40488129D01*
X106566558Y-40720793D01*
X106566557Y-40720799D01*
X106566557Y-40720801D01*
X106561215Y-40785268D01*
X106546736Y-40960000D01*
X106566558Y-41199206D01*
X106625476Y-41431870D01*
X106625477Y-41431871D01*
X106625478Y-41431874D01*
X106721892Y-41651677D01*
X106853171Y-41852613D01*
X106853174Y-41852617D01*
X106853176Y-41852619D01*
X106939106Y-41945964D01*
X107015731Y-42029201D01*
X107015734Y-42029203D01*
X107015737Y-42029206D01*
X107145967Y-42130569D01*
X107187438Y-42188194D01*
X107191171Y-42259092D01*
X107155981Y-42320754D01*
X107145967Y-42329431D01*
X107015737Y-42430793D01*
X107015725Y-42430804D01*
X106853176Y-42607380D01*
X106721892Y-42808323D01*
X106625477Y-43028128D01*
X106625476Y-43028129D01*
X106566558Y-43260793D01*
X106566558Y-43260796D01*
X106566557Y-43260801D01*
X106546736Y-43500000D01*
X106559642Y-43655754D01*
X106566558Y-43739206D01*
X106625476Y-43971870D01*
X106625477Y-43971871D01*
X106625478Y-43971874D01*
X106721892Y-44191677D01*
X106853171Y-44392613D01*
X106853174Y-44392617D01*
X106853176Y-44392619D01*
X107015218Y-44568644D01*
X107015731Y-44569201D01*
X107015734Y-44569203D01*
X107015737Y-44569206D01*
X107145967Y-44670569D01*
X107187438Y-44728194D01*
X107191171Y-44799092D01*
X107155981Y-44860754D01*
X107145967Y-44869431D01*
X107015737Y-44970793D01*
X107015725Y-44970804D01*
X106853176Y-45147380D01*
X106853172Y-45147385D01*
X106853171Y-45147387D01*
X106786540Y-45249373D01*
X106721892Y-45348323D01*
X106625477Y-45568128D01*
X106625476Y-45568129D01*
X106566558Y-45800793D01*
X106566557Y-45800799D01*
X106566557Y-45800801D01*
X106546736Y-46040000D01*
X106556573Y-46158718D01*
X106566558Y-46279206D01*
X106625476Y-46511870D01*
X106625477Y-46511871D01*
X106625478Y-46511874D01*
X106721892Y-46731677D01*
X106853171Y-46932613D01*
X106853173Y-46932615D01*
X107006421Y-47099088D01*
X107037841Y-47162753D01*
X107029854Y-47233299D01*
X106984995Y-47288328D01*
X106983721Y-47289190D01*
X106952577Y-47310000D01*
X106882485Y-47356834D01*
X106882483Y-47356835D01*
X106882480Y-47356838D01*
X106776838Y-47462480D01*
X106776833Y-47462486D01*
X106693826Y-47586716D01*
X106636651Y-47724747D01*
X106636649Y-47724752D01*
X106607500Y-47871292D01*
X106607500Y-48020710D01*
X106619594Y-48081509D01*
X106618160Y-48137020D01*
X106566557Y-48340797D01*
X106554864Y-48481911D01*
X106546736Y-48580000D01*
X106566557Y-48819199D01*
X106566557Y-48819201D01*
X106566558Y-48819205D01*
X106573545Y-48846799D01*
X106570876Y-48917745D01*
X106540495Y-48966822D01*
X104156724Y-51350595D01*
X104094412Y-51384620D01*
X104067629Y-51387500D01*
X103854755Y-51387500D01*
X103786634Y-51367498D01*
X103753887Y-51337009D01*
X103713261Y-51282738D01*
X103596207Y-51195112D01*
X103596202Y-51195110D01*
X103459204Y-51144011D01*
X103459196Y-51144009D01*
X103398649Y-51137500D01*
X103398638Y-51137500D01*
X101601362Y-51137500D01*
X101601350Y-51137500D01*
X101540803Y-51144009D01*
X101540795Y-51144011D01*
X101403797Y-51195110D01*
X101403792Y-51195112D01*
X101286738Y-51282738D01*
X101246113Y-51337009D01*
X101189278Y-51379556D01*
X101145245Y-51387500D01*
X97554755Y-51387500D01*
X97486634Y-51367498D01*
X97453887Y-51337009D01*
X97413261Y-51282738D01*
X97296207Y-51195112D01*
X97296202Y-51195110D01*
X97159204Y-51144011D01*
X97159196Y-51144009D01*
X97098649Y-51137500D01*
X97098638Y-51137500D01*
X95301362Y-51137500D01*
X95301350Y-51137500D01*
X95240803Y-51144009D01*
X95240795Y-51144011D01*
X95103797Y-51195110D01*
X95103792Y-51195112D01*
X94986738Y-51282738D01*
X94899112Y-51399792D01*
X94899110Y-51399797D01*
X94848011Y-51536795D01*
X94848009Y-51536803D01*
X94841500Y-51597350D01*
X94841500Y-52694649D01*
X94848009Y-52755196D01*
X94848011Y-52755204D01*
X94899110Y-52892202D01*
X94899112Y-52892207D01*
X94986738Y-53009261D01*
X95103792Y-53096887D01*
X95103794Y-53096888D01*
X95103796Y-53096889D01*
X95162875Y-53118924D01*
X95240795Y-53147988D01*
X95240803Y-53147990D01*
X95301350Y-53154499D01*
X95301355Y-53154499D01*
X95301362Y-53154500D01*
X95301368Y-53154500D01*
X97098632Y-53154500D01*
X97098638Y-53154500D01*
X97098645Y-53154499D01*
X97098649Y-53154499D01*
X97159196Y-53147990D01*
X97159199Y-53147989D01*
X97159201Y-53147989D01*
X97296204Y-53096889D01*
X97413261Y-53009261D01*
X97453887Y-52954991D01*
X97510722Y-52912444D01*
X97554755Y-52904500D01*
X101145245Y-52904500D01*
X101213366Y-52924502D01*
X101246113Y-52954991D01*
X101286738Y-53009261D01*
X101403792Y-53096887D01*
X101403794Y-53096888D01*
X101403796Y-53096889D01*
X101462875Y-53118924D01*
X101540795Y-53147988D01*
X101540803Y-53147990D01*
X101601350Y-53154499D01*
X101601355Y-53154499D01*
X101601362Y-53154500D01*
X101601368Y-53154500D01*
X103398632Y-53154500D01*
X103398638Y-53154500D01*
X103398645Y-53154499D01*
X103398649Y-53154499D01*
X103459196Y-53147990D01*
X103459199Y-53147989D01*
X103459201Y-53147989D01*
X103596204Y-53096889D01*
X103713261Y-53009261D01*
X103753887Y-52954991D01*
X103810722Y-52912444D01*
X103854755Y-52904500D01*
X104508701Y-52904500D01*
X104508705Y-52904500D01*
X104508706Y-52904500D01*
X104581976Y-52889925D01*
X104655247Y-52875351D01*
X104793284Y-52818174D01*
X104917515Y-52735166D01*
X106354578Y-51298101D01*
X106416887Y-51264079D01*
X106487702Y-51269143D01*
X106544538Y-51311690D01*
X106565814Y-51356268D01*
X106625476Y-51591870D01*
X106625477Y-51591871D01*
X106625478Y-51591874D01*
X106721892Y-51811677D01*
X106853171Y-52012613D01*
X106853174Y-52012617D01*
X106853176Y-52012619D01*
X107015725Y-52189195D01*
X107015731Y-52189201D01*
X107015734Y-52189203D01*
X107015737Y-52189206D01*
X107145967Y-52290569D01*
X107187438Y-52348194D01*
X107191171Y-52419092D01*
X107155981Y-52480754D01*
X107145967Y-52489431D01*
X107015737Y-52590793D01*
X107015725Y-52590804D01*
X106853176Y-52767380D01*
X106853172Y-52767385D01*
X106853171Y-52767387D01*
X106763591Y-52904499D01*
X106721892Y-52968323D01*
X106625477Y-53188128D01*
X106625476Y-53188129D01*
X106566558Y-53420793D01*
X106566557Y-53420799D01*
X106566557Y-53420801D01*
X106546736Y-53660000D01*
X106566557Y-53899199D01*
X106566557Y-53899201D01*
X106566558Y-53899205D01*
X106573545Y-53926799D01*
X106570876Y-53997745D01*
X106540495Y-54046822D01*
X102459724Y-58127595D01*
X102397412Y-58161620D01*
X102370629Y-58164500D01*
X101601350Y-58164500D01*
X101540803Y-58171009D01*
X101540795Y-58171011D01*
X101403797Y-58222110D01*
X101403792Y-58222112D01*
X101286738Y-58309738D01*
X101246113Y-58364009D01*
X101189278Y-58406556D01*
X101145245Y-58414500D01*
X97554755Y-58414500D01*
X97486634Y-58394498D01*
X97453887Y-58364009D01*
X97413261Y-58309738D01*
X97296207Y-58222112D01*
X97296202Y-58222110D01*
X97159204Y-58171011D01*
X97159196Y-58171009D01*
X97098649Y-58164500D01*
X97098638Y-58164500D01*
X95301362Y-58164500D01*
X95301350Y-58164500D01*
X95240803Y-58171009D01*
X95240795Y-58171011D01*
X95103797Y-58222110D01*
X95103792Y-58222112D01*
X94986738Y-58309738D01*
X94899112Y-58426792D01*
X94899110Y-58426797D01*
X94848011Y-58563795D01*
X94848009Y-58563803D01*
X94841500Y-58624350D01*
X94841500Y-59721649D01*
X94848009Y-59782196D01*
X94848011Y-59782204D01*
X94899110Y-59919202D01*
X94899112Y-59919207D01*
X94986738Y-60036261D01*
X95103792Y-60123887D01*
X95103794Y-60123888D01*
X95103796Y-60123889D01*
X95162875Y-60145924D01*
X95240795Y-60174988D01*
X95240803Y-60174990D01*
X95301350Y-60181499D01*
X95301355Y-60181499D01*
X95301362Y-60181500D01*
X95301368Y-60181500D01*
X97098632Y-60181500D01*
X97098638Y-60181500D01*
X97098645Y-60181499D01*
X97098649Y-60181499D01*
X97159196Y-60174990D01*
X97159199Y-60174989D01*
X97159201Y-60174989D01*
X97296204Y-60123889D01*
X97315517Y-60109432D01*
X97413261Y-60036261D01*
X97453887Y-59981991D01*
X97510722Y-59939444D01*
X97554755Y-59931500D01*
X101145245Y-59931500D01*
X101213366Y-59951502D01*
X101246113Y-59981991D01*
X101286738Y-60036261D01*
X101403792Y-60123887D01*
X101403794Y-60123888D01*
X101403796Y-60123889D01*
X101462875Y-60145924D01*
X101540795Y-60174988D01*
X101540803Y-60174990D01*
X101601350Y-60181499D01*
X101601355Y-60181499D01*
X101601362Y-60181500D01*
X101601368Y-60181500D01*
X103398632Y-60181500D01*
X103398638Y-60181500D01*
X103398645Y-60181499D01*
X103398649Y-60181499D01*
X103459196Y-60174990D01*
X103459199Y-60174989D01*
X103459201Y-60174989D01*
X103596204Y-60123889D01*
X103615517Y-60109432D01*
X103713261Y-60036261D01*
X103800887Y-59919207D01*
X103800887Y-59919206D01*
X103800889Y-59919204D01*
X103851989Y-59782201D01*
X103858500Y-59721638D01*
X103858500Y-58926370D01*
X103878502Y-58858249D01*
X103895400Y-58837280D01*
X106354577Y-56378102D01*
X106416887Y-56344079D01*
X106487702Y-56349143D01*
X106544538Y-56391690D01*
X106565815Y-56436271D01*
X106573545Y-56466799D01*
X106570876Y-56537745D01*
X106540495Y-56586822D01*
X105516484Y-57610835D01*
X105410837Y-57716481D01*
X105410832Y-57716488D01*
X105327826Y-57840715D01*
X105270650Y-57978750D01*
X105270649Y-57978753D01*
X105241500Y-58125290D01*
X105241500Y-62333629D01*
X105221498Y-62401750D01*
X105204595Y-62422724D01*
X102472724Y-65154595D01*
X102410412Y-65188621D01*
X102383629Y-65191500D01*
X101601350Y-65191500D01*
X101540803Y-65198009D01*
X101540795Y-65198011D01*
X101403797Y-65249110D01*
X101403792Y-65249112D01*
X101286738Y-65336738D01*
X101246113Y-65391009D01*
X101189278Y-65433556D01*
X101145245Y-65441500D01*
X97554755Y-65441500D01*
X97486634Y-65421498D01*
X97453887Y-65391009D01*
X97413261Y-65336738D01*
X97296207Y-65249112D01*
X97296202Y-65249110D01*
X97159204Y-65198011D01*
X97159196Y-65198009D01*
X97098649Y-65191500D01*
X97098638Y-65191500D01*
X95301362Y-65191500D01*
X95301350Y-65191500D01*
X95240803Y-65198009D01*
X95240795Y-65198011D01*
X95103797Y-65249110D01*
X95103792Y-65249112D01*
X94986738Y-65336738D01*
X94899112Y-65453792D01*
X94899110Y-65453797D01*
X94848011Y-65590795D01*
X94848009Y-65590803D01*
X94841500Y-65651350D01*
X94841500Y-66748649D01*
X94848009Y-66809196D01*
X94848011Y-66809204D01*
X94899110Y-66946202D01*
X94899112Y-66946207D01*
X94986738Y-67063261D01*
X95103792Y-67150887D01*
X95103794Y-67150888D01*
X95103796Y-67150889D01*
X95162875Y-67172924D01*
X95240795Y-67201988D01*
X95240803Y-67201990D01*
X95301350Y-67208499D01*
X95301355Y-67208499D01*
X95301362Y-67208500D01*
X95301368Y-67208500D01*
X97098632Y-67208500D01*
X97098638Y-67208500D01*
X97098645Y-67208499D01*
X97098649Y-67208499D01*
X97159196Y-67201990D01*
X97159199Y-67201989D01*
X97159201Y-67201989D01*
X97296204Y-67150889D01*
X97413261Y-67063261D01*
X97453887Y-67008991D01*
X97510722Y-66966444D01*
X97554755Y-66958500D01*
X101145245Y-66958500D01*
X101213366Y-66978502D01*
X101246113Y-67008991D01*
X101286738Y-67063261D01*
X101403792Y-67150887D01*
X101403794Y-67150888D01*
X101403796Y-67150889D01*
X101462875Y-67172924D01*
X101540795Y-67201988D01*
X101540803Y-67201990D01*
X101601350Y-67208499D01*
X101601355Y-67208499D01*
X101601362Y-67208500D01*
X101601368Y-67208500D01*
X103398632Y-67208500D01*
X103398638Y-67208500D01*
X103398645Y-67208499D01*
X103398649Y-67208499D01*
X103459196Y-67201990D01*
X103459199Y-67201989D01*
X103459201Y-67201989D01*
X103596204Y-67150889D01*
X103713261Y-67063261D01*
X103776711Y-66978502D01*
X103800887Y-66946207D01*
X103800887Y-66946206D01*
X103800889Y-66946204D01*
X103851989Y-66809201D01*
X103858500Y-66748638D01*
X103858500Y-65966371D01*
X103878502Y-65898250D01*
X103895405Y-65877276D01*
X105060068Y-64712613D01*
X106370040Y-63402640D01*
X106432350Y-63368617D01*
X106503165Y-63373681D01*
X106560001Y-63416228D01*
X106584812Y-63482748D01*
X106581278Y-63522667D01*
X106566557Y-63580797D01*
X106546736Y-63820000D01*
X106566558Y-64059206D01*
X106625476Y-64291870D01*
X106625477Y-64291871D01*
X106625478Y-64291874D01*
X106721892Y-64511677D01*
X106853171Y-64712613D01*
X106853174Y-64712617D01*
X106853176Y-64712619D01*
X107015725Y-64889195D01*
X107015731Y-64889201D01*
X107015734Y-64889203D01*
X107015737Y-64889206D01*
X107145967Y-64990569D01*
X107187438Y-65048194D01*
X107191171Y-65119092D01*
X107155981Y-65180754D01*
X107145967Y-65189431D01*
X107015737Y-65290793D01*
X107015725Y-65290804D01*
X106853176Y-65467380D01*
X106721892Y-65668323D01*
X106625477Y-65888128D01*
X106625476Y-65888129D01*
X106566558Y-66120793D01*
X106546736Y-66360000D01*
X106566558Y-66599206D01*
X106625476Y-66831870D01*
X106625477Y-66831871D01*
X106625478Y-66831874D01*
X106721892Y-67051677D01*
X106853171Y-67252613D01*
X106853174Y-67252617D01*
X106853176Y-67252619D01*
X107015725Y-67429195D01*
X107015731Y-67429201D01*
X107205140Y-67576624D01*
X107416231Y-67690860D01*
X107643245Y-67768795D01*
X107879990Y-67808300D01*
X107879994Y-67808300D01*
X108120006Y-67808300D01*
X108120010Y-67808300D01*
X108356755Y-67768795D01*
X108583769Y-67690860D01*
X108794860Y-67576624D01*
X108984269Y-67429201D01*
X109146829Y-67252613D01*
X109278108Y-67051677D01*
X109374522Y-66831874D01*
X109433443Y-66599199D01*
X109453264Y-66360000D01*
X109433443Y-66120801D01*
X109374522Y-65888126D01*
X109278108Y-65668323D01*
X109146829Y-65467387D01*
X109122998Y-65441500D01*
X108984274Y-65290804D01*
X108984272Y-65290802D01*
X108984269Y-65290799D01*
X108854031Y-65189430D01*
X108812561Y-65131807D01*
X108808827Y-65060908D01*
X108844017Y-64999246D01*
X108854031Y-64990569D01*
X108984269Y-64889201D01*
X109146829Y-64712613D01*
X109278108Y-64511677D01*
X109374522Y-64291874D01*
X109433443Y-64059199D01*
X109453264Y-63820000D01*
X109433443Y-63580801D01*
X109388037Y-63401494D01*
X109374523Y-63348129D01*
X109374522Y-63348128D01*
X109374522Y-63348126D01*
X109278108Y-63128323D01*
X109146829Y-62927387D01*
X108984269Y-62750799D01*
X108854031Y-62649430D01*
X108812561Y-62591807D01*
X108808827Y-62520908D01*
X108844017Y-62459246D01*
X108854031Y-62450569D01*
X108984269Y-62349201D01*
X109146829Y-62172613D01*
X109278108Y-61971677D01*
X109374522Y-61751874D01*
X109433443Y-61519199D01*
X109453264Y-61280000D01*
X109433443Y-61040801D01*
X109374522Y-60808126D01*
X109278108Y-60588323D01*
X109146829Y-60387387D01*
X108984269Y-60210799D01*
X108854031Y-60109430D01*
X108812561Y-60051807D01*
X108808827Y-59980908D01*
X108844017Y-59919246D01*
X108854031Y-59910569D01*
X108984269Y-59809201D01*
X109146829Y-59632613D01*
X109278108Y-59431677D01*
X109374522Y-59211874D01*
X109433443Y-58979199D01*
X109453264Y-58740000D01*
X109433443Y-58500801D01*
X109414703Y-58426797D01*
X109374523Y-58268129D01*
X109374522Y-58268128D01*
X109374522Y-58268126D01*
X109278108Y-58048323D01*
X109146829Y-57847387D01*
X108984269Y-57670799D01*
X108854031Y-57569430D01*
X108812561Y-57511807D01*
X108808827Y-57440908D01*
X108844017Y-57379246D01*
X108854031Y-57370569D01*
X108984269Y-57269201D01*
X109146829Y-57092613D01*
X109278108Y-56891677D01*
X109374522Y-56671874D01*
X109433443Y-56439199D01*
X109453264Y-56200000D01*
X109433443Y-55960801D01*
X109374522Y-55728126D01*
X109278108Y-55508323D01*
X109146829Y-55307387D01*
X108984269Y-55130799D01*
X108854031Y-55029430D01*
X108812561Y-54971807D01*
X108808827Y-54900908D01*
X108844017Y-54839246D01*
X108854031Y-54830569D01*
X108984269Y-54729201D01*
X109146829Y-54552613D01*
X109278108Y-54351677D01*
X109374522Y-54131874D01*
X109433443Y-53899199D01*
X109453264Y-53660000D01*
X109433443Y-53420801D01*
X109374522Y-53188126D01*
X109278108Y-52968323D01*
X109146829Y-52767387D01*
X109135606Y-52755196D01*
X108984274Y-52590804D01*
X108984272Y-52590802D01*
X108984269Y-52590799D01*
X108854031Y-52489430D01*
X108812561Y-52431807D01*
X108808827Y-52360908D01*
X108844017Y-52299246D01*
X108854031Y-52290569D01*
X108984269Y-52189201D01*
X109146829Y-52012613D01*
X109278108Y-51811677D01*
X109374522Y-51591874D01*
X109433443Y-51359199D01*
X109453264Y-51120000D01*
X109433443Y-50880801D01*
X109374522Y-50648126D01*
X109278108Y-50428323D01*
X109146829Y-50227387D01*
X108984269Y-50050799D01*
X108854031Y-49949430D01*
X108812561Y-49891807D01*
X108808827Y-49820908D01*
X108844017Y-49759246D01*
X108854031Y-49750569D01*
X108984269Y-49649201D01*
X109146829Y-49472613D01*
X109278108Y-49271677D01*
X109374522Y-49051874D01*
X109433443Y-48819199D01*
X109453264Y-48580000D01*
X109433443Y-48340801D01*
X109376942Y-48117682D01*
X109374523Y-48108129D01*
X109374522Y-48108128D01*
X109374522Y-48108126D01*
X109278108Y-47888323D01*
X109146829Y-47687387D01*
X109140301Y-47680296D01*
X108984274Y-47510804D01*
X108984272Y-47510802D01*
X108984269Y-47510799D01*
X108854031Y-47409430D01*
X108812561Y-47351807D01*
X108808827Y-47280908D01*
X108844017Y-47219246D01*
X108854025Y-47210573D01*
X108984269Y-47109201D01*
X109146829Y-46932613D01*
X109278108Y-46731677D01*
X109374522Y-46511874D01*
X109433443Y-46279199D01*
X109453264Y-46040000D01*
X109433443Y-45800801D01*
X109404562Y-45686753D01*
X109374523Y-45568129D01*
X109374522Y-45568128D01*
X109374522Y-45568126D01*
X109278108Y-45348323D01*
X109146829Y-45147387D01*
X109063878Y-45057278D01*
X108984274Y-44970804D01*
X108984272Y-44970802D01*
X108984269Y-44970799D01*
X108854031Y-44869430D01*
X108812561Y-44811807D01*
X108808827Y-44740908D01*
X108844017Y-44679246D01*
X108854031Y-44670569D01*
X108984269Y-44569201D01*
X109146829Y-44392613D01*
X109278108Y-44191677D01*
X109374522Y-43971874D01*
X109433443Y-43739199D01*
X109453264Y-43500000D01*
X109433443Y-43260801D01*
X109411839Y-43175488D01*
X109374523Y-43028129D01*
X109374522Y-43028128D01*
X109374522Y-43028126D01*
X109278108Y-42808323D01*
X109146829Y-42607387D01*
X108984269Y-42430799D01*
X108854031Y-42329430D01*
X108812561Y-42271807D01*
X108808827Y-42200908D01*
X108844017Y-42139246D01*
X108854031Y-42130569D01*
X108984269Y-42029201D01*
X109146829Y-41852613D01*
X109278108Y-41651677D01*
X109374522Y-41431874D01*
X109433443Y-41199199D01*
X109453264Y-40960000D01*
X109433443Y-40720801D01*
X109400549Y-40590906D01*
X109374523Y-40488129D01*
X109374522Y-40488128D01*
X109374522Y-40488126D01*
X109278108Y-40268323D01*
X109146829Y-40067387D01*
X108984269Y-39890799D01*
X108854031Y-39789430D01*
X108812561Y-39731807D01*
X108808827Y-39660908D01*
X108844017Y-39599246D01*
X108854031Y-39590569D01*
X108984269Y-39489201D01*
X109146829Y-39312613D01*
X109278108Y-39111677D01*
X109374522Y-38891874D01*
X109433443Y-38659199D01*
X109453264Y-38420000D01*
X109433443Y-38180801D01*
X109430621Y-38169656D01*
X109374523Y-37948129D01*
X109374522Y-37948128D01*
X109374522Y-37948126D01*
X109278108Y-37728323D01*
X109146829Y-37527387D01*
X109093851Y-37469837D01*
X109062431Y-37406171D01*
X109070418Y-37335626D01*
X109115278Y-37280597D01*
X109182767Y-37258557D01*
X109186553Y-37258500D01*
X115873629Y-37258500D01*
X115941750Y-37278502D01*
X115962724Y-37295405D01*
X121780495Y-43113176D01*
X121814521Y-43175488D01*
X121813546Y-43233197D01*
X121806557Y-43260796D01*
X121795562Y-43393485D01*
X121786736Y-43500000D01*
X121799642Y-43655754D01*
X121806558Y-43739206D01*
X121865476Y-43971870D01*
X121865477Y-43971871D01*
X121865478Y-43971874D01*
X121961892Y-44191677D01*
X122093171Y-44392613D01*
X122093174Y-44392617D01*
X122093176Y-44392619D01*
X122255218Y-44568644D01*
X122255731Y-44569201D01*
X122337036Y-44632483D01*
X122378507Y-44690109D01*
X122382241Y-44761007D01*
X122347051Y-44822669D01*
X122333707Y-44833851D01*
X122257271Y-44889385D01*
X122089384Y-45057272D01*
X122089382Y-45057275D01*
X121949817Y-45249369D01*
X121842019Y-45460935D01*
X121842016Y-45460941D01*
X121768645Y-45686753D01*
X121768644Y-45686758D01*
X121768644Y-45686759D01*
X121731500Y-45921278D01*
X121731500Y-46158722D01*
X121750582Y-46279199D01*
X121768645Y-46393246D01*
X121807189Y-46511871D01*
X121842018Y-46619063D01*
X121949815Y-46830627D01*
X122089380Y-47022722D01*
X122089382Y-47022724D01*
X122089384Y-47022727D01*
X122257272Y-47190615D01*
X122257275Y-47190617D01*
X122257278Y-47190620D01*
X122316021Y-47233299D01*
X122333706Y-47246148D01*
X122377060Y-47302370D01*
X122383135Y-47373106D01*
X122350004Y-47435898D01*
X122337037Y-47447515D01*
X122255732Y-47510798D01*
X122255725Y-47510804D01*
X122093176Y-47687380D01*
X122093172Y-47687385D01*
X122093171Y-47687387D01*
X122021294Y-47797402D01*
X121961892Y-47888323D01*
X121865477Y-48108128D01*
X121865476Y-48108129D01*
X121806558Y-48340793D01*
X121806558Y-48340797D01*
X121806557Y-48340801D01*
X121805612Y-48352204D01*
X121786736Y-48580000D01*
X121806558Y-48819206D01*
X121865476Y-49051870D01*
X121865477Y-49051871D01*
X121865478Y-49051874D01*
X121961892Y-49271677D01*
X122093171Y-49472613D01*
X122093174Y-49472617D01*
X122093176Y-49472619D01*
X122255725Y-49649195D01*
X122255731Y-49649201D01*
X122255734Y-49649203D01*
X122255737Y-49649206D01*
X122385967Y-49750569D01*
X122427438Y-49808194D01*
X122431171Y-49879092D01*
X122395981Y-49940754D01*
X122385967Y-49949431D01*
X122255737Y-50050793D01*
X122255725Y-50050804D01*
X122093176Y-50227380D01*
X121961892Y-50428323D01*
X121865477Y-50648128D01*
X121865476Y-50648129D01*
X121806558Y-50880793D01*
X121806557Y-50880799D01*
X121806557Y-50880801D01*
X121786736Y-51120000D01*
X121806314Y-51356268D01*
X121806558Y-51359206D01*
X121865476Y-51591870D01*
X121865477Y-51591871D01*
X121865478Y-51591874D01*
X121961892Y-51811677D01*
X122093171Y-52012613D01*
X122093174Y-52012617D01*
X122093176Y-52012619D01*
X122255725Y-52189195D01*
X122255731Y-52189201D01*
X122255734Y-52189203D01*
X122255737Y-52189206D01*
X122385967Y-52290569D01*
X122427438Y-52348194D01*
X122431171Y-52419092D01*
X122395981Y-52480754D01*
X122385967Y-52489431D01*
X122255737Y-52590793D01*
X122255725Y-52590804D01*
X122093176Y-52767380D01*
X122093172Y-52767385D01*
X122093171Y-52767387D01*
X122003591Y-52904499D01*
X121961892Y-52968323D01*
X121865477Y-53188128D01*
X121865476Y-53188129D01*
X121806558Y-53420793D01*
X121786736Y-53660000D01*
X121806558Y-53899206D01*
X121865476Y-54131870D01*
X121865477Y-54131871D01*
X121865478Y-54131874D01*
X121961892Y-54351677D01*
X122093171Y-54552613D01*
X122093174Y-54552617D01*
X122093176Y-54552619D01*
X122255725Y-54729195D01*
X122255731Y-54729201D01*
X122255734Y-54729203D01*
X122255737Y-54729206D01*
X122385967Y-54830569D01*
X122427438Y-54888194D01*
X122431171Y-54959092D01*
X122395981Y-55020754D01*
X122385967Y-55029431D01*
X122255737Y-55130793D01*
X122255725Y-55130804D01*
X122093176Y-55307380D01*
X121961892Y-55508323D01*
X121865477Y-55728128D01*
X121865476Y-55728129D01*
X121806558Y-55960793D01*
X121806557Y-55960799D01*
X121806557Y-55960801D01*
X121786736Y-56200000D01*
X121806314Y-56436271D01*
X121806558Y-56439206D01*
X121865476Y-56671870D01*
X121865477Y-56671871D01*
X121865478Y-56671874D01*
X121961892Y-56891677D01*
X122093171Y-57092613D01*
X122093174Y-57092617D01*
X122093176Y-57092619D01*
X122255725Y-57269195D01*
X122255731Y-57269201D01*
X122255734Y-57269203D01*
X122255737Y-57269206D01*
X122385967Y-57370569D01*
X122427438Y-57428194D01*
X122431171Y-57499092D01*
X122395981Y-57560754D01*
X122385967Y-57569431D01*
X122255737Y-57670793D01*
X122255725Y-57670804D01*
X122093176Y-57847380D01*
X121961892Y-58048323D01*
X121865477Y-58268128D01*
X121865476Y-58268129D01*
X121806558Y-58500793D01*
X121806557Y-58500799D01*
X121806557Y-58500801D01*
X121786736Y-58740000D01*
X121802179Y-58926370D01*
X121806558Y-58979206D01*
X121865476Y-59211870D01*
X121865477Y-59211871D01*
X121865478Y-59211874D01*
X121961892Y-59431677D01*
X122093171Y-59632613D01*
X122093174Y-59632617D01*
X122093176Y-59632619D01*
X122233049Y-59784562D01*
X122255731Y-59809201D01*
X122255734Y-59809203D01*
X122255737Y-59809206D01*
X122385967Y-59910569D01*
X122427438Y-59968194D01*
X122431171Y-60039092D01*
X122395981Y-60100754D01*
X122385967Y-60109431D01*
X122255737Y-60210793D01*
X122255725Y-60210804D01*
X122093176Y-60387380D01*
X122093172Y-60387385D01*
X122093171Y-60387387D01*
X121961892Y-60588323D01*
X121865477Y-60808128D01*
X121865476Y-60808129D01*
X121806558Y-61040793D01*
X121786736Y-61280000D01*
X121806558Y-61519206D01*
X121865476Y-61751870D01*
X121865477Y-61751871D01*
X121865478Y-61751874D01*
X121961892Y-61971677D01*
X122093171Y-62172613D01*
X122093174Y-62172617D01*
X122093176Y-62172619D01*
X122233049Y-62324562D01*
X122255731Y-62349201D01*
X122255734Y-62349203D01*
X122255737Y-62349206D01*
X122385967Y-62450569D01*
X122427438Y-62508194D01*
X122431171Y-62579092D01*
X122395981Y-62640754D01*
X122385967Y-62649431D01*
X122255737Y-62750793D01*
X122255725Y-62750804D01*
X122093176Y-62927380D01*
X122093172Y-62927385D01*
X122093171Y-62927387D01*
X122006998Y-63059284D01*
X121961892Y-63128323D01*
X121865477Y-63348128D01*
X121865476Y-63348129D01*
X121806558Y-63580793D01*
X121786736Y-63820000D01*
X121806558Y-64059206D01*
X121865476Y-64291870D01*
X121865477Y-64291871D01*
X121865478Y-64291874D01*
X121961892Y-64511677D01*
X122093171Y-64712613D01*
X122093174Y-64712617D01*
X122093176Y-64712619D01*
X122255725Y-64889195D01*
X122255731Y-64889201D01*
X122255734Y-64889203D01*
X122255737Y-64889206D01*
X122385967Y-64990569D01*
X122427438Y-65048194D01*
X122431171Y-65119092D01*
X122395981Y-65180754D01*
X122385967Y-65189431D01*
X122255737Y-65290793D01*
X122255725Y-65290804D01*
X122093176Y-65467380D01*
X121961892Y-65668323D01*
X121865477Y-65888128D01*
X121865476Y-65888129D01*
X121806558Y-66120793D01*
X121786736Y-66360000D01*
X121806558Y-66599206D01*
X121865476Y-66831870D01*
X121865477Y-66831871D01*
X121865478Y-66831874D01*
X121961892Y-67051677D01*
X122093171Y-67252613D01*
X122093174Y-67252617D01*
X122093176Y-67252619D01*
X122255725Y-67429195D01*
X122255731Y-67429201D01*
X122445140Y-67576624D01*
X122656231Y-67690860D01*
X122883245Y-67768795D01*
X123119990Y-67808300D01*
X123119994Y-67808300D01*
X123360006Y-67808300D01*
X123360010Y-67808300D01*
X123596755Y-67768795D01*
X123823769Y-67690860D01*
X124034860Y-67576624D01*
X124224269Y-67429201D01*
X124386829Y-67252613D01*
X124518108Y-67051677D01*
X124614522Y-66831874D01*
X124673443Y-66599199D01*
X124693264Y-66360000D01*
X124673443Y-66120801D01*
X124614522Y-65888126D01*
X124518108Y-65668323D01*
X124386829Y-65467387D01*
X124362998Y-65441500D01*
X124224274Y-65290804D01*
X124224272Y-65290802D01*
X124224269Y-65290799D01*
X124094031Y-65189430D01*
X124052561Y-65131807D01*
X124048827Y-65060908D01*
X124084017Y-64999246D01*
X124094031Y-64990569D01*
X124224269Y-64889201D01*
X124386829Y-64712613D01*
X124518108Y-64511677D01*
X124614522Y-64291874D01*
X124673443Y-64059199D01*
X124693264Y-63820000D01*
X124673443Y-63580801D01*
X124628037Y-63401494D01*
X124614523Y-63348129D01*
X124614522Y-63348128D01*
X124614522Y-63348126D01*
X124518108Y-63128323D01*
X124386829Y-62927387D01*
X124224269Y-62750799D01*
X124094031Y-62649430D01*
X124052561Y-62591807D01*
X124048827Y-62520908D01*
X124084017Y-62459246D01*
X124094031Y-62450569D01*
X124224269Y-62349201D01*
X124386829Y-62172613D01*
X124518108Y-61971677D01*
X124614522Y-61751874D01*
X124673443Y-61519199D01*
X124693264Y-61280000D01*
X124673443Y-61040801D01*
X124614522Y-60808126D01*
X124518108Y-60588323D01*
X124386829Y-60387387D01*
X124224269Y-60210799D01*
X124094031Y-60109430D01*
X124052561Y-60051807D01*
X124048827Y-59980908D01*
X124084017Y-59919246D01*
X124094031Y-59910569D01*
X124224269Y-59809201D01*
X124386829Y-59632613D01*
X124518108Y-59431677D01*
X124614522Y-59211874D01*
X124673443Y-58979199D01*
X124693264Y-58740000D01*
X124673443Y-58500801D01*
X124654703Y-58426797D01*
X124614523Y-58268129D01*
X124614522Y-58268128D01*
X124614522Y-58268126D01*
X124518108Y-58048323D01*
X124386829Y-57847387D01*
X124224269Y-57670799D01*
X124094031Y-57569430D01*
X124052561Y-57511807D01*
X124048827Y-57440908D01*
X124084017Y-57379246D01*
X124094031Y-57370569D01*
X124224269Y-57269201D01*
X124386829Y-57092613D01*
X124518108Y-56891677D01*
X124614522Y-56671874D01*
X124673443Y-56439199D01*
X124693264Y-56200000D01*
X124673443Y-55960801D01*
X124614522Y-55728126D01*
X124518108Y-55508323D01*
X124386829Y-55307387D01*
X124224269Y-55130799D01*
X124094031Y-55029430D01*
X124052561Y-54971807D01*
X124048827Y-54900908D01*
X124084017Y-54839246D01*
X124094031Y-54830569D01*
X124224269Y-54729201D01*
X124386829Y-54552613D01*
X124518108Y-54351677D01*
X124614522Y-54131874D01*
X124673443Y-53899199D01*
X124693264Y-53660000D01*
X124673443Y-53420801D01*
X124614522Y-53188126D01*
X124518108Y-52968323D01*
X124386829Y-52767387D01*
X124375606Y-52755196D01*
X124224274Y-52590804D01*
X124224272Y-52590802D01*
X124224269Y-52590799D01*
X124094031Y-52489430D01*
X124052561Y-52431807D01*
X124048827Y-52360908D01*
X124084017Y-52299246D01*
X124094031Y-52290569D01*
X124224269Y-52189201D01*
X124386829Y-52012613D01*
X124518108Y-51811677D01*
X124614522Y-51591874D01*
X124673443Y-51359199D01*
X124693264Y-51120000D01*
X124673443Y-50880801D01*
X124614522Y-50648126D01*
X124518108Y-50428323D01*
X124386829Y-50227387D01*
X124224269Y-50050799D01*
X124094031Y-49949430D01*
X124052561Y-49891807D01*
X124048827Y-49820908D01*
X124084017Y-49759246D01*
X124094031Y-49750569D01*
X124224269Y-49649201D01*
X124386829Y-49472613D01*
X124518108Y-49271677D01*
X124614522Y-49051874D01*
X124673443Y-48819199D01*
X124692431Y-48590047D01*
X124717989Y-48523815D01*
X124775301Y-48481911D01*
X124846169Y-48477645D01*
X124907095Y-48511360D01*
X125454595Y-49058859D01*
X125488620Y-49121172D01*
X125491500Y-49147955D01*
X125491500Y-72322968D01*
X125471498Y-72391089D01*
X125454595Y-72412063D01*
X123912289Y-73954369D01*
X122517281Y-75349377D01*
X122517278Y-75349380D01*
X122444627Y-75422031D01*
X122349380Y-75517277D01*
X122209817Y-75709369D01*
X122102019Y-75920935D01*
X122102016Y-75920941D01*
X122028645Y-76146754D01*
X122028644Y-76146757D01*
X122028644Y-76146759D01*
X121997158Y-76345554D01*
X121991499Y-76381281D01*
X121991499Y-76623914D01*
X121991500Y-76623939D01*
X121991500Y-77365500D01*
X121971498Y-77433621D01*
X121917842Y-77480114D01*
X121865500Y-77491500D01*
X117349735Y-77491500D01*
X117281614Y-77471498D01*
X117235121Y-77417842D01*
X117225017Y-77347568D01*
X117254511Y-77282988D01*
X117310796Y-77245667D01*
X117319063Y-77242982D01*
X117530627Y-77135185D01*
X117609936Y-77077564D01*
X117676804Y-77053705D01*
X117683997Y-77053500D01*
X118215554Y-77053500D01*
X118274906Y-77047435D01*
X118319427Y-77042887D01*
X118487739Y-76987115D01*
X118638652Y-76894030D01*
X118764030Y-76768652D01*
X118857115Y-76617739D01*
X118912887Y-76449427D01*
X118919849Y-76381281D01*
X118923500Y-76345554D01*
X118923500Y-75344445D01*
X118916677Y-75277673D01*
X118912887Y-75240573D01*
X118857115Y-75072261D01*
X118764030Y-74921348D01*
X118764029Y-74921347D01*
X118764024Y-74921341D01*
X118638658Y-74795975D01*
X118638652Y-74795970D01*
X118487739Y-74702885D01*
X118403583Y-74674999D01*
X118319428Y-74647113D01*
X118319421Y-74647112D01*
X118215554Y-74636500D01*
X118215546Y-74636500D01*
X117683997Y-74636500D01*
X117615876Y-74616498D01*
X117609936Y-74612436D01*
X117530630Y-74554817D01*
X117530629Y-74554816D01*
X117530627Y-74554815D01*
X117319063Y-74447018D01*
X117319060Y-74447017D01*
X117319058Y-74447016D01*
X117093246Y-74373645D01*
X117093242Y-74373644D01*
X117093241Y-74373644D01*
X116858722Y-74336500D01*
X116858719Y-74336500D01*
X101623939Y-74336500D01*
X101623915Y-74336499D01*
X101618722Y-74336499D01*
X101381278Y-74336499D01*
X101146759Y-74373644D01*
X101146757Y-74373644D01*
X101146754Y-74373645D01*
X100920941Y-74447016D01*
X100920935Y-74447019D01*
X100709369Y-74554817D01*
X100630064Y-74612436D01*
X100563196Y-74636295D01*
X100556003Y-74636500D01*
X100024446Y-74636500D01*
X99920578Y-74647112D01*
X99920571Y-74647113D01*
X99752261Y-74702885D01*
X99601347Y-74795970D01*
X99601341Y-74795975D01*
X99475975Y-74921341D01*
X99475970Y-74921347D01*
X99382885Y-75072261D01*
X99327113Y-75240571D01*
X99327112Y-75240578D01*
X99316500Y-75344445D01*
X99316500Y-76345554D01*
X99316499Y-76345554D01*
X99327112Y-76449421D01*
X99327113Y-76449427D01*
X99382885Y-76617739D01*
X99472741Y-76763417D01*
X99491500Y-76829563D01*
X99491500Y-81618722D01*
X99528644Y-81853241D01*
X99528645Y-81853247D01*
X99528811Y-81854289D01*
X99519711Y-81924700D01*
X99473990Y-81979014D01*
X99406161Y-81999987D01*
X99404362Y-82000000D01*
X91626000Y-82000000D01*
X91557879Y-81979998D01*
X91511386Y-81926342D01*
X91500000Y-81874000D01*
X91500000Y-70118722D01*
X91991500Y-70118722D01*
X92028039Y-70349421D01*
X92028645Y-70353246D01*
X92102016Y-70579058D01*
X92102018Y-70579063D01*
X92209815Y-70790627D01*
X92349380Y-70982722D01*
X92349382Y-70982724D01*
X92349384Y-70982727D01*
X92517272Y-71150615D01*
X92517275Y-71150617D01*
X92517278Y-71150620D01*
X92709373Y-71290185D01*
X92920937Y-71397982D01*
X93146759Y-71471356D01*
X93381278Y-71508500D01*
X93381281Y-71508500D01*
X96068719Y-71508500D01*
X96068722Y-71508500D01*
X96303241Y-71471356D01*
X96529063Y-71397982D01*
X96740627Y-71290185D01*
X96932722Y-71150620D01*
X96960904Y-71122437D01*
X97023215Y-71088412D01*
X97094031Y-71093476D01*
X97139095Y-71122437D01*
X97167276Y-71150618D01*
X97167279Y-71150620D01*
X97359373Y-71290185D01*
X97510974Y-71367429D01*
X97562589Y-71416177D01*
X97579655Y-71485092D01*
X97556754Y-71552294D01*
X97542866Y-71568791D01*
X96230379Y-72881279D01*
X95517281Y-73594377D01*
X95517278Y-73594380D01*
X95433329Y-73678329D01*
X95349380Y-73762277D01*
X95209817Y-73954369D01*
X95102019Y-74165935D01*
X95102016Y-74165941D01*
X95028645Y-74391754D01*
X95028644Y-74391757D01*
X95028644Y-74391759D01*
X94993692Y-74612436D01*
X94991499Y-74626281D01*
X94991499Y-74868914D01*
X94991500Y-74868939D01*
X94991500Y-77355438D01*
X94971498Y-77423559D01*
X94917842Y-77470052D01*
X94847568Y-77480156D01*
X94793230Y-77458651D01*
X94656501Y-77362913D01*
X94449073Y-77266188D01*
X94449068Y-77266186D01*
X94228000Y-77206951D01*
X94228004Y-77206951D01*
X94000000Y-77187004D01*
X93771997Y-77206951D01*
X93550931Y-77266186D01*
X93550926Y-77266188D01*
X93343500Y-77362913D01*
X93272109Y-77412899D01*
X93959211Y-78100000D01*
X93947339Y-78100000D01*
X93845606Y-78127259D01*
X93754394Y-78179920D01*
X93679920Y-78254394D01*
X93627259Y-78345606D01*
X93600000Y-78447339D01*
X93600000Y-78459209D01*
X92912900Y-77772109D01*
X92862913Y-77843500D01*
X92766188Y-78050926D01*
X92766186Y-78050931D01*
X92706951Y-78271997D01*
X92687004Y-78500000D01*
X92706951Y-78728002D01*
X92766186Y-78949068D01*
X92766188Y-78949073D01*
X92862913Y-79156501D01*
X92912899Y-79227888D01*
X93600000Y-78540788D01*
X93600000Y-78552661D01*
X93627259Y-78654394D01*
X93679920Y-78745606D01*
X93754394Y-78820080D01*
X93845606Y-78872741D01*
X93947339Y-78900000D01*
X93959210Y-78900000D01*
X93272110Y-79587098D01*
X93272110Y-79587100D01*
X93343498Y-79637086D01*
X93550926Y-79733811D01*
X93550931Y-79733813D01*
X93771999Y-79793048D01*
X93771995Y-79793048D01*
X94000000Y-79812995D01*
X94228002Y-79793048D01*
X94449068Y-79733813D01*
X94449073Y-79733811D01*
X94656497Y-79637088D01*
X94727888Y-79587099D01*
X94727888Y-79587097D01*
X94040791Y-78900000D01*
X94052661Y-78900000D01*
X94154394Y-78872741D01*
X94245606Y-78820080D01*
X94320080Y-78745606D01*
X94372741Y-78654394D01*
X94400000Y-78552661D01*
X94400000Y-78540790D01*
X95087097Y-79227888D01*
X95089406Y-79227687D01*
X95159011Y-79241675D01*
X95207823Y-79287375D01*
X95209811Y-79290620D01*
X95209815Y-79290627D01*
X95349380Y-79482722D01*
X95349382Y-79482724D01*
X95349384Y-79482727D01*
X95517272Y-79650615D01*
X95517275Y-79650617D01*
X95517278Y-79650620D01*
X95709373Y-79790185D01*
X95920937Y-79897982D01*
X96146759Y-79971356D01*
X96381278Y-80008500D01*
X96381281Y-80008500D01*
X96618719Y-80008500D01*
X96618722Y-80008500D01*
X96853241Y-79971356D01*
X97079063Y-79897982D01*
X97290627Y-79790185D01*
X97482722Y-79650620D01*
X97650620Y-79482722D01*
X97790185Y-79290627D01*
X97897982Y-79079063D01*
X97971356Y-78853241D01*
X98008500Y-78618722D01*
X98008500Y-75422031D01*
X98028502Y-75353910D01*
X98045405Y-75332936D01*
X101774876Y-71603465D01*
X121449500Y-71603465D01*
X121489870Y-71806420D01*
X121569059Y-71997598D01*
X121684023Y-72169655D01*
X121684024Y-72169656D01*
X121684029Y-72169662D01*
X121830337Y-72315970D01*
X121830343Y-72315975D01*
X121830345Y-72315977D01*
X122002402Y-72430941D01*
X122193580Y-72510130D01*
X122396535Y-72550500D01*
X122396536Y-72550500D01*
X122603464Y-72550500D01*
X122603465Y-72550500D01*
X122806420Y-72510130D01*
X122997598Y-72430941D01*
X123169655Y-72315977D01*
X123315977Y-72169655D01*
X123430941Y-71997598D01*
X123510130Y-71806420D01*
X123550500Y-71603465D01*
X123550500Y-71396535D01*
X123510130Y-71193580D01*
X123430941Y-71002402D01*
X123315977Y-70830345D01*
X123315975Y-70830343D01*
X123315970Y-70830337D01*
X123169662Y-70684029D01*
X123169656Y-70684024D01*
X123146659Y-70668658D01*
X122997598Y-70569059D01*
X122806420Y-70489870D01*
X122603467Y-70449500D01*
X122603465Y-70449500D01*
X122396535Y-70449500D01*
X122396532Y-70449500D01*
X122193579Y-70489870D01*
X122193574Y-70489872D01*
X122002402Y-70569059D01*
X121830343Y-70684024D01*
X121830337Y-70684029D01*
X121684029Y-70830337D01*
X121684024Y-70830343D01*
X121569059Y-71002402D01*
X121489872Y-71193574D01*
X121489870Y-71193579D01*
X121449500Y-71396532D01*
X121449500Y-71396535D01*
X121449500Y-71603465D01*
X101774876Y-71603465D01*
X102087936Y-71290405D01*
X102150248Y-71256379D01*
X102177031Y-71253500D01*
X116858719Y-71253500D01*
X116858722Y-71253500D01*
X117093241Y-71216356D01*
X117319063Y-71142982D01*
X117530627Y-71035185D01*
X117592166Y-70990474D01*
X117609936Y-70977564D01*
X117676804Y-70953705D01*
X117683997Y-70953500D01*
X118215554Y-70953500D01*
X118274906Y-70947435D01*
X118319427Y-70942887D01*
X118487739Y-70887115D01*
X118638652Y-70794030D01*
X118764030Y-70668652D01*
X118857115Y-70517739D01*
X118912887Y-70349427D01*
X118917435Y-70304906D01*
X118923500Y-70245554D01*
X118923500Y-69244445D01*
X118916677Y-69177673D01*
X118912887Y-69140573D01*
X118857115Y-68972261D01*
X118764030Y-68821348D01*
X118764029Y-68821347D01*
X118764024Y-68821341D01*
X118638658Y-68695975D01*
X118638652Y-68695970D01*
X118487739Y-68602885D01*
X118403583Y-68574999D01*
X118319428Y-68547113D01*
X118319421Y-68547112D01*
X118215554Y-68536500D01*
X118215546Y-68536500D01*
X117683997Y-68536500D01*
X117615876Y-68516498D01*
X117609936Y-68512436D01*
X117530630Y-68454817D01*
X117530629Y-68454816D01*
X117530627Y-68454815D01*
X117319063Y-68347018D01*
X117319060Y-68347017D01*
X117319058Y-68347016D01*
X117093246Y-68273645D01*
X117093242Y-68273644D01*
X117093241Y-68273644D01*
X116858722Y-68236500D01*
X116858719Y-68236500D01*
X101623939Y-68236500D01*
X101623915Y-68236499D01*
X101618722Y-68236499D01*
X101381278Y-68236499D01*
X101376085Y-68236499D01*
X101376061Y-68236500D01*
X98523721Y-68236500D01*
X98286278Y-68236500D01*
X98051759Y-68273644D01*
X98051753Y-68273645D01*
X97825940Y-68347016D01*
X97825934Y-68347019D01*
X97614369Y-68454817D01*
X97422277Y-68594380D01*
X97338329Y-68678329D01*
X97254380Y-68762278D01*
X97254377Y-68762281D01*
X97195317Y-68821341D01*
X97139095Y-68877563D01*
X97076783Y-68911588D01*
X97005967Y-68906522D01*
X96960905Y-68877562D01*
X96932727Y-68849384D01*
X96932724Y-68849382D01*
X96932722Y-68849380D01*
X96740627Y-68709815D01*
X96529063Y-68602018D01*
X96529060Y-68602017D01*
X96529058Y-68602016D01*
X96303246Y-68528645D01*
X96303242Y-68528644D01*
X96303241Y-68528644D01*
X96068722Y-68491500D01*
X93381278Y-68491500D01*
X93146759Y-68528644D01*
X93146753Y-68528645D01*
X92920941Y-68602016D01*
X92920935Y-68602019D01*
X92709369Y-68709817D01*
X92517275Y-68849382D01*
X92517272Y-68849384D01*
X92349384Y-69017272D01*
X92349382Y-69017275D01*
X92209817Y-69209369D01*
X92102019Y-69420935D01*
X92102016Y-69420941D01*
X92028645Y-69646753D01*
X92028644Y-69646758D01*
X92028644Y-69646759D01*
X91991500Y-69881278D01*
X91991500Y-70118722D01*
X91500000Y-70118722D01*
X91500000Y-62654000D01*
X94842000Y-62654000D01*
X94842000Y-62948597D01*
X94848505Y-63009093D01*
X94899555Y-63145964D01*
X94899555Y-63145965D01*
X94987095Y-63262904D01*
X95104034Y-63350444D01*
X95240906Y-63401494D01*
X95301402Y-63407999D01*
X95301415Y-63408000D01*
X95946000Y-63408000D01*
X95946000Y-62654000D01*
X96454000Y-62654000D01*
X96454000Y-63408000D01*
X97098585Y-63408000D01*
X97098597Y-63407999D01*
X97159093Y-63401494D01*
X97295964Y-63350444D01*
X97295965Y-63350444D01*
X97412904Y-63262904D01*
X97500444Y-63145965D01*
X97500444Y-63145964D01*
X97551494Y-63009093D01*
X97557999Y-62948597D01*
X97558000Y-62948585D01*
X97558000Y-62654000D01*
X101142000Y-62654000D01*
X101142000Y-62948597D01*
X101148505Y-63009093D01*
X101199555Y-63145964D01*
X101199555Y-63145965D01*
X101287095Y-63262904D01*
X101404034Y-63350444D01*
X101540906Y-63401494D01*
X101601402Y-63407999D01*
X101601415Y-63408000D01*
X102246000Y-63408000D01*
X102246000Y-62654000D01*
X102754000Y-62654000D01*
X102754000Y-63408000D01*
X103398585Y-63408000D01*
X103398597Y-63407999D01*
X103459093Y-63401494D01*
X103595964Y-63350444D01*
X103595965Y-63350444D01*
X103712904Y-63262904D01*
X103800444Y-63145965D01*
X103800444Y-63145964D01*
X103851494Y-63009093D01*
X103857999Y-62948597D01*
X103858000Y-62948585D01*
X103858000Y-62654000D01*
X102754000Y-62654000D01*
X102246000Y-62654000D01*
X101142000Y-62654000D01*
X97558000Y-62654000D01*
X96454000Y-62654000D01*
X95946000Y-62654000D01*
X94842000Y-62654000D01*
X91500000Y-62654000D01*
X91500000Y-62146000D01*
X94842000Y-62146000D01*
X95946000Y-62146000D01*
X95946000Y-61392000D01*
X96454000Y-61392000D01*
X96454000Y-62146000D01*
X97558000Y-62146000D01*
X101142000Y-62146000D01*
X102246000Y-62146000D01*
X102246000Y-61392000D01*
X102754000Y-61392000D01*
X102754000Y-62146000D01*
X103858000Y-62146000D01*
X103858000Y-61851414D01*
X103857999Y-61851402D01*
X103851494Y-61790906D01*
X103800444Y-61654035D01*
X103800444Y-61654034D01*
X103712904Y-61537095D01*
X103595965Y-61449555D01*
X103459093Y-61398505D01*
X103398597Y-61392000D01*
X102754000Y-61392000D01*
X102246000Y-61392000D01*
X101601402Y-61392000D01*
X101540906Y-61398505D01*
X101404035Y-61449555D01*
X101404034Y-61449555D01*
X101287095Y-61537095D01*
X101199555Y-61654034D01*
X101199555Y-61654035D01*
X101148505Y-61790906D01*
X101142000Y-61851402D01*
X101142000Y-62146000D01*
X97558000Y-62146000D01*
X97558000Y-61851414D01*
X97557999Y-61851402D01*
X97551494Y-61790906D01*
X97500444Y-61654035D01*
X97500444Y-61654034D01*
X97412904Y-61537095D01*
X97295965Y-61449555D01*
X97159093Y-61398505D01*
X97098597Y-61392000D01*
X96454000Y-61392000D01*
X95946000Y-61392000D01*
X95301402Y-61392000D01*
X95240906Y-61398505D01*
X95104035Y-61449555D01*
X95104034Y-61449555D01*
X94987095Y-61537095D01*
X94899555Y-61654034D01*
X94899555Y-61654035D01*
X94848505Y-61790906D01*
X94842000Y-61851402D01*
X94842000Y-62146000D01*
X91500000Y-62146000D01*
X91500000Y-55627000D01*
X94842000Y-55627000D01*
X94842000Y-55921597D01*
X94848505Y-55982093D01*
X94899555Y-56118964D01*
X94899555Y-56118965D01*
X94987095Y-56235904D01*
X95104034Y-56323444D01*
X95240906Y-56374494D01*
X95301402Y-56380999D01*
X95301415Y-56381000D01*
X95946000Y-56381000D01*
X95946000Y-55627000D01*
X96454000Y-55627000D01*
X96454000Y-56381000D01*
X97098585Y-56381000D01*
X97098597Y-56380999D01*
X97159093Y-56374494D01*
X97295964Y-56323444D01*
X97295965Y-56323444D01*
X97412904Y-56235904D01*
X97500444Y-56118965D01*
X97500444Y-56118964D01*
X97551494Y-55982093D01*
X97557999Y-55921597D01*
X97558000Y-55921585D01*
X97558000Y-55627000D01*
X101142000Y-55627000D01*
X101142000Y-55921597D01*
X101148505Y-55982093D01*
X101199555Y-56118964D01*
X101199555Y-56118965D01*
X101287095Y-56235904D01*
X101404034Y-56323444D01*
X101540906Y-56374494D01*
X101601402Y-56380999D01*
X101601415Y-56381000D01*
X102246000Y-56381000D01*
X102246000Y-55627000D01*
X102754000Y-55627000D01*
X102754000Y-56381000D01*
X103398585Y-56381000D01*
X103398597Y-56380999D01*
X103459093Y-56374494D01*
X103595964Y-56323444D01*
X103595965Y-56323444D01*
X103712904Y-56235904D01*
X103800444Y-56118965D01*
X103800444Y-56118964D01*
X103851494Y-55982093D01*
X103857999Y-55921597D01*
X103858000Y-55921585D01*
X103858000Y-55627000D01*
X102754000Y-55627000D01*
X102246000Y-55627000D01*
X101142000Y-55627000D01*
X97558000Y-55627000D01*
X96454000Y-55627000D01*
X95946000Y-55627000D01*
X94842000Y-55627000D01*
X91500000Y-55627000D01*
X91500000Y-55119000D01*
X94842000Y-55119000D01*
X95946000Y-55119000D01*
X95946000Y-54365000D01*
X96454000Y-54365000D01*
X96454000Y-55119000D01*
X97558000Y-55119000D01*
X101142000Y-55119000D01*
X102246000Y-55119000D01*
X102246000Y-54365000D01*
X102754000Y-54365000D01*
X102754000Y-55119000D01*
X103858000Y-55119000D01*
X103858000Y-54824414D01*
X103857999Y-54824402D01*
X103851494Y-54763906D01*
X103800444Y-54627035D01*
X103800444Y-54627034D01*
X103712904Y-54510095D01*
X103595965Y-54422555D01*
X103459093Y-54371505D01*
X103398597Y-54365000D01*
X102754000Y-54365000D01*
X102246000Y-54365000D01*
X101601402Y-54365000D01*
X101540906Y-54371505D01*
X101404035Y-54422555D01*
X101404034Y-54422555D01*
X101287095Y-54510095D01*
X101199555Y-54627034D01*
X101199555Y-54627035D01*
X101148505Y-54763906D01*
X101142000Y-54824402D01*
X101142000Y-55119000D01*
X97558000Y-55119000D01*
X97558000Y-54824414D01*
X97557999Y-54824402D01*
X97551494Y-54763906D01*
X97500444Y-54627035D01*
X97500444Y-54627034D01*
X97412904Y-54510095D01*
X97295965Y-54422555D01*
X97159093Y-54371505D01*
X97098597Y-54365000D01*
X96454000Y-54365000D01*
X95946000Y-54365000D01*
X95301402Y-54365000D01*
X95240906Y-54371505D01*
X95104035Y-54422555D01*
X95104034Y-54422555D01*
X94987095Y-54510095D01*
X94899555Y-54627034D01*
X94899555Y-54627035D01*
X94848505Y-54763906D01*
X94842000Y-54824402D01*
X94842000Y-55119000D01*
X91500000Y-55119000D01*
X91500000Y-48600000D01*
X94842000Y-48600000D01*
X94842000Y-48894597D01*
X94848505Y-48955093D01*
X94899555Y-49091964D01*
X94899555Y-49091965D01*
X94987095Y-49208904D01*
X95104034Y-49296444D01*
X95240906Y-49347494D01*
X95301402Y-49353999D01*
X95301415Y-49354000D01*
X95946000Y-49354000D01*
X95946000Y-48600000D01*
X96454000Y-48600000D01*
X96454000Y-49354000D01*
X97098585Y-49354000D01*
X97098597Y-49353999D01*
X97159093Y-49347494D01*
X97295964Y-49296444D01*
X97295965Y-49296444D01*
X97412904Y-49208904D01*
X97500444Y-49091965D01*
X97500444Y-49091964D01*
X97551494Y-48955093D01*
X97557999Y-48894597D01*
X97558000Y-48894585D01*
X97558000Y-48600000D01*
X101142000Y-48600000D01*
X101142000Y-48894597D01*
X101148505Y-48955093D01*
X101199555Y-49091964D01*
X101199555Y-49091965D01*
X101287095Y-49208904D01*
X101404034Y-49296444D01*
X101540906Y-49347494D01*
X101601402Y-49353999D01*
X101601415Y-49354000D01*
X102246000Y-49354000D01*
X102246000Y-48600000D01*
X102754000Y-48600000D01*
X102754000Y-49354000D01*
X103398585Y-49354000D01*
X103398597Y-49353999D01*
X103459093Y-49347494D01*
X103595964Y-49296444D01*
X103595965Y-49296444D01*
X103712904Y-49208904D01*
X103800444Y-49091965D01*
X103800444Y-49091964D01*
X103851494Y-48955093D01*
X103857999Y-48894597D01*
X103858000Y-48894585D01*
X103858000Y-48600000D01*
X102754000Y-48600000D01*
X102246000Y-48600000D01*
X101142000Y-48600000D01*
X97558000Y-48600000D01*
X96454000Y-48600000D01*
X95946000Y-48600000D01*
X94842000Y-48600000D01*
X91500000Y-48600000D01*
X91500000Y-48092000D01*
X94842000Y-48092000D01*
X95946000Y-48092000D01*
X95946000Y-47338000D01*
X96454000Y-47338000D01*
X96454000Y-48092000D01*
X97558000Y-48092000D01*
X101142000Y-48092000D01*
X102246000Y-48092000D01*
X102246000Y-47338000D01*
X102754000Y-47338000D01*
X102754000Y-48092000D01*
X103858000Y-48092000D01*
X103858000Y-47797414D01*
X103857999Y-47797402D01*
X103851494Y-47736906D01*
X103800444Y-47600035D01*
X103800444Y-47600034D01*
X103712904Y-47483095D01*
X103595965Y-47395555D01*
X103459093Y-47344505D01*
X103398597Y-47338000D01*
X102754000Y-47338000D01*
X102246000Y-47338000D01*
X101601402Y-47338000D01*
X101540906Y-47344505D01*
X101404035Y-47395555D01*
X101404034Y-47395555D01*
X101287095Y-47483095D01*
X101199555Y-47600034D01*
X101199555Y-47600035D01*
X101148505Y-47736906D01*
X101142000Y-47797402D01*
X101142000Y-48092000D01*
X97558000Y-48092000D01*
X97558000Y-47797414D01*
X97557999Y-47797402D01*
X97551494Y-47736906D01*
X97500444Y-47600035D01*
X97500444Y-47600034D01*
X97412904Y-47483095D01*
X97295965Y-47395555D01*
X97159093Y-47344505D01*
X97098597Y-47338000D01*
X96454000Y-47338000D01*
X95946000Y-47338000D01*
X95301402Y-47338000D01*
X95240906Y-47344505D01*
X95104035Y-47395555D01*
X95104034Y-47395555D01*
X94987095Y-47483095D01*
X94899555Y-47600034D01*
X94899555Y-47600035D01*
X94848505Y-47736906D01*
X94842000Y-47797402D01*
X94842000Y-48092000D01*
X91500000Y-48092000D01*
X91500000Y-41454000D01*
X94842000Y-41454000D01*
X94842000Y-41748597D01*
X94848505Y-41809093D01*
X94899555Y-41945964D01*
X94899555Y-41945965D01*
X94987095Y-42062904D01*
X95104034Y-42150444D01*
X95240906Y-42201494D01*
X95301402Y-42207999D01*
X95301415Y-42208000D01*
X95946000Y-42208000D01*
X95946000Y-41454000D01*
X96454000Y-41454000D01*
X96454000Y-42208000D01*
X97098585Y-42208000D01*
X97098597Y-42207999D01*
X97159093Y-42201494D01*
X97295964Y-42150444D01*
X97295965Y-42150444D01*
X97412904Y-42062904D01*
X97500444Y-41945965D01*
X97500444Y-41945964D01*
X97551494Y-41809093D01*
X97557999Y-41748597D01*
X97558000Y-41748585D01*
X97558000Y-41454000D01*
X101142000Y-41454000D01*
X101142000Y-41748597D01*
X101148505Y-41809093D01*
X101199555Y-41945964D01*
X101199555Y-41945965D01*
X101287095Y-42062904D01*
X101404034Y-42150444D01*
X101540906Y-42201494D01*
X101601402Y-42207999D01*
X101601415Y-42208000D01*
X102246000Y-42208000D01*
X102246000Y-41454000D01*
X101142000Y-41454000D01*
X97558000Y-41454000D01*
X96454000Y-41454000D01*
X95946000Y-41454000D01*
X94842000Y-41454000D01*
X91500000Y-41454000D01*
X91500000Y-40946000D01*
X94842000Y-40946000D01*
X95946000Y-40946000D01*
X95946000Y-40192000D01*
X96454000Y-40192000D01*
X96454000Y-40946000D01*
X97558000Y-40946000D01*
X101142000Y-40946000D01*
X102246000Y-40946000D01*
X102246000Y-40192000D01*
X102754000Y-40192000D01*
X102754000Y-40946000D01*
X103858000Y-40946000D01*
X103858000Y-40651414D01*
X103857999Y-40651402D01*
X103851494Y-40590906D01*
X103800444Y-40454035D01*
X103800444Y-40454034D01*
X103712904Y-40337095D01*
X103595965Y-40249555D01*
X103459093Y-40198505D01*
X103398597Y-40192000D01*
X102754000Y-40192000D01*
X102246000Y-40192000D01*
X101601402Y-40192000D01*
X101540906Y-40198505D01*
X101404035Y-40249555D01*
X101404034Y-40249555D01*
X101287095Y-40337095D01*
X101199555Y-40454034D01*
X101199555Y-40454035D01*
X101148505Y-40590906D01*
X101142000Y-40651402D01*
X101142000Y-40946000D01*
X97558000Y-40946000D01*
X97558000Y-40651414D01*
X97557999Y-40651402D01*
X97551494Y-40590906D01*
X97500444Y-40454035D01*
X97500444Y-40454034D01*
X97412904Y-40337095D01*
X97295965Y-40249555D01*
X97159093Y-40198505D01*
X97098597Y-40192000D01*
X96454000Y-40192000D01*
X95946000Y-40192000D01*
X95301402Y-40192000D01*
X95240906Y-40198505D01*
X95104035Y-40249555D01*
X95104034Y-40249555D01*
X94987095Y-40337095D01*
X94899555Y-40454034D01*
X94899555Y-40454035D01*
X94848505Y-40590906D01*
X94842000Y-40651402D01*
X94842000Y-40946000D01*
X91500000Y-40946000D01*
X91500000Y-37603467D01*
X93949500Y-37603467D01*
X93989870Y-37806420D01*
X94069059Y-37997598D01*
X94184023Y-38169655D01*
X94184024Y-38169656D01*
X94184029Y-38169662D01*
X94330337Y-38315970D01*
X94330343Y-38315975D01*
X94330345Y-38315977D01*
X94502402Y-38430941D01*
X94693580Y-38510130D01*
X94896535Y-38550500D01*
X94896536Y-38550500D01*
X95103464Y-38550500D01*
X95103465Y-38550500D01*
X95306420Y-38510130D01*
X95497598Y-38430941D01*
X95669655Y-38315977D01*
X95815977Y-38169655D01*
X95930941Y-37997598D01*
X96010130Y-37806420D01*
X96050500Y-37603465D01*
X96050500Y-37396535D01*
X96010130Y-37193580D01*
X95930941Y-37002402D01*
X95815977Y-36830345D01*
X95815975Y-36830343D01*
X95815970Y-36830337D01*
X95669662Y-36684029D01*
X95669656Y-36684024D01*
X95669655Y-36684023D01*
X95497598Y-36569059D01*
X95306420Y-36489870D01*
X95103467Y-36449500D01*
X95103465Y-36449500D01*
X94896535Y-36449500D01*
X94896532Y-36449500D01*
X94693579Y-36489870D01*
X94693574Y-36489872D01*
X94502402Y-36569059D01*
X94330343Y-36684024D01*
X94330337Y-36684029D01*
X94184029Y-36830337D01*
X94184024Y-36830343D01*
X94069059Y-37002402D01*
X93989872Y-37193574D01*
X93989870Y-37193579D01*
X93949500Y-37396532D01*
X93949500Y-37603467D01*
X91500000Y-37603467D01*
X91500000Y-34126000D01*
X91520002Y-34057879D01*
X91573658Y-34011386D01*
X91626000Y-34000000D01*
X128874000Y-34000000D01*
X128942121Y-34020002D01*
G37*
%TD.AperFunction*%
%TA.AperFunction,Conductor*%
G36*
X108647233Y-77373502D02*
G01*
X108693726Y-77427158D01*
X108703830Y-77497432D01*
X108674336Y-77562012D01*
X108627330Y-77595909D01*
X108602297Y-77606278D01*
X108437123Y-77716643D01*
X108437116Y-77716648D01*
X106048977Y-80104788D01*
X105986665Y-80138814D01*
X105970303Y-80141261D01*
X105967447Y-80141498D01*
X105967435Y-80141500D01*
X105967431Y-80141500D01*
X105822971Y-80165606D01*
X105745369Y-80178555D01*
X105745360Y-80178557D01*
X105532428Y-80251656D01*
X105532426Y-80251658D01*
X105334426Y-80358810D01*
X105334424Y-80358811D01*
X105156762Y-80497091D01*
X105004279Y-80662729D01*
X104915183Y-80799101D01*
X104861179Y-80845189D01*
X104790831Y-80854764D01*
X104726474Y-80824786D01*
X104704217Y-80799100D01*
X104615327Y-80663044D01*
X104462902Y-80497465D01*
X104285301Y-80359232D01*
X104285300Y-80359231D01*
X104087371Y-80252117D01*
X104087369Y-80252116D01*
X103874512Y-80179043D01*
X103874501Y-80179040D01*
X103794000Y-80165606D01*
X103794000Y-81069297D01*
X103732993Y-81034075D01*
X103605826Y-81000000D01*
X103474174Y-81000000D01*
X103347007Y-81034075D01*
X103286000Y-81069297D01*
X103286000Y-80165607D01*
X103285999Y-80165606D01*
X103205498Y-80179040D01*
X103205487Y-80179043D01*
X102992630Y-80252116D01*
X102992628Y-80252117D01*
X102794699Y-80359231D01*
X102794698Y-80359232D01*
X102711891Y-80423684D01*
X102645848Y-80449740D01*
X102576203Y-80435954D01*
X102525066Y-80386704D01*
X102508500Y-80324252D01*
X102508500Y-77479500D01*
X102528502Y-77411379D01*
X102582158Y-77364886D01*
X102634500Y-77353500D01*
X108579112Y-77353500D01*
X108647233Y-77373502D01*
G37*
%TD.AperFunction*%
%TD*%
%TA.AperFunction,Conductor*%
%TO.N,GND2*%
G36*
X93893635Y-88520002D02*
G01*
X93940128Y-88573658D01*
X93949093Y-88601419D01*
X93949500Y-88603465D01*
X93989870Y-88806420D01*
X94069059Y-88997598D01*
X94165002Y-89141188D01*
X94184024Y-89169656D01*
X94184029Y-89169662D01*
X94330337Y-89315970D01*
X94330343Y-89315975D01*
X94330345Y-89315977D01*
X94502402Y-89430941D01*
X94693580Y-89510130D01*
X94896535Y-89550500D01*
X94896536Y-89550500D01*
X95103464Y-89550500D01*
X95103465Y-89550500D01*
X95306420Y-89510130D01*
X95497598Y-89430941D01*
X95669655Y-89315977D01*
X95815977Y-89169655D01*
X95930941Y-88997598D01*
X96010130Y-88806420D01*
X96050500Y-88603465D01*
X96050907Y-88601419D01*
X96083815Y-88538509D01*
X96145510Y-88503377D01*
X96174486Y-88500000D01*
X99062468Y-88500000D01*
X99130589Y-88520002D01*
X99177082Y-88573658D01*
X99187186Y-88643932D01*
X99157692Y-88708512D01*
X99151563Y-88715095D01*
X98869061Y-88997597D01*
X98517281Y-89349377D01*
X98517278Y-89349380D01*
X98471253Y-89395405D01*
X98349380Y-89517277D01*
X98209817Y-89709369D01*
X98102019Y-89920935D01*
X98102016Y-89920941D01*
X98028645Y-90146754D01*
X98028644Y-90146757D01*
X98028644Y-90146759D01*
X98028033Y-90150620D01*
X97991499Y-90381281D01*
X97991499Y-90623914D01*
X97991500Y-90623939D01*
X97991500Y-92347969D01*
X97971498Y-92416090D01*
X97954595Y-92437064D01*
X97912064Y-92479595D01*
X97849752Y-92513621D01*
X97822969Y-92516500D01*
X93881278Y-92516500D01*
X93646759Y-92553644D01*
X93646753Y-92553645D01*
X93420941Y-92627016D01*
X93420935Y-92627019D01*
X93209369Y-92734817D01*
X93147269Y-92779936D01*
X93080401Y-92803795D01*
X93073208Y-92804000D01*
X92874448Y-92804000D01*
X92770578Y-92814612D01*
X92602262Y-92870385D01*
X92602260Y-92870386D01*
X92451348Y-92963470D01*
X92451342Y-92963475D01*
X92325975Y-93088842D01*
X92325970Y-93088848D01*
X92232886Y-93239760D01*
X92232885Y-93239762D01*
X92177112Y-93408078D01*
X92166500Y-93511947D01*
X92166500Y-94538052D01*
X92166499Y-94538052D01*
X92177112Y-94641921D01*
X92177112Y-94641923D01*
X92177113Y-94641925D01*
X92232885Y-94810238D01*
X92281135Y-94888463D01*
X92325970Y-94961151D01*
X92325975Y-94961157D01*
X92451342Y-95086524D01*
X92451348Y-95086529D01*
X92451349Y-95086530D01*
X92602262Y-95179615D01*
X92770575Y-95235387D01*
X92798906Y-95238281D01*
X92874448Y-95246000D01*
X92874456Y-95246000D01*
X93073208Y-95246000D01*
X93141329Y-95266002D01*
X93147269Y-95270064D01*
X93188780Y-95300223D01*
X93209373Y-95315185D01*
X93376290Y-95400233D01*
X93427905Y-95448981D01*
X93444971Y-95517896D01*
X93422070Y-95585098D01*
X93376290Y-95624766D01*
X93342527Y-95641970D01*
X93209369Y-95709817D01*
X93147269Y-95754936D01*
X93080401Y-95778795D01*
X93073208Y-95779000D01*
X92874448Y-95779000D01*
X92770578Y-95789612D01*
X92602262Y-95845385D01*
X92602260Y-95845386D01*
X92451348Y-95938470D01*
X92451342Y-95938475D01*
X92325975Y-96063842D01*
X92325970Y-96063848D01*
X92232886Y-96214760D01*
X92232885Y-96214762D01*
X92177112Y-96383078D01*
X92166500Y-96486947D01*
X92166500Y-97513052D01*
X92166499Y-97513052D01*
X92177112Y-97616921D01*
X92177112Y-97616923D01*
X92177113Y-97616925D01*
X92232885Y-97785238D01*
X92232886Y-97785239D01*
X92325970Y-97936151D01*
X92325975Y-97936157D01*
X92451342Y-98061524D01*
X92451348Y-98061529D01*
X92451349Y-98061530D01*
X92602262Y-98154615D01*
X92770575Y-98210387D01*
X92798906Y-98213281D01*
X92874448Y-98221000D01*
X92874456Y-98221000D01*
X93073208Y-98221000D01*
X93141329Y-98241002D01*
X93147269Y-98245064D01*
X93209373Y-98290185D01*
X93420937Y-98397982D01*
X93646759Y-98471356D01*
X93881278Y-98508500D01*
X102039629Y-98508500D01*
X102107750Y-98528502D01*
X102154243Y-98582158D01*
X102164347Y-98652432D01*
X102134853Y-98717012D01*
X102128724Y-98723595D01*
X101602724Y-99249595D01*
X101540412Y-99283621D01*
X101513629Y-99286500D01*
X101038894Y-99286500D01*
X100950439Y-99297122D01*
X100950433Y-99297123D01*
X100872860Y-99327715D01*
X100826636Y-99336500D01*
X100460109Y-99336500D01*
X100391988Y-99316498D01*
X100352869Y-99276648D01*
X100326659Y-99234155D01*
X100326652Y-99234147D01*
X100203352Y-99110847D01*
X100203346Y-99110842D01*
X100054920Y-99019291D01*
X99889381Y-98964438D01*
X99889379Y-98964437D01*
X99889377Y-98964437D01*
X99787221Y-98954000D01*
X99212787Y-98954000D01*
X99110619Y-98964437D01*
X98945079Y-99019291D01*
X98796653Y-99110842D01*
X98796647Y-99110847D01*
X98702900Y-99204595D01*
X98640588Y-99238621D01*
X98613805Y-99241500D01*
X98336194Y-99241500D01*
X98268073Y-99221498D01*
X98247103Y-99204599D01*
X98203346Y-99160842D01*
X98054920Y-99069291D01*
X97889381Y-99014438D01*
X97889379Y-99014437D01*
X97889377Y-99014437D01*
X97787221Y-99004000D01*
X97212787Y-99004000D01*
X97110619Y-99014437D01*
X96945079Y-99069291D01*
X96796653Y-99160842D01*
X96796647Y-99160847D01*
X96673347Y-99284147D01*
X96673342Y-99284153D01*
X96581791Y-99432580D01*
X96526937Y-99598122D01*
X96516500Y-99700278D01*
X96516500Y-100299712D01*
X96526937Y-100401880D01*
X96581791Y-100567420D01*
X96673342Y-100715846D01*
X96673347Y-100715852D01*
X96780900Y-100823405D01*
X96814926Y-100885717D01*
X96809861Y-100956532D01*
X96780900Y-101001595D01*
X96673347Y-101109147D01*
X96673342Y-101109153D01*
X96581791Y-101257580D01*
X96526937Y-101423122D01*
X96516500Y-101525278D01*
X96516500Y-102124712D01*
X96526937Y-102226880D01*
X96581791Y-102392420D01*
X96673342Y-102540846D01*
X96673347Y-102540852D01*
X96796647Y-102664152D01*
X96796652Y-102664156D01*
X96796654Y-102664158D01*
X96945080Y-102755709D01*
X97110619Y-102810562D01*
X97212787Y-102821000D01*
X97787212Y-102820999D01*
X97889381Y-102810562D01*
X98054920Y-102755709D01*
X98203346Y-102664158D01*
X98247100Y-102620403D01*
X98309410Y-102586380D01*
X98336194Y-102583500D01*
X98714085Y-102583500D01*
X98782206Y-102603502D01*
X98792234Y-102610663D01*
X98796652Y-102614156D01*
X98796654Y-102614158D01*
X98945080Y-102705709D01*
X99110619Y-102760562D01*
X99212787Y-102771000D01*
X99787212Y-102770999D01*
X99889381Y-102760562D01*
X100054920Y-102705709D01*
X100203346Y-102614158D01*
X100326658Y-102490846D01*
X100363245Y-102431528D01*
X100416029Y-102384051D01*
X100486104Y-102372648D01*
X100505327Y-102381000D01*
X103128000Y-102381000D01*
X103128000Y-102333943D01*
X103127999Y-102333937D01*
X103117386Y-102245558D01*
X103117385Y-102245552D01*
X103061921Y-102104906D01*
X103061918Y-102104902D01*
X103040416Y-102076547D01*
X103015192Y-102010182D01*
X103029852Y-101940716D01*
X103040409Y-101924289D01*
X103062361Y-101895342D01*
X103117877Y-101754564D01*
X103128500Y-101666102D01*
X103128500Y-101063898D01*
X103117877Y-100975436D01*
X103111456Y-100959154D01*
X103062361Y-100834658D01*
X103062360Y-100834657D01*
X103040730Y-100806133D01*
X103015506Y-100739771D01*
X103030165Y-100670305D01*
X103040725Y-100653872D01*
X103062361Y-100625342D01*
X103117877Y-100484564D01*
X103128500Y-100396102D01*
X103128500Y-99921371D01*
X103148502Y-99853250D01*
X103165405Y-99832276D01*
X103202276Y-99795405D01*
X103264588Y-99761379D01*
X103291371Y-99758500D01*
X105745500Y-99758500D01*
X105813621Y-99778502D01*
X105860114Y-99832158D01*
X105871500Y-99884500D01*
X105871500Y-100396105D01*
X105882122Y-100484564D01*
X105937638Y-100625340D01*
X105937640Y-100625344D01*
X105959270Y-100653867D01*
X105984493Y-100720232D01*
X105969832Y-100789699D01*
X105959270Y-100806133D01*
X105937640Y-100834655D01*
X105937638Y-100834659D01*
X105882122Y-100975435D01*
X105871500Y-101063894D01*
X105871500Y-101666105D01*
X105882122Y-101754564D01*
X105937638Y-101895340D01*
X105937640Y-101895344D01*
X105959270Y-101923867D01*
X105984493Y-101990232D01*
X105969832Y-102059699D01*
X105959270Y-102076133D01*
X105937640Y-102104655D01*
X105937638Y-102104659D01*
X105882122Y-102245435D01*
X105871500Y-102333894D01*
X105871500Y-102936105D01*
X105882122Y-103024564D01*
X105937638Y-103165341D01*
X105937641Y-103165345D01*
X105959582Y-103194279D01*
X105984806Y-103260644D01*
X105970145Y-103330111D01*
X105959585Y-103346544D01*
X105938080Y-103374904D01*
X105938078Y-103374906D01*
X105882614Y-103515552D01*
X105882613Y-103515558D01*
X105872000Y-103603937D01*
X105872000Y-103651000D01*
X107298000Y-103651000D01*
X107366121Y-103671002D01*
X107412614Y-103724658D01*
X107424000Y-103777000D01*
X107424000Y-104713000D01*
X107961057Y-104713000D01*
X107961062Y-104712999D01*
X108049441Y-104702386D01*
X108049447Y-104702385D01*
X108190097Y-104646919D01*
X108310565Y-104555565D01*
X108401919Y-104435097D01*
X108457385Y-104294447D01*
X108457386Y-104294441D01*
X108467999Y-104206062D01*
X108468000Y-104206057D01*
X108468000Y-104089695D01*
X108488002Y-104021574D01*
X108541658Y-103975081D01*
X108611932Y-103964977D01*
X108676512Y-103994471D01*
X108683095Y-104000600D01*
X108796647Y-104114152D01*
X108796652Y-104114156D01*
X108796654Y-104114158D01*
X108945080Y-104205709D01*
X109110619Y-104260562D01*
X109212787Y-104271000D01*
X109787212Y-104270999D01*
X109889381Y-104260562D01*
X110054920Y-104205709D01*
X110203346Y-104114158D01*
X110203351Y-104114152D01*
X110207766Y-104110663D01*
X110273607Y-104084103D01*
X110285915Y-104083500D01*
X110663806Y-104083500D01*
X110731927Y-104103502D01*
X110752896Y-104120400D01*
X110796654Y-104164158D01*
X110945080Y-104255709D01*
X111110619Y-104310562D01*
X111212787Y-104321000D01*
X111787212Y-104320999D01*
X111889381Y-104310562D01*
X112054920Y-104255709D01*
X112203346Y-104164158D01*
X112326658Y-104040846D01*
X112418209Y-103892420D01*
X112473062Y-103726881D01*
X112483500Y-103624713D01*
X112483499Y-103025288D01*
X112483412Y-103024441D01*
X112473062Y-102923119D01*
X112461756Y-102889000D01*
X112418209Y-102757580D01*
X112326658Y-102609154D01*
X112326657Y-102609153D01*
X112326652Y-102609147D01*
X112219100Y-102501595D01*
X112185074Y-102439283D01*
X112190139Y-102368468D01*
X112219100Y-102323405D01*
X112326652Y-102215852D01*
X112326658Y-102215846D01*
X112418209Y-102067420D01*
X112473062Y-101901881D01*
X112483500Y-101799713D01*
X112483499Y-101200288D01*
X112473062Y-101098119D01*
X112418209Y-100932580D01*
X112326658Y-100784154D01*
X112326657Y-100784153D01*
X112326652Y-100784147D01*
X112203352Y-100660847D01*
X112203346Y-100660842D01*
X112145790Y-100625341D01*
X112054920Y-100569291D01*
X111889381Y-100514438D01*
X111889379Y-100514437D01*
X111889377Y-100514437D01*
X111787221Y-100504000D01*
X111212787Y-100504000D01*
X111110619Y-100514437D01*
X110945079Y-100569291D01*
X110796653Y-100660842D01*
X110796653Y-100660843D01*
X110752899Y-100704596D01*
X110690590Y-100738620D01*
X110663806Y-100741500D01*
X110386195Y-100741500D01*
X110318074Y-100721498D01*
X110297100Y-100704595D01*
X110203352Y-100610847D01*
X110203346Y-100610842D01*
X110165894Y-100587741D01*
X110054920Y-100519291D01*
X109889381Y-100464438D01*
X109889379Y-100464437D01*
X109889377Y-100464437D01*
X109787221Y-100454000D01*
X109212787Y-100454000D01*
X109110619Y-100464437D01*
X108945079Y-100519291D01*
X108834106Y-100587741D01*
X108767959Y-100606500D01*
X108585270Y-100606500D01*
X108517149Y-100586498D01*
X108470656Y-100532842D01*
X108460169Y-100465477D01*
X108461547Y-100454000D01*
X108468500Y-100396102D01*
X108468500Y-99884500D01*
X108488502Y-99816379D01*
X108542158Y-99769886D01*
X108594500Y-99758500D01*
X108957413Y-99758500D01*
X109025534Y-99778502D01*
X109031471Y-99782562D01*
X109043248Y-99791118D01*
X109217712Y-99868794D01*
X109404513Y-99908500D01*
X109595487Y-99908500D01*
X109782288Y-99868794D01*
X109956752Y-99791118D01*
X110111253Y-99678866D01*
X110239040Y-99536944D01*
X110334527Y-99371556D01*
X110393542Y-99189928D01*
X110413504Y-99000000D01*
X110393542Y-98810072D01*
X110349145Y-98673436D01*
X110347118Y-98602469D01*
X110383781Y-98541671D01*
X110447493Y-98510346D01*
X110468979Y-98508500D01*
X111449831Y-98508500D01*
X111449855Y-98508501D01*
X111455048Y-98508501D01*
X111692489Y-98508501D01*
X111692492Y-98508501D01*
X111927011Y-98471356D01*
X112152833Y-98397982D01*
X112364397Y-98290185D01*
X112459622Y-98221000D01*
X112556492Y-98150620D01*
X112724390Y-97982722D01*
X112731562Y-97975550D01*
X112731572Y-97975537D01*
X113206255Y-97500856D01*
X113345820Y-97308762D01*
X113453617Y-97097198D01*
X113526991Y-96871376D01*
X113564136Y-96636857D01*
X113564136Y-96399413D01*
X113526991Y-96164894D01*
X113453617Y-95939072D01*
X113371307Y-95777530D01*
X113358204Y-95707755D01*
X113384904Y-95641970D01*
X113413341Y-95617189D01*
X113413046Y-95616809D01*
X113419300Y-95611956D01*
X113419307Y-95611953D01*
X113536953Y-95494307D01*
X113621645Y-95351101D01*
X113668062Y-95191331D01*
X113670999Y-95154011D01*
X113671000Y-95154011D01*
X113671000Y-93845989D01*
X113670999Y-93845988D01*
X113668062Y-93808671D01*
X113668061Y-93808667D01*
X113626003Y-93663897D01*
X113621000Y-93628745D01*
X113621000Y-93298694D01*
X113641002Y-93230573D01*
X113657903Y-93209600D01*
X113664158Y-93203346D01*
X113755709Y-93054920D01*
X113810562Y-92889381D01*
X113821000Y-92787213D01*
X113820999Y-92212788D01*
X113810562Y-92110619D01*
X113755709Y-91945080D01*
X113664158Y-91796654D01*
X113664157Y-91796653D01*
X113664152Y-91796647D01*
X113540852Y-91673347D01*
X113540846Y-91673342D01*
X113392420Y-91581791D01*
X113226881Y-91526938D01*
X113226878Y-91526937D01*
X113186098Y-91522771D01*
X113120363Y-91495949D01*
X113109810Y-91486519D01*
X111196259Y-89572967D01*
X111162233Y-89510655D01*
X111167298Y-89439839D01*
X111209845Y-89383004D01*
X111267711Y-89361049D01*
X111267429Y-89359357D01*
X111272565Y-89358500D01*
X111272569Y-89358500D01*
X111494635Y-89321444D01*
X111707574Y-89248342D01*
X111905576Y-89141189D01*
X112083240Y-89002906D01*
X112235722Y-88837268D01*
X112324518Y-88701354D01*
X112378520Y-88655268D01*
X112448868Y-88645692D01*
X112513225Y-88675669D01*
X112535480Y-88701353D01*
X112540158Y-88708512D01*
X112624275Y-88837265D01*
X112624279Y-88837270D01*
X112776762Y-89002908D01*
X112831331Y-89045381D01*
X112954424Y-89141189D01*
X113152426Y-89248342D01*
X113152427Y-89248342D01*
X113152428Y-89248343D01*
X113264227Y-89286723D01*
X113365365Y-89321444D01*
X113587431Y-89358500D01*
X113587435Y-89358500D01*
X113812565Y-89358500D01*
X113812569Y-89358500D01*
X114034635Y-89321444D01*
X114247574Y-89248342D01*
X114445576Y-89141189D01*
X114623240Y-89002906D01*
X114775722Y-88837268D01*
X114898860Y-88648791D01*
X114931058Y-88575385D01*
X114976738Y-88521038D01*
X115044550Y-88500014D01*
X115046445Y-88500000D01*
X117374000Y-88500000D01*
X117442121Y-88520002D01*
X117488614Y-88573658D01*
X117500000Y-88626000D01*
X117500000Y-107374000D01*
X117479998Y-107442121D01*
X117426342Y-107488614D01*
X117374000Y-107500000D01*
X105289823Y-107500000D01*
X105221702Y-107479998D01*
X105175209Y-107426342D01*
X105165105Y-107356068D01*
X105194599Y-107291488D01*
X105200728Y-107284905D01*
X105315970Y-107169662D01*
X105315977Y-107169655D01*
X105430941Y-106997598D01*
X105510130Y-106806420D01*
X105550500Y-106603465D01*
X105550500Y-106396535D01*
X105510130Y-106193580D01*
X105430941Y-106002402D01*
X105315977Y-105830345D01*
X105315975Y-105830343D01*
X105315970Y-105830337D01*
X105169662Y-105684029D01*
X105169656Y-105684024D01*
X105169655Y-105684023D01*
X104997598Y-105569059D01*
X104806420Y-105489870D01*
X104603467Y-105449500D01*
X104603465Y-105449500D01*
X104396535Y-105449500D01*
X104396532Y-105449500D01*
X104193579Y-105489870D01*
X104193574Y-105489872D01*
X104002402Y-105569059D01*
X103830343Y-105684024D01*
X103830337Y-105684029D01*
X103684029Y-105830337D01*
X103684024Y-105830343D01*
X103569059Y-106002402D01*
X103489872Y-106193574D01*
X103489870Y-106193579D01*
X103449500Y-106396532D01*
X103449500Y-106396535D01*
X103449500Y-106603465D01*
X103489870Y-106806420D01*
X103569059Y-106997598D01*
X103684023Y-107169655D01*
X103684024Y-107169656D01*
X103684029Y-107169662D01*
X103799272Y-107284905D01*
X103833298Y-107347217D01*
X103828233Y-107418032D01*
X103785686Y-107474868D01*
X103719166Y-107499679D01*
X103710177Y-107500000D01*
X91626000Y-107500000D01*
X91557879Y-107479998D01*
X91511386Y-107426342D01*
X91500000Y-107374000D01*
X91500000Y-104159000D01*
X100532000Y-104159000D01*
X100532000Y-104206062D01*
X100542613Y-104294441D01*
X100542614Y-104294447D01*
X100598080Y-104435097D01*
X100689434Y-104555565D01*
X100809902Y-104646919D01*
X100950552Y-104702385D01*
X100950558Y-104702386D01*
X101038937Y-104712999D01*
X101038943Y-104713000D01*
X101576000Y-104713000D01*
X101576000Y-104159000D01*
X102084000Y-104159000D01*
X102084000Y-104713000D01*
X102621057Y-104713000D01*
X102621062Y-104712999D01*
X102709441Y-104702386D01*
X102709447Y-104702385D01*
X102850097Y-104646919D01*
X102970565Y-104555565D01*
X103061919Y-104435097D01*
X103117385Y-104294447D01*
X103117386Y-104294441D01*
X103127999Y-104206062D01*
X103128000Y-104206057D01*
X103128000Y-104159000D01*
X105872000Y-104159000D01*
X105872000Y-104206062D01*
X105882613Y-104294441D01*
X105882614Y-104294447D01*
X105938080Y-104435097D01*
X106029434Y-104555565D01*
X106149902Y-104646919D01*
X106290552Y-104702385D01*
X106290558Y-104702386D01*
X106378937Y-104712999D01*
X106378943Y-104713000D01*
X106916000Y-104713000D01*
X106916000Y-104159000D01*
X105872000Y-104159000D01*
X103128000Y-104159000D01*
X102084000Y-104159000D01*
X101576000Y-104159000D01*
X100532000Y-104159000D01*
X91500000Y-104159000D01*
X91500000Y-102889000D01*
X100532000Y-102889000D01*
X100532000Y-102936062D01*
X100542613Y-103024441D01*
X100542614Y-103024447D01*
X100598078Y-103165093D01*
X100598080Y-103165096D01*
X100619898Y-103193868D01*
X100645120Y-103260233D01*
X100630458Y-103329699D01*
X100619898Y-103346132D01*
X100598080Y-103374903D01*
X100598078Y-103374906D01*
X100542614Y-103515552D01*
X100542613Y-103515558D01*
X100532000Y-103603937D01*
X100532000Y-103651000D01*
X101576000Y-103651000D01*
X101576000Y-102889000D01*
X102084000Y-102889000D01*
X102084000Y-103651000D01*
X103128000Y-103651000D01*
X103128000Y-103603943D01*
X103127999Y-103603937D01*
X103117386Y-103515558D01*
X103117385Y-103515552D01*
X103061919Y-103374901D01*
X103040104Y-103346135D01*
X103014879Y-103279771D01*
X103029539Y-103210304D01*
X103040104Y-103193865D01*
X103061919Y-103165098D01*
X103117385Y-103024447D01*
X103117386Y-103024441D01*
X103127999Y-102936062D01*
X103128000Y-102936057D01*
X103128000Y-102889000D01*
X102084000Y-102889000D01*
X101576000Y-102889000D01*
X100532000Y-102889000D01*
X91500000Y-102889000D01*
X91500000Y-88626000D01*
X91520002Y-88557879D01*
X91573658Y-88511386D01*
X91626000Y-88500000D01*
X93825514Y-88500000D01*
X93893635Y-88520002D01*
G37*
%TD.AperFunction*%
%TA.AperFunction,Conductor*%
G36*
X103794000Y-89334390D02*
G01*
X103874507Y-89320957D01*
X103874516Y-89320955D01*
X104087369Y-89247883D01*
X104087371Y-89247882D01*
X104285300Y-89140768D01*
X104285301Y-89140767D01*
X104462902Y-89002534D01*
X104615325Y-88836958D01*
X104704218Y-88700898D01*
X104758222Y-88654810D01*
X104828570Y-88645235D01*
X104892927Y-88675212D01*
X104915183Y-88700898D01*
X104920158Y-88708512D01*
X105004275Y-88837265D01*
X105004279Y-88837270D01*
X105156762Y-89002908D01*
X105211331Y-89045381D01*
X105334424Y-89141189D01*
X105532426Y-89248342D01*
X105532427Y-89248342D01*
X105532428Y-89248343D01*
X105644227Y-89286723D01*
X105745365Y-89321444D01*
X105967431Y-89358500D01*
X105967435Y-89358500D01*
X106192565Y-89358500D01*
X106192569Y-89358500D01*
X106414635Y-89321444D01*
X106627574Y-89248342D01*
X106825576Y-89141189D01*
X107003240Y-89002906D01*
X107155722Y-88837268D01*
X107244518Y-88701354D01*
X107298520Y-88655268D01*
X107368868Y-88645692D01*
X107433225Y-88675669D01*
X107455480Y-88701353D01*
X107460158Y-88708512D01*
X107544275Y-88837265D01*
X107544279Y-88837270D01*
X107696762Y-89002908D01*
X107751331Y-89045381D01*
X107874424Y-89141189D01*
X108072426Y-89248342D01*
X108072427Y-89248342D01*
X108072428Y-89248343D01*
X108184227Y-89286723D01*
X108285365Y-89321444D01*
X108507431Y-89358500D01*
X108507435Y-89358500D01*
X108733629Y-89358500D01*
X108801750Y-89378502D01*
X108822724Y-89395405D01*
X109859828Y-90432509D01*
X109859829Y-90432510D01*
X109965478Y-90538159D01*
X110089710Y-90621168D01*
X110089717Y-90621170D01*
X110093389Y-90623134D01*
X110123093Y-90645164D01*
X110780142Y-91302213D01*
X110814168Y-91364525D01*
X110809103Y-91435340D01*
X110766556Y-91492176D01*
X110703419Y-91515725D01*
X110703516Y-91516673D01*
X110598226Y-91527430D01*
X110598223Y-91527431D01*
X110432792Y-91582248D01*
X110284466Y-91673737D01*
X110284460Y-91673742D01*
X110161242Y-91796960D01*
X110161237Y-91796966D01*
X110069748Y-91945292D01*
X110014931Y-92110723D01*
X110014930Y-92110726D01*
X110004500Y-92212815D01*
X110004500Y-92246000D01*
X111128000Y-92246000D01*
X111196121Y-92266002D01*
X111242614Y-92319658D01*
X111254000Y-92372000D01*
X111254000Y-93436309D01*
X111233998Y-93504430D01*
X111217095Y-93525404D01*
X111216500Y-93525999D01*
X111216500Y-94246000D01*
X111770499Y-94246000D01*
X111770499Y-93846043D01*
X111767565Y-93808749D01*
X111721181Y-93649099D01*
X111642733Y-93516450D01*
X111625274Y-93447634D01*
X111647791Y-93380303D01*
X111685042Y-93345069D01*
X111715533Y-93326262D01*
X111823050Y-93218745D01*
X111885362Y-93184720D01*
X111956178Y-93189784D01*
X112001241Y-93218745D01*
X112067095Y-93284599D01*
X112101121Y-93346911D01*
X112104000Y-93373694D01*
X112104000Y-93628745D01*
X112098997Y-93663897D01*
X112056938Y-93808667D01*
X112056937Y-93808671D01*
X112054000Y-93845988D01*
X112054000Y-94883945D01*
X112033998Y-94952066D01*
X111980342Y-94998559D01*
X111941752Y-95008558D01*
X111941800Y-95008860D01*
X111938688Y-95009352D01*
X111937908Y-95009555D01*
X111936918Y-95009633D01*
X111916207Y-95012913D01*
X111845796Y-95003812D01*
X111791483Y-94958089D01*
X111770512Y-94890261D01*
X111770499Y-94888463D01*
X111770500Y-94754000D01*
X110154501Y-94754000D01*
X110154501Y-95153956D01*
X110157434Y-95191249D01*
X110197847Y-95330346D01*
X110197644Y-95401343D01*
X110159091Y-95460959D01*
X110094426Y-95490268D01*
X110076850Y-95491500D01*
X108695586Y-95491500D01*
X108627465Y-95471498D01*
X108580972Y-95417842D01*
X108570868Y-95347568D01*
X108600362Y-95282988D01*
X108660088Y-95244604D01*
X108682779Y-95240153D01*
X108706208Y-95237758D01*
X108729425Y-95235387D01*
X108897738Y-95179615D01*
X109048651Y-95086530D01*
X109174030Y-94961151D01*
X109267115Y-94810238D01*
X109322887Y-94641925D01*
X109326424Y-94607298D01*
X109333500Y-94538052D01*
X109333500Y-93511947D01*
X109322887Y-93408078D01*
X109322887Y-93408075D01*
X109267115Y-93239762D01*
X109174030Y-93088849D01*
X109174029Y-93088848D01*
X109174024Y-93088842D01*
X109048657Y-92963475D01*
X109048651Y-92963470D01*
X108928535Y-92889381D01*
X108897738Y-92870385D01*
X108729425Y-92814613D01*
X108729423Y-92814612D01*
X108729421Y-92814612D01*
X108625552Y-92804000D01*
X108625544Y-92804000D01*
X108426792Y-92804000D01*
X108358671Y-92783998D01*
X108352731Y-92779936D01*
X108317033Y-92754000D01*
X110004500Y-92754000D01*
X110004500Y-92787184D01*
X110014930Y-92889273D01*
X110014931Y-92889276D01*
X110069748Y-93054707D01*
X110161237Y-93203033D01*
X110161242Y-93203039D01*
X110287229Y-93329026D01*
X110321255Y-93391338D01*
X110316190Y-93462153D01*
X110292458Y-93499085D01*
X110293302Y-93499740D01*
X110288446Y-93505999D01*
X110203818Y-93649098D01*
X110157434Y-93808750D01*
X110154500Y-93846043D01*
X110154500Y-94246000D01*
X110708500Y-94246000D01*
X110708500Y-93301191D01*
X110728502Y-93233070D01*
X110745405Y-93212096D01*
X110746000Y-93211501D01*
X110746000Y-92754000D01*
X110004500Y-92754000D01*
X108317033Y-92754000D01*
X108290630Y-92734817D01*
X108290629Y-92734816D01*
X108290627Y-92734815D01*
X108079063Y-92627018D01*
X108079060Y-92627017D01*
X108079058Y-92627016D01*
X107853246Y-92553645D01*
X107853242Y-92553644D01*
X107853241Y-92553644D01*
X107618722Y-92516500D01*
X107618719Y-92516500D01*
X101134500Y-92516500D01*
X101066379Y-92496498D01*
X101019886Y-92442842D01*
X101008500Y-92390500D01*
X101008500Y-91177031D01*
X101028502Y-91108910D01*
X101045400Y-91087940D01*
X101975537Y-90157802D01*
X101975550Y-90157792D01*
X102150615Y-89982727D01*
X102150620Y-89982722D01*
X102290185Y-89790627D01*
X102397982Y-89579063D01*
X102471356Y-89353241D01*
X102503409Y-89150863D01*
X102533820Y-89086713D01*
X102594088Y-89049186D01*
X102665078Y-89050200D01*
X102705248Y-89071145D01*
X102794698Y-89140767D01*
X102794699Y-89140768D01*
X102992628Y-89247882D01*
X102992630Y-89247883D01*
X103205483Y-89320955D01*
X103205492Y-89320957D01*
X103286000Y-89334391D01*
X103286000Y-88500000D01*
X103794000Y-88500000D01*
X103794000Y-89334390D01*
G37*
%TD.AperFunction*%
%TD*%
M02*
