%TF.GenerationSoftware,KiCad,Pcbnew,8.0.2-8.0.2-0~ubuntu22.04.1*%
%TF.CreationDate,2024-05-15T17:29:59+09:00*%
%TF.ProjectId,microcontroller_board,6d696372-6f63-46f6-9e74-726f6c6c6572,rev?*%
%TF.SameCoordinates,Original*%
%TF.FileFunction,Copper,L1,Top*%
%TF.FilePolarity,Positive*%
%FSLAX46Y46*%
G04 Gerber Fmt 4.6, Leading zero omitted, Abs format (unit mm)*
G04 Created by KiCad (PCBNEW 8.0.2-8.0.2-0~ubuntu22.04.1) date 2024-05-15 17:29:59*
%MOMM*%
%LPD*%
G01*
G04 APERTURE LIST*
G04 Aperture macros list*
%AMRoundRect*
0 Rectangle with rounded corners*
0 $1 Rounding radius*
0 $2 $3 $4 $5 $6 $7 $8 $9 X,Y pos of 4 corners*
0 Add a 4 corners polygon primitive as box body*
4,1,4,$2,$3,$4,$5,$6,$7,$8,$9,$2,$3,0*
0 Add four circle primitives for the rounded corners*
1,1,$1+$1,$2,$3*
1,1,$1+$1,$4,$5*
1,1,$1+$1,$6,$7*
1,1,$1+$1,$8,$9*
0 Add four rect primitives between the rounded corners*
20,1,$1+$1,$2,$3,$4,$5,0*
20,1,$1+$1,$4,$5,$6,$7,0*
20,1,$1+$1,$6,$7,$8,$9,0*
20,1,$1+$1,$8,$9,$2,$3,0*%
G04 Aperture macros list end*
%TA.AperFunction,SMDPad,CuDef*%
%ADD10R,1.700000X1.000000*%
%TD*%
%TA.AperFunction,SMDPad,CuDef*%
%ADD11RoundRect,0.250000X-0.325000X-0.450000X0.325000X-0.450000X0.325000X0.450000X-0.325000X0.450000X0*%
%TD*%
%TA.AperFunction,SMDPad,CuDef*%
%ADD12RoundRect,0.249999X-1.425001X0.450001X-1.425001X-0.450001X1.425001X-0.450001X1.425001X0.450001X0*%
%TD*%
%TA.AperFunction,ComponentPad*%
%ADD13C,1.600000*%
%TD*%
%TA.AperFunction,ComponentPad*%
%ADD14C,1.879600*%
%TD*%
%TA.AperFunction,ComponentPad*%
%ADD15R,1.700000X1.700000*%
%TD*%
%TA.AperFunction,ComponentPad*%
%ADD16O,1.700000X1.700000*%
%TD*%
%TA.AperFunction,ViaPad*%
%ADD17C,0.800000*%
%TD*%
%TA.AperFunction,Conductor*%
%ADD18C,1.000000*%
%TD*%
%TA.AperFunction,Conductor*%
%ADD19C,2.000000*%
%TD*%
%TA.AperFunction,Conductor*%
%ADD20C,0.500000*%
%TD*%
G04 APERTURE END LIST*
D10*
%TO.P,S4,1,1*%
%TO.N,Net-(B1-\u002A5)*%
X96200000Y-66200000D03*
%TO.P,S4,2,2*%
X102500000Y-66200000D03*
%TO.P,S4,3,3*%
%TO.N,GND1*%
X96200000Y-62400000D03*
%TO.P,S4,4,4*%
X102500000Y-62400000D03*
%TD*%
D11*
%TO.P,F1,1*%
%TO.N,+5V_1*%
X95950000Y-70000000D03*
%TO.P,F1,2*%
%TO.N,/5V_AFTER_FUSE*%
X98000000Y-70000000D03*
%TD*%
D12*
%TO.P,R11,1*%
%TO.N,/5V_AFTER_FUSE*%
X111660000Y-69745000D03*
%TO.P,R11,2*%
%TO.N,/LED_POWER_1*%
X111660000Y-75845000D03*
%TD*%
D13*
%TO.P,C1,1*%
%TO.N,/5V_AFTER_FUSE*%
X96500000Y-78500000D03*
%TO.P,C1,2*%
%TO.N,GND1*%
X94000000Y-78500000D03*
%TD*%
D14*
%TO.P,B1,1,TXO*%
%TO.N,unconnected-(B1-TXO-Pad1)*%
X108000000Y-38420000D03*
%TO.P,B1,2,RXI*%
%TO.N,unconnected-(B1-RXI-Pad2)*%
X108000000Y-40960000D03*
%TO.P,B1,3,GND*%
%TO.N,unconnected-(B1-GND-Pad3)*%
X108000000Y-43500000D03*
%TO.P,B1,4,GND*%
%TO.N,unconnected-(B1-GND-Pad4)*%
X108000000Y-46040000D03*
%TO.P,B1,5,2*%
%TO.N,Net-(B1-2)*%
X108000000Y-48580000D03*
%TO.P,B1,6,\u002A3*%
%TO.N,/LED_CONTROL_1*%
X108000000Y-51120000D03*
%TO.P,B1,7,4*%
%TO.N,Net-(B1-4)*%
X108000000Y-53660000D03*
%TO.P,B1,8,\u002A5*%
%TO.N,Net-(B1-\u002A5)*%
X108000000Y-56200000D03*
%TO.P,B1,9,\u002A6*%
%TO.N,unconnected-(B1-\u002A6-Pad9)*%
X108000000Y-58740000D03*
%TO.P,B1,10,7*%
%TO.N,unconnected-(B1-7-Pad10)*%
X108000000Y-61280000D03*
%TO.P,B1,11,8*%
%TO.N,unconnected-(B1-8-Pad11)*%
X108000000Y-63820000D03*
%TO.P,B1,12,\u002A9*%
%TO.N,unconnected-(B1-\u002A9-Pad12)*%
X108000000Y-66360000D03*
%TO.P,B1,13,\u002A10*%
%TO.N,unconnected-(B1-\u002A10-Pad13)*%
X123240000Y-66360000D03*
%TO.P,B1,14,11(MOSI)*%
%TO.N,unconnected-(B1-11(MOSI)-Pad14)*%
X123240000Y-63820000D03*
%TO.P,B1,15,12(MISO)*%
%TO.N,unconnected-(B1-12(MISO)-Pad15)*%
X123240000Y-61280000D03*
%TO.P,B1,16,13(SCK)*%
%TO.N,unconnected-(B1-13(SCK)-Pad16)*%
X123240000Y-58740000D03*
%TO.P,B1,17,A0*%
%TO.N,/RIGHT_SIGNAL_1*%
X123240000Y-56200000D03*
%TO.P,B1,18,A1*%
%TO.N,/LEFT_SIGNAL_1*%
X123240000Y-53660000D03*
%TO.P,B1,19,A2*%
%TO.N,unconnected-(B1-A2-Pad19)*%
X123240000Y-51120000D03*
%TO.P,B1,20,A3*%
%TO.N,unconnected-(B1-A3-Pad20)*%
X123240000Y-48580000D03*
%TO.P,B1,21,VCC*%
%TO.N,/VCC_1*%
X123240000Y-46040000D03*
%TO.P,B1,22,RESET*%
%TO.N,Net-(B1-RESET)*%
X123240000Y-43500000D03*
%TO.P,B1,23,GND*%
%TO.N,GND1*%
X123240000Y-40960000D03*
%TO.P,B1,24,RAW*%
%TO.N,+5V_1*%
X123240000Y-38420000D03*
%TD*%
D10*
%TO.P,S2,1,1*%
%TO.N,Net-(B1-2)*%
X96200000Y-52146000D03*
%TO.P,S2,2,2*%
X102500000Y-52146000D03*
%TO.P,S2,3,3*%
%TO.N,GND1*%
X96200000Y-48346000D03*
%TO.P,S2,4,4*%
X102500000Y-48346000D03*
%TD*%
D15*
%TO.P,J1,1,Pin_1*%
%TO.N,/LED_POWER_1*%
X101000000Y-81500000D03*
D16*
%TO.P,J1,2,Pin_2*%
%TO.N,GND1*%
X103540000Y-81500000D03*
%TO.P,J1,3,Pin_3*%
%TO.N,/VCC_1*%
X106080000Y-81500000D03*
%TO.P,J1,4,Pin_4*%
%TO.N,/LED_CONTROL_1*%
X108620000Y-81500000D03*
%TO.P,J1,5,Pin_5*%
%TO.N,/LEFT_SIGNAL_1*%
X111160000Y-81500000D03*
%TO.P,J1,6,Pin_6*%
%TO.N,/RIGHT_SIGNAL_1*%
X113700000Y-81500000D03*
%TD*%
D12*
%TO.P,R13,1*%
%TO.N,/5V_AFTER_FUSE*%
X101500000Y-69745000D03*
%TO.P,R13,2*%
%TO.N,/LED_POWER_1*%
X101500000Y-75845000D03*
%TD*%
D10*
%TO.P,S1,1,1*%
%TO.N,Net-(B1-RESET)*%
X96200000Y-45000000D03*
%TO.P,S1,2,2*%
X102500000Y-45000000D03*
%TO.P,S1,3,3*%
%TO.N,GND1*%
X96200000Y-41200000D03*
%TO.P,S1,4,4*%
X102500000Y-41200000D03*
%TD*%
D12*
%TO.P,R10,1*%
%TO.N,/5V_AFTER_FUSE*%
X116740000Y-69745000D03*
%TO.P,R10,2*%
%TO.N,/LED_POWER_1*%
X116740000Y-75845000D03*
%TD*%
D13*
%TO.P,C2,1*%
%TO.N,/VCC_1*%
X123500000Y-78500000D03*
%TO.P,C2,2*%
%TO.N,GND1*%
X126000000Y-78500000D03*
%TD*%
D12*
%TO.P,R12,1*%
%TO.N,/5V_AFTER_FUSE*%
X106580000Y-69745000D03*
%TO.P,R12,2*%
%TO.N,/LED_POWER_1*%
X106580000Y-75845000D03*
%TD*%
D10*
%TO.P,S3,1,1*%
%TO.N,Net-(B1-4)*%
X96200000Y-59173000D03*
%TO.P,S3,2,2*%
X102500000Y-59173000D03*
%TO.P,S3,3,3*%
%TO.N,GND1*%
X96200000Y-55373000D03*
%TO.P,S3,4,4*%
X102500000Y-55373000D03*
%TD*%
D17*
%TO.N,+5V_1*%
X93500000Y-70000000D03*
%TD*%
D18*
%TO.N,/VCC_1*%
X123500000Y-78500000D02*
X109080000Y-78500000D01*
D19*
X123500000Y-76500000D02*
X123500000Y-78500000D01*
D18*
X109080000Y-78500000D02*
X106080000Y-81500000D01*
D19*
X127000000Y-73000000D02*
X123500000Y-76500000D01*
X127000000Y-48470923D02*
X127000000Y-73000000D01*
X124569077Y-46040000D02*
X127000000Y-48470923D01*
X123240000Y-46040000D02*
X124569077Y-46040000D01*
%TO.N,GND1*%
X103540000Y-81500000D02*
X103540000Y-79960000D01*
X103540000Y-79960000D02*
X104000000Y-79500000D01*
D20*
%TO.N,Net-(B1-RESET)*%
X102500000Y-43877000D02*
X102500000Y-45000000D01*
X105000000Y-36500000D02*
X105000000Y-41377000D01*
X123240000Y-43500000D02*
X116240000Y-36500000D01*
X116240000Y-36500000D02*
X105000000Y-36500000D01*
X96200000Y-45000000D02*
X102500000Y-45000000D01*
X105000000Y-41377000D02*
X102500000Y-43877000D01*
D19*
%TO.N,/5V_AFTER_FUSE*%
X101500000Y-69745000D02*
X98405000Y-69745000D01*
X96500000Y-74745000D02*
X101500000Y-69745000D01*
X96500000Y-78500000D02*
X96500000Y-74745000D01*
X98405000Y-69745000D02*
X98150000Y-70000000D01*
X101500000Y-69745000D02*
X116740000Y-69745000D01*
%TO.N,+5V_1*%
X93500000Y-70000000D02*
X95950000Y-70000000D01*
%TO.N,/LED_POWER_1*%
X101000000Y-76345000D02*
X101500000Y-75845000D01*
X101500000Y-75845000D02*
X116740000Y-75845000D01*
X101000000Y-81500000D02*
X101000000Y-76345000D01*
D20*
%TO.N,Net-(B1-\u002A5)*%
X96200000Y-66200000D02*
X102500000Y-66200000D01*
X102500000Y-66200000D02*
X106000000Y-62700000D01*
X106000000Y-62700000D02*
X106000000Y-58200000D01*
X108000000Y-56200000D02*
X106000000Y-58200000D01*
%TO.N,Net-(B1-4)*%
X96200000Y-59173000D02*
X102500000Y-59173000D01*
X102500000Y-59173000D02*
X102500000Y-59160000D01*
X102500000Y-59160000D02*
X108000000Y-53660000D01*
%TO.N,Net-(B1-2)*%
X107366000Y-47946000D02*
X108000000Y-48580000D01*
X102500000Y-52146000D02*
X104434000Y-52146000D01*
X108000000Y-48580000D02*
X107920000Y-48580000D01*
X104434000Y-52146000D02*
X108000000Y-48580000D01*
X96200000Y-52146000D02*
X102500000Y-52146000D01*
%TD*%
%TA.AperFunction,Conductor*%
%TO.N,GND1*%
G36*
X128942121Y-34020002D02*
G01*
X128988614Y-34073658D01*
X129000000Y-34126000D01*
X129000000Y-81874000D01*
X128979998Y-81942121D01*
X128926342Y-81988614D01*
X128874000Y-82000000D01*
X115136649Y-82000000D01*
X115068528Y-81979998D01*
X115022035Y-81926342D01*
X115011931Y-81856068D01*
X115014505Y-81843068D01*
X115042125Y-81733998D01*
X115044564Y-81724368D01*
X115063156Y-81500000D01*
X115044564Y-81275632D01*
X114989296Y-81057384D01*
X114898860Y-80851209D01*
X114881597Y-80824786D01*
X114775724Y-80662734D01*
X114775720Y-80662729D01*
X114659570Y-80536559D01*
X114623240Y-80497094D01*
X114623239Y-80497093D01*
X114623237Y-80497091D01*
X114528924Y-80423684D01*
X114445576Y-80358811D01*
X114247574Y-80251658D01*
X114247572Y-80251657D01*
X114247571Y-80251656D01*
X114034639Y-80178557D01*
X114034630Y-80178555D01*
X113957029Y-80165606D01*
X113812569Y-80141500D01*
X113587431Y-80141500D01*
X113442971Y-80165606D01*
X113365369Y-80178555D01*
X113365360Y-80178557D01*
X113152428Y-80251656D01*
X113152426Y-80251658D01*
X112954426Y-80358810D01*
X112954424Y-80358811D01*
X112776762Y-80497091D01*
X112624279Y-80662729D01*
X112535483Y-80798643D01*
X112481479Y-80844731D01*
X112411131Y-80854306D01*
X112346774Y-80824329D01*
X112324517Y-80798643D01*
X112235720Y-80662729D01*
X112119570Y-80536559D01*
X112083240Y-80497094D01*
X112083239Y-80497093D01*
X112083237Y-80497091D01*
X111988924Y-80423684D01*
X111905576Y-80358811D01*
X111707574Y-80251658D01*
X111707572Y-80251657D01*
X111707571Y-80251656D01*
X111494639Y-80178557D01*
X111494630Y-80178555D01*
X111417029Y-80165606D01*
X111272569Y-80141500D01*
X111047431Y-80141500D01*
X110902971Y-80165606D01*
X110825369Y-80178555D01*
X110825360Y-80178557D01*
X110612428Y-80251656D01*
X110612426Y-80251658D01*
X110414426Y-80358810D01*
X110414424Y-80358811D01*
X110236762Y-80497091D01*
X110084279Y-80662729D01*
X109995483Y-80798643D01*
X109941479Y-80844731D01*
X109871131Y-80854306D01*
X109806774Y-80824329D01*
X109784517Y-80798643D01*
X109695720Y-80662729D01*
X109579570Y-80536559D01*
X109543240Y-80497094D01*
X109543239Y-80497093D01*
X109543237Y-80497091D01*
X109448924Y-80423684D01*
X109365576Y-80358811D01*
X109167574Y-80251658D01*
X109167572Y-80251657D01*
X109167571Y-80251656D01*
X109051035Y-80211650D01*
X108993100Y-80170613D01*
X108966548Y-80104768D01*
X108979809Y-80035021D01*
X109002848Y-80003385D01*
X109460831Y-79545404D01*
X109523143Y-79511379D01*
X109549926Y-79508500D01*
X122322968Y-79508500D01*
X122391089Y-79528502D01*
X122412058Y-79545400D01*
X122517278Y-79650620D01*
X122709373Y-79790185D01*
X122920937Y-79897982D01*
X123146759Y-79971356D01*
X123381278Y-80008500D01*
X123381281Y-80008500D01*
X123618719Y-80008500D01*
X123618722Y-80008500D01*
X123853241Y-79971356D01*
X124079063Y-79897982D01*
X124290627Y-79790185D01*
X124482722Y-79650620D01*
X124650620Y-79482722D01*
X124790185Y-79290627D01*
X124790191Y-79290614D01*
X124792170Y-79287386D01*
X124844812Y-79239748D01*
X124910593Y-79227687D01*
X124912900Y-79227888D01*
X125600000Y-78540788D01*
X125600000Y-78552661D01*
X125627259Y-78654394D01*
X125679920Y-78745606D01*
X125754394Y-78820080D01*
X125845606Y-78872741D01*
X125947339Y-78900000D01*
X125959210Y-78900000D01*
X125272110Y-79587098D01*
X125272110Y-79587100D01*
X125343498Y-79637086D01*
X125550926Y-79733811D01*
X125550931Y-79733813D01*
X125771999Y-79793048D01*
X125771995Y-79793048D01*
X126000000Y-79812995D01*
X126228002Y-79793048D01*
X126449068Y-79733813D01*
X126449073Y-79733811D01*
X126656497Y-79637088D01*
X126727888Y-79587099D01*
X126727888Y-79587097D01*
X126040791Y-78900000D01*
X126052661Y-78900000D01*
X126154394Y-78872741D01*
X126245606Y-78820080D01*
X126320080Y-78745606D01*
X126372741Y-78654394D01*
X126400000Y-78552661D01*
X126400000Y-78540791D01*
X127087097Y-79227888D01*
X127087099Y-79227888D01*
X127137088Y-79156497D01*
X127233811Y-78949073D01*
X127233813Y-78949068D01*
X127293048Y-78728002D01*
X127312995Y-78500000D01*
X127293048Y-78271997D01*
X127233813Y-78050931D01*
X127233811Y-78050926D01*
X127137086Y-77843498D01*
X127087100Y-77772110D01*
X127087098Y-77772110D01*
X126400000Y-78459208D01*
X126400000Y-78447339D01*
X126372741Y-78345606D01*
X126320080Y-78254394D01*
X126245606Y-78179920D01*
X126154394Y-78127259D01*
X126052661Y-78100000D01*
X126040789Y-78100000D01*
X126727888Y-77412899D01*
X126727888Y-77412898D01*
X126656501Y-77362913D01*
X126449073Y-77266188D01*
X126449068Y-77266186D01*
X126228000Y-77206951D01*
X126228004Y-77206951D01*
X126000000Y-77187004D01*
X125771997Y-77206951D01*
X125550931Y-77266186D01*
X125550926Y-77266188D01*
X125343498Y-77362913D01*
X125206770Y-77458651D01*
X125139496Y-77481339D01*
X125070636Y-77464054D01*
X125022052Y-77412284D01*
X125008500Y-77355438D01*
X125008500Y-77177030D01*
X125028502Y-77108909D01*
X125045400Y-77087940D01*
X127975535Y-74157804D01*
X127975549Y-74157793D01*
X128150615Y-73982727D01*
X128150620Y-73982722D01*
X128290185Y-73790627D01*
X128390178Y-73594380D01*
X128397982Y-73579064D01*
X128471356Y-73353241D01*
X128508500Y-73118722D01*
X128508500Y-72881279D01*
X128508500Y-48352201D01*
X128471356Y-48117682D01*
X128397982Y-47891860D01*
X128290185Y-47680296D01*
X128150620Y-47488201D01*
X127982722Y-47320303D01*
X127982721Y-47320302D01*
X125724106Y-45061688D01*
X125724087Y-45061667D01*
X125551804Y-44889384D01*
X125551801Y-44889382D01*
X125551799Y-44889380D01*
X125387486Y-44770000D01*
X125359707Y-44749817D01*
X125359706Y-44749816D01*
X125359704Y-44749815D01*
X125148140Y-44642018D01*
X125148137Y-44642017D01*
X125148135Y-44642016D01*
X124922322Y-44568645D01*
X124922320Y-44568644D01*
X124922318Y-44568644D01*
X124687799Y-44531499D01*
X124528918Y-44531499D01*
X124460797Y-44511497D01*
X124414304Y-44457841D01*
X124404200Y-44387567D01*
X124423435Y-44336583D01*
X124518108Y-44191677D01*
X124614522Y-43971874D01*
X124673443Y-43739199D01*
X124693264Y-43500000D01*
X124673443Y-43260801D01*
X124651839Y-43175488D01*
X124614523Y-43028129D01*
X124614522Y-43028128D01*
X124614522Y-43028126D01*
X124518108Y-42808323D01*
X124386829Y-42607387D01*
X124224269Y-42430799D01*
X124093623Y-42329113D01*
X124052153Y-42271488D01*
X124048419Y-42200590D01*
X124068672Y-42165100D01*
X124069678Y-42148889D01*
X123371479Y-41450690D01*
X123436081Y-41433381D01*
X123551920Y-41366502D01*
X123646502Y-41271920D01*
X123713381Y-41156081D01*
X123730690Y-41091481D01*
X124427955Y-41788746D01*
X124427956Y-41788746D01*
X124517667Y-41651434D01*
X124614045Y-41431714D01*
X124614048Y-41431707D01*
X124672946Y-41199124D01*
X124692761Y-40960000D01*
X124672946Y-40720875D01*
X124614048Y-40488292D01*
X124614045Y-40488285D01*
X124517667Y-40268565D01*
X124427956Y-40131252D01*
X123730690Y-40828518D01*
X123713381Y-40763919D01*
X123646502Y-40648080D01*
X123551920Y-40553498D01*
X123436081Y-40486619D01*
X123371480Y-40469309D01*
X124069678Y-39771110D01*
X124068683Y-39755091D01*
X124052153Y-39732120D01*
X124048421Y-39661222D01*
X124083612Y-39599561D01*
X124093625Y-39590885D01*
X124224269Y-39489201D01*
X124386829Y-39312613D01*
X124518108Y-39111677D01*
X124614522Y-38891874D01*
X124673443Y-38659199D01*
X124693264Y-38420000D01*
X124673443Y-38180801D01*
X124670621Y-38169656D01*
X124614523Y-37948129D01*
X124614522Y-37948128D01*
X124614522Y-37948126D01*
X124518108Y-37728323D01*
X124386829Y-37527387D01*
X124331250Y-37467012D01*
X124224274Y-37350804D01*
X124224272Y-37350802D01*
X124224269Y-37350799D01*
X124034860Y-37203376D01*
X123823769Y-37089140D01*
X123823766Y-37089139D01*
X123823765Y-37089138D01*
X123596759Y-37011206D01*
X123596750Y-37011204D01*
X123549674Y-37003348D01*
X123360010Y-36971700D01*
X123119990Y-36971700D01*
X122961974Y-36998067D01*
X122883249Y-37011204D01*
X122883240Y-37011206D01*
X122656234Y-37089138D01*
X122656231Y-37089140D01*
X122445140Y-37203376D01*
X122445138Y-37203377D01*
X122445137Y-37203378D01*
X122255730Y-37350800D01*
X122255725Y-37350804D01*
X122093176Y-37527380D01*
X122093172Y-37527385D01*
X122093171Y-37527387D01*
X122043465Y-37603467D01*
X121961892Y-37728323D01*
X121865477Y-37948128D01*
X121865476Y-37948129D01*
X121806558Y-38180793D01*
X121806557Y-38180799D01*
X121806557Y-38180801D01*
X121786736Y-38420000D01*
X121794204Y-38510129D01*
X121806558Y-38659206D01*
X121865476Y-38891870D01*
X121865477Y-38891871D01*
X121865478Y-38891874D01*
X121961892Y-39111677D01*
X122093171Y-39312613D01*
X122093174Y-39312617D01*
X122093176Y-39312619D01*
X122255725Y-39489195D01*
X122255731Y-39489201D01*
X122255734Y-39489203D01*
X122255737Y-39489206D01*
X122386373Y-39590885D01*
X122427844Y-39648510D01*
X122431577Y-39719408D01*
X122411327Y-39754890D01*
X122410319Y-39771110D01*
X123108518Y-40469309D01*
X123043919Y-40486619D01*
X122928080Y-40553498D01*
X122833498Y-40648080D01*
X122766619Y-40763919D01*
X122749309Y-40828519D01*
X122052042Y-40131251D01*
X122052041Y-40131252D01*
X121962338Y-40268553D01*
X121962331Y-40268567D01*
X121865954Y-40488285D01*
X121865951Y-40488292D01*
X121806226Y-40724142D01*
X121770114Y-40785268D01*
X121706686Y-40817167D01*
X121636082Y-40809710D01*
X121594987Y-40782306D01*
X116723519Y-35910838D01*
X116723518Y-35910837D01*
X116723515Y-35910834D01*
X116599284Y-35827826D01*
X116461247Y-35770649D01*
X116387976Y-35756074D01*
X116387975Y-35756073D01*
X116314711Y-35741500D01*
X116314706Y-35741500D01*
X105074706Y-35741500D01*
X104925294Y-35741500D01*
X104925290Y-35741500D01*
X104778753Y-35770649D01*
X104778750Y-35770650D01*
X104640715Y-35827826D01*
X104516488Y-35910832D01*
X104516481Y-35910837D01*
X104410837Y-36016481D01*
X104410832Y-36016488D01*
X104327826Y-36140715D01*
X104270650Y-36278750D01*
X104270649Y-36278753D01*
X104241500Y-36425290D01*
X104241500Y-41010629D01*
X104221498Y-41078750D01*
X104204595Y-41099724D01*
X103887224Y-41417095D01*
X103824912Y-41451121D01*
X103798129Y-41454000D01*
X102754000Y-41454000D01*
X102754000Y-42208000D01*
X102792129Y-42208000D01*
X102860250Y-42228002D01*
X102906743Y-42281658D01*
X102916847Y-42351932D01*
X102887353Y-42416512D01*
X102881224Y-42423095D01*
X101910836Y-43393482D01*
X101910831Y-43393489D01*
X101839662Y-43500001D01*
X101827828Y-43517711D01*
X101770650Y-43655750D01*
X101770649Y-43655753D01*
X101741500Y-43802290D01*
X101741500Y-43865500D01*
X101721498Y-43933621D01*
X101667842Y-43980114D01*
X101615500Y-43991500D01*
X101601350Y-43991500D01*
X101540803Y-43998009D01*
X101540795Y-43998011D01*
X101403797Y-44049110D01*
X101403792Y-44049112D01*
X101286738Y-44136738D01*
X101246113Y-44191009D01*
X101189278Y-44233556D01*
X101145245Y-44241500D01*
X97554755Y-44241500D01*
X97486634Y-44221498D01*
X97453887Y-44191009D01*
X97413261Y-44136738D01*
X97296207Y-44049112D01*
X97296202Y-44049110D01*
X97159204Y-43998011D01*
X97159196Y-43998009D01*
X97098649Y-43991500D01*
X97098638Y-43991500D01*
X95301362Y-43991500D01*
X95301350Y-43991500D01*
X95240803Y-43998009D01*
X95240795Y-43998011D01*
X95103797Y-44049110D01*
X95103792Y-44049112D01*
X94986738Y-44136738D01*
X94899112Y-44253792D01*
X94899110Y-44253797D01*
X94848011Y-44390795D01*
X94848009Y-44390803D01*
X94841500Y-44451350D01*
X94841500Y-45548649D01*
X94848009Y-45609196D01*
X94848011Y-45609204D01*
X94899110Y-45746202D01*
X94899112Y-45746207D01*
X94986738Y-45863261D01*
X95103792Y-45950887D01*
X95103794Y-45950888D01*
X95103796Y-45950889D01*
X95162875Y-45972924D01*
X95240795Y-46001988D01*
X95240803Y-46001990D01*
X95301350Y-46008499D01*
X95301355Y-46008499D01*
X95301362Y-46008500D01*
X95301368Y-46008500D01*
X97098632Y-46008500D01*
X97098638Y-46008500D01*
X97098645Y-46008499D01*
X97098649Y-46008499D01*
X97159196Y-46001990D01*
X97159199Y-46001989D01*
X97159201Y-46001989D01*
X97296204Y-45950889D01*
X97413261Y-45863261D01*
X97453887Y-45808991D01*
X97510722Y-45766444D01*
X97554755Y-45758500D01*
X101145245Y-45758500D01*
X101213366Y-45778502D01*
X101246113Y-45808991D01*
X101286738Y-45863261D01*
X101403792Y-45950887D01*
X101403794Y-45950888D01*
X101403796Y-45950889D01*
X101462875Y-45972924D01*
X101540795Y-46001988D01*
X101540803Y-46001990D01*
X101601350Y-46008499D01*
X101601355Y-46008499D01*
X101601362Y-46008500D01*
X101601368Y-46008500D01*
X103398632Y-46008500D01*
X103398638Y-46008500D01*
X103398645Y-46008499D01*
X103398649Y-46008499D01*
X103459196Y-46001990D01*
X103459199Y-46001989D01*
X103459201Y-46001989D01*
X103596204Y-45950889D01*
X103713261Y-45863261D01*
X103776711Y-45778502D01*
X103800887Y-45746207D01*
X103800887Y-45746206D01*
X103800889Y-45746204D01*
X103851989Y-45609201D01*
X103858500Y-45548638D01*
X103858500Y-44451362D01*
X103852185Y-44392619D01*
X103851990Y-44390803D01*
X103851988Y-44390795D01*
X103800889Y-44253797D01*
X103800887Y-44253792D01*
X103713262Y-44136740D01*
X103713259Y-44136738D01*
X103668551Y-44103269D01*
X103600729Y-44052498D01*
X103558183Y-43995662D01*
X103553119Y-43924846D01*
X103587142Y-43862537D01*
X105589166Y-41860515D01*
X105672174Y-41736284D01*
X105729351Y-41598247D01*
X105758500Y-41451705D01*
X105758500Y-41302295D01*
X105758500Y-37384500D01*
X105778502Y-37316379D01*
X105832158Y-37269886D01*
X105884500Y-37258500D01*
X106813447Y-37258500D01*
X106881568Y-37278502D01*
X106928061Y-37332158D01*
X106938165Y-37402432D01*
X106908671Y-37467012D01*
X106906149Y-37469837D01*
X106853173Y-37527384D01*
X106721892Y-37728323D01*
X106625477Y-37948128D01*
X106625476Y-37948129D01*
X106566558Y-38180793D01*
X106566557Y-38180799D01*
X106566557Y-38180801D01*
X106546736Y-38420000D01*
X106554204Y-38510129D01*
X106566558Y-38659206D01*
X106625476Y-38891870D01*
X106625477Y-38891871D01*
X106625478Y-38891874D01*
X106721892Y-39111677D01*
X106853171Y-39312613D01*
X106853174Y-39312617D01*
X106853176Y-39312619D01*
X107015725Y-39489195D01*
X107015731Y-39489201D01*
X107015734Y-39489203D01*
X107015737Y-39489206D01*
X107145967Y-39590569D01*
X107187438Y-39648194D01*
X107191171Y-39719092D01*
X107155981Y-39780754D01*
X107145967Y-39789431D01*
X107015737Y-39890793D01*
X107015725Y-39890804D01*
X106853176Y-40067380D01*
X106853172Y-40067385D01*
X106853171Y-40067387D01*
X106811446Y-40131252D01*
X106721892Y-40268323D01*
X106625477Y-40488128D01*
X106625476Y-40488129D01*
X106566558Y-40720793D01*
X106566557Y-40720799D01*
X106566557Y-40720801D01*
X106561215Y-40785268D01*
X106546736Y-40960000D01*
X106566558Y-41199206D01*
X106625476Y-41431870D01*
X106625477Y-41431871D01*
X106625478Y-41431874D01*
X106721892Y-41651677D01*
X106853171Y-41852613D01*
X106853174Y-41852617D01*
X106853176Y-41852619D01*
X106939106Y-41945964D01*
X107015731Y-42029201D01*
X107015734Y-42029203D01*
X107015737Y-42029206D01*
X107145967Y-42130569D01*
X107187438Y-42188194D01*
X107191171Y-42259092D01*
X107155981Y-42320754D01*
X107145967Y-42329431D01*
X107015737Y-42430793D01*
X107015725Y-42430804D01*
X106853176Y-42607380D01*
X106721892Y-42808323D01*
X106625477Y-43028128D01*
X106625476Y-43028129D01*
X106566558Y-43260793D01*
X106566558Y-43260796D01*
X106566557Y-43260801D01*
X106546736Y-43500000D01*
X106559642Y-43655754D01*
X106566558Y-43739206D01*
X106625476Y-43971870D01*
X106625477Y-43971871D01*
X106625478Y-43971874D01*
X106721892Y-44191677D01*
X106853171Y-44392613D01*
X106853174Y-44392617D01*
X106853176Y-44392619D01*
X107015218Y-44568644D01*
X107015731Y-44569201D01*
X107015734Y-44569203D01*
X107015737Y-44569206D01*
X107145967Y-44670569D01*
X107187438Y-44728194D01*
X107191171Y-44799092D01*
X107155981Y-44860754D01*
X107145967Y-44869431D01*
X107015737Y-44970793D01*
X107015725Y-44970804D01*
X106853176Y-45147380D01*
X106853172Y-45147385D01*
X106853171Y-45147387D01*
X106786540Y-45249373D01*
X106721892Y-45348323D01*
X106625477Y-45568128D01*
X106625476Y-45568129D01*
X106566558Y-45800793D01*
X106566557Y-45800799D01*
X106566557Y-45800801D01*
X106546736Y-46040000D01*
X106556573Y-46158718D01*
X106566558Y-46279206D01*
X106625476Y-46511870D01*
X106625477Y-46511871D01*
X106625478Y-46511874D01*
X106721892Y-46731677D01*
X106853171Y-46932613D01*
X106853173Y-46932615D01*
X107006421Y-47099088D01*
X107037841Y-47162753D01*
X107029854Y-47233299D01*
X106984995Y-47288328D01*
X106983721Y-47289190D01*
X106952577Y-47310000D01*
X106882485Y-47356834D01*
X106882483Y-47356835D01*
X106882480Y-47356838D01*
X106776838Y-47462480D01*
X106776833Y-47462486D01*
X106693826Y-47586716D01*
X106636651Y-47724747D01*
X106636649Y-47724752D01*
X106607500Y-47871292D01*
X106607500Y-48020710D01*
X106619594Y-48081509D01*
X106618160Y-48137020D01*
X106566557Y-48340797D01*
X106554864Y-48481911D01*
X106546736Y-48580000D01*
X106566557Y-48819199D01*
X106566557Y-48819201D01*
X106566558Y-48819205D01*
X106573545Y-48846799D01*
X106570876Y-48917745D01*
X106540495Y-48966822D01*
X104156724Y-51350595D01*
X104094412Y-51384620D01*
X104067629Y-51387500D01*
X103854755Y-51387500D01*
X103786634Y-51367498D01*
X103753887Y-51337009D01*
X103713261Y-51282738D01*
X103596207Y-51195112D01*
X103596202Y-51195110D01*
X103459204Y-51144011D01*
X103459196Y-51144009D01*
X103398649Y-51137500D01*
X103398638Y-51137500D01*
X101601362Y-51137500D01*
X101601350Y-51137500D01*
X101540803Y-51144009D01*
X101540795Y-51144011D01*
X101403797Y-51195110D01*
X101403792Y-51195112D01*
X101286738Y-51282738D01*
X101246113Y-51337009D01*
X101189278Y-51379556D01*
X101145245Y-51387500D01*
X97554755Y-51387500D01*
X97486634Y-51367498D01*
X97453887Y-51337009D01*
X97413261Y-51282738D01*
X97296207Y-51195112D01*
X97296202Y-51195110D01*
X97159204Y-51144011D01*
X97159196Y-51144009D01*
X97098649Y-51137500D01*
X97098638Y-51137500D01*
X95301362Y-51137500D01*
X95301350Y-51137500D01*
X95240803Y-51144009D01*
X95240795Y-51144011D01*
X95103797Y-51195110D01*
X95103792Y-51195112D01*
X94986738Y-51282738D01*
X94899112Y-51399792D01*
X94899110Y-51399797D01*
X94848011Y-51536795D01*
X94848009Y-51536803D01*
X94841500Y-51597350D01*
X94841500Y-52694649D01*
X94848009Y-52755196D01*
X94848011Y-52755204D01*
X94899110Y-52892202D01*
X94899112Y-52892207D01*
X94986738Y-53009261D01*
X95103792Y-53096887D01*
X95103794Y-53096888D01*
X95103796Y-53096889D01*
X95162875Y-53118924D01*
X95240795Y-53147988D01*
X95240803Y-53147990D01*
X95301350Y-53154499D01*
X95301355Y-53154499D01*
X95301362Y-53154500D01*
X95301368Y-53154500D01*
X97098632Y-53154500D01*
X97098638Y-53154500D01*
X97098645Y-53154499D01*
X97098649Y-53154499D01*
X97159196Y-53147990D01*
X97159199Y-53147989D01*
X97159201Y-53147989D01*
X97296204Y-53096889D01*
X97413261Y-53009261D01*
X97453887Y-52954991D01*
X97510722Y-52912444D01*
X97554755Y-52904500D01*
X101145245Y-52904500D01*
X101213366Y-52924502D01*
X101246113Y-52954991D01*
X101286738Y-53009261D01*
X101403792Y-53096887D01*
X101403794Y-53096888D01*
X101403796Y-53096889D01*
X101462875Y-53118924D01*
X101540795Y-53147988D01*
X101540803Y-53147990D01*
X101601350Y-53154499D01*
X101601355Y-53154499D01*
X101601362Y-53154500D01*
X101601368Y-53154500D01*
X103398632Y-53154500D01*
X103398638Y-53154500D01*
X103398645Y-53154499D01*
X103398649Y-53154499D01*
X103459196Y-53147990D01*
X103459199Y-53147989D01*
X103459201Y-53147989D01*
X103596204Y-53096889D01*
X103713261Y-53009261D01*
X103753887Y-52954991D01*
X103810722Y-52912444D01*
X103854755Y-52904500D01*
X104508701Y-52904500D01*
X104508705Y-52904500D01*
X104508706Y-52904500D01*
X104581976Y-52889925D01*
X104655247Y-52875351D01*
X104793284Y-52818174D01*
X104917515Y-52735166D01*
X106354578Y-51298101D01*
X106416887Y-51264079D01*
X106487702Y-51269143D01*
X106544538Y-51311690D01*
X106565814Y-51356268D01*
X106625476Y-51591870D01*
X106625477Y-51591871D01*
X106625478Y-51591874D01*
X106721892Y-51811677D01*
X106853171Y-52012613D01*
X106853174Y-52012617D01*
X106853176Y-52012619D01*
X107015725Y-52189195D01*
X107015731Y-52189201D01*
X107015734Y-52189203D01*
X107015737Y-52189206D01*
X107145967Y-52290569D01*
X107187438Y-52348194D01*
X107191171Y-52419092D01*
X107155981Y-52480754D01*
X107145967Y-52489431D01*
X107015737Y-52590793D01*
X107015725Y-52590804D01*
X106853176Y-52767380D01*
X106853172Y-52767385D01*
X106853171Y-52767387D01*
X106763591Y-52904499D01*
X106721892Y-52968323D01*
X106625477Y-53188128D01*
X106625476Y-53188129D01*
X106566558Y-53420793D01*
X106566557Y-53420799D01*
X106566557Y-53420801D01*
X106546736Y-53660000D01*
X106566557Y-53899199D01*
X106566557Y-53899201D01*
X106566558Y-53899205D01*
X106573545Y-53926799D01*
X106570876Y-53997745D01*
X106540495Y-54046822D01*
X102459724Y-58127595D01*
X102397412Y-58161620D01*
X102370629Y-58164500D01*
X101601350Y-58164500D01*
X101540803Y-58171009D01*
X101540795Y-58171011D01*
X101403797Y-58222110D01*
X101403792Y-58222112D01*
X101286738Y-58309738D01*
X101246113Y-58364009D01*
X101189278Y-58406556D01*
X101145245Y-58414500D01*
X97554755Y-58414500D01*
X97486634Y-58394498D01*
X97453887Y-58364009D01*
X97413261Y-58309738D01*
X97296207Y-58222112D01*
X97296202Y-58222110D01*
X97159204Y-58171011D01*
X97159196Y-58171009D01*
X97098649Y-58164500D01*
X97098638Y-58164500D01*
X95301362Y-58164500D01*
X95301350Y-58164500D01*
X95240803Y-58171009D01*
X95240795Y-58171011D01*
X95103797Y-58222110D01*
X95103792Y-58222112D01*
X94986738Y-58309738D01*
X94899112Y-58426792D01*
X94899110Y-58426797D01*
X94848011Y-58563795D01*
X94848009Y-58563803D01*
X94841500Y-58624350D01*
X94841500Y-59721649D01*
X94848009Y-59782196D01*
X94848011Y-59782204D01*
X94899110Y-59919202D01*
X94899112Y-59919207D01*
X94986738Y-60036261D01*
X95103792Y-60123887D01*
X95103794Y-60123888D01*
X95103796Y-60123889D01*
X95162875Y-60145924D01*
X95240795Y-60174988D01*
X95240803Y-60174990D01*
X95301350Y-60181499D01*
X95301355Y-60181499D01*
X95301362Y-60181500D01*
X95301368Y-60181500D01*
X97098632Y-60181500D01*
X97098638Y-60181500D01*
X97098645Y-60181499D01*
X97098649Y-60181499D01*
X97159196Y-60174990D01*
X97159199Y-60174989D01*
X97159201Y-60174989D01*
X97296204Y-60123889D01*
X97315517Y-60109432D01*
X97413261Y-60036261D01*
X97453887Y-59981991D01*
X97510722Y-59939444D01*
X97554755Y-59931500D01*
X101145245Y-59931500D01*
X101213366Y-59951502D01*
X101246113Y-59981991D01*
X101286738Y-60036261D01*
X101403792Y-60123887D01*
X101403794Y-60123888D01*
X101403796Y-60123889D01*
X101462875Y-60145924D01*
X101540795Y-60174988D01*
X101540803Y-60174990D01*
X101601350Y-60181499D01*
X101601355Y-60181499D01*
X101601362Y-60181500D01*
X101601368Y-60181500D01*
X103398632Y-60181500D01*
X103398638Y-60181500D01*
X103398645Y-60181499D01*
X103398649Y-60181499D01*
X103459196Y-60174990D01*
X103459199Y-60174989D01*
X103459201Y-60174989D01*
X103596204Y-60123889D01*
X103615517Y-60109432D01*
X103713261Y-60036261D01*
X103800887Y-59919207D01*
X103800887Y-59919206D01*
X103800889Y-59919204D01*
X103851989Y-59782201D01*
X103858500Y-59721638D01*
X103858500Y-58926370D01*
X103878502Y-58858249D01*
X103895400Y-58837280D01*
X106354577Y-56378102D01*
X106416887Y-56344079D01*
X106487702Y-56349143D01*
X106544538Y-56391690D01*
X106565815Y-56436271D01*
X106573545Y-56466799D01*
X106570876Y-56537745D01*
X106540495Y-56586822D01*
X105516484Y-57610835D01*
X105410837Y-57716481D01*
X105410832Y-57716488D01*
X105327826Y-57840715D01*
X105270650Y-57978750D01*
X105270649Y-57978753D01*
X105241500Y-58125290D01*
X105241500Y-62333629D01*
X105221498Y-62401750D01*
X105204595Y-62422724D01*
X102472724Y-65154595D01*
X102410412Y-65188621D01*
X102383629Y-65191500D01*
X101601350Y-65191500D01*
X101540803Y-65198009D01*
X101540795Y-65198011D01*
X101403797Y-65249110D01*
X101403792Y-65249112D01*
X101286738Y-65336738D01*
X101246113Y-65391009D01*
X101189278Y-65433556D01*
X101145245Y-65441500D01*
X97554755Y-65441500D01*
X97486634Y-65421498D01*
X97453887Y-65391009D01*
X97413261Y-65336738D01*
X97296207Y-65249112D01*
X97296202Y-65249110D01*
X97159204Y-65198011D01*
X97159196Y-65198009D01*
X97098649Y-65191500D01*
X97098638Y-65191500D01*
X95301362Y-65191500D01*
X95301350Y-65191500D01*
X95240803Y-65198009D01*
X95240795Y-65198011D01*
X95103797Y-65249110D01*
X95103792Y-65249112D01*
X94986738Y-65336738D01*
X94899112Y-65453792D01*
X94899110Y-65453797D01*
X94848011Y-65590795D01*
X94848009Y-65590803D01*
X94841500Y-65651350D01*
X94841500Y-66748649D01*
X94848009Y-66809196D01*
X94848011Y-66809204D01*
X94899110Y-66946202D01*
X94899112Y-66946207D01*
X94986738Y-67063261D01*
X95103792Y-67150887D01*
X95103794Y-67150888D01*
X95103796Y-67150889D01*
X95162875Y-67172924D01*
X95240795Y-67201988D01*
X95240803Y-67201990D01*
X95301350Y-67208499D01*
X95301355Y-67208499D01*
X95301362Y-67208500D01*
X95301368Y-67208500D01*
X97098632Y-67208500D01*
X97098638Y-67208500D01*
X97098645Y-67208499D01*
X97098649Y-67208499D01*
X97159196Y-67201990D01*
X97159199Y-67201989D01*
X97159201Y-67201989D01*
X97296204Y-67150889D01*
X97413261Y-67063261D01*
X97453887Y-67008991D01*
X97510722Y-66966444D01*
X97554755Y-66958500D01*
X101145245Y-66958500D01*
X101213366Y-66978502D01*
X101246113Y-67008991D01*
X101286738Y-67063261D01*
X101403792Y-67150887D01*
X101403794Y-67150888D01*
X101403796Y-67150889D01*
X101462875Y-67172924D01*
X101540795Y-67201988D01*
X101540803Y-67201990D01*
X101601350Y-67208499D01*
X101601355Y-67208499D01*
X101601362Y-67208500D01*
X101601368Y-67208500D01*
X103398632Y-67208500D01*
X103398638Y-67208500D01*
X103398645Y-67208499D01*
X103398649Y-67208499D01*
X103459196Y-67201990D01*
X103459199Y-67201989D01*
X103459201Y-67201989D01*
X103596204Y-67150889D01*
X103713261Y-67063261D01*
X103776711Y-66978502D01*
X103800887Y-66946207D01*
X103800887Y-66946206D01*
X103800889Y-66946204D01*
X103851989Y-66809201D01*
X103858500Y-66748638D01*
X103858500Y-65966371D01*
X103878502Y-65898250D01*
X103895405Y-65877276D01*
X105060068Y-64712613D01*
X106370040Y-63402640D01*
X106432350Y-63368617D01*
X106503165Y-63373681D01*
X106560001Y-63416228D01*
X106584812Y-63482748D01*
X106581278Y-63522667D01*
X106566557Y-63580797D01*
X106546736Y-63820000D01*
X106566558Y-64059206D01*
X106625476Y-64291870D01*
X106625477Y-64291871D01*
X106625478Y-64291874D01*
X106721892Y-64511677D01*
X106853171Y-64712613D01*
X106853174Y-64712617D01*
X106853176Y-64712619D01*
X107015725Y-64889195D01*
X107015731Y-64889201D01*
X107015734Y-64889203D01*
X107015737Y-64889206D01*
X107145967Y-64990569D01*
X107187438Y-65048194D01*
X107191171Y-65119092D01*
X107155981Y-65180754D01*
X107145967Y-65189431D01*
X107015737Y-65290793D01*
X107015725Y-65290804D01*
X106853176Y-65467380D01*
X106721892Y-65668323D01*
X106625477Y-65888128D01*
X106625476Y-65888129D01*
X106566558Y-66120793D01*
X106546736Y-66360000D01*
X106566558Y-66599206D01*
X106625476Y-66831870D01*
X106625477Y-66831871D01*
X106625478Y-66831874D01*
X106721892Y-67051677D01*
X106853171Y-67252613D01*
X106853174Y-67252617D01*
X106853176Y-67252619D01*
X107015725Y-67429195D01*
X107015731Y-67429201D01*
X107205140Y-67576624D01*
X107416231Y-67690860D01*
X107643245Y-67768795D01*
X107879990Y-67808300D01*
X107879994Y-67808300D01*
X108120006Y-67808300D01*
X108120010Y-67808300D01*
X108356755Y-67768795D01*
X108583769Y-67690860D01*
X108794860Y-67576624D01*
X108984269Y-67429201D01*
X109146829Y-67252613D01*
X109278108Y-67051677D01*
X109374522Y-66831874D01*
X109433443Y-66599199D01*
X109453264Y-66360000D01*
X109433443Y-66120801D01*
X109374522Y-65888126D01*
X109278108Y-65668323D01*
X109146829Y-65467387D01*
X109122998Y-65441500D01*
X108984274Y-65290804D01*
X108984272Y-65290802D01*
X108984269Y-65290799D01*
X108854031Y-65189430D01*
X108812561Y-65131807D01*
X108808827Y-65060908D01*
X108844017Y-64999246D01*
X108854031Y-64990569D01*
X108984269Y-64889201D01*
X109146829Y-64712613D01*
X109278108Y-64511677D01*
X109374522Y-64291874D01*
X109433443Y-64059199D01*
X109453264Y-63820000D01*
X109433443Y-63580801D01*
X109388037Y-63401494D01*
X109374523Y-63348129D01*
X109374522Y-63348128D01*
X109374522Y-63348126D01*
X109278108Y-63128323D01*
X109146829Y-62927387D01*
X108984269Y-62750799D01*
X108854031Y-62649430D01*
X108812561Y-62591807D01*
X108808827Y-62520908D01*
X108844017Y-62459246D01*
X108854031Y-62450569D01*
X108984269Y-62349201D01*
X109146829Y-62172613D01*
X109278108Y-61971677D01*
X109374522Y-61751874D01*
X109433443Y-61519199D01*
X109453264Y-61280000D01*
X109433443Y-61040801D01*
X109374522Y-60808126D01*
X109278108Y-60588323D01*
X109146829Y-60387387D01*
X108984269Y-60210799D01*
X108854031Y-60109430D01*
X108812561Y-60051807D01*
X108808827Y-59980908D01*
X108844017Y-59919246D01*
X108854031Y-59910569D01*
X108984269Y-59809201D01*
X109146829Y-59632613D01*
X109278108Y-59431677D01*
X109374522Y-59211874D01*
X109433443Y-58979199D01*
X109453264Y-58740000D01*
X109433443Y-58500801D01*
X109414703Y-58426797D01*
X109374523Y-58268129D01*
X109374522Y-58268128D01*
X109374522Y-58268126D01*
X109278108Y-58048323D01*
X109146829Y-57847387D01*
X108984269Y-57670799D01*
X108854031Y-57569430D01*
X108812561Y-57511807D01*
X108808827Y-57440908D01*
X108844017Y-57379246D01*
X108854031Y-57370569D01*
X108984269Y-57269201D01*
X109146829Y-57092613D01*
X109278108Y-56891677D01*
X109374522Y-56671874D01*
X109433443Y-56439199D01*
X109453264Y-56200000D01*
X109433443Y-55960801D01*
X109374522Y-55728126D01*
X109278108Y-55508323D01*
X109146829Y-55307387D01*
X108984269Y-55130799D01*
X108854031Y-55029430D01*
X108812561Y-54971807D01*
X108808827Y-54900908D01*
X108844017Y-54839246D01*
X108854031Y-54830569D01*
X108984269Y-54729201D01*
X109146829Y-54552613D01*
X109278108Y-54351677D01*
X109374522Y-54131874D01*
X109433443Y-53899199D01*
X109453264Y-53660000D01*
X109433443Y-53420801D01*
X109374522Y-53188126D01*
X109278108Y-52968323D01*
X109146829Y-52767387D01*
X109135606Y-52755196D01*
X108984274Y-52590804D01*
X108984272Y-52590802D01*
X108984269Y-52590799D01*
X108854031Y-52489430D01*
X108812561Y-52431807D01*
X108808827Y-52360908D01*
X108844017Y-52299246D01*
X108854031Y-52290569D01*
X108984269Y-52189201D01*
X109146829Y-52012613D01*
X109278108Y-51811677D01*
X109374522Y-51591874D01*
X109433443Y-51359199D01*
X109453264Y-51120000D01*
X109433443Y-50880801D01*
X109374522Y-50648126D01*
X109278108Y-50428323D01*
X109146829Y-50227387D01*
X108984269Y-50050799D01*
X108854031Y-49949430D01*
X108812561Y-49891807D01*
X108808827Y-49820908D01*
X108844017Y-49759246D01*
X108854031Y-49750569D01*
X108984269Y-49649201D01*
X109146829Y-49472613D01*
X109278108Y-49271677D01*
X109374522Y-49051874D01*
X109433443Y-48819199D01*
X109453264Y-48580000D01*
X109433443Y-48340801D01*
X109376942Y-48117682D01*
X109374523Y-48108129D01*
X109374522Y-48108128D01*
X109374522Y-48108126D01*
X109278108Y-47888323D01*
X109146829Y-47687387D01*
X109140301Y-47680296D01*
X108984274Y-47510804D01*
X108984272Y-47510802D01*
X108984269Y-47510799D01*
X108854031Y-47409430D01*
X108812561Y-47351807D01*
X108808827Y-47280908D01*
X108844017Y-47219246D01*
X108854025Y-47210573D01*
X108984269Y-47109201D01*
X109146829Y-46932613D01*
X109278108Y-46731677D01*
X109374522Y-46511874D01*
X109433443Y-46279199D01*
X109453264Y-46040000D01*
X109433443Y-45800801D01*
X109404562Y-45686753D01*
X109374523Y-45568129D01*
X109374522Y-45568128D01*
X109374522Y-45568126D01*
X109278108Y-45348323D01*
X109146829Y-45147387D01*
X109063878Y-45057278D01*
X108984274Y-44970804D01*
X108984272Y-44970802D01*
X108984269Y-44970799D01*
X108854031Y-44869430D01*
X108812561Y-44811807D01*
X108808827Y-44740908D01*
X108844017Y-44679246D01*
X108854031Y-44670569D01*
X108984269Y-44569201D01*
X109146829Y-44392613D01*
X109278108Y-44191677D01*
X109374522Y-43971874D01*
X109433443Y-43739199D01*
X109453264Y-43500000D01*
X109433443Y-43260801D01*
X109411839Y-43175488D01*
X109374523Y-43028129D01*
X109374522Y-43028128D01*
X109374522Y-43028126D01*
X109278108Y-42808323D01*
X109146829Y-42607387D01*
X108984269Y-42430799D01*
X108854031Y-42329430D01*
X108812561Y-42271807D01*
X108808827Y-42200908D01*
X108844017Y-42139246D01*
X108854031Y-42130569D01*
X108984269Y-42029201D01*
X109146829Y-41852613D01*
X109278108Y-41651677D01*
X109374522Y-41431874D01*
X109433443Y-41199199D01*
X109453264Y-40960000D01*
X109433443Y-40720801D01*
X109400549Y-40590906D01*
X109374523Y-40488129D01*
X109374522Y-40488128D01*
X109374522Y-40488126D01*
X109278108Y-40268323D01*
X109146829Y-40067387D01*
X108984269Y-39890799D01*
X108854031Y-39789430D01*
X108812561Y-39731807D01*
X108808827Y-39660908D01*
X108844017Y-39599246D01*
X108854031Y-39590569D01*
X108984269Y-39489201D01*
X109146829Y-39312613D01*
X109278108Y-39111677D01*
X109374522Y-38891874D01*
X109433443Y-38659199D01*
X109453264Y-38420000D01*
X109433443Y-38180801D01*
X109430621Y-38169656D01*
X109374523Y-37948129D01*
X109374522Y-37948128D01*
X109374522Y-37948126D01*
X109278108Y-37728323D01*
X109146829Y-37527387D01*
X109093851Y-37469837D01*
X109062431Y-37406171D01*
X109070418Y-37335626D01*
X109115278Y-37280597D01*
X109182767Y-37258557D01*
X109186553Y-37258500D01*
X115873629Y-37258500D01*
X115941750Y-37278502D01*
X115962724Y-37295405D01*
X121780495Y-43113176D01*
X121814521Y-43175488D01*
X121813546Y-43233197D01*
X121806557Y-43260796D01*
X121795562Y-43393485D01*
X121786736Y-43500000D01*
X121799642Y-43655754D01*
X121806558Y-43739206D01*
X121865476Y-43971870D01*
X121865477Y-43971871D01*
X121865478Y-43971874D01*
X121961892Y-44191677D01*
X122093171Y-44392613D01*
X122093174Y-44392617D01*
X122093176Y-44392619D01*
X122255218Y-44568644D01*
X122255731Y-44569201D01*
X122337036Y-44632483D01*
X122378507Y-44690109D01*
X122382241Y-44761007D01*
X122347051Y-44822669D01*
X122333707Y-44833851D01*
X122257271Y-44889385D01*
X122089384Y-45057272D01*
X122089382Y-45057275D01*
X121949817Y-45249369D01*
X121842019Y-45460935D01*
X121842016Y-45460941D01*
X121768645Y-45686753D01*
X121768644Y-45686758D01*
X121768644Y-45686759D01*
X121731500Y-45921278D01*
X121731500Y-46158722D01*
X121750582Y-46279199D01*
X121768645Y-46393246D01*
X121807189Y-46511871D01*
X121842018Y-46619063D01*
X121949815Y-46830627D01*
X122089380Y-47022722D01*
X122089382Y-47022724D01*
X122089384Y-47022727D01*
X122257272Y-47190615D01*
X122257275Y-47190617D01*
X122257278Y-47190620D01*
X122316021Y-47233299D01*
X122333706Y-47246148D01*
X122377060Y-47302370D01*
X122383135Y-47373106D01*
X122350004Y-47435898D01*
X122337037Y-47447515D01*
X122255732Y-47510798D01*
X122255725Y-47510804D01*
X122093176Y-47687380D01*
X122093172Y-47687385D01*
X122093171Y-47687387D01*
X122021294Y-47797402D01*
X121961892Y-47888323D01*
X121865477Y-48108128D01*
X121865476Y-48108129D01*
X121806558Y-48340793D01*
X121806558Y-48340797D01*
X121806557Y-48340801D01*
X121805612Y-48352204D01*
X121786736Y-48580000D01*
X121806558Y-48819206D01*
X121865476Y-49051870D01*
X121865477Y-49051871D01*
X121865478Y-49051874D01*
X121961892Y-49271677D01*
X122093171Y-49472613D01*
X122093174Y-49472617D01*
X122093176Y-49472619D01*
X122255725Y-49649195D01*
X122255731Y-49649201D01*
X122255734Y-49649203D01*
X122255737Y-49649206D01*
X122385967Y-49750569D01*
X122427438Y-49808194D01*
X122431171Y-49879092D01*
X122395981Y-49940754D01*
X122385967Y-49949431D01*
X122255737Y-50050793D01*
X122255725Y-50050804D01*
X122093176Y-50227380D01*
X121961892Y-50428323D01*
X121865477Y-50648128D01*
X121865476Y-50648129D01*
X121806558Y-50880793D01*
X121806557Y-50880799D01*
X121806557Y-50880801D01*
X121786736Y-51120000D01*
X121806314Y-51356268D01*
X121806558Y-51359206D01*
X121865476Y-51591870D01*
X121865477Y-51591871D01*
X121865478Y-51591874D01*
X121961892Y-51811677D01*
X122093171Y-52012613D01*
X122093174Y-52012617D01*
X122093176Y-52012619D01*
X122255725Y-52189195D01*
X122255731Y-52189201D01*
X122255734Y-52189203D01*
X122255737Y-52189206D01*
X122385967Y-52290569D01*
X122427438Y-52348194D01*
X122431171Y-52419092D01*
X122395981Y-52480754D01*
X122385967Y-52489431D01*
X122255737Y-52590793D01*
X122255725Y-52590804D01*
X122093176Y-52767380D01*
X122093172Y-52767385D01*
X122093171Y-52767387D01*
X122003591Y-52904499D01*
X121961892Y-52968323D01*
X121865477Y-53188128D01*
X121865476Y-53188129D01*
X121806558Y-53420793D01*
X121786736Y-53660000D01*
X121806558Y-53899206D01*
X121865476Y-54131870D01*
X121865477Y-54131871D01*
X121865478Y-54131874D01*
X121961892Y-54351677D01*
X122093171Y-54552613D01*
X122093174Y-54552617D01*
X122093176Y-54552619D01*
X122255725Y-54729195D01*
X122255731Y-54729201D01*
X122255734Y-54729203D01*
X122255737Y-54729206D01*
X122385967Y-54830569D01*
X122427438Y-54888194D01*
X122431171Y-54959092D01*
X122395981Y-55020754D01*
X122385967Y-55029431D01*
X122255737Y-55130793D01*
X122255725Y-55130804D01*
X122093176Y-55307380D01*
X121961892Y-55508323D01*
X121865477Y-55728128D01*
X121865476Y-55728129D01*
X121806558Y-55960793D01*
X121806557Y-55960799D01*
X121806557Y-55960801D01*
X121786736Y-56200000D01*
X121806314Y-56436271D01*
X121806558Y-56439206D01*
X121865476Y-56671870D01*
X121865477Y-56671871D01*
X121865478Y-56671874D01*
X121961892Y-56891677D01*
X122093171Y-57092613D01*
X122093174Y-57092617D01*
X122093176Y-57092619D01*
X122255725Y-57269195D01*
X122255731Y-57269201D01*
X122255734Y-57269203D01*
X122255737Y-57269206D01*
X122385967Y-57370569D01*
X122427438Y-57428194D01*
X122431171Y-57499092D01*
X122395981Y-57560754D01*
X122385967Y-57569431D01*
X122255737Y-57670793D01*
X122255725Y-57670804D01*
X122093176Y-57847380D01*
X121961892Y-58048323D01*
X121865477Y-58268128D01*
X121865476Y-58268129D01*
X121806558Y-58500793D01*
X121806557Y-58500799D01*
X121806557Y-58500801D01*
X121786736Y-58740000D01*
X121802179Y-58926370D01*
X121806558Y-58979206D01*
X121865476Y-59211870D01*
X121865477Y-59211871D01*
X121865478Y-59211874D01*
X121961892Y-59431677D01*
X122093171Y-59632613D01*
X122093174Y-59632617D01*
X122093176Y-59632619D01*
X122233049Y-59784562D01*
X122255731Y-59809201D01*
X122255734Y-59809203D01*
X122255737Y-59809206D01*
X122385967Y-59910569D01*
X122427438Y-59968194D01*
X122431171Y-60039092D01*
X122395981Y-60100754D01*
X122385967Y-60109431D01*
X122255737Y-60210793D01*
X122255725Y-60210804D01*
X122093176Y-60387380D01*
X122093172Y-60387385D01*
X122093171Y-60387387D01*
X121961892Y-60588323D01*
X121865477Y-60808128D01*
X121865476Y-60808129D01*
X121806558Y-61040793D01*
X121786736Y-61280000D01*
X121806558Y-61519206D01*
X121865476Y-61751870D01*
X121865477Y-61751871D01*
X121865478Y-61751874D01*
X121961892Y-61971677D01*
X122093171Y-62172613D01*
X122093174Y-62172617D01*
X122093176Y-62172619D01*
X122233049Y-62324562D01*
X122255731Y-62349201D01*
X122255734Y-62349203D01*
X122255737Y-62349206D01*
X122385967Y-62450569D01*
X122427438Y-62508194D01*
X122431171Y-62579092D01*
X122395981Y-62640754D01*
X122385967Y-62649431D01*
X122255737Y-62750793D01*
X122255725Y-62750804D01*
X122093176Y-62927380D01*
X122093172Y-62927385D01*
X122093171Y-62927387D01*
X122006998Y-63059284D01*
X121961892Y-63128323D01*
X121865477Y-63348128D01*
X121865476Y-63348129D01*
X121806558Y-63580793D01*
X121786736Y-63820000D01*
X121806558Y-64059206D01*
X121865476Y-64291870D01*
X121865477Y-64291871D01*
X121865478Y-64291874D01*
X121961892Y-64511677D01*
X122093171Y-64712613D01*
X122093174Y-64712617D01*
X122093176Y-64712619D01*
X122255725Y-64889195D01*
X122255731Y-64889201D01*
X122255734Y-64889203D01*
X122255737Y-64889206D01*
X122385967Y-64990569D01*
X122427438Y-65048194D01*
X122431171Y-65119092D01*
X122395981Y-65180754D01*
X122385967Y-65189431D01*
X122255737Y-65290793D01*
X122255725Y-65290804D01*
X122093176Y-65467380D01*
X121961892Y-65668323D01*
X121865477Y-65888128D01*
X121865476Y-65888129D01*
X121806558Y-66120793D01*
X121786736Y-66360000D01*
X121806558Y-66599206D01*
X121865476Y-66831870D01*
X121865477Y-66831871D01*
X121865478Y-66831874D01*
X121961892Y-67051677D01*
X122093171Y-67252613D01*
X122093174Y-67252617D01*
X122093176Y-67252619D01*
X122255725Y-67429195D01*
X122255731Y-67429201D01*
X122445140Y-67576624D01*
X122656231Y-67690860D01*
X122883245Y-67768795D01*
X123119990Y-67808300D01*
X123119994Y-67808300D01*
X123360006Y-67808300D01*
X123360010Y-67808300D01*
X123596755Y-67768795D01*
X123823769Y-67690860D01*
X124034860Y-67576624D01*
X124224269Y-67429201D01*
X124386829Y-67252613D01*
X124518108Y-67051677D01*
X124614522Y-66831874D01*
X124673443Y-66599199D01*
X124693264Y-66360000D01*
X124673443Y-66120801D01*
X124614522Y-65888126D01*
X124518108Y-65668323D01*
X124386829Y-65467387D01*
X124362998Y-65441500D01*
X124224274Y-65290804D01*
X124224272Y-65290802D01*
X124224269Y-65290799D01*
X124094031Y-65189430D01*
X124052561Y-65131807D01*
X124048827Y-65060908D01*
X124084017Y-64999246D01*
X124094031Y-64990569D01*
X124224269Y-64889201D01*
X124386829Y-64712613D01*
X124518108Y-64511677D01*
X124614522Y-64291874D01*
X124673443Y-64059199D01*
X124693264Y-63820000D01*
X124673443Y-63580801D01*
X124628037Y-63401494D01*
X124614523Y-63348129D01*
X124614522Y-63348128D01*
X124614522Y-63348126D01*
X124518108Y-63128323D01*
X124386829Y-62927387D01*
X124224269Y-62750799D01*
X124094031Y-62649430D01*
X124052561Y-62591807D01*
X124048827Y-62520908D01*
X124084017Y-62459246D01*
X124094031Y-62450569D01*
X124224269Y-62349201D01*
X124386829Y-62172613D01*
X124518108Y-61971677D01*
X124614522Y-61751874D01*
X124673443Y-61519199D01*
X124693264Y-61280000D01*
X124673443Y-61040801D01*
X124614522Y-60808126D01*
X124518108Y-60588323D01*
X124386829Y-60387387D01*
X124224269Y-60210799D01*
X124094031Y-60109430D01*
X124052561Y-60051807D01*
X124048827Y-59980908D01*
X124084017Y-59919246D01*
X124094031Y-59910569D01*
X124224269Y-59809201D01*
X124386829Y-59632613D01*
X124518108Y-59431677D01*
X124614522Y-59211874D01*
X124673443Y-58979199D01*
X124693264Y-58740000D01*
X124673443Y-58500801D01*
X124654703Y-58426797D01*
X124614523Y-58268129D01*
X124614522Y-58268128D01*
X124614522Y-58268126D01*
X124518108Y-58048323D01*
X124386829Y-57847387D01*
X124224269Y-57670799D01*
X124094031Y-57569430D01*
X124052561Y-57511807D01*
X124048827Y-57440908D01*
X124084017Y-57379246D01*
X124094031Y-57370569D01*
X124224269Y-57269201D01*
X124386829Y-57092613D01*
X124518108Y-56891677D01*
X124614522Y-56671874D01*
X124673443Y-56439199D01*
X124693264Y-56200000D01*
X124673443Y-55960801D01*
X124614522Y-55728126D01*
X124518108Y-55508323D01*
X124386829Y-55307387D01*
X124224269Y-55130799D01*
X124094031Y-55029430D01*
X124052561Y-54971807D01*
X124048827Y-54900908D01*
X124084017Y-54839246D01*
X124094031Y-54830569D01*
X124224269Y-54729201D01*
X124386829Y-54552613D01*
X124518108Y-54351677D01*
X124614522Y-54131874D01*
X124673443Y-53899199D01*
X124693264Y-53660000D01*
X124673443Y-53420801D01*
X124614522Y-53188126D01*
X124518108Y-52968323D01*
X124386829Y-52767387D01*
X124375606Y-52755196D01*
X124224274Y-52590804D01*
X124224272Y-52590802D01*
X124224269Y-52590799D01*
X124094031Y-52489430D01*
X124052561Y-52431807D01*
X124048827Y-52360908D01*
X124084017Y-52299246D01*
X124094031Y-52290569D01*
X124224269Y-52189201D01*
X124386829Y-52012613D01*
X124518108Y-51811677D01*
X124614522Y-51591874D01*
X124673443Y-51359199D01*
X124693264Y-51120000D01*
X124673443Y-50880801D01*
X124614522Y-50648126D01*
X124518108Y-50428323D01*
X124386829Y-50227387D01*
X124224269Y-50050799D01*
X124094031Y-49949430D01*
X124052561Y-49891807D01*
X124048827Y-49820908D01*
X124084017Y-49759246D01*
X124094031Y-49750569D01*
X124224269Y-49649201D01*
X124386829Y-49472613D01*
X124518108Y-49271677D01*
X124614522Y-49051874D01*
X124673443Y-48819199D01*
X124692431Y-48590047D01*
X124717989Y-48523815D01*
X124775301Y-48481911D01*
X124846169Y-48477645D01*
X124907095Y-48511360D01*
X125454595Y-49058859D01*
X125488620Y-49121172D01*
X125491500Y-49147955D01*
X125491500Y-72322968D01*
X125471498Y-72391089D01*
X125454595Y-72412063D01*
X123912289Y-73954369D01*
X122517281Y-75349377D01*
X122517278Y-75349380D01*
X122444627Y-75422031D01*
X122349380Y-75517277D01*
X122209817Y-75709369D01*
X122102019Y-75920935D01*
X122102016Y-75920941D01*
X122028645Y-76146754D01*
X122028644Y-76146757D01*
X122028644Y-76146759D01*
X121997158Y-76345554D01*
X121991499Y-76381281D01*
X121991499Y-76623914D01*
X121991500Y-76623939D01*
X121991500Y-77365500D01*
X121971498Y-77433621D01*
X121917842Y-77480114D01*
X121865500Y-77491500D01*
X117349735Y-77491500D01*
X117281614Y-77471498D01*
X117235121Y-77417842D01*
X117225017Y-77347568D01*
X117254511Y-77282988D01*
X117310796Y-77245667D01*
X117319063Y-77242982D01*
X117530627Y-77135185D01*
X117609936Y-77077564D01*
X117676804Y-77053705D01*
X117683997Y-77053500D01*
X118215554Y-77053500D01*
X118274906Y-77047435D01*
X118319427Y-77042887D01*
X118487739Y-76987115D01*
X118638652Y-76894030D01*
X118764030Y-76768652D01*
X118857115Y-76617739D01*
X118912887Y-76449427D01*
X118919849Y-76381281D01*
X118923500Y-76345554D01*
X118923500Y-75344445D01*
X118916677Y-75277673D01*
X118912887Y-75240573D01*
X118857115Y-75072261D01*
X118764030Y-74921348D01*
X118764029Y-74921347D01*
X118764024Y-74921341D01*
X118638658Y-74795975D01*
X118638652Y-74795970D01*
X118487739Y-74702885D01*
X118403583Y-74674999D01*
X118319428Y-74647113D01*
X118319421Y-74647112D01*
X118215554Y-74636500D01*
X118215546Y-74636500D01*
X117683997Y-74636500D01*
X117615876Y-74616498D01*
X117609936Y-74612436D01*
X117530630Y-74554817D01*
X117530629Y-74554816D01*
X117530627Y-74554815D01*
X117319063Y-74447018D01*
X117319060Y-74447017D01*
X117319058Y-74447016D01*
X117093246Y-74373645D01*
X117093242Y-74373644D01*
X117093241Y-74373644D01*
X116858722Y-74336500D01*
X116858719Y-74336500D01*
X101623939Y-74336500D01*
X101623915Y-74336499D01*
X101618722Y-74336499D01*
X101381278Y-74336499D01*
X101146759Y-74373644D01*
X101146757Y-74373644D01*
X101146754Y-74373645D01*
X100920941Y-74447016D01*
X100920935Y-74447019D01*
X100709369Y-74554817D01*
X100630064Y-74612436D01*
X100563196Y-74636295D01*
X100556003Y-74636500D01*
X100024446Y-74636500D01*
X99920578Y-74647112D01*
X99920571Y-74647113D01*
X99752261Y-74702885D01*
X99601347Y-74795970D01*
X99601341Y-74795975D01*
X99475975Y-74921341D01*
X99475970Y-74921347D01*
X99382885Y-75072261D01*
X99327113Y-75240571D01*
X99327112Y-75240578D01*
X99316500Y-75344445D01*
X99316500Y-76345554D01*
X99316499Y-76345554D01*
X99327112Y-76449421D01*
X99327113Y-76449427D01*
X99382885Y-76617739D01*
X99472741Y-76763417D01*
X99491500Y-76829563D01*
X99491500Y-81618722D01*
X99528644Y-81853241D01*
X99528645Y-81853247D01*
X99528811Y-81854289D01*
X99519711Y-81924700D01*
X99473990Y-81979014D01*
X99406161Y-81999987D01*
X99404362Y-82000000D01*
X91626000Y-82000000D01*
X91557879Y-81979998D01*
X91511386Y-81926342D01*
X91500000Y-81874000D01*
X91500000Y-69881278D01*
X91991500Y-69881278D01*
X91991500Y-70118722D01*
X92028039Y-70349421D01*
X92028645Y-70353246D01*
X92102016Y-70579058D01*
X92102018Y-70579063D01*
X92209815Y-70790627D01*
X92349380Y-70982722D01*
X92349382Y-70982724D01*
X92349384Y-70982727D01*
X92517272Y-71150615D01*
X92517275Y-71150617D01*
X92517278Y-71150620D01*
X92709373Y-71290185D01*
X92920937Y-71397982D01*
X93146759Y-71471356D01*
X93381278Y-71508500D01*
X93381281Y-71508500D01*
X96068719Y-71508500D01*
X96068722Y-71508500D01*
X96303241Y-71471356D01*
X96529063Y-71397982D01*
X96740627Y-71290185D01*
X96932722Y-71150620D01*
X96960904Y-71122437D01*
X97023215Y-71088412D01*
X97094031Y-71093476D01*
X97139095Y-71122437D01*
X97167276Y-71150618D01*
X97167279Y-71150620D01*
X97359373Y-71290185D01*
X97510974Y-71367429D01*
X97562589Y-71416177D01*
X97579655Y-71485092D01*
X97556754Y-71552294D01*
X97542866Y-71568791D01*
X96230379Y-72881279D01*
X95517281Y-73594377D01*
X95517278Y-73594380D01*
X95433329Y-73678329D01*
X95349380Y-73762277D01*
X95209817Y-73954369D01*
X95102019Y-74165935D01*
X95102016Y-74165941D01*
X95028645Y-74391754D01*
X95028644Y-74391757D01*
X95028644Y-74391759D01*
X94993692Y-74612436D01*
X94991499Y-74626281D01*
X94991499Y-74868914D01*
X94991500Y-74868939D01*
X94991500Y-77355438D01*
X94971498Y-77423559D01*
X94917842Y-77470052D01*
X94847568Y-77480156D01*
X94793230Y-77458651D01*
X94656501Y-77362913D01*
X94449073Y-77266188D01*
X94449068Y-77266186D01*
X94228000Y-77206951D01*
X94228004Y-77206951D01*
X94000000Y-77187004D01*
X93771997Y-77206951D01*
X93550931Y-77266186D01*
X93550926Y-77266188D01*
X93343500Y-77362913D01*
X93272109Y-77412899D01*
X93959211Y-78100000D01*
X93947339Y-78100000D01*
X93845606Y-78127259D01*
X93754394Y-78179920D01*
X93679920Y-78254394D01*
X93627259Y-78345606D01*
X93600000Y-78447339D01*
X93600000Y-78459209D01*
X92912900Y-77772109D01*
X92862913Y-77843500D01*
X92766188Y-78050926D01*
X92766186Y-78050931D01*
X92706951Y-78271997D01*
X92687004Y-78500000D01*
X92706951Y-78728002D01*
X92766186Y-78949068D01*
X92766188Y-78949073D01*
X92862913Y-79156501D01*
X92912899Y-79227888D01*
X93600000Y-78540788D01*
X93600000Y-78552661D01*
X93627259Y-78654394D01*
X93679920Y-78745606D01*
X93754394Y-78820080D01*
X93845606Y-78872741D01*
X93947339Y-78900000D01*
X93959210Y-78900000D01*
X93272110Y-79587098D01*
X93272110Y-79587100D01*
X93343498Y-79637086D01*
X93550926Y-79733811D01*
X93550931Y-79733813D01*
X93771999Y-79793048D01*
X93771995Y-79793048D01*
X94000000Y-79812995D01*
X94228002Y-79793048D01*
X94449068Y-79733813D01*
X94449073Y-79733811D01*
X94656497Y-79637088D01*
X94727888Y-79587099D01*
X94727888Y-79587097D01*
X94040791Y-78900000D01*
X94052661Y-78900000D01*
X94154394Y-78872741D01*
X94245606Y-78820080D01*
X94320080Y-78745606D01*
X94372741Y-78654394D01*
X94400000Y-78552661D01*
X94400000Y-78540790D01*
X95087097Y-79227888D01*
X95089406Y-79227687D01*
X95159011Y-79241675D01*
X95207823Y-79287375D01*
X95209811Y-79290620D01*
X95209815Y-79290627D01*
X95349380Y-79482722D01*
X95349382Y-79482724D01*
X95349384Y-79482727D01*
X95517272Y-79650615D01*
X95517275Y-79650617D01*
X95517278Y-79650620D01*
X95709373Y-79790185D01*
X95920937Y-79897982D01*
X96146759Y-79971356D01*
X96381278Y-80008500D01*
X96381281Y-80008500D01*
X96618719Y-80008500D01*
X96618722Y-80008500D01*
X96853241Y-79971356D01*
X97079063Y-79897982D01*
X97290627Y-79790185D01*
X97482722Y-79650620D01*
X97650620Y-79482722D01*
X97790185Y-79290627D01*
X97897982Y-79079063D01*
X97971356Y-78853241D01*
X98008500Y-78618722D01*
X98008500Y-75422031D01*
X98028502Y-75353910D01*
X98045405Y-75332936D01*
X101981809Y-71396532D01*
X121449500Y-71396532D01*
X121449500Y-71396535D01*
X121449500Y-71603465D01*
X121489870Y-71806420D01*
X121569059Y-71997598D01*
X121684023Y-72169655D01*
X121684024Y-72169656D01*
X121684029Y-72169662D01*
X121830337Y-72315970D01*
X121830343Y-72315975D01*
X121830345Y-72315977D01*
X122002402Y-72430941D01*
X122193580Y-72510130D01*
X122396535Y-72550500D01*
X122396536Y-72550500D01*
X122603464Y-72550500D01*
X122603465Y-72550500D01*
X122806420Y-72510130D01*
X122997598Y-72430941D01*
X123169655Y-72315977D01*
X123315977Y-72169655D01*
X123430941Y-71997598D01*
X123510130Y-71806420D01*
X123550500Y-71603465D01*
X123550500Y-71396535D01*
X123510130Y-71193580D01*
X123430941Y-71002402D01*
X123315977Y-70830345D01*
X123315975Y-70830343D01*
X123315970Y-70830337D01*
X123169662Y-70684029D01*
X123169656Y-70684024D01*
X123146659Y-70668658D01*
X122997598Y-70569059D01*
X122806420Y-70489870D01*
X122603467Y-70449500D01*
X122603465Y-70449500D01*
X122396535Y-70449500D01*
X122396532Y-70449500D01*
X122193579Y-70489870D01*
X122193574Y-70489872D01*
X122002402Y-70569059D01*
X121830343Y-70684024D01*
X121830337Y-70684029D01*
X121684029Y-70830337D01*
X121684024Y-70830343D01*
X121569059Y-71002402D01*
X121489872Y-71193574D01*
X121489870Y-71193579D01*
X121449500Y-71396532D01*
X101981809Y-71396532D01*
X102087936Y-71290405D01*
X102150248Y-71256379D01*
X102177031Y-71253500D01*
X116858719Y-71253500D01*
X116858722Y-71253500D01*
X117093241Y-71216356D01*
X117319063Y-71142982D01*
X117530627Y-71035185D01*
X117592166Y-70990474D01*
X117609936Y-70977564D01*
X117676804Y-70953705D01*
X117683997Y-70953500D01*
X118215554Y-70953500D01*
X118274906Y-70947435D01*
X118319427Y-70942887D01*
X118487739Y-70887115D01*
X118638652Y-70794030D01*
X118764030Y-70668652D01*
X118857115Y-70517739D01*
X118912887Y-70349427D01*
X118917435Y-70304906D01*
X118923500Y-70245554D01*
X118923500Y-69244445D01*
X118916677Y-69177673D01*
X118912887Y-69140573D01*
X118857115Y-68972261D01*
X118764030Y-68821348D01*
X118764029Y-68821347D01*
X118764024Y-68821341D01*
X118638658Y-68695975D01*
X118638652Y-68695970D01*
X118487739Y-68602885D01*
X118403583Y-68574999D01*
X118319428Y-68547113D01*
X118319421Y-68547112D01*
X118215554Y-68536500D01*
X118215546Y-68536500D01*
X117683997Y-68536500D01*
X117615876Y-68516498D01*
X117609936Y-68512436D01*
X117530630Y-68454817D01*
X117530629Y-68454816D01*
X117530627Y-68454815D01*
X117319063Y-68347018D01*
X117319060Y-68347017D01*
X117319058Y-68347016D01*
X117093246Y-68273645D01*
X117093242Y-68273644D01*
X117093241Y-68273644D01*
X116858722Y-68236500D01*
X116858719Y-68236500D01*
X101623939Y-68236500D01*
X101623915Y-68236499D01*
X101618722Y-68236499D01*
X101381278Y-68236499D01*
X101376085Y-68236499D01*
X101376061Y-68236500D01*
X98523721Y-68236500D01*
X98286278Y-68236500D01*
X98051759Y-68273644D01*
X98051753Y-68273645D01*
X97825940Y-68347016D01*
X97825934Y-68347019D01*
X97614369Y-68454817D01*
X97422277Y-68594380D01*
X97338329Y-68678329D01*
X97254380Y-68762278D01*
X97254377Y-68762281D01*
X97195317Y-68821341D01*
X97139095Y-68877563D01*
X97076783Y-68911588D01*
X97005967Y-68906522D01*
X96960905Y-68877562D01*
X96932727Y-68849384D01*
X96932724Y-68849382D01*
X96932722Y-68849380D01*
X96740627Y-68709815D01*
X96529063Y-68602018D01*
X96529060Y-68602017D01*
X96529058Y-68602016D01*
X96303246Y-68528645D01*
X96303242Y-68528644D01*
X96303241Y-68528644D01*
X96068722Y-68491500D01*
X93381278Y-68491500D01*
X93146759Y-68528644D01*
X93146753Y-68528645D01*
X92920941Y-68602016D01*
X92920935Y-68602019D01*
X92709369Y-68709817D01*
X92517275Y-68849382D01*
X92517272Y-68849384D01*
X92349384Y-69017272D01*
X92349382Y-69017275D01*
X92209817Y-69209369D01*
X92102019Y-69420935D01*
X92102016Y-69420941D01*
X92028645Y-69646753D01*
X92028644Y-69646758D01*
X92028644Y-69646759D01*
X91991500Y-69881278D01*
X91500000Y-69881278D01*
X91500000Y-62948597D01*
X94842000Y-62948597D01*
X94848505Y-63009093D01*
X94899555Y-63145964D01*
X94899555Y-63145965D01*
X94987095Y-63262904D01*
X95104034Y-63350444D01*
X95240906Y-63401494D01*
X95301402Y-63407999D01*
X95301415Y-63408000D01*
X95946000Y-63408000D01*
X96454000Y-63408000D01*
X97098585Y-63408000D01*
X97098597Y-63407999D01*
X97159093Y-63401494D01*
X97295964Y-63350444D01*
X97295965Y-63350444D01*
X97412904Y-63262904D01*
X97500444Y-63145965D01*
X97500444Y-63145964D01*
X97551494Y-63009093D01*
X97557999Y-62948597D01*
X101142000Y-62948597D01*
X101148505Y-63009093D01*
X101199555Y-63145964D01*
X101199555Y-63145965D01*
X101287095Y-63262904D01*
X101404034Y-63350444D01*
X101540906Y-63401494D01*
X101601402Y-63407999D01*
X101601415Y-63408000D01*
X102246000Y-63408000D01*
X102754000Y-63408000D01*
X103398585Y-63408000D01*
X103398597Y-63407999D01*
X103459093Y-63401494D01*
X103595964Y-63350444D01*
X103595965Y-63350444D01*
X103712904Y-63262904D01*
X103800444Y-63145965D01*
X103800444Y-63145964D01*
X103851494Y-63009093D01*
X103857999Y-62948597D01*
X103858000Y-62948585D01*
X103858000Y-62654000D01*
X102754000Y-62654000D01*
X102754000Y-63408000D01*
X102246000Y-63408000D01*
X102246000Y-62654000D01*
X101142000Y-62654000D01*
X101142000Y-62948597D01*
X97557999Y-62948597D01*
X97558000Y-62948585D01*
X97558000Y-62654000D01*
X96454000Y-62654000D01*
X96454000Y-63408000D01*
X95946000Y-63408000D01*
X95946000Y-62654000D01*
X94842000Y-62654000D01*
X94842000Y-62948597D01*
X91500000Y-62948597D01*
X91500000Y-61851402D01*
X94842000Y-61851402D01*
X94842000Y-62146000D01*
X95946000Y-62146000D01*
X96454000Y-62146000D01*
X97558000Y-62146000D01*
X97558000Y-61851414D01*
X97557999Y-61851402D01*
X101142000Y-61851402D01*
X101142000Y-62146000D01*
X102246000Y-62146000D01*
X102754000Y-62146000D01*
X103858000Y-62146000D01*
X103858000Y-61851414D01*
X103857999Y-61851402D01*
X103851494Y-61790906D01*
X103800444Y-61654035D01*
X103800444Y-61654034D01*
X103712904Y-61537095D01*
X103595965Y-61449555D01*
X103459093Y-61398505D01*
X103398597Y-61392000D01*
X102754000Y-61392000D01*
X102754000Y-62146000D01*
X102246000Y-62146000D01*
X102246000Y-61392000D01*
X101601402Y-61392000D01*
X101540906Y-61398505D01*
X101404035Y-61449555D01*
X101404034Y-61449555D01*
X101287095Y-61537095D01*
X101199555Y-61654034D01*
X101199555Y-61654035D01*
X101148505Y-61790906D01*
X101142000Y-61851402D01*
X97557999Y-61851402D01*
X97551494Y-61790906D01*
X97500444Y-61654035D01*
X97500444Y-61654034D01*
X97412904Y-61537095D01*
X97295965Y-61449555D01*
X97159093Y-61398505D01*
X97098597Y-61392000D01*
X96454000Y-61392000D01*
X96454000Y-62146000D01*
X95946000Y-62146000D01*
X95946000Y-61392000D01*
X95301402Y-61392000D01*
X95240906Y-61398505D01*
X95104035Y-61449555D01*
X95104034Y-61449555D01*
X94987095Y-61537095D01*
X94899555Y-61654034D01*
X94899555Y-61654035D01*
X94848505Y-61790906D01*
X94842000Y-61851402D01*
X91500000Y-61851402D01*
X91500000Y-55921597D01*
X94842000Y-55921597D01*
X94848505Y-55982093D01*
X94899555Y-56118964D01*
X94899555Y-56118965D01*
X94987095Y-56235904D01*
X95104034Y-56323444D01*
X95240906Y-56374494D01*
X95301402Y-56380999D01*
X95301415Y-56381000D01*
X95946000Y-56381000D01*
X96454000Y-56381000D01*
X97098585Y-56381000D01*
X97098597Y-56380999D01*
X97159093Y-56374494D01*
X97295964Y-56323444D01*
X97295965Y-56323444D01*
X97412904Y-56235904D01*
X97500444Y-56118965D01*
X97500444Y-56118964D01*
X97551494Y-55982093D01*
X97557999Y-55921597D01*
X101142000Y-55921597D01*
X101148505Y-55982093D01*
X101199555Y-56118964D01*
X101199555Y-56118965D01*
X101287095Y-56235904D01*
X101404034Y-56323444D01*
X101540906Y-56374494D01*
X101601402Y-56380999D01*
X101601415Y-56381000D01*
X102246000Y-56381000D01*
X102754000Y-56381000D01*
X103398585Y-56381000D01*
X103398597Y-56380999D01*
X103459093Y-56374494D01*
X103595964Y-56323444D01*
X103595965Y-56323444D01*
X103712904Y-56235904D01*
X103800444Y-56118965D01*
X103800444Y-56118964D01*
X103851494Y-55982093D01*
X103857999Y-55921597D01*
X103858000Y-55921585D01*
X103858000Y-55627000D01*
X102754000Y-55627000D01*
X102754000Y-56381000D01*
X102246000Y-56381000D01*
X102246000Y-55627000D01*
X101142000Y-55627000D01*
X101142000Y-55921597D01*
X97557999Y-55921597D01*
X97558000Y-55921585D01*
X97558000Y-55627000D01*
X96454000Y-55627000D01*
X96454000Y-56381000D01*
X95946000Y-56381000D01*
X95946000Y-55627000D01*
X94842000Y-55627000D01*
X94842000Y-55921597D01*
X91500000Y-55921597D01*
X91500000Y-54824402D01*
X94842000Y-54824402D01*
X94842000Y-55119000D01*
X95946000Y-55119000D01*
X96454000Y-55119000D01*
X97558000Y-55119000D01*
X97558000Y-54824414D01*
X97557999Y-54824402D01*
X101142000Y-54824402D01*
X101142000Y-55119000D01*
X102246000Y-55119000D01*
X102754000Y-55119000D01*
X103858000Y-55119000D01*
X103858000Y-54824414D01*
X103857999Y-54824402D01*
X103851494Y-54763906D01*
X103800444Y-54627035D01*
X103800444Y-54627034D01*
X103712904Y-54510095D01*
X103595965Y-54422555D01*
X103459093Y-54371505D01*
X103398597Y-54365000D01*
X102754000Y-54365000D01*
X102754000Y-55119000D01*
X102246000Y-55119000D01*
X102246000Y-54365000D01*
X101601402Y-54365000D01*
X101540906Y-54371505D01*
X101404035Y-54422555D01*
X101404034Y-54422555D01*
X101287095Y-54510095D01*
X101199555Y-54627034D01*
X101199555Y-54627035D01*
X101148505Y-54763906D01*
X101142000Y-54824402D01*
X97557999Y-54824402D01*
X97551494Y-54763906D01*
X97500444Y-54627035D01*
X97500444Y-54627034D01*
X97412904Y-54510095D01*
X97295965Y-54422555D01*
X97159093Y-54371505D01*
X97098597Y-54365000D01*
X96454000Y-54365000D01*
X96454000Y-55119000D01*
X95946000Y-55119000D01*
X95946000Y-54365000D01*
X95301402Y-54365000D01*
X95240906Y-54371505D01*
X95104035Y-54422555D01*
X95104034Y-54422555D01*
X94987095Y-54510095D01*
X94899555Y-54627034D01*
X94899555Y-54627035D01*
X94848505Y-54763906D01*
X94842000Y-54824402D01*
X91500000Y-54824402D01*
X91500000Y-48894597D01*
X94842000Y-48894597D01*
X94848505Y-48955093D01*
X94899555Y-49091964D01*
X94899555Y-49091965D01*
X94987095Y-49208904D01*
X95104034Y-49296444D01*
X95240906Y-49347494D01*
X95301402Y-49353999D01*
X95301415Y-49354000D01*
X95946000Y-49354000D01*
X96454000Y-49354000D01*
X97098585Y-49354000D01*
X97098597Y-49353999D01*
X97159093Y-49347494D01*
X97295964Y-49296444D01*
X97295965Y-49296444D01*
X97412904Y-49208904D01*
X97500444Y-49091965D01*
X97500444Y-49091964D01*
X97551494Y-48955093D01*
X97557999Y-48894597D01*
X101142000Y-48894597D01*
X101148505Y-48955093D01*
X101199555Y-49091964D01*
X101199555Y-49091965D01*
X101287095Y-49208904D01*
X101404034Y-49296444D01*
X101540906Y-49347494D01*
X101601402Y-49353999D01*
X101601415Y-49354000D01*
X102246000Y-49354000D01*
X102754000Y-49354000D01*
X103398585Y-49354000D01*
X103398597Y-49353999D01*
X103459093Y-49347494D01*
X103595964Y-49296444D01*
X103595965Y-49296444D01*
X103712904Y-49208904D01*
X103800444Y-49091965D01*
X103800444Y-49091964D01*
X103851494Y-48955093D01*
X103857999Y-48894597D01*
X103858000Y-48894585D01*
X103858000Y-48600000D01*
X102754000Y-48600000D01*
X102754000Y-49354000D01*
X102246000Y-49354000D01*
X102246000Y-48600000D01*
X101142000Y-48600000D01*
X101142000Y-48894597D01*
X97557999Y-48894597D01*
X97558000Y-48894585D01*
X97558000Y-48600000D01*
X96454000Y-48600000D01*
X96454000Y-49354000D01*
X95946000Y-49354000D01*
X95946000Y-48600000D01*
X94842000Y-48600000D01*
X94842000Y-48894597D01*
X91500000Y-48894597D01*
X91500000Y-47797402D01*
X94842000Y-47797402D01*
X94842000Y-48092000D01*
X95946000Y-48092000D01*
X96454000Y-48092000D01*
X97558000Y-48092000D01*
X97558000Y-47797414D01*
X97557999Y-47797402D01*
X101142000Y-47797402D01*
X101142000Y-48092000D01*
X102246000Y-48092000D01*
X102754000Y-48092000D01*
X103858000Y-48092000D01*
X103858000Y-47797414D01*
X103857999Y-47797402D01*
X103851494Y-47736906D01*
X103800444Y-47600035D01*
X103800444Y-47600034D01*
X103712904Y-47483095D01*
X103595965Y-47395555D01*
X103459093Y-47344505D01*
X103398597Y-47338000D01*
X102754000Y-47338000D01*
X102754000Y-48092000D01*
X102246000Y-48092000D01*
X102246000Y-47338000D01*
X101601402Y-47338000D01*
X101540906Y-47344505D01*
X101404035Y-47395555D01*
X101404034Y-47395555D01*
X101287095Y-47483095D01*
X101199555Y-47600034D01*
X101199555Y-47600035D01*
X101148505Y-47736906D01*
X101142000Y-47797402D01*
X97557999Y-47797402D01*
X97551494Y-47736906D01*
X97500444Y-47600035D01*
X97500444Y-47600034D01*
X97412904Y-47483095D01*
X97295965Y-47395555D01*
X97159093Y-47344505D01*
X97098597Y-47338000D01*
X96454000Y-47338000D01*
X96454000Y-48092000D01*
X95946000Y-48092000D01*
X95946000Y-47338000D01*
X95301402Y-47338000D01*
X95240906Y-47344505D01*
X95104035Y-47395555D01*
X95104034Y-47395555D01*
X94987095Y-47483095D01*
X94899555Y-47600034D01*
X94899555Y-47600035D01*
X94848505Y-47736906D01*
X94842000Y-47797402D01*
X91500000Y-47797402D01*
X91500000Y-41748597D01*
X94842000Y-41748597D01*
X94848505Y-41809093D01*
X94899555Y-41945964D01*
X94899555Y-41945965D01*
X94987095Y-42062904D01*
X95104034Y-42150444D01*
X95240906Y-42201494D01*
X95301402Y-42207999D01*
X95301415Y-42208000D01*
X95946000Y-42208000D01*
X96454000Y-42208000D01*
X97098585Y-42208000D01*
X97098597Y-42207999D01*
X97159093Y-42201494D01*
X97295964Y-42150444D01*
X97295965Y-42150444D01*
X97412904Y-42062904D01*
X97500444Y-41945965D01*
X97500444Y-41945964D01*
X97551494Y-41809093D01*
X97557999Y-41748597D01*
X101142000Y-41748597D01*
X101148505Y-41809093D01*
X101199555Y-41945964D01*
X101199555Y-41945965D01*
X101287095Y-42062904D01*
X101404034Y-42150444D01*
X101540906Y-42201494D01*
X101601402Y-42207999D01*
X101601415Y-42208000D01*
X102246000Y-42208000D01*
X102246000Y-41454000D01*
X101142000Y-41454000D01*
X101142000Y-41748597D01*
X97557999Y-41748597D01*
X97558000Y-41748585D01*
X97558000Y-41454000D01*
X96454000Y-41454000D01*
X96454000Y-42208000D01*
X95946000Y-42208000D01*
X95946000Y-41454000D01*
X94842000Y-41454000D01*
X94842000Y-41748597D01*
X91500000Y-41748597D01*
X91500000Y-40651402D01*
X94842000Y-40651402D01*
X94842000Y-40946000D01*
X95946000Y-40946000D01*
X96454000Y-40946000D01*
X97558000Y-40946000D01*
X97558000Y-40651414D01*
X97557999Y-40651402D01*
X101142000Y-40651402D01*
X101142000Y-40946000D01*
X102246000Y-40946000D01*
X102754000Y-40946000D01*
X103858000Y-40946000D01*
X103858000Y-40651414D01*
X103857999Y-40651402D01*
X103851494Y-40590906D01*
X103800444Y-40454035D01*
X103800444Y-40454034D01*
X103712904Y-40337095D01*
X103595965Y-40249555D01*
X103459093Y-40198505D01*
X103398597Y-40192000D01*
X102754000Y-40192000D01*
X102754000Y-40946000D01*
X102246000Y-40946000D01*
X102246000Y-40192000D01*
X101601402Y-40192000D01*
X101540906Y-40198505D01*
X101404035Y-40249555D01*
X101404034Y-40249555D01*
X101287095Y-40337095D01*
X101199555Y-40454034D01*
X101199555Y-40454035D01*
X101148505Y-40590906D01*
X101142000Y-40651402D01*
X97557999Y-40651402D01*
X97551494Y-40590906D01*
X97500444Y-40454035D01*
X97500444Y-40454034D01*
X97412904Y-40337095D01*
X97295965Y-40249555D01*
X97159093Y-40198505D01*
X97098597Y-40192000D01*
X96454000Y-40192000D01*
X96454000Y-40946000D01*
X95946000Y-40946000D01*
X95946000Y-40192000D01*
X95301402Y-40192000D01*
X95240906Y-40198505D01*
X95104035Y-40249555D01*
X95104034Y-40249555D01*
X94987095Y-40337095D01*
X94899555Y-40454034D01*
X94899555Y-40454035D01*
X94848505Y-40590906D01*
X94842000Y-40651402D01*
X91500000Y-40651402D01*
X91500000Y-37396532D01*
X93949500Y-37396532D01*
X93949500Y-37603467D01*
X93989870Y-37806420D01*
X94069059Y-37997598D01*
X94184023Y-38169655D01*
X94184024Y-38169656D01*
X94184029Y-38169662D01*
X94330337Y-38315970D01*
X94330343Y-38315975D01*
X94330345Y-38315977D01*
X94502402Y-38430941D01*
X94693580Y-38510130D01*
X94896535Y-38550500D01*
X94896536Y-38550500D01*
X95103464Y-38550500D01*
X95103465Y-38550500D01*
X95306420Y-38510130D01*
X95497598Y-38430941D01*
X95669655Y-38315977D01*
X95815977Y-38169655D01*
X95930941Y-37997598D01*
X96010130Y-37806420D01*
X96050500Y-37603465D01*
X96050500Y-37396535D01*
X96010130Y-37193580D01*
X95930941Y-37002402D01*
X95815977Y-36830345D01*
X95815975Y-36830343D01*
X95815970Y-36830337D01*
X95669662Y-36684029D01*
X95669656Y-36684024D01*
X95669655Y-36684023D01*
X95497598Y-36569059D01*
X95306420Y-36489870D01*
X95103467Y-36449500D01*
X95103465Y-36449500D01*
X94896535Y-36449500D01*
X94896532Y-36449500D01*
X94693579Y-36489870D01*
X94693574Y-36489872D01*
X94502402Y-36569059D01*
X94330343Y-36684024D01*
X94330337Y-36684029D01*
X94184029Y-36830337D01*
X94184024Y-36830343D01*
X94069059Y-37002402D01*
X93989872Y-37193574D01*
X93989870Y-37193579D01*
X93949500Y-37396532D01*
X91500000Y-37396532D01*
X91500000Y-34126000D01*
X91520002Y-34057879D01*
X91573658Y-34011386D01*
X91626000Y-34000000D01*
X128874000Y-34000000D01*
X128942121Y-34020002D01*
G37*
%TD.AperFunction*%
%TA.AperFunction,Conductor*%
G36*
X108647233Y-77373502D02*
G01*
X108693726Y-77427158D01*
X108703830Y-77497432D01*
X108674336Y-77562012D01*
X108627330Y-77595909D01*
X108602297Y-77606278D01*
X108437123Y-77716643D01*
X108437116Y-77716648D01*
X106048977Y-80104788D01*
X105986665Y-80138814D01*
X105970303Y-80141261D01*
X105967447Y-80141498D01*
X105967435Y-80141500D01*
X105967431Y-80141500D01*
X105822971Y-80165606D01*
X105745369Y-80178555D01*
X105745360Y-80178557D01*
X105532428Y-80251656D01*
X105532426Y-80251658D01*
X105334426Y-80358810D01*
X105334424Y-80358811D01*
X105156762Y-80497091D01*
X105004279Y-80662729D01*
X104915183Y-80799101D01*
X104861179Y-80845189D01*
X104790831Y-80854764D01*
X104726474Y-80824786D01*
X104704217Y-80799100D01*
X104615327Y-80663044D01*
X104462902Y-80497465D01*
X104285301Y-80359232D01*
X104285300Y-80359231D01*
X104087371Y-80252117D01*
X104087369Y-80252116D01*
X103874512Y-80179043D01*
X103874501Y-80179040D01*
X103794000Y-80165606D01*
X103794000Y-81069297D01*
X103732993Y-81034075D01*
X103605826Y-81000000D01*
X103474174Y-81000000D01*
X103347007Y-81034075D01*
X103286000Y-81069297D01*
X103286000Y-80165607D01*
X103285999Y-80165606D01*
X103205498Y-80179040D01*
X103205487Y-80179043D01*
X102992630Y-80252116D01*
X102992628Y-80252117D01*
X102794699Y-80359231D01*
X102794698Y-80359232D01*
X102711891Y-80423684D01*
X102645848Y-80449740D01*
X102576203Y-80435954D01*
X102525066Y-80386704D01*
X102508500Y-80324252D01*
X102508500Y-77479500D01*
X102528502Y-77411379D01*
X102582158Y-77364886D01*
X102634500Y-77353500D01*
X108579112Y-77353500D01*
X108647233Y-77373502D01*
G37*
%TD.AperFunction*%
%TD*%
M02*
