M48
; DRILL file {KiCad 8.0.2-8.0.2-0~ubuntu22.04.1} date 2024-05-15T17:29:59+0900
; FORMAT={-:-/ absolute / inch / decimal}
; #@! TF.CreationDate,2024-05-15T17:29:59+09:00
; #@! TF.GenerationSoftware,Kicad,Pcbnew,8.0.2-8.0.2-0~ubuntu22.04.1
; #@! TF.FileFunction,Plated,1,2,PTH
FMAT,2
INCH
; #@! TA.AperFunction,Plated,PTH,ViaDrill
T1C0.0157
; #@! TA.AperFunction,Plated,PTH,ComponentDrill
T2C0.0315
; #@! TA.AperFunction,Plated,PTH,ComponentDrill
T3C0.0394
; #@! TA.AperFunction,Plated,PTH,ComponentDrill
T4C0.0400
%
G90
G05
T1
X3.6811Y-2.7559
T2
X3.7008Y-3.0906
X3.7992Y-3.0906
X4.8622Y-3.0906
X4.9606Y-3.0906
T3
X3.9764Y-3.2087
X4.0764Y-3.2087
X4.1764Y-3.2087
X4.2764Y-3.2087
X4.3764Y-3.2087
X4.4764Y-3.2087
T4
X4.252Y-1.5126
X4.252Y-1.6126
X4.252Y-1.7126
X4.252Y-1.8126
X4.252Y-1.9126
X4.252Y-2.0126
X4.252Y-2.1126
X4.252Y-2.2126
X4.252Y-2.3126
X4.252Y-2.4126
X4.252Y-2.5126
X4.252Y-2.6126
X4.852Y-1.5126
X4.852Y-1.6126
X4.852Y-1.7126
X4.852Y-1.8126
X4.852Y-1.9126
X4.852Y-2.0126
X4.852Y-2.1126
X4.852Y-2.2126
X4.852Y-2.3126
X4.852Y-2.4126
X4.852Y-2.5126
X4.852Y-2.6126
M30
