%TF.GenerationSoftware,KiCad,Pcbnew,8.0.2-8.0.2-0~ubuntu22.04.1*%
%TF.CreationDate,2024-05-15T17:29:59+09:00*%
%TF.ProjectId,microcontroller_board,6d696372-6f63-46f6-9e74-726f6c6c6572,rev?*%
%TF.SameCoordinates,Original*%
%TF.FileFunction,Soldermask,Top*%
%TF.FilePolarity,Negative*%
%FSLAX46Y46*%
G04 Gerber Fmt 4.6, Leading zero omitted, Abs format (unit mm)*
G04 Created by KiCad (PCBNEW 8.0.2-8.0.2-0~ubuntu22.04.1) date 2024-05-15 17:29:59*
%MOMM*%
%LPD*%
G01*
G04 APERTURE LIST*
G04 Aperture macros list*
%AMRoundRect*
0 Rectangle with rounded corners*
0 $1 Rounding radius*
0 $2 $3 $4 $5 $6 $7 $8 $9 X,Y pos of 4 corners*
0 Add a 4 corners polygon primitive as box body*
4,1,4,$2,$3,$4,$5,$6,$7,$8,$9,$2,$3,0*
0 Add four circle primitives for the rounded corners*
1,1,$1+$1,$2,$3*
1,1,$1+$1,$4,$5*
1,1,$1+$1,$6,$7*
1,1,$1+$1,$8,$9*
0 Add four rect primitives between the rounded corners*
20,1,$1+$1,$2,$3,$4,$5,0*
20,1,$1+$1,$4,$5,$6,$7,0*
20,1,$1+$1,$6,$7,$8,$9,0*
20,1,$1+$1,$8,$9,$2,$3,0*%
G04 Aperture macros list end*
%ADD10R,1.700000X1.000000*%
%ADD11RoundRect,0.250000X-0.325000X-0.450000X0.325000X-0.450000X0.325000X0.450000X-0.325000X0.450000X0*%
%ADD12C,1.600000*%
%ADD13RoundRect,0.249999X-1.425001X0.450001X-1.425001X-0.450001X1.425001X-0.450001X1.425001X0.450001X0*%
%ADD14C,2.082800*%
%ADD15R,1.700000X1.700000*%
%ADD16O,1.700000X1.700000*%
G04 APERTURE END LIST*
D10*
%TO.C,S4*%
X96200000Y-66200000D03*
X102500000Y-66200000D03*
X96200000Y-62400000D03*
X102500000Y-62400000D03*
%TD*%
D11*
%TO.C,F1*%
X95950000Y-70000000D03*
X98000000Y-70000000D03*
%TD*%
D12*
%TO.C,H1*%
X95000000Y-37500000D03*
%TD*%
D13*
%TO.C,R11*%
X111660000Y-69745000D03*
X111660000Y-75845000D03*
%TD*%
D12*
%TO.C,C1*%
X96500000Y-78500000D03*
X94000000Y-78500000D03*
%TD*%
D14*
%TO.C,B1*%
X108000000Y-38420000D03*
X108000000Y-40960000D03*
X108000000Y-43500000D03*
X108000000Y-46040000D03*
X108000000Y-48580000D03*
X108000000Y-51120000D03*
X108000000Y-53660000D03*
X108000000Y-56200000D03*
X108000000Y-58740000D03*
X108000000Y-61280000D03*
X108000000Y-63820000D03*
X108000000Y-66360000D03*
X123240000Y-66360000D03*
X123240000Y-63820000D03*
X123240000Y-61280000D03*
X123240000Y-58740000D03*
X123240000Y-56200000D03*
X123240000Y-53660000D03*
X123240000Y-51120000D03*
X123240000Y-48580000D03*
X123240000Y-46040000D03*
X123240000Y-43500000D03*
X123240000Y-40960000D03*
X123240000Y-38420000D03*
%TD*%
D10*
%TO.C,S2*%
X96200000Y-52146000D03*
X102500000Y-52146000D03*
X96200000Y-48346000D03*
X102500000Y-48346000D03*
%TD*%
D15*
%TO.C,J1*%
X101000000Y-81500000D03*
D16*
X103540000Y-81500000D03*
X106080000Y-81500000D03*
X108620000Y-81500000D03*
X111160000Y-81500000D03*
X113700000Y-81500000D03*
%TD*%
D13*
%TO.C,R13*%
X101500000Y-69745000D03*
X101500000Y-75845000D03*
%TD*%
D10*
%TO.C,S1*%
X96200000Y-45000000D03*
X102500000Y-45000000D03*
X96200000Y-41200000D03*
X102500000Y-41200000D03*
%TD*%
D12*
%TO.C,H2*%
X122500000Y-71500000D03*
%TD*%
D13*
%TO.C,R10*%
X116740000Y-69745000D03*
X116740000Y-75845000D03*
%TD*%
D12*
%TO.C,C2*%
X123500000Y-78500000D03*
X126000000Y-78500000D03*
%TD*%
D13*
%TO.C,R12*%
X106580000Y-69745000D03*
X106580000Y-75845000D03*
%TD*%
D10*
%TO.C,S3*%
X96200000Y-59173000D03*
X102500000Y-59173000D03*
X96200000Y-55373000D03*
X102500000Y-55373000D03*
%TD*%
M02*
