%TF.GenerationSoftware,KiCad,Pcbnew,8.0.2-8.0.2-0~ubuntu22.04.1*%
%TF.CreationDate,2024-05-15T17:42:07+09:00*%
%TF.ProjectId,sensor_emitter_board,73656e73-6f72-45f6-956d-69747465725f,rev?*%
%TF.SameCoordinates,Original*%
%TF.FileFunction,Legend,Top*%
%TF.FilePolarity,Positive*%
%FSLAX46Y46*%
G04 Gerber Fmt 4.6, Leading zero omitted, Abs format (unit mm)*
G04 Created by KiCad (PCBNEW 8.0.2-8.0.2-0~ubuntu22.04.1) date 2024-05-15 17:42:07*
%MOMM*%
%LPD*%
G01*
G04 APERTURE LIST*
G04 Aperture macros list*
%AMRoundRect*
0 Rectangle with rounded corners*
0 $1 Rounding radius*
0 $2 $3 $4 $5 $6 $7 $8 $9 X,Y pos of 4 corners*
0 Add a 4 corners polygon primitive as box body*
4,1,4,$2,$3,$4,$5,$6,$7,$8,$9,$2,$3,0*
0 Add four circle primitives for the rounded corners*
1,1,$1+$1,$2,$3*
1,1,$1+$1,$4,$5*
1,1,$1+$1,$6,$7*
1,1,$1+$1,$8,$9*
0 Add four rect primitives between the rounded corners*
20,1,$1+$1,$2,$3,$4,$5,0*
20,1,$1+$1,$4,$5,$6,$7,0*
20,1,$1+$1,$6,$7,$8,$9,0*
20,1,$1+$1,$8,$9,$2,$3,0*%
G04 Aperture macros list end*
%ADD10C,0.150000*%
%ADD11C,0.120000*%
%ADD12C,0.127000*%
%ADD13C,0.200000*%
%ADD14RoundRect,0.237500X0.250000X0.237500X-0.250000X0.237500X-0.250000X-0.237500X0.250000X-0.237500X0*%
%ADD15RoundRect,0.250001X1.074999X-0.462499X1.074999X0.462499X-1.074999X0.462499X-1.074999X-0.462499X0*%
%ADD16RoundRect,0.250001X-1.074999X0.462499X-1.074999X-0.462499X1.074999X-0.462499X1.074999X0.462499X0*%
%ADD17RoundRect,0.150000X-0.150000X0.587500X-0.150000X-0.587500X0.150000X-0.587500X0.150000X0.587500X0*%
%ADD18RoundRect,0.237500X-0.237500X0.300000X-0.237500X-0.300000X0.237500X-0.300000X0.237500X0.300000X0*%
%ADD19C,1.600000*%
%ADD20RoundRect,0.237500X0.237500X-0.300000X0.237500X0.300000X-0.237500X0.300000X-0.237500X-0.300000X0*%
%ADD21RoundRect,0.237500X0.237500X-0.250000X0.237500X0.250000X-0.237500X0.250000X-0.237500X-0.250000X0*%
%ADD22RoundRect,0.056280X-0.835720X-0.345720X0.835720X-0.345720X0.835720X0.345720X-0.835720X0.345720X0*%
%ADD23R,1.700000X1.700000*%
%ADD24O,1.700000X1.700000*%
%ADD25RoundRect,0.237500X-0.237500X0.250000X-0.237500X-0.250000X0.237500X-0.250000X0.237500X0.250000X0*%
G04 APERTURE END LIST*
D10*
X99859580Y-106841666D02*
X99907200Y-106889285D01*
X99907200Y-106889285D02*
X99954819Y-107032142D01*
X99954819Y-107032142D02*
X99954819Y-107127380D01*
X99954819Y-107127380D02*
X99907200Y-107270237D01*
X99907200Y-107270237D02*
X99811961Y-107365475D01*
X99811961Y-107365475D02*
X99716723Y-107413094D01*
X99716723Y-107413094D02*
X99526247Y-107460713D01*
X99526247Y-107460713D02*
X99383390Y-107460713D01*
X99383390Y-107460713D02*
X99192914Y-107413094D01*
X99192914Y-107413094D02*
X99097676Y-107365475D01*
X99097676Y-107365475D02*
X99002438Y-107270237D01*
X99002438Y-107270237D02*
X98954819Y-107127380D01*
X98954819Y-107127380D02*
X98954819Y-107032142D01*
X98954819Y-107032142D02*
X99002438Y-106889285D01*
X99002438Y-106889285D02*
X99050057Y-106841666D01*
X99288152Y-105984523D02*
X99954819Y-105984523D01*
X98907200Y-106222618D02*
X99621485Y-106460713D01*
X99621485Y-106460713D02*
X99621485Y-105841666D01*
X110359580Y-102166666D02*
X110407200Y-102214285D01*
X110407200Y-102214285D02*
X110454819Y-102357142D01*
X110454819Y-102357142D02*
X110454819Y-102452380D01*
X110454819Y-102452380D02*
X110407200Y-102595237D01*
X110407200Y-102595237D02*
X110311961Y-102690475D01*
X110311961Y-102690475D02*
X110216723Y-102738094D01*
X110216723Y-102738094D02*
X110026247Y-102785713D01*
X110026247Y-102785713D02*
X109883390Y-102785713D01*
X109883390Y-102785713D02*
X109692914Y-102738094D01*
X109692914Y-102738094D02*
X109597676Y-102690475D01*
X109597676Y-102690475D02*
X109502438Y-102595237D01*
X109502438Y-102595237D02*
X109454819Y-102452380D01*
X109454819Y-102452380D02*
X109454819Y-102357142D01*
X109454819Y-102357142D02*
X109502438Y-102214285D01*
X109502438Y-102214285D02*
X109550057Y-102166666D01*
X109454819Y-101833332D02*
X109454819Y-101214285D01*
X109454819Y-101214285D02*
X109835771Y-101547618D01*
X109835771Y-101547618D02*
X109835771Y-101404761D01*
X109835771Y-101404761D02*
X109883390Y-101309523D01*
X109883390Y-101309523D02*
X109931009Y-101261904D01*
X109931009Y-101261904D02*
X110026247Y-101214285D01*
X110026247Y-101214285D02*
X110264342Y-101214285D01*
X110264342Y-101214285D02*
X110359580Y-101261904D01*
X110359580Y-101261904D02*
X110407200Y-101309523D01*
X110407200Y-101309523D02*
X110454819Y-101404761D01*
X110454819Y-101404761D02*
X110454819Y-101690475D01*
X110454819Y-101690475D02*
X110407200Y-101785713D01*
X110407200Y-101785713D02*
X110359580Y-101833332D01*
X97954819Y-106841666D02*
X97478628Y-107174999D01*
X97954819Y-107413094D02*
X96954819Y-107413094D01*
X96954819Y-107413094D02*
X96954819Y-107032142D01*
X96954819Y-107032142D02*
X97002438Y-106936904D01*
X97002438Y-106936904D02*
X97050057Y-106889285D01*
X97050057Y-106889285D02*
X97145295Y-106841666D01*
X97145295Y-106841666D02*
X97288152Y-106841666D01*
X97288152Y-106841666D02*
X97383390Y-106889285D01*
X97383390Y-106889285D02*
X97431009Y-106936904D01*
X97431009Y-106936904D02*
X97478628Y-107032142D01*
X97478628Y-107032142D02*
X97478628Y-107413094D01*
X96954819Y-106508332D02*
X96954819Y-105889285D01*
X96954819Y-105889285D02*
X97335771Y-106222618D01*
X97335771Y-106222618D02*
X97335771Y-106079761D01*
X97335771Y-106079761D02*
X97383390Y-105984523D01*
X97383390Y-105984523D02*
X97431009Y-105936904D01*
X97431009Y-105936904D02*
X97526247Y-105889285D01*
X97526247Y-105889285D02*
X97764342Y-105889285D01*
X97764342Y-105889285D02*
X97859580Y-105936904D01*
X97859580Y-105936904D02*
X97907200Y-105984523D01*
X97907200Y-105984523D02*
X97954819Y-106079761D01*
X97954819Y-106079761D02*
X97954819Y-106365475D01*
X97954819Y-106365475D02*
X97907200Y-106460713D01*
X97907200Y-106460713D02*
X97859580Y-106508332D01*
X103738095Y-103954819D02*
X103738095Y-104764342D01*
X103738095Y-104764342D02*
X103785714Y-104859580D01*
X103785714Y-104859580D02*
X103833333Y-104907200D01*
X103833333Y-104907200D02*
X103928571Y-104954819D01*
X103928571Y-104954819D02*
X104119047Y-104954819D01*
X104119047Y-104954819D02*
X104214285Y-104907200D01*
X104214285Y-104907200D02*
X104261904Y-104859580D01*
X104261904Y-104859580D02*
X104309523Y-104764342D01*
X104309523Y-104764342D02*
X104309523Y-103954819D01*
X105214285Y-104288152D02*
X105214285Y-104954819D01*
X104976190Y-103907200D02*
X104738095Y-104621485D01*
X104738095Y-104621485D02*
X105357142Y-104621485D01*
X95424819Y-87833333D02*
X96139104Y-87833333D01*
X96139104Y-87833333D02*
X96281961Y-87880952D01*
X96281961Y-87880952D02*
X96377200Y-87976190D01*
X96377200Y-87976190D02*
X96424819Y-88119047D01*
X96424819Y-88119047D02*
X96424819Y-88214285D01*
X95520057Y-87404761D02*
X95472438Y-87357142D01*
X95472438Y-87357142D02*
X95424819Y-87261904D01*
X95424819Y-87261904D02*
X95424819Y-87023809D01*
X95424819Y-87023809D02*
X95472438Y-86928571D01*
X95472438Y-86928571D02*
X95520057Y-86880952D01*
X95520057Y-86880952D02*
X95615295Y-86833333D01*
X95615295Y-86833333D02*
X95710533Y-86833333D01*
X95710533Y-86833333D02*
X95853390Y-86880952D01*
X95853390Y-86880952D02*
X96424819Y-87452380D01*
X96424819Y-87452380D02*
X96424819Y-86833333D01*
X112454819Y-101991666D02*
X111978628Y-102324999D01*
X112454819Y-102563094D02*
X111454819Y-102563094D01*
X111454819Y-102563094D02*
X111454819Y-102182142D01*
X111454819Y-102182142D02*
X111502438Y-102086904D01*
X111502438Y-102086904D02*
X111550057Y-102039285D01*
X111550057Y-102039285D02*
X111645295Y-101991666D01*
X111645295Y-101991666D02*
X111788152Y-101991666D01*
X111788152Y-101991666D02*
X111883390Y-102039285D01*
X111883390Y-102039285D02*
X111931009Y-102086904D01*
X111931009Y-102086904D02*
X111978628Y-102182142D01*
X111978628Y-102182142D02*
X111978628Y-102563094D01*
X111550057Y-101610713D02*
X111502438Y-101563094D01*
X111502438Y-101563094D02*
X111454819Y-101467856D01*
X111454819Y-101467856D02*
X111454819Y-101229761D01*
X111454819Y-101229761D02*
X111502438Y-101134523D01*
X111502438Y-101134523D02*
X111550057Y-101086904D01*
X111550057Y-101086904D02*
X111645295Y-101039285D01*
X111645295Y-101039285D02*
X111740533Y-101039285D01*
X111740533Y-101039285D02*
X111883390Y-101086904D01*
X111883390Y-101086904D02*
X112454819Y-101658332D01*
X112454819Y-101658332D02*
X112454819Y-101039285D01*
D11*
%TO.C,R1*%
X112342224Y-92977500D02*
X111832776Y-92977500D01*
X112342224Y-94022500D02*
X111832776Y-94022500D01*
%TO.C,D6*%
X99415000Y-90912500D02*
X99415000Y-94972500D01*
X99415000Y-94972500D02*
X102585000Y-94972500D01*
X102585000Y-94972500D02*
X102585000Y-90912500D01*
%TO.C,D7*%
X102915000Y-90912500D02*
X102915000Y-94972500D01*
X102915000Y-94972500D02*
X106085000Y-94972500D01*
X106085000Y-94972500D02*
X106085000Y-90912500D01*
%TO.C,D5*%
X95915000Y-90912500D02*
X95915000Y-94972500D01*
X95915000Y-94972500D02*
X99085000Y-94972500D01*
X99085000Y-94972500D02*
X99085000Y-90912500D01*
%TO.C,D1*%
X106415000Y-96027500D02*
X106415000Y-100087500D01*
X109585000Y-96027500D02*
X106415000Y-96027500D01*
X109585000Y-100087500D02*
X109585000Y-96027500D01*
%TO.C,Q1*%
X110490000Y-96937500D02*
X110490000Y-96287500D01*
X110490000Y-96937500D02*
X110490000Y-97587500D01*
X113610000Y-96937500D02*
X113610000Y-96287500D01*
X113610000Y-96937500D02*
X113610000Y-97587500D01*
X113890000Y-96015000D02*
X113560000Y-95775000D01*
X113890000Y-95535000D01*
X113890000Y-96015000D01*
G36*
X113890000Y-96015000D02*
G01*
X113560000Y-95775000D01*
X113890000Y-95535000D01*
X113890000Y-96015000D01*
G37*
%TO.C,C4*%
X98990000Y-103391233D02*
X98990000Y-103683767D01*
X100010000Y-103391233D02*
X100010000Y-103683767D01*
%TO.C,C3*%
X109490000Y-105008767D02*
X109490000Y-104716233D01*
X110510000Y-105008767D02*
X110510000Y-104716233D01*
%TO.C,D4*%
X95915000Y-96027500D02*
X95915000Y-100087500D01*
X99085000Y-96027500D02*
X95915000Y-96027500D01*
X99085000Y-100087500D02*
X99085000Y-96027500D01*
%TO.C,R3*%
X96977500Y-103842224D02*
X96977500Y-103332776D01*
X98022500Y-103842224D02*
X98022500Y-103332776D01*
%TO.C,D2*%
X102915000Y-96027500D02*
X102915000Y-100087500D01*
X106085000Y-96027500D02*
X102915000Y-96027500D01*
X106085000Y-100087500D02*
X106085000Y-96027500D01*
D12*
%TO.C,U4*%
X102505000Y-102150000D02*
X106495000Y-102150000D01*
X102505000Y-107200000D02*
X106495000Y-107200000D01*
D13*
X100350000Y-102170000D02*
G75*
G02*
X100150000Y-102170000I-100000J0D01*
G01*
X100150000Y-102170000D02*
G75*
G02*
X100350000Y-102170000I100000J0D01*
G01*
D11*
%TO.C,J2*%
X96970000Y-88830000D02*
X96970000Y-87500000D01*
X98300000Y-88830000D02*
X96970000Y-88830000D01*
X99570000Y-86170000D02*
X112330000Y-86170000D01*
X99570000Y-88830000D02*
X99570000Y-86170000D01*
X99570000Y-88830000D02*
X112330000Y-88830000D01*
X112330000Y-88830000D02*
X112330000Y-86170000D01*
%TO.C,D8*%
X106415000Y-90912500D02*
X106415000Y-94972500D01*
X106415000Y-94972500D02*
X109585000Y-94972500D01*
X109585000Y-94972500D02*
X109585000Y-90912500D01*
%TO.C,D3*%
X99415000Y-96027500D02*
X99415000Y-100087500D01*
X102585000Y-96027500D02*
X99415000Y-96027500D01*
X102585000Y-100087500D02*
X102585000Y-96027500D01*
%TO.C,R2*%
X111477500Y-104657776D02*
X111477500Y-105167224D01*
X112522500Y-104657776D02*
X112522500Y-105167224D01*
%TD*%
%LPC*%
D14*
%TO.C,R1*%
X113000000Y-93500000D03*
X111175000Y-93500000D03*
%TD*%
D15*
%TO.C,D6*%
X101000000Y-94000000D03*
X101000000Y-91025000D03*
%TD*%
%TO.C,D7*%
X104500000Y-94000000D03*
X104500000Y-91025000D03*
%TD*%
%TO.C,D5*%
X97500000Y-94000000D03*
X97500000Y-91025000D03*
%TD*%
D16*
%TO.C,D1*%
X108000000Y-97000000D03*
X108000000Y-99975000D03*
%TD*%
D17*
%TO.C,Q1*%
X113000000Y-96000000D03*
X111100000Y-96000000D03*
X112050000Y-97875000D03*
%TD*%
D18*
%TO.C,C4*%
X99500000Y-102675000D03*
X99500000Y-104400000D03*
%TD*%
D19*
%TO.C,H3*%
X94000000Y-87500000D03*
%TD*%
D20*
%TO.C,C3*%
X110000000Y-105725000D03*
X110000000Y-104000000D03*
%TD*%
D16*
%TO.C,D4*%
X97500000Y-97000000D03*
X97500000Y-99975000D03*
%TD*%
D21*
%TO.C,R3*%
X97500000Y-104500000D03*
X97500000Y-102675000D03*
%TD*%
D16*
%TO.C,D2*%
X104500000Y-97000000D03*
X104500000Y-99975000D03*
%TD*%
D22*
%TO.C,U4*%
X101830000Y-102770000D03*
X101830000Y-104040000D03*
X101830000Y-105310000D03*
X101830000Y-106580000D03*
X107170000Y-106580000D03*
X107170000Y-105310000D03*
X107170000Y-104040000D03*
X107170000Y-102770000D03*
%TD*%
D23*
%TO.C,J2*%
X98300000Y-87500000D03*
D24*
X100840000Y-87500000D03*
X103380000Y-87500000D03*
X105920000Y-87500000D03*
X108460000Y-87500000D03*
X111000000Y-87500000D03*
%TD*%
D15*
%TO.C,D8*%
X108000000Y-94000000D03*
X108000000Y-91025000D03*
%TD*%
D16*
%TO.C,D3*%
X101000000Y-97000000D03*
X101000000Y-99975000D03*
%TD*%
D25*
%TO.C,R2*%
X112000000Y-104000000D03*
X112000000Y-105825000D03*
%TD*%
D19*
%TO.C,H4*%
X115000000Y-87500000D03*
%TD*%
%LPD*%
M02*
