%TF.GenerationSoftware,KiCad,Pcbnew,8.0.2-8.0.2-0~ubuntu22.04.1*%
%TF.CreationDate,2024-05-15T17:42:07+09:00*%
%TF.ProjectId,sensor_emitter_board,73656e73-6f72-45f6-956d-69747465725f,rev?*%
%TF.SameCoordinates,Original*%
%TF.FileFunction,Legend,Bot*%
%TF.FilePolarity,Positive*%
%FSLAX46Y46*%
G04 Gerber Fmt 4.6, Leading zero omitted, Abs format (unit mm)*
G04 Created by KiCad (PCBNEW 8.0.2-8.0.2-0~ubuntu22.04.1) date 2024-05-15 17:42:07*
%MOMM*%
%LPD*%
G01*
G04 APERTURE LIST*
G04 Aperture macros list*
%AMRoundRect*
0 Rectangle with rounded corners*
0 $1 Rounding radius*
0 $2 $3 $4 $5 $6 $7 $8 $9 X,Y pos of 4 corners*
0 Add a 4 corners polygon primitive as box body*
4,1,4,$2,$3,$4,$5,$6,$7,$8,$9,$2,$3,0*
0 Add four circle primitives for the rounded corners*
1,1,$1+$1,$2,$3*
1,1,$1+$1,$4,$5*
1,1,$1+$1,$6,$7*
1,1,$1+$1,$8,$9*
0 Add four rect primitives between the rounded corners*
20,1,$1+$1,$2,$3,$4,$5,0*
20,1,$1+$1,$4,$5,$6,$7,0*
20,1,$1+$1,$6,$7,$8,$9,0*
20,1,$1+$1,$8,$9,$2,$3,0*%
G04 Aperture macros list end*
%ADD10C,0.200000*%
%ADD11C,0.150000*%
%ADD12C,0.127000*%
%ADD13C,1.600000*%
%ADD14R,1.700000X1.700000*%
%ADD15O,1.700000X1.700000*%
%ADD16RoundRect,0.102000X-0.875000X-0.900000X0.875000X-0.900000X0.875000X0.900000X-0.875000X0.900000X0*%
%ADD17RoundRect,0.102000X0.875000X0.900000X-0.875000X0.900000X-0.875000X-0.900000X0.875000X-0.900000X0*%
G04 APERTURE END LIST*
D10*
X116792231Y-95803740D02*
X116335088Y-95803740D01*
X116563660Y-96603740D02*
X116563660Y-95803740D01*
X116068421Y-96603740D02*
X116068421Y-95803740D01*
X115725564Y-96603740D02*
X115725564Y-96184692D01*
X115725564Y-96184692D02*
X115763659Y-96108502D01*
X115763659Y-96108502D02*
X115839850Y-96070406D01*
X115839850Y-96070406D02*
X115954136Y-96070406D01*
X115954136Y-96070406D02*
X116030326Y-96108502D01*
X116030326Y-96108502D02*
X116068421Y-96146597D01*
X115344611Y-96603740D02*
X115344611Y-96070406D01*
X115344611Y-95803740D02*
X115382707Y-95841835D01*
X115382707Y-95841835D02*
X115344611Y-95879930D01*
X115344611Y-95879930D02*
X115306516Y-95841835D01*
X115306516Y-95841835D02*
X115344611Y-95803740D01*
X115344611Y-95803740D02*
X115344611Y-95879930D01*
X115001755Y-96565645D02*
X114925564Y-96603740D01*
X114925564Y-96603740D02*
X114773183Y-96603740D01*
X114773183Y-96603740D02*
X114696993Y-96565645D01*
X114696993Y-96565645D02*
X114658897Y-96489454D01*
X114658897Y-96489454D02*
X114658897Y-96451359D01*
X114658897Y-96451359D02*
X114696993Y-96375168D01*
X114696993Y-96375168D02*
X114773183Y-96337073D01*
X114773183Y-96337073D02*
X114887469Y-96337073D01*
X114887469Y-96337073D02*
X114963659Y-96298978D01*
X114963659Y-96298978D02*
X115001755Y-96222787D01*
X115001755Y-96222787D02*
X115001755Y-96184692D01*
X115001755Y-96184692D02*
X114963659Y-96108502D01*
X114963659Y-96108502D02*
X114887469Y-96070406D01*
X114887469Y-96070406D02*
X114773183Y-96070406D01*
X114773183Y-96070406D02*
X114696993Y-96108502D01*
X113706516Y-96603740D02*
X113706516Y-95803740D01*
X113706516Y-95803740D02*
X113401754Y-95803740D01*
X113401754Y-95803740D02*
X113325564Y-95841835D01*
X113325564Y-95841835D02*
X113287469Y-95879930D01*
X113287469Y-95879930D02*
X113249373Y-95956121D01*
X113249373Y-95956121D02*
X113249373Y-96070406D01*
X113249373Y-96070406D02*
X113287469Y-96146597D01*
X113287469Y-96146597D02*
X113325564Y-96184692D01*
X113325564Y-96184692D02*
X113401754Y-96222787D01*
X113401754Y-96222787D02*
X113706516Y-96222787D01*
X112449373Y-96527549D02*
X112487469Y-96565645D01*
X112487469Y-96565645D02*
X112601754Y-96603740D01*
X112601754Y-96603740D02*
X112677945Y-96603740D01*
X112677945Y-96603740D02*
X112792231Y-96565645D01*
X112792231Y-96565645D02*
X112868421Y-96489454D01*
X112868421Y-96489454D02*
X112906516Y-96413264D01*
X112906516Y-96413264D02*
X112944612Y-96260883D01*
X112944612Y-96260883D02*
X112944612Y-96146597D01*
X112944612Y-96146597D02*
X112906516Y-95994216D01*
X112906516Y-95994216D02*
X112868421Y-95918025D01*
X112868421Y-95918025D02*
X112792231Y-95841835D01*
X112792231Y-95841835D02*
X112677945Y-95803740D01*
X112677945Y-95803740D02*
X112601754Y-95803740D01*
X112601754Y-95803740D02*
X112487469Y-95841835D01*
X112487469Y-95841835D02*
X112449373Y-95879930D01*
X111839850Y-96184692D02*
X111725564Y-96222787D01*
X111725564Y-96222787D02*
X111687469Y-96260883D01*
X111687469Y-96260883D02*
X111649373Y-96337073D01*
X111649373Y-96337073D02*
X111649373Y-96451359D01*
X111649373Y-96451359D02*
X111687469Y-96527549D01*
X111687469Y-96527549D02*
X111725564Y-96565645D01*
X111725564Y-96565645D02*
X111801754Y-96603740D01*
X111801754Y-96603740D02*
X112106516Y-96603740D01*
X112106516Y-96603740D02*
X112106516Y-95803740D01*
X112106516Y-95803740D02*
X111839850Y-95803740D01*
X111839850Y-95803740D02*
X111763659Y-95841835D01*
X111763659Y-95841835D02*
X111725564Y-95879930D01*
X111725564Y-95879930D02*
X111687469Y-95956121D01*
X111687469Y-95956121D02*
X111687469Y-96032311D01*
X111687469Y-96032311D02*
X111725564Y-96108502D01*
X111725564Y-96108502D02*
X111763659Y-96146597D01*
X111763659Y-96146597D02*
X111839850Y-96184692D01*
X111839850Y-96184692D02*
X112106516Y-96184692D01*
X110354135Y-96603740D02*
X110354135Y-96184692D01*
X110354135Y-96184692D02*
X110392230Y-96108502D01*
X110392230Y-96108502D02*
X110468421Y-96070406D01*
X110468421Y-96070406D02*
X110620802Y-96070406D01*
X110620802Y-96070406D02*
X110696992Y-96108502D01*
X110354135Y-96565645D02*
X110430326Y-96603740D01*
X110430326Y-96603740D02*
X110620802Y-96603740D01*
X110620802Y-96603740D02*
X110696992Y-96565645D01*
X110696992Y-96565645D02*
X110735088Y-96489454D01*
X110735088Y-96489454D02*
X110735088Y-96413264D01*
X110735088Y-96413264D02*
X110696992Y-96337073D01*
X110696992Y-96337073D02*
X110620802Y-96298978D01*
X110620802Y-96298978D02*
X110430326Y-96298978D01*
X110430326Y-96298978D02*
X110354135Y-96260883D01*
X109973182Y-96070406D02*
X109973182Y-96603740D01*
X109973182Y-96146597D02*
X109935087Y-96108502D01*
X109935087Y-96108502D02*
X109858897Y-96070406D01*
X109858897Y-96070406D02*
X109744611Y-96070406D01*
X109744611Y-96070406D02*
X109668420Y-96108502D01*
X109668420Y-96108502D02*
X109630325Y-96184692D01*
X109630325Y-96184692D02*
X109630325Y-96603740D01*
X108906515Y-96603740D02*
X108906515Y-95803740D01*
X108906515Y-96565645D02*
X108982706Y-96603740D01*
X108982706Y-96603740D02*
X109135087Y-96603740D01*
X109135087Y-96603740D02*
X109211277Y-96565645D01*
X109211277Y-96565645D02*
X109249372Y-96527549D01*
X109249372Y-96527549D02*
X109287468Y-96451359D01*
X109287468Y-96451359D02*
X109287468Y-96222787D01*
X109287468Y-96222787D02*
X109249372Y-96146597D01*
X109249372Y-96146597D02*
X109211277Y-96108502D01*
X109211277Y-96108502D02*
X109135087Y-96070406D01*
X109135087Y-96070406D02*
X108982706Y-96070406D01*
X108982706Y-96070406D02*
X108906515Y-96108502D01*
X107916038Y-96603740D02*
X107916038Y-96070406D01*
X107916038Y-95803740D02*
X107954134Y-95841835D01*
X107954134Y-95841835D02*
X107916038Y-95879930D01*
X107916038Y-95879930D02*
X107877943Y-95841835D01*
X107877943Y-95841835D02*
X107916038Y-95803740D01*
X107916038Y-95803740D02*
X107916038Y-95879930D01*
X107649372Y-96070406D02*
X107344610Y-96070406D01*
X107535086Y-95803740D02*
X107535086Y-96489454D01*
X107535086Y-96489454D02*
X107496991Y-96565645D01*
X107496991Y-96565645D02*
X107420801Y-96603740D01*
X107420801Y-96603740D02*
X107344610Y-96603740D01*
X107116039Y-96565645D02*
X107039848Y-96603740D01*
X107039848Y-96603740D02*
X106887467Y-96603740D01*
X106887467Y-96603740D02*
X106811277Y-96565645D01*
X106811277Y-96565645D02*
X106773181Y-96489454D01*
X106773181Y-96489454D02*
X106773181Y-96451359D01*
X106773181Y-96451359D02*
X106811277Y-96375168D01*
X106811277Y-96375168D02*
X106887467Y-96337073D01*
X106887467Y-96337073D02*
X107001753Y-96337073D01*
X107001753Y-96337073D02*
X107077943Y-96298978D01*
X107077943Y-96298978D02*
X107116039Y-96222787D01*
X107116039Y-96222787D02*
X107116039Y-96184692D01*
X107116039Y-96184692D02*
X107077943Y-96108502D01*
X107077943Y-96108502D02*
X107001753Y-96070406D01*
X107001753Y-96070406D02*
X106887467Y-96070406D01*
X106887467Y-96070406D02*
X106811277Y-96108502D01*
X105477943Y-96603740D02*
X105477943Y-95803740D01*
X105477943Y-96565645D02*
X105554134Y-96603740D01*
X105554134Y-96603740D02*
X105706515Y-96603740D01*
X105706515Y-96603740D02*
X105782705Y-96565645D01*
X105782705Y-96565645D02*
X105820800Y-96527549D01*
X105820800Y-96527549D02*
X105858896Y-96451359D01*
X105858896Y-96451359D02*
X105858896Y-96222787D01*
X105858896Y-96222787D02*
X105820800Y-96146597D01*
X105820800Y-96146597D02*
X105782705Y-96108502D01*
X105782705Y-96108502D02*
X105706515Y-96070406D01*
X105706515Y-96070406D02*
X105554134Y-96070406D01*
X105554134Y-96070406D02*
X105477943Y-96108502D01*
X104792228Y-96565645D02*
X104868419Y-96603740D01*
X104868419Y-96603740D02*
X105020800Y-96603740D01*
X105020800Y-96603740D02*
X105096990Y-96565645D01*
X105096990Y-96565645D02*
X105135086Y-96489454D01*
X105135086Y-96489454D02*
X105135086Y-96184692D01*
X105135086Y-96184692D02*
X105096990Y-96108502D01*
X105096990Y-96108502D02*
X105020800Y-96070406D01*
X105020800Y-96070406D02*
X104868419Y-96070406D01*
X104868419Y-96070406D02*
X104792228Y-96108502D01*
X104792228Y-96108502D02*
X104754133Y-96184692D01*
X104754133Y-96184692D02*
X104754133Y-96260883D01*
X104754133Y-96260883D02*
X105135086Y-96337073D01*
X104449372Y-96565645D02*
X104373181Y-96603740D01*
X104373181Y-96603740D02*
X104220800Y-96603740D01*
X104220800Y-96603740D02*
X104144610Y-96565645D01*
X104144610Y-96565645D02*
X104106514Y-96489454D01*
X104106514Y-96489454D02*
X104106514Y-96451359D01*
X104106514Y-96451359D02*
X104144610Y-96375168D01*
X104144610Y-96375168D02*
X104220800Y-96337073D01*
X104220800Y-96337073D02*
X104335086Y-96337073D01*
X104335086Y-96337073D02*
X104411276Y-96298978D01*
X104411276Y-96298978D02*
X104449372Y-96222787D01*
X104449372Y-96222787D02*
X104449372Y-96184692D01*
X104449372Y-96184692D02*
X104411276Y-96108502D01*
X104411276Y-96108502D02*
X104335086Y-96070406D01*
X104335086Y-96070406D02*
X104220800Y-96070406D01*
X104220800Y-96070406D02*
X104144610Y-96108502D01*
X103763657Y-96603740D02*
X103763657Y-96070406D01*
X103763657Y-95803740D02*
X103801753Y-95841835D01*
X103801753Y-95841835D02*
X103763657Y-95879930D01*
X103763657Y-95879930D02*
X103725562Y-95841835D01*
X103725562Y-95841835D02*
X103763657Y-95803740D01*
X103763657Y-95803740D02*
X103763657Y-95879930D01*
X103039848Y-96070406D02*
X103039848Y-96718025D01*
X103039848Y-96718025D02*
X103077943Y-96794216D01*
X103077943Y-96794216D02*
X103116039Y-96832311D01*
X103116039Y-96832311D02*
X103192229Y-96870406D01*
X103192229Y-96870406D02*
X103306515Y-96870406D01*
X103306515Y-96870406D02*
X103382705Y-96832311D01*
X103039848Y-96565645D02*
X103116039Y-96603740D01*
X103116039Y-96603740D02*
X103268420Y-96603740D01*
X103268420Y-96603740D02*
X103344610Y-96565645D01*
X103344610Y-96565645D02*
X103382705Y-96527549D01*
X103382705Y-96527549D02*
X103420801Y-96451359D01*
X103420801Y-96451359D02*
X103420801Y-96222787D01*
X103420801Y-96222787D02*
X103382705Y-96146597D01*
X103382705Y-96146597D02*
X103344610Y-96108502D01*
X103344610Y-96108502D02*
X103268420Y-96070406D01*
X103268420Y-96070406D02*
X103116039Y-96070406D01*
X103116039Y-96070406D02*
X103039848Y-96108502D01*
X102658895Y-96070406D02*
X102658895Y-96603740D01*
X102658895Y-96146597D02*
X102620800Y-96108502D01*
X102620800Y-96108502D02*
X102544610Y-96070406D01*
X102544610Y-96070406D02*
X102430324Y-96070406D01*
X102430324Y-96070406D02*
X102354133Y-96108502D01*
X102354133Y-96108502D02*
X102316038Y-96184692D01*
X102316038Y-96184692D02*
X102316038Y-96603740D01*
X101325561Y-96603740D02*
X101325561Y-95803740D01*
X101325561Y-96108502D02*
X101249371Y-96070406D01*
X101249371Y-96070406D02*
X101096990Y-96070406D01*
X101096990Y-96070406D02*
X101020799Y-96108502D01*
X101020799Y-96108502D02*
X100982704Y-96146597D01*
X100982704Y-96146597D02*
X100944609Y-96222787D01*
X100944609Y-96222787D02*
X100944609Y-96451359D01*
X100944609Y-96451359D02*
X100982704Y-96527549D01*
X100982704Y-96527549D02*
X101020799Y-96565645D01*
X101020799Y-96565645D02*
X101096990Y-96603740D01*
X101096990Y-96603740D02*
X101249371Y-96603740D01*
X101249371Y-96603740D02*
X101325561Y-96565645D01*
X100677942Y-96070406D02*
X100487466Y-96603740D01*
X100296989Y-96070406D02*
X100487466Y-96603740D01*
X100487466Y-96603740D02*
X100563656Y-96794216D01*
X100563656Y-96794216D02*
X100601751Y-96832311D01*
X100601751Y-96832311D02*
X100677942Y-96870406D01*
X99230322Y-95803740D02*
X99077941Y-95803740D01*
X99077941Y-95803740D02*
X99001751Y-95841835D01*
X99001751Y-95841835D02*
X98925560Y-95918025D01*
X98925560Y-95918025D02*
X98887465Y-96070406D01*
X98887465Y-96070406D02*
X98887465Y-96337073D01*
X98887465Y-96337073D02*
X98925560Y-96489454D01*
X98925560Y-96489454D02*
X99001751Y-96565645D01*
X99001751Y-96565645D02*
X99077941Y-96603740D01*
X99077941Y-96603740D02*
X99230322Y-96603740D01*
X99230322Y-96603740D02*
X99306513Y-96565645D01*
X99306513Y-96565645D02*
X99382703Y-96489454D01*
X99382703Y-96489454D02*
X99420799Y-96337073D01*
X99420799Y-96337073D02*
X99420799Y-96070406D01*
X99420799Y-96070406D02*
X99382703Y-95918025D01*
X99382703Y-95918025D02*
X99306513Y-95841835D01*
X99306513Y-95841835D02*
X99230322Y-95803740D01*
X98544608Y-96070406D02*
X98544608Y-96870406D01*
X98544608Y-96108502D02*
X98468418Y-96070406D01*
X98468418Y-96070406D02*
X98316037Y-96070406D01*
X98316037Y-96070406D02*
X98239846Y-96108502D01*
X98239846Y-96108502D02*
X98201751Y-96146597D01*
X98201751Y-96146597D02*
X98163656Y-96222787D01*
X98163656Y-96222787D02*
X98163656Y-96451359D01*
X98163656Y-96451359D02*
X98201751Y-96527549D01*
X98201751Y-96527549D02*
X98239846Y-96565645D01*
X98239846Y-96565645D02*
X98316037Y-96603740D01*
X98316037Y-96603740D02*
X98468418Y-96603740D01*
X98468418Y-96603740D02*
X98544608Y-96565645D01*
X97516036Y-96565645D02*
X97592227Y-96603740D01*
X97592227Y-96603740D02*
X97744608Y-96603740D01*
X97744608Y-96603740D02*
X97820798Y-96565645D01*
X97820798Y-96565645D02*
X97858894Y-96489454D01*
X97858894Y-96489454D02*
X97858894Y-96184692D01*
X97858894Y-96184692D02*
X97820798Y-96108502D01*
X97820798Y-96108502D02*
X97744608Y-96070406D01*
X97744608Y-96070406D02*
X97592227Y-96070406D01*
X97592227Y-96070406D02*
X97516036Y-96108502D01*
X97516036Y-96108502D02*
X97477941Y-96184692D01*
X97477941Y-96184692D02*
X97477941Y-96260883D01*
X97477941Y-96260883D02*
X97858894Y-96337073D01*
X97135084Y-96070406D02*
X97135084Y-96603740D01*
X97135084Y-96146597D02*
X97096989Y-96108502D01*
X97096989Y-96108502D02*
X97020799Y-96070406D01*
X97020799Y-96070406D02*
X96906513Y-96070406D01*
X96906513Y-96070406D02*
X96830322Y-96108502D01*
X96830322Y-96108502D02*
X96792227Y-96184692D01*
X96792227Y-96184692D02*
X96792227Y-96603740D01*
X96487465Y-95803740D02*
X95992227Y-95803740D01*
X95992227Y-95803740D02*
X96258893Y-96108502D01*
X96258893Y-96108502D02*
X96144608Y-96108502D01*
X96144608Y-96108502D02*
X96068417Y-96146597D01*
X96068417Y-96146597D02*
X96030322Y-96184692D01*
X96030322Y-96184692D02*
X95992227Y-96260883D01*
X95992227Y-96260883D02*
X95992227Y-96451359D01*
X95992227Y-96451359D02*
X96030322Y-96527549D01*
X96030322Y-96527549D02*
X96068417Y-96565645D01*
X96068417Y-96565645D02*
X96144608Y-96603740D01*
X96144608Y-96603740D02*
X96373179Y-96603740D01*
X96373179Y-96603740D02*
X96449370Y-96565645D01*
X96449370Y-96565645D02*
X96487465Y-96527549D01*
X95649369Y-96603740D02*
X95649369Y-95803740D01*
X95649369Y-95803740D02*
X95458893Y-95803740D01*
X95458893Y-95803740D02*
X95344607Y-95841835D01*
X95344607Y-95841835D02*
X95268417Y-95918025D01*
X95268417Y-95918025D02*
X95230322Y-95994216D01*
X95230322Y-95994216D02*
X95192226Y-96146597D01*
X95192226Y-96146597D02*
X95192226Y-96260883D01*
X95192226Y-96260883D02*
X95230322Y-96413264D01*
X95230322Y-96413264D02*
X95268417Y-96489454D01*
X95268417Y-96489454D02*
X95344607Y-96565645D01*
X95344607Y-96565645D02*
X95458893Y-96603740D01*
X95458893Y-96603740D02*
X95649369Y-96603740D01*
X94696988Y-95803740D02*
X94544607Y-95803740D01*
X94544607Y-95803740D02*
X94468417Y-95841835D01*
X94468417Y-95841835D02*
X94392226Y-95918025D01*
X94392226Y-95918025D02*
X94354131Y-96070406D01*
X94354131Y-96070406D02*
X94354131Y-96337073D01*
X94354131Y-96337073D02*
X94392226Y-96489454D01*
X94392226Y-96489454D02*
X94468417Y-96565645D01*
X94468417Y-96565645D02*
X94544607Y-96603740D01*
X94544607Y-96603740D02*
X94696988Y-96603740D01*
X94696988Y-96603740D02*
X94773179Y-96565645D01*
X94773179Y-96565645D02*
X94849369Y-96489454D01*
X94849369Y-96489454D02*
X94887465Y-96337073D01*
X94887465Y-96337073D02*
X94887465Y-96070406D01*
X94887465Y-96070406D02*
X94849369Y-95918025D01*
X94849369Y-95918025D02*
X94773179Y-95841835D01*
X94773179Y-95841835D02*
X94696988Y-95803740D01*
X93630322Y-96603740D02*
X94011274Y-96603740D01*
X94011274Y-96603740D02*
X94011274Y-95803740D01*
X93363655Y-96184692D02*
X93096989Y-96184692D01*
X92982703Y-96603740D02*
X93363655Y-96603740D01*
X93363655Y-96603740D02*
X93363655Y-95803740D01*
X93363655Y-95803740D02*
X92982703Y-95803740D01*
X92639845Y-96603740D02*
X92639845Y-95803740D01*
X92639845Y-95803740D02*
X92449369Y-95803740D01*
X92449369Y-95803740D02*
X92335083Y-95841835D01*
X92335083Y-95841835D02*
X92258893Y-95918025D01*
X92258893Y-95918025D02*
X92220798Y-95994216D01*
X92220798Y-95994216D02*
X92182702Y-96146597D01*
X92182702Y-96146597D02*
X92182702Y-96260883D01*
X92182702Y-96260883D02*
X92220798Y-96413264D01*
X92220798Y-96413264D02*
X92258893Y-96489454D01*
X92258893Y-96489454D02*
X92335083Y-96565645D01*
X92335083Y-96565645D02*
X92449369Y-96603740D01*
X92449369Y-96603740D02*
X92639845Y-96603740D01*
X116677945Y-97891695D02*
X116677945Y-97358361D01*
X116677945Y-97091695D02*
X116716041Y-97129790D01*
X116716041Y-97129790D02*
X116677945Y-97167885D01*
X116677945Y-97167885D02*
X116639850Y-97129790D01*
X116639850Y-97129790D02*
X116677945Y-97091695D01*
X116677945Y-97091695D02*
X116677945Y-97167885D01*
X116335089Y-97853600D02*
X116258898Y-97891695D01*
X116258898Y-97891695D02*
X116106517Y-97891695D01*
X116106517Y-97891695D02*
X116030327Y-97853600D01*
X116030327Y-97853600D02*
X115992231Y-97777409D01*
X115992231Y-97777409D02*
X115992231Y-97739314D01*
X115992231Y-97739314D02*
X116030327Y-97663123D01*
X116030327Y-97663123D02*
X116106517Y-97625028D01*
X116106517Y-97625028D02*
X116220803Y-97625028D01*
X116220803Y-97625028D02*
X116296993Y-97586933D01*
X116296993Y-97586933D02*
X116335089Y-97510742D01*
X116335089Y-97510742D02*
X116335089Y-97472647D01*
X116335089Y-97472647D02*
X116296993Y-97396457D01*
X116296993Y-97396457D02*
X116220803Y-97358361D01*
X116220803Y-97358361D02*
X116106517Y-97358361D01*
X116106517Y-97358361D02*
X116030327Y-97396457D01*
X114925565Y-97891695D02*
X115001755Y-97853600D01*
X115001755Y-97853600D02*
X115039850Y-97777409D01*
X115039850Y-97777409D02*
X115039850Y-97091695D01*
X114620802Y-97891695D02*
X114620802Y-97358361D01*
X114620802Y-97091695D02*
X114658898Y-97129790D01*
X114658898Y-97129790D02*
X114620802Y-97167885D01*
X114620802Y-97167885D02*
X114582707Y-97129790D01*
X114582707Y-97129790D02*
X114620802Y-97091695D01*
X114620802Y-97091695D02*
X114620802Y-97167885D01*
X113896993Y-97853600D02*
X113973184Y-97891695D01*
X113973184Y-97891695D02*
X114125565Y-97891695D01*
X114125565Y-97891695D02*
X114201755Y-97853600D01*
X114201755Y-97853600D02*
X114239850Y-97815504D01*
X114239850Y-97815504D02*
X114277946Y-97739314D01*
X114277946Y-97739314D02*
X114277946Y-97510742D01*
X114277946Y-97510742D02*
X114239850Y-97434552D01*
X114239850Y-97434552D02*
X114201755Y-97396457D01*
X114201755Y-97396457D02*
X114125565Y-97358361D01*
X114125565Y-97358361D02*
X113973184Y-97358361D01*
X113973184Y-97358361D02*
X113896993Y-97396457D01*
X113249374Y-97853600D02*
X113325565Y-97891695D01*
X113325565Y-97891695D02*
X113477946Y-97891695D01*
X113477946Y-97891695D02*
X113554136Y-97853600D01*
X113554136Y-97853600D02*
X113592232Y-97777409D01*
X113592232Y-97777409D02*
X113592232Y-97472647D01*
X113592232Y-97472647D02*
X113554136Y-97396457D01*
X113554136Y-97396457D02*
X113477946Y-97358361D01*
X113477946Y-97358361D02*
X113325565Y-97358361D01*
X113325565Y-97358361D02*
X113249374Y-97396457D01*
X113249374Y-97396457D02*
X113211279Y-97472647D01*
X113211279Y-97472647D02*
X113211279Y-97548838D01*
X113211279Y-97548838D02*
X113592232Y-97625028D01*
X112868422Y-97358361D02*
X112868422Y-97891695D01*
X112868422Y-97434552D02*
X112830327Y-97396457D01*
X112830327Y-97396457D02*
X112754137Y-97358361D01*
X112754137Y-97358361D02*
X112639851Y-97358361D01*
X112639851Y-97358361D02*
X112563660Y-97396457D01*
X112563660Y-97396457D02*
X112525565Y-97472647D01*
X112525565Y-97472647D02*
X112525565Y-97891695D01*
X112182708Y-97853600D02*
X112106517Y-97891695D01*
X112106517Y-97891695D02*
X111954136Y-97891695D01*
X111954136Y-97891695D02*
X111877946Y-97853600D01*
X111877946Y-97853600D02*
X111839850Y-97777409D01*
X111839850Y-97777409D02*
X111839850Y-97739314D01*
X111839850Y-97739314D02*
X111877946Y-97663123D01*
X111877946Y-97663123D02*
X111954136Y-97625028D01*
X111954136Y-97625028D02*
X112068422Y-97625028D01*
X112068422Y-97625028D02*
X112144612Y-97586933D01*
X112144612Y-97586933D02*
X112182708Y-97510742D01*
X112182708Y-97510742D02*
X112182708Y-97472647D01*
X112182708Y-97472647D02*
X112144612Y-97396457D01*
X112144612Y-97396457D02*
X112068422Y-97358361D01*
X112068422Y-97358361D02*
X111954136Y-97358361D01*
X111954136Y-97358361D02*
X111877946Y-97396457D01*
X111192231Y-97853600D02*
X111268422Y-97891695D01*
X111268422Y-97891695D02*
X111420803Y-97891695D01*
X111420803Y-97891695D02*
X111496993Y-97853600D01*
X111496993Y-97853600D02*
X111535089Y-97777409D01*
X111535089Y-97777409D02*
X111535089Y-97472647D01*
X111535089Y-97472647D02*
X111496993Y-97396457D01*
X111496993Y-97396457D02*
X111420803Y-97358361D01*
X111420803Y-97358361D02*
X111268422Y-97358361D01*
X111268422Y-97358361D02*
X111192231Y-97396457D01*
X111192231Y-97396457D02*
X111154136Y-97472647D01*
X111154136Y-97472647D02*
X111154136Y-97548838D01*
X111154136Y-97548838D02*
X111535089Y-97625028D01*
X110468422Y-97891695D02*
X110468422Y-97091695D01*
X110468422Y-97853600D02*
X110544613Y-97891695D01*
X110544613Y-97891695D02*
X110696994Y-97891695D01*
X110696994Y-97891695D02*
X110773184Y-97853600D01*
X110773184Y-97853600D02*
X110811279Y-97815504D01*
X110811279Y-97815504D02*
X110849375Y-97739314D01*
X110849375Y-97739314D02*
X110849375Y-97510742D01*
X110849375Y-97510742D02*
X110811279Y-97434552D01*
X110811279Y-97434552D02*
X110773184Y-97396457D01*
X110773184Y-97396457D02*
X110696994Y-97358361D01*
X110696994Y-97358361D02*
X110544613Y-97358361D01*
X110544613Y-97358361D02*
X110468422Y-97396457D01*
X109135088Y-97358361D02*
X109135088Y-97891695D01*
X109477945Y-97358361D02*
X109477945Y-97777409D01*
X109477945Y-97777409D02*
X109439850Y-97853600D01*
X109439850Y-97853600D02*
X109363660Y-97891695D01*
X109363660Y-97891695D02*
X109249374Y-97891695D01*
X109249374Y-97891695D02*
X109173183Y-97853600D01*
X109173183Y-97853600D02*
X109135088Y-97815504D01*
X108754135Y-97358361D02*
X108754135Y-97891695D01*
X108754135Y-97434552D02*
X108716040Y-97396457D01*
X108716040Y-97396457D02*
X108639850Y-97358361D01*
X108639850Y-97358361D02*
X108525564Y-97358361D01*
X108525564Y-97358361D02*
X108449373Y-97396457D01*
X108449373Y-97396457D02*
X108411278Y-97472647D01*
X108411278Y-97472647D02*
X108411278Y-97891695D01*
X107687468Y-97891695D02*
X107687468Y-97091695D01*
X107687468Y-97853600D02*
X107763659Y-97891695D01*
X107763659Y-97891695D02*
X107916040Y-97891695D01*
X107916040Y-97891695D02*
X107992230Y-97853600D01*
X107992230Y-97853600D02*
X108030325Y-97815504D01*
X108030325Y-97815504D02*
X108068421Y-97739314D01*
X108068421Y-97739314D02*
X108068421Y-97510742D01*
X108068421Y-97510742D02*
X108030325Y-97434552D01*
X108030325Y-97434552D02*
X107992230Y-97396457D01*
X107992230Y-97396457D02*
X107916040Y-97358361D01*
X107916040Y-97358361D02*
X107763659Y-97358361D01*
X107763659Y-97358361D02*
X107687468Y-97396457D01*
X107001753Y-97853600D02*
X107077944Y-97891695D01*
X107077944Y-97891695D02*
X107230325Y-97891695D01*
X107230325Y-97891695D02*
X107306515Y-97853600D01*
X107306515Y-97853600D02*
X107344611Y-97777409D01*
X107344611Y-97777409D02*
X107344611Y-97472647D01*
X107344611Y-97472647D02*
X107306515Y-97396457D01*
X107306515Y-97396457D02*
X107230325Y-97358361D01*
X107230325Y-97358361D02*
X107077944Y-97358361D01*
X107077944Y-97358361D02*
X107001753Y-97396457D01*
X107001753Y-97396457D02*
X106963658Y-97472647D01*
X106963658Y-97472647D02*
X106963658Y-97548838D01*
X106963658Y-97548838D02*
X107344611Y-97625028D01*
X106620801Y-97891695D02*
X106620801Y-97358361D01*
X106620801Y-97510742D02*
X106582706Y-97434552D01*
X106582706Y-97434552D02*
X106544611Y-97396457D01*
X106544611Y-97396457D02*
X106468420Y-97358361D01*
X106468420Y-97358361D02*
X106392230Y-97358361D01*
X105058896Y-97815504D02*
X105096992Y-97853600D01*
X105096992Y-97853600D02*
X105211277Y-97891695D01*
X105211277Y-97891695D02*
X105287468Y-97891695D01*
X105287468Y-97891695D02*
X105401754Y-97853600D01*
X105401754Y-97853600D02*
X105477944Y-97777409D01*
X105477944Y-97777409D02*
X105516039Y-97701219D01*
X105516039Y-97701219D02*
X105554135Y-97548838D01*
X105554135Y-97548838D02*
X105554135Y-97434552D01*
X105554135Y-97434552D02*
X105516039Y-97282171D01*
X105516039Y-97282171D02*
X105477944Y-97205980D01*
X105477944Y-97205980D02*
X105401754Y-97129790D01*
X105401754Y-97129790D02*
X105287468Y-97091695D01*
X105287468Y-97091695D02*
X105211277Y-97091695D01*
X105211277Y-97091695D02*
X105096992Y-97129790D01*
X105096992Y-97129790D02*
X105058896Y-97167885D01*
X104258896Y-97815504D02*
X104296992Y-97853600D01*
X104296992Y-97853600D02*
X104411277Y-97891695D01*
X104411277Y-97891695D02*
X104487468Y-97891695D01*
X104487468Y-97891695D02*
X104601754Y-97853600D01*
X104601754Y-97853600D02*
X104677944Y-97777409D01*
X104677944Y-97777409D02*
X104716039Y-97701219D01*
X104716039Y-97701219D02*
X104754135Y-97548838D01*
X104754135Y-97548838D02*
X104754135Y-97434552D01*
X104754135Y-97434552D02*
X104716039Y-97282171D01*
X104716039Y-97282171D02*
X104677944Y-97205980D01*
X104677944Y-97205980D02*
X104601754Y-97129790D01*
X104601754Y-97129790D02*
X104487468Y-97091695D01*
X104487468Y-97091695D02*
X104411277Y-97091695D01*
X104411277Y-97091695D02*
X104296992Y-97129790D01*
X104296992Y-97129790D02*
X104258896Y-97167885D01*
X103039849Y-97472647D02*
X102925563Y-97510742D01*
X102925563Y-97510742D02*
X102887468Y-97548838D01*
X102887468Y-97548838D02*
X102849372Y-97625028D01*
X102849372Y-97625028D02*
X102849372Y-97739314D01*
X102849372Y-97739314D02*
X102887468Y-97815504D01*
X102887468Y-97815504D02*
X102925563Y-97853600D01*
X102925563Y-97853600D02*
X103001753Y-97891695D01*
X103001753Y-97891695D02*
X103306515Y-97891695D01*
X103306515Y-97891695D02*
X103306515Y-97091695D01*
X103306515Y-97091695D02*
X103039849Y-97091695D01*
X103039849Y-97091695D02*
X102963658Y-97129790D01*
X102963658Y-97129790D02*
X102925563Y-97167885D01*
X102925563Y-97167885D02*
X102887468Y-97244076D01*
X102887468Y-97244076D02*
X102887468Y-97320266D01*
X102887468Y-97320266D02*
X102925563Y-97396457D01*
X102925563Y-97396457D02*
X102963658Y-97434552D01*
X102963658Y-97434552D02*
X103039849Y-97472647D01*
X103039849Y-97472647D02*
X103306515Y-97472647D01*
X102354134Y-97510742D02*
X102354134Y-97891695D01*
X102620801Y-97091695D02*
X102354134Y-97510742D01*
X102354134Y-97510742D02*
X102087468Y-97091695D01*
X101820801Y-97586933D02*
X101211278Y-97586933D01*
X100830325Y-97891695D02*
X100830325Y-97091695D01*
X100830325Y-97091695D02*
X100373182Y-97891695D01*
X100373182Y-97891695D02*
X100373182Y-97091695D01*
X99535087Y-97815504D02*
X99573183Y-97853600D01*
X99573183Y-97853600D02*
X99687468Y-97891695D01*
X99687468Y-97891695D02*
X99763659Y-97891695D01*
X99763659Y-97891695D02*
X99877945Y-97853600D01*
X99877945Y-97853600D02*
X99954135Y-97777409D01*
X99954135Y-97777409D02*
X99992230Y-97701219D01*
X99992230Y-97701219D02*
X100030326Y-97548838D01*
X100030326Y-97548838D02*
X100030326Y-97434552D01*
X100030326Y-97434552D02*
X99992230Y-97282171D01*
X99992230Y-97282171D02*
X99954135Y-97205980D01*
X99954135Y-97205980D02*
X99877945Y-97129790D01*
X99877945Y-97129790D02*
X99763659Y-97091695D01*
X99763659Y-97091695D02*
X99687468Y-97091695D01*
X99687468Y-97091695D02*
X99573183Y-97129790D01*
X99573183Y-97129790D02*
X99535087Y-97167885D01*
X99192230Y-97586933D02*
X98582707Y-97586933D01*
X98239850Y-97853600D02*
X98125564Y-97891695D01*
X98125564Y-97891695D02*
X97935088Y-97891695D01*
X97935088Y-97891695D02*
X97858897Y-97853600D01*
X97858897Y-97853600D02*
X97820802Y-97815504D01*
X97820802Y-97815504D02*
X97782707Y-97739314D01*
X97782707Y-97739314D02*
X97782707Y-97663123D01*
X97782707Y-97663123D02*
X97820802Y-97586933D01*
X97820802Y-97586933D02*
X97858897Y-97548838D01*
X97858897Y-97548838D02*
X97935088Y-97510742D01*
X97935088Y-97510742D02*
X98087469Y-97472647D01*
X98087469Y-97472647D02*
X98163659Y-97434552D01*
X98163659Y-97434552D02*
X98201754Y-97396457D01*
X98201754Y-97396457D02*
X98239850Y-97320266D01*
X98239850Y-97320266D02*
X98239850Y-97244076D01*
X98239850Y-97244076D02*
X98201754Y-97167885D01*
X98201754Y-97167885D02*
X98163659Y-97129790D01*
X98163659Y-97129790D02*
X98087469Y-97091695D01*
X98087469Y-97091695D02*
X97896992Y-97091695D01*
X97896992Y-97091695D02*
X97782707Y-97129790D01*
X97477945Y-97663123D02*
X97096992Y-97663123D01*
X97554135Y-97891695D02*
X97287468Y-97091695D01*
X97287468Y-97091695D02*
X97020802Y-97891695D01*
X95801754Y-97358361D02*
X95801754Y-97891695D01*
X95992230Y-97053600D02*
X96182707Y-97625028D01*
X96182707Y-97625028D02*
X95687468Y-97625028D01*
X95382706Y-97815504D02*
X95344611Y-97853600D01*
X95344611Y-97853600D02*
X95382706Y-97891695D01*
X95382706Y-97891695D02*
X95420802Y-97853600D01*
X95420802Y-97853600D02*
X95382706Y-97815504D01*
X95382706Y-97815504D02*
X95382706Y-97891695D01*
X94849373Y-97091695D02*
X94773183Y-97091695D01*
X94773183Y-97091695D02*
X94696992Y-97129790D01*
X94696992Y-97129790D02*
X94658897Y-97167885D01*
X94658897Y-97167885D02*
X94620802Y-97244076D01*
X94620802Y-97244076D02*
X94582707Y-97396457D01*
X94582707Y-97396457D02*
X94582707Y-97586933D01*
X94582707Y-97586933D02*
X94620802Y-97739314D01*
X94620802Y-97739314D02*
X94658897Y-97815504D01*
X94658897Y-97815504D02*
X94696992Y-97853600D01*
X94696992Y-97853600D02*
X94773183Y-97891695D01*
X94773183Y-97891695D02*
X94849373Y-97891695D01*
X94849373Y-97891695D02*
X94925564Y-97853600D01*
X94925564Y-97853600D02*
X94963659Y-97815504D01*
X94963659Y-97815504D02*
X95001754Y-97739314D01*
X95001754Y-97739314D02*
X95039850Y-97586933D01*
X95039850Y-97586933D02*
X95039850Y-97396457D01*
X95039850Y-97396457D02*
X95001754Y-97244076D01*
X95001754Y-97244076D02*
X94963659Y-97167885D01*
X94963659Y-97167885D02*
X94925564Y-97129790D01*
X94925564Y-97129790D02*
X94849373Y-97091695D01*
X94239849Y-97815504D02*
X94201754Y-97853600D01*
X94201754Y-97853600D02*
X94239849Y-97891695D01*
X94239849Y-97891695D02*
X94277945Y-97853600D01*
X94277945Y-97853600D02*
X94239849Y-97815504D01*
X94239849Y-97815504D02*
X94239849Y-97891695D01*
D11*
X112738094Y-106454819D02*
X112738094Y-105454819D01*
X112738094Y-105454819D02*
X112499999Y-105454819D01*
X112499999Y-105454819D02*
X112357142Y-105502438D01*
X112357142Y-105502438D02*
X112261904Y-105597676D01*
X112261904Y-105597676D02*
X112214285Y-105692914D01*
X112214285Y-105692914D02*
X112166666Y-105883390D01*
X112166666Y-105883390D02*
X112166666Y-106026247D01*
X112166666Y-106026247D02*
X112214285Y-106216723D01*
X112214285Y-106216723D02*
X112261904Y-106311961D01*
X112261904Y-106311961D02*
X112357142Y-106407200D01*
X112357142Y-106407200D02*
X112499999Y-106454819D01*
X112499999Y-106454819D02*
X112738094Y-106454819D01*
X111690475Y-106454819D02*
X111499999Y-106454819D01*
X111499999Y-106454819D02*
X111404761Y-106407200D01*
X111404761Y-106407200D02*
X111357142Y-106359580D01*
X111357142Y-106359580D02*
X111261904Y-106216723D01*
X111261904Y-106216723D02*
X111214285Y-106026247D01*
X111214285Y-106026247D02*
X111214285Y-105645295D01*
X111214285Y-105645295D02*
X111261904Y-105550057D01*
X111261904Y-105550057D02*
X111309523Y-105502438D01*
X111309523Y-105502438D02*
X111404761Y-105454819D01*
X111404761Y-105454819D02*
X111595237Y-105454819D01*
X111595237Y-105454819D02*
X111690475Y-105502438D01*
X111690475Y-105502438D02*
X111738094Y-105550057D01*
X111738094Y-105550057D02*
X111785713Y-105645295D01*
X111785713Y-105645295D02*
X111785713Y-105883390D01*
X111785713Y-105883390D02*
X111738094Y-105978628D01*
X111738094Y-105978628D02*
X111690475Y-106026247D01*
X111690475Y-106026247D02*
X111595237Y-106073866D01*
X111595237Y-106073866D02*
X111404761Y-106073866D01*
X111404761Y-106073866D02*
X111309523Y-106026247D01*
X111309523Y-106026247D02*
X111261904Y-105978628D01*
X111261904Y-105978628D02*
X111214285Y-105883390D01*
X98214285Y-106454819D02*
X98214285Y-105454819D01*
X98214285Y-105454819D02*
X97976190Y-105454819D01*
X97976190Y-105454819D02*
X97833333Y-105502438D01*
X97833333Y-105502438D02*
X97738095Y-105597676D01*
X97738095Y-105597676D02*
X97690476Y-105692914D01*
X97690476Y-105692914D02*
X97642857Y-105883390D01*
X97642857Y-105883390D02*
X97642857Y-106026247D01*
X97642857Y-106026247D02*
X97690476Y-106216723D01*
X97690476Y-106216723D02*
X97738095Y-106311961D01*
X97738095Y-106311961D02*
X97833333Y-106407200D01*
X97833333Y-106407200D02*
X97976190Y-106454819D01*
X97976190Y-106454819D02*
X98214285Y-106454819D01*
X96690476Y-106454819D02*
X97261904Y-106454819D01*
X96976190Y-106454819D02*
X96976190Y-105454819D01*
X96976190Y-105454819D02*
X97071428Y-105597676D01*
X97071428Y-105597676D02*
X97166666Y-105692914D01*
X97166666Y-105692914D02*
X97261904Y-105740533D01*
X96071428Y-105454819D02*
X95976190Y-105454819D01*
X95976190Y-105454819D02*
X95880952Y-105502438D01*
X95880952Y-105502438D02*
X95833333Y-105550057D01*
X95833333Y-105550057D02*
X95785714Y-105645295D01*
X95785714Y-105645295D02*
X95738095Y-105835771D01*
X95738095Y-105835771D02*
X95738095Y-106073866D01*
X95738095Y-106073866D02*
X95785714Y-106264342D01*
X95785714Y-106264342D02*
X95833333Y-106359580D01*
X95833333Y-106359580D02*
X95880952Y-106407200D01*
X95880952Y-106407200D02*
X95976190Y-106454819D01*
X95976190Y-106454819D02*
X96071428Y-106454819D01*
X96071428Y-106454819D02*
X96166666Y-106407200D01*
X96166666Y-106407200D02*
X96214285Y-106359580D01*
X96214285Y-106359580D02*
X96261904Y-106264342D01*
X96261904Y-106264342D02*
X96309523Y-106073866D01*
X96309523Y-106073866D02*
X96309523Y-105835771D01*
X96309523Y-105835771D02*
X96261904Y-105645295D01*
X96261904Y-105645295D02*
X96214285Y-105550057D01*
X96214285Y-105550057D02*
X96166666Y-105502438D01*
X96166666Y-105502438D02*
X96071428Y-105454819D01*
D12*
%TO.C,D9*%
X109875000Y-104020000D02*
X109875000Y-107920000D01*
X109875000Y-107920000D02*
X114275000Y-107920000D01*
X114275000Y-104020000D02*
X109875000Y-104020000D01*
X114275000Y-107920000D02*
X114275000Y-104020000D01*
D10*
X106925000Y-105970000D02*
G75*
G02*
X106725000Y-105970000I-100000J0D01*
G01*
X106725000Y-105970000D02*
G75*
G02*
X106925000Y-105970000I100000J0D01*
G01*
D12*
%TO.C,D10*%
X94800000Y-104020000D02*
X94800000Y-107920000D01*
X94800000Y-107920000D02*
X99200000Y-107920000D01*
X99200000Y-104020000D02*
X94800000Y-104020000D01*
X99200000Y-107920000D02*
X99200000Y-104020000D01*
D10*
X102350000Y-105970000D02*
G75*
G02*
X102150000Y-105970000I-100000J0D01*
G01*
X102150000Y-105970000D02*
G75*
G02*
X102350000Y-105970000I100000J0D01*
G01*
%TD*%
%LPC*%
D13*
%TO.C,H3*%
X94000000Y-87500000D03*
%TD*%
D14*
%TO.C,J2*%
X98300000Y-87500000D03*
D15*
X100840000Y-87500000D03*
X103380000Y-87500000D03*
X105920000Y-87500000D03*
X108460000Y-87500000D03*
X111000000Y-87500000D03*
%TD*%
D13*
%TO.C,H4*%
X115000000Y-87500000D03*
%TD*%
D16*
%TO.C,D9*%
X115650000Y-105970000D03*
X108500000Y-105970000D03*
%TD*%
D17*
%TO.C,D10*%
X93425000Y-105970000D03*
X100575000Y-105970000D03*
%TD*%
%LPD*%
M02*
