%TF.GenerationSoftware,KiCad,Pcbnew,8.0.2-8.0.2-0~ubuntu22.04.1*%
%TF.CreationDate,2024-05-15T17:42:07+09:00*%
%TF.ProjectId,sensor_emitter_board,73656e73-6f72-45f6-956d-69747465725f,rev?*%
%TF.SameCoordinates,Original*%
%TF.FileFunction,Paste,Top*%
%TF.FilePolarity,Positive*%
%FSLAX46Y46*%
G04 Gerber Fmt 4.6, Leading zero omitted, Abs format (unit mm)*
G04 Created by KiCad (PCBNEW 8.0.2-8.0.2-0~ubuntu22.04.1) date 2024-05-15 17:42:07*
%MOMM*%
%LPD*%
G01*
G04 APERTURE LIST*
G04 Aperture macros list*
%AMRoundRect*
0 Rectangle with rounded corners*
0 $1 Rounding radius*
0 $2 $3 $4 $5 $6 $7 $8 $9 X,Y pos of 4 corners*
0 Add a 4 corners polygon primitive as box body*
4,1,4,$2,$3,$4,$5,$6,$7,$8,$9,$2,$3,0*
0 Add four circle primitives for the rounded corners*
1,1,$1+$1,$2,$3*
1,1,$1+$1,$4,$5*
1,1,$1+$1,$6,$7*
1,1,$1+$1,$8,$9*
0 Add four rect primitives between the rounded corners*
20,1,$1+$1,$2,$3,$4,$5,0*
20,1,$1+$1,$4,$5,$6,$7,0*
20,1,$1+$1,$6,$7,$8,$9,0*
20,1,$1+$1,$8,$9,$2,$3,0*%
G04 Aperture macros list end*
%ADD10RoundRect,0.237500X0.250000X0.237500X-0.250000X0.237500X-0.250000X-0.237500X0.250000X-0.237500X0*%
%ADD11RoundRect,0.250001X1.074999X-0.462499X1.074999X0.462499X-1.074999X0.462499X-1.074999X-0.462499X0*%
%ADD12RoundRect,0.250001X-1.074999X0.462499X-1.074999X-0.462499X1.074999X-0.462499X1.074999X0.462499X0*%
%ADD13RoundRect,0.150000X-0.150000X0.587500X-0.150000X-0.587500X0.150000X-0.587500X0.150000X0.587500X0*%
%ADD14RoundRect,0.237500X-0.237500X0.300000X-0.237500X-0.300000X0.237500X-0.300000X0.237500X0.300000X0*%
%ADD15RoundRect,0.237500X0.237500X-0.300000X0.237500X0.300000X-0.237500X0.300000X-0.237500X-0.300000X0*%
%ADD16RoundRect,0.237500X0.237500X-0.250000X0.237500X0.250000X-0.237500X0.250000X-0.237500X-0.250000X0*%
%ADD17RoundRect,0.042000X-0.748000X-0.258000X0.748000X-0.258000X0.748000X0.258000X-0.748000X0.258000X0*%
%ADD18RoundRect,0.237500X-0.237500X0.250000X-0.237500X-0.250000X0.237500X-0.250000X0.237500X0.250000X0*%
G04 APERTURE END LIST*
D10*
%TO.C,R1*%
X113000000Y-93500000D03*
X111175000Y-93500000D03*
%TD*%
D11*
%TO.C,D6*%
X101000000Y-94000000D03*
X101000000Y-91025000D03*
%TD*%
%TO.C,D7*%
X104500000Y-94000000D03*
X104500000Y-91025000D03*
%TD*%
%TO.C,D5*%
X97500000Y-94000000D03*
X97500000Y-91025000D03*
%TD*%
D12*
%TO.C,D1*%
X108000000Y-97000000D03*
X108000000Y-99975000D03*
%TD*%
D13*
%TO.C,Q1*%
X113000000Y-96000000D03*
X111100000Y-96000000D03*
X112050000Y-97875000D03*
%TD*%
D14*
%TO.C,C4*%
X99500000Y-102675000D03*
X99500000Y-104400000D03*
%TD*%
D15*
%TO.C,C3*%
X110000000Y-105725000D03*
X110000000Y-104000000D03*
%TD*%
D12*
%TO.C,D4*%
X97500000Y-97000000D03*
X97500000Y-99975000D03*
%TD*%
D16*
%TO.C,R3*%
X97500000Y-104500000D03*
X97500000Y-102675000D03*
%TD*%
D12*
%TO.C,D2*%
X104500000Y-97000000D03*
X104500000Y-99975000D03*
%TD*%
D17*
%TO.C,U4*%
X101830000Y-102770000D03*
X101830000Y-104040000D03*
X101830000Y-105310000D03*
X101830000Y-106580000D03*
X107170000Y-106580000D03*
X107170000Y-105310000D03*
X107170000Y-104040000D03*
X107170000Y-102770000D03*
%TD*%
D11*
%TO.C,D8*%
X108000000Y-94000000D03*
X108000000Y-91025000D03*
%TD*%
D12*
%TO.C,D3*%
X101000000Y-97000000D03*
X101000000Y-99975000D03*
%TD*%
D18*
%TO.C,R2*%
X112000000Y-104000000D03*
X112000000Y-105825000D03*
%TD*%
M02*
