%TF.GenerationSoftware,KiCad,Pcbnew,8.0.2-8.0.2-0~ubuntu22.04.1*%
%TF.CreationDate,2024-05-15T17:42:07+09:00*%
%TF.ProjectId,sensor_emitter_board,73656e73-6f72-45f6-956d-69747465725f,rev?*%
%TF.SameCoordinates,Original*%
%TF.FileFunction,Copper,L2,Bot*%
%TF.FilePolarity,Positive*%
%FSLAX46Y46*%
G04 Gerber Fmt 4.6, Leading zero omitted, Abs format (unit mm)*
G04 Created by KiCad (PCBNEW 8.0.2-8.0.2-0~ubuntu22.04.1) date 2024-05-15 17:42:07*
%MOMM*%
%LPD*%
G01*
G04 APERTURE LIST*
%TA.AperFunction,ComponentPad*%
%ADD10R,1.700000X1.700000*%
%TD*%
%TA.AperFunction,ComponentPad*%
%ADD11O,1.700000X1.700000*%
%TD*%
%TA.AperFunction,SMDPad,CuDef*%
%ADD12R,1.750000X1.800000*%
%TD*%
%TA.AperFunction,ViaPad*%
%ADD13C,0.800000*%
%TD*%
%TA.AperFunction,Conductor*%
%ADD14C,2.000000*%
%TD*%
%TA.AperFunction,Conductor*%
%ADD15C,0.500000*%
%TD*%
%TA.AperFunction,Conductor*%
%ADD16C,1.000000*%
%TD*%
G04 APERTURE END LIST*
D10*
%TO.P,J2,1,Pin_1*%
%TO.N,/LED_POWER_2*%
X98300000Y-87500000D03*
D11*
%TO.P,J2,2,Pin_2*%
%TO.N,GND2*%
X100840000Y-87500000D03*
%TO.P,J2,3,Pin_3*%
%TO.N,/VCC_2*%
X103380000Y-87500000D03*
%TO.P,J2,4,Pin_4*%
%TO.N,/LED_CONTROL_2*%
X105920000Y-87500000D03*
%TO.P,J2,5,Pin_5*%
%TO.N,/LEFT_SIGNAL_2*%
X108460000Y-87500000D03*
%TO.P,J2,6,Pin_6*%
%TO.N,/RIGHT_SIGNAL_2*%
X111000000Y-87500000D03*
%TD*%
D12*
%TO.P,D9,A*%
%TO.N,Net-(U4-VINB-)*%
X115650000Y-105970000D03*
%TO.P,D9,K*%
%TO.N,GND2*%
X108500000Y-105970000D03*
%TD*%
%TO.P,D10,A*%
%TO.N,Net-(U4-VINA-)*%
X93425000Y-105970000D03*
%TO.P,D10,K*%
%TO.N,GND2*%
X100575000Y-105970000D03*
%TD*%
D13*
%TO.N,Net-(U4-VINB-)*%
X115500000Y-106000000D03*
%TO.N,Net-(U4-VINA-)*%
X101830000Y-104040000D03*
X93500000Y-106000000D03*
%TO.N,/LED_POWER_2*%
X98000000Y-99500000D03*
X97000000Y-99500000D03*
X98000000Y-90500000D03*
X97000000Y-100500000D03*
X97000000Y-90500000D03*
X97000000Y-91500000D03*
X98000000Y-100500000D03*
X98000000Y-91500000D03*
%TO.N,GND2*%
X108707519Y-106405660D03*
X111500000Y-91000000D03*
X110500000Y-92000000D03*
X100242710Y-106379931D03*
X111500000Y-92000000D03*
X110500000Y-91000000D03*
%TO.N,/VCC_2*%
X107170000Y-102770000D03*
%TD*%
D14*
%TO.N,/LED_POWER_2*%
X98300000Y-87500000D02*
X98300000Y-89200000D01*
X98300000Y-89200000D02*
X97000000Y-90500000D01*
D15*
%TO.N,Net-(U4-VINB-)*%
X115530000Y-105970000D02*
X115500000Y-106000000D01*
X115650000Y-105970000D02*
X115530000Y-105970000D01*
%TO.N,Net-(U4-VINA-)*%
X93395000Y-106000000D02*
X93425000Y-105970000D01*
X93455000Y-105940000D02*
X93500000Y-105895000D01*
X93500000Y-106000000D02*
X93395000Y-106000000D01*
X93500000Y-105895000D02*
X93500000Y-106000000D01*
X101830000Y-104040000D02*
X101635000Y-104040000D01*
D14*
%TO.N,/LED_POWER_2*%
X98000000Y-90500000D02*
X98000000Y-100500000D01*
X97000000Y-90500000D02*
X97000000Y-100500000D01*
%TO.N,GND2*%
X100840000Y-88702081D02*
X103637919Y-91500000D01*
X103637919Y-91500000D02*
X111500000Y-91500000D01*
D15*
X100500000Y-106122641D02*
X100500000Y-106000000D01*
D14*
X100840000Y-87500000D02*
X100840000Y-88702081D01*
D15*
X100242710Y-106379931D02*
X100500000Y-106122641D01*
D16*
%TO.N,/VCC_2*%
X105380000Y-89500000D02*
X103380000Y-87500000D01*
X112250000Y-89500000D02*
X105380000Y-89500000D01*
X115000000Y-92250000D02*
X112250000Y-89500000D01*
X107170000Y-102770000D02*
X112230000Y-102770000D01*
X115000000Y-100000000D02*
X115000000Y-92250000D01*
X112230000Y-102770000D02*
X115000000Y-100000000D01*
%TD*%
%TA.AperFunction,Conductor*%
%TO.N,GND2*%
G36*
X93687552Y-88508651D02*
G01*
X93687650Y-88508331D01*
X93690904Y-88509317D01*
X93692280Y-88509591D01*
X93693580Y-88510130D01*
X93896535Y-88550500D01*
X93896536Y-88550500D01*
X94103464Y-88550500D01*
X94103465Y-88550500D01*
X94306420Y-88510130D01*
X94307719Y-88509591D01*
X94309095Y-88509317D01*
X94312350Y-88508331D01*
X94312447Y-88508651D01*
X94355939Y-88500000D01*
X96562468Y-88500000D01*
X96630589Y-88520002D01*
X96677082Y-88573658D01*
X96687186Y-88643932D01*
X96657692Y-88708512D01*
X96651563Y-88715095D01*
X96289867Y-89076791D01*
X96017281Y-89349377D01*
X96017278Y-89349380D01*
X95933328Y-89433330D01*
X95849378Y-89517279D01*
X95795456Y-89591499D01*
X95795455Y-89591500D01*
X95709817Y-89709369D01*
X95602019Y-89920935D01*
X95602016Y-89920941D01*
X95528645Y-90146754D01*
X95528644Y-90146757D01*
X95528644Y-90146759D01*
X95507010Y-90283353D01*
X95491499Y-90381281D01*
X95491499Y-90623914D01*
X95491500Y-90623939D01*
X95491500Y-100618722D01*
X95528644Y-100853241D01*
X95528645Y-100853246D01*
X95602016Y-101079058D01*
X95602018Y-101079063D01*
X95709815Y-101290627D01*
X95849380Y-101482722D01*
X95849382Y-101482724D01*
X95849384Y-101482727D01*
X96017272Y-101650615D01*
X96017275Y-101650617D01*
X96017278Y-101650620D01*
X96209373Y-101790185D01*
X96420937Y-101897982D01*
X96646759Y-101971356D01*
X96881278Y-102008500D01*
X96881281Y-102008500D01*
X97118719Y-102008500D01*
X97118722Y-102008500D01*
X97353241Y-101971356D01*
X97461064Y-101936321D01*
X97532031Y-101934294D01*
X97538923Y-101936317D01*
X97646759Y-101971356D01*
X97881278Y-102008500D01*
X97881281Y-102008500D01*
X98118719Y-102008500D01*
X98118722Y-102008500D01*
X98353241Y-101971356D01*
X98579063Y-101897982D01*
X98790627Y-101790185D01*
X98982722Y-101650620D01*
X99150620Y-101482722D01*
X99290185Y-101290627D01*
X99397982Y-101079063D01*
X99471356Y-100853241D01*
X99508500Y-100618722D01*
X99508500Y-90381278D01*
X99480485Y-90204398D01*
X99489585Y-90133989D01*
X99502992Y-90110636D01*
X99590185Y-89990627D01*
X99697982Y-89779063D01*
X99746024Y-89631206D01*
X99771357Y-89553241D01*
X99808501Y-89318722D01*
X99808501Y-89081278D01*
X99808501Y-89076821D01*
X99808500Y-89076791D01*
X99808500Y-88675747D01*
X99828502Y-88607626D01*
X99882158Y-88561133D01*
X99952432Y-88551029D01*
X100011891Y-88576316D01*
X100094690Y-88640762D01*
X100094699Y-88640768D01*
X100292628Y-88747882D01*
X100292630Y-88747883D01*
X100505483Y-88820955D01*
X100505492Y-88820957D01*
X100586000Y-88834391D01*
X100586000Y-88500000D01*
X101094000Y-88500000D01*
X101094000Y-88834390D01*
X101174507Y-88820957D01*
X101174516Y-88820955D01*
X101387369Y-88747883D01*
X101387371Y-88747882D01*
X101585300Y-88640768D01*
X101585301Y-88640767D01*
X101732025Y-88526568D01*
X101798068Y-88500512D01*
X101809416Y-88500000D01*
X102409770Y-88500000D01*
X102477891Y-88520002D01*
X102487161Y-88526569D01*
X102614909Y-88626000D01*
X102634424Y-88641189D01*
X102832426Y-88748342D01*
X102832427Y-88748342D01*
X102832428Y-88748343D01*
X102944227Y-88786723D01*
X103045365Y-88821444D01*
X103267431Y-88858500D01*
X103267442Y-88858500D01*
X103270288Y-88858736D01*
X103271383Y-88859158D01*
X103272571Y-88859357D01*
X103272530Y-88859601D01*
X103336524Y-88884296D01*
X103348977Y-88895211D01*
X104596647Y-90142881D01*
X104737119Y-90283353D01*
X104902296Y-90393721D01*
X105085831Y-90469744D01*
X105280671Y-90508500D01*
X111780076Y-90508500D01*
X111848197Y-90528502D01*
X111869171Y-90545405D01*
X113954595Y-92630829D01*
X113988621Y-92693141D01*
X113991500Y-92719924D01*
X113991500Y-99530075D01*
X113971498Y-99598196D01*
X113954595Y-99619170D01*
X111849171Y-101724595D01*
X111786859Y-101758620D01*
X111760076Y-101761500D01*
X107070668Y-101761500D01*
X106875830Y-101800256D01*
X106875825Y-101800258D01*
X106692296Y-101876279D01*
X106527123Y-101986644D01*
X106527116Y-101986649D01*
X106386649Y-102127116D01*
X106386644Y-102127123D01*
X106276279Y-102292296D01*
X106200258Y-102475825D01*
X106200256Y-102475830D01*
X106161500Y-102670668D01*
X106161500Y-102670671D01*
X106161500Y-102869329D01*
X106200256Y-103064169D01*
X106276279Y-103247704D01*
X106386647Y-103412881D01*
X106527119Y-103553353D01*
X106692296Y-103663721D01*
X106875831Y-103739744D01*
X107070671Y-103778500D01*
X107070672Y-103778500D01*
X112329328Y-103778500D01*
X112329329Y-103778500D01*
X112524169Y-103739744D01*
X112707704Y-103663721D01*
X112872881Y-103553353D01*
X113013353Y-103412881D01*
X113013352Y-103412881D01*
X113072857Y-103353376D01*
X113072856Y-103353376D01*
X115783354Y-100642881D01*
X115893722Y-100477703D01*
X115955234Y-100329199D01*
X115969744Y-100294169D01*
X116008500Y-100099329D01*
X116008500Y-92150671D01*
X115969744Y-91955831D01*
X115893721Y-91772296D01*
X115783353Y-91607119D01*
X115642881Y-91466647D01*
X112892881Y-88716647D01*
X112891329Y-88715095D01*
X112857303Y-88652783D01*
X112862368Y-88581968D01*
X112904915Y-88525132D01*
X112971435Y-88500321D01*
X112980424Y-88500000D01*
X114644061Y-88500000D01*
X114687552Y-88508651D01*
X114687650Y-88508331D01*
X114690904Y-88509317D01*
X114692280Y-88509591D01*
X114693580Y-88510130D01*
X114896535Y-88550500D01*
X114896536Y-88550500D01*
X115103464Y-88550500D01*
X115103465Y-88550500D01*
X115306420Y-88510130D01*
X115307719Y-88509591D01*
X115309095Y-88509317D01*
X115312350Y-88508331D01*
X115312447Y-88508651D01*
X115355939Y-88500000D01*
X117374000Y-88500000D01*
X117442121Y-88520002D01*
X117488614Y-88573658D01*
X117500000Y-88626000D01*
X117500000Y-107374000D01*
X117479998Y-107442121D01*
X117426342Y-107488614D01*
X117374000Y-107500000D01*
X116910509Y-107500000D01*
X116842388Y-107479998D01*
X116795895Y-107426342D01*
X116785791Y-107356068D01*
X116815285Y-107291488D01*
X116835000Y-107273132D01*
X116888261Y-107233261D01*
X116975887Y-107116207D01*
X116975887Y-107116206D01*
X116975889Y-107116204D01*
X117026989Y-106979201D01*
X117033500Y-106918638D01*
X117033500Y-105021362D01*
X117027001Y-104960906D01*
X117026990Y-104960803D01*
X117026988Y-104960795D01*
X116978620Y-104831118D01*
X116975889Y-104823796D01*
X116975888Y-104823794D01*
X116975887Y-104823792D01*
X116888261Y-104706738D01*
X116771207Y-104619112D01*
X116771202Y-104619110D01*
X116634204Y-104568011D01*
X116634196Y-104568009D01*
X116573649Y-104561500D01*
X116573638Y-104561500D01*
X114726362Y-104561500D01*
X114726350Y-104561500D01*
X114665803Y-104568009D01*
X114665795Y-104568011D01*
X114528797Y-104619110D01*
X114528792Y-104619112D01*
X114411738Y-104706738D01*
X114324112Y-104823792D01*
X114324110Y-104823797D01*
X114273011Y-104960795D01*
X114273009Y-104960803D01*
X114266500Y-105021350D01*
X114266500Y-106918649D01*
X114273009Y-106979196D01*
X114273011Y-106979204D01*
X114324110Y-107116202D01*
X114324112Y-107116207D01*
X114411738Y-107233261D01*
X114465000Y-107273132D01*
X114507547Y-107329967D01*
X114512612Y-107400783D01*
X114478586Y-107463095D01*
X114416274Y-107497121D01*
X114389491Y-107500000D01*
X109759676Y-107500000D01*
X109691555Y-107479998D01*
X109645062Y-107426342D01*
X109634958Y-107356068D01*
X109664452Y-107291488D01*
X109684166Y-107273132D01*
X109737905Y-107232902D01*
X109825444Y-107115965D01*
X109825444Y-107115964D01*
X109876494Y-106979093D01*
X109882999Y-106918597D01*
X109883000Y-106918585D01*
X109883000Y-106224000D01*
X107117000Y-106224000D01*
X107117000Y-106918597D01*
X107123505Y-106979093D01*
X107174555Y-107115964D01*
X107174555Y-107115965D01*
X107262094Y-107232902D01*
X107315834Y-107273132D01*
X107358380Y-107329968D01*
X107363444Y-107400784D01*
X107329419Y-107463096D01*
X107267106Y-107497121D01*
X107240324Y-107500000D01*
X101834676Y-107500000D01*
X101766555Y-107479998D01*
X101720062Y-107426342D01*
X101709958Y-107356068D01*
X101739452Y-107291488D01*
X101759166Y-107273132D01*
X101812905Y-107232902D01*
X101900444Y-107115965D01*
X101900444Y-107115964D01*
X101951494Y-106979093D01*
X101957999Y-106918597D01*
X101958000Y-106918585D01*
X101958000Y-106224000D01*
X99192000Y-106224000D01*
X99192000Y-106918597D01*
X99198505Y-106979093D01*
X99249555Y-107115964D01*
X99249555Y-107115965D01*
X99337094Y-107232902D01*
X99390834Y-107273132D01*
X99433380Y-107329968D01*
X99438444Y-107400784D01*
X99404419Y-107463096D01*
X99342106Y-107497121D01*
X99315324Y-107500000D01*
X94685509Y-107500000D01*
X94617388Y-107479998D01*
X94570895Y-107426342D01*
X94560791Y-107356068D01*
X94590285Y-107291488D01*
X94610000Y-107273132D01*
X94663261Y-107233261D01*
X94750887Y-107116207D01*
X94750887Y-107116206D01*
X94750889Y-107116204D01*
X94801989Y-106979201D01*
X94808500Y-106918638D01*
X94808500Y-105021402D01*
X99192000Y-105021402D01*
X99192000Y-105716000D01*
X100321000Y-105716000D01*
X100321000Y-104562000D01*
X100829000Y-104562000D01*
X100829000Y-105716000D01*
X101958000Y-105716000D01*
X101958000Y-105043622D01*
X101964524Y-105021402D01*
X107117000Y-105021402D01*
X107117000Y-105716000D01*
X108246000Y-105716000D01*
X108754000Y-105716000D01*
X109883000Y-105716000D01*
X109883000Y-105021414D01*
X109882999Y-105021402D01*
X109876494Y-104960906D01*
X109825444Y-104824035D01*
X109825444Y-104824034D01*
X109737904Y-104707095D01*
X109620965Y-104619555D01*
X109484093Y-104568505D01*
X109423597Y-104562000D01*
X108754000Y-104562000D01*
X108754000Y-105716000D01*
X108246000Y-105716000D01*
X108246000Y-104562000D01*
X107576402Y-104562000D01*
X107515906Y-104568505D01*
X107379035Y-104619555D01*
X107379034Y-104619555D01*
X107262095Y-104707095D01*
X107174555Y-104824034D01*
X107174555Y-104824035D01*
X107123505Y-104960906D01*
X107117000Y-105021402D01*
X101964524Y-105021402D01*
X101978002Y-104975501D01*
X102031658Y-104929008D01*
X102057801Y-104920375D01*
X102112288Y-104908794D01*
X102286752Y-104831118D01*
X102441253Y-104718866D01*
X102569040Y-104576944D01*
X102664527Y-104411556D01*
X102723542Y-104229928D01*
X102743504Y-104040000D01*
X102723542Y-103850072D01*
X102664527Y-103668444D01*
X102569040Y-103503056D01*
X102569038Y-103503054D01*
X102569034Y-103503048D01*
X102441255Y-103361135D01*
X102286752Y-103248882D01*
X102112288Y-103171206D01*
X101925487Y-103131500D01*
X101734513Y-103131500D01*
X101547711Y-103171206D01*
X101373247Y-103248882D01*
X101218744Y-103361135D01*
X101090960Y-103503054D01*
X101090954Y-103503063D01*
X101087903Y-103508347D01*
X101067892Y-103534425D01*
X101045834Y-103556484D01*
X101045827Y-103556493D01*
X100962828Y-103680711D01*
X100962826Y-103680715D01*
X100905650Y-103818750D01*
X100905649Y-103818753D01*
X100876500Y-103965290D01*
X100876500Y-104114709D01*
X100905649Y-104261246D01*
X100905650Y-104261249D01*
X100958062Y-104387782D01*
X100965651Y-104458372D01*
X100933872Y-104521859D01*
X100872814Y-104558086D01*
X100841653Y-104562000D01*
X100829000Y-104562000D01*
X100321000Y-104562000D01*
X99651402Y-104562000D01*
X99590906Y-104568505D01*
X99454035Y-104619555D01*
X99454034Y-104619555D01*
X99337095Y-104707095D01*
X99249555Y-104824034D01*
X99249555Y-104824035D01*
X99198505Y-104960906D01*
X99192000Y-105021402D01*
X94808500Y-105021402D01*
X94808500Y-105021362D01*
X94802001Y-104960906D01*
X94801990Y-104960803D01*
X94801988Y-104960795D01*
X94753620Y-104831118D01*
X94750889Y-104823796D01*
X94750888Y-104823794D01*
X94750887Y-104823792D01*
X94663261Y-104706738D01*
X94546207Y-104619112D01*
X94546202Y-104619110D01*
X94409204Y-104568011D01*
X94409196Y-104568009D01*
X94348649Y-104561500D01*
X94348638Y-104561500D01*
X92501362Y-104561500D01*
X92501350Y-104561500D01*
X92440803Y-104568009D01*
X92440795Y-104568011D01*
X92303797Y-104619110D01*
X92303792Y-104619112D01*
X92186738Y-104706738D01*
X92099112Y-104823792D01*
X92099110Y-104823797D01*
X92048011Y-104960795D01*
X92048009Y-104960803D01*
X92041500Y-105021350D01*
X92041500Y-106918649D01*
X92048009Y-106979196D01*
X92048011Y-106979204D01*
X92099110Y-107116202D01*
X92099112Y-107116207D01*
X92186738Y-107233261D01*
X92240000Y-107273132D01*
X92282547Y-107329967D01*
X92287612Y-107400783D01*
X92253586Y-107463095D01*
X92191274Y-107497121D01*
X92164491Y-107500000D01*
X91626000Y-107500000D01*
X91557879Y-107479998D01*
X91511386Y-107426342D01*
X91500000Y-107374000D01*
X91500000Y-88626000D01*
X91520002Y-88557879D01*
X91573658Y-88511386D01*
X91626000Y-88500000D01*
X93644061Y-88500000D01*
X93687552Y-88508651D01*
G37*
%TD.AperFunction*%
%TD*%
M02*
