M48
; DRILL file {KiCad 8.0.2-8.0.2-0~ubuntu22.04.1} date 2024-05-15T17:42:07+0900
; FORMAT={-:-/ absolute / inch / decimal}
; #@! TF.CreationDate,2024-05-15T17:42:07+09:00
; #@! TF.GenerationSoftware,Kicad,Pcbnew,8.0.2-8.0.2-0~ubuntu22.04.1
; #@! TF.FileFunction,Plated,1,2,PTH
FMAT,2
INCH
; #@! TA.AperFunction,Plated,PTH,ViaDrill
T1C0.0157
; #@! TA.AperFunction,Plated,PTH,ComponentDrill
T2C0.0394
%
G90
G05
T1
X3.6811Y-4.1732
X3.8189Y-3.563
X3.8189Y-3.6024
X3.8189Y-3.9173
X3.8189Y-3.9567
X3.8583Y-3.563
X3.8583Y-3.6024
X3.8583Y-3.9173
X3.8583Y-3.9567
X3.9466Y-4.1882
X4.0091Y-4.0961
X4.2193Y-4.0461
X4.2798Y-4.1892
X4.3504Y-3.5827
X4.3504Y-3.622
X4.3898Y-3.5827
X4.3898Y-3.622
X4.5472Y-4.1732
T2
X3.8701Y-3.4449
X3.9701Y-3.4449
X4.0701Y-3.4449
X4.1701Y-3.4449
X4.2701Y-3.4449
X4.3701Y-3.4449
M30
